G04 #@! TF.GenerationSoftware,KiCad,Pcbnew,(5.1.9)-1*
G04 #@! TF.CreationDate,2021-04-27T18:11:47+02:00*
G04 #@! TF.ProjectId,ADS1299Wing,41445331-3239-4395-9769-6e672e6b6963,rev?*
G04 #@! TF.SameCoordinates,Original*
G04 #@! TF.FileFunction,Legend,Top*
G04 #@! TF.FilePolarity,Positive*
%FSLAX46Y46*%
G04 Gerber Fmt 4.6, Leading zero omitted, Abs format (unit mm)*
G04 Created by KiCad (PCBNEW (5.1.9)-1) date 2021-04-27 18:11:47*
%MOMM*%
%LPD*%
G01*
G04 APERTURE LIST*
%ADD10C,0.150000*%
%ADD11C,0.100000*%
%ADD12C,0.120000*%
%ADD13C,0.127000*%
%ADD14C,0.200000*%
%ADD15C,0.203200*%
G04 APERTURE END LIST*
D10*
X136601257Y-112984000D02*
X136544114Y-112955428D01*
X136458400Y-112955428D01*
X136372685Y-112984000D01*
X136315542Y-113041142D01*
X136286971Y-113098285D01*
X136258400Y-113212571D01*
X136258400Y-113298285D01*
X136286971Y-113412571D01*
X136315542Y-113469714D01*
X136372685Y-113526857D01*
X136458400Y-113555428D01*
X136515542Y-113555428D01*
X136601257Y-113526857D01*
X136629828Y-113498285D01*
X136629828Y-113298285D01*
X136515542Y-113298285D01*
X136886971Y-113555428D02*
X136886971Y-112955428D01*
X137229828Y-113555428D01*
X137229828Y-112955428D01*
X137515542Y-113555428D02*
X137515542Y-112955428D01*
X137658400Y-112955428D01*
X137744114Y-112984000D01*
X137801257Y-113041142D01*
X137829828Y-113098285D01*
X137858400Y-113212571D01*
X137858400Y-113298285D01*
X137829828Y-113412571D01*
X137801257Y-113469714D01*
X137744114Y-113526857D01*
X137658400Y-113555428D01*
X137515542Y-113555428D01*
D11*
G36*
X158343600Y-113893600D02*
G01*
X150418800Y-113893600D01*
X150418800Y-111556800D01*
X158343600Y-111556800D01*
X158343600Y-113893600D01*
G37*
X158343600Y-113893600D02*
X150418800Y-113893600D01*
X150418800Y-111556800D01*
X158343600Y-111556800D01*
X158343600Y-113893600D01*
D10*
X165993771Y-110445542D02*
X165965200Y-110502685D01*
X165936628Y-110531257D01*
X165879485Y-110559828D01*
X165850914Y-110559828D01*
X165793771Y-110531257D01*
X165765200Y-110502685D01*
X165736628Y-110445542D01*
X165736628Y-110331257D01*
X165765200Y-110274114D01*
X165793771Y-110245542D01*
X165850914Y-110216971D01*
X165879485Y-110216971D01*
X165936628Y-110245542D01*
X165965200Y-110274114D01*
X165993771Y-110331257D01*
X165993771Y-110445542D01*
X166022342Y-110502685D01*
X166050914Y-110531257D01*
X166108057Y-110559828D01*
X166222342Y-110559828D01*
X166279485Y-110531257D01*
X166308057Y-110502685D01*
X166336628Y-110445542D01*
X166336628Y-110331257D01*
X166308057Y-110274114D01*
X166279485Y-110245542D01*
X166222342Y-110216971D01*
X166108057Y-110216971D01*
X166050914Y-110245542D01*
X166022342Y-110274114D01*
X165993771Y-110331257D01*
X167038342Y-111002685D02*
X167066914Y-110916971D01*
X167095485Y-110888400D01*
X167152628Y-110859828D01*
X167238342Y-110859828D01*
X167295485Y-110888400D01*
X167324057Y-110916971D01*
X167352628Y-110974114D01*
X167352628Y-111202685D01*
X166752628Y-111202685D01*
X166752628Y-111002685D01*
X166781200Y-110945542D01*
X166809771Y-110916971D01*
X166866914Y-110888400D01*
X166924057Y-110888400D01*
X166981200Y-110916971D01*
X167009771Y-110945542D01*
X167038342Y-111002685D01*
X167038342Y-111202685D01*
X167352628Y-110602685D02*
X166952628Y-110602685D01*
X166752628Y-110602685D02*
X166781200Y-110631257D01*
X166809771Y-110602685D01*
X166781200Y-110574114D01*
X166752628Y-110602685D01*
X166809771Y-110602685D01*
X167352628Y-110059828D02*
X167038342Y-110059828D01*
X166981200Y-110088400D01*
X166952628Y-110145542D01*
X166952628Y-110259828D01*
X166981200Y-110316971D01*
X167324057Y-110059828D02*
X167352628Y-110116971D01*
X167352628Y-110259828D01*
X167324057Y-110316971D01*
X167266914Y-110345542D01*
X167209771Y-110345542D01*
X167152628Y-110316971D01*
X167124057Y-110259828D01*
X167124057Y-110116971D01*
X167095485Y-110059828D01*
X167324057Y-109802685D02*
X167352628Y-109745542D01*
X167352628Y-109631257D01*
X167324057Y-109574114D01*
X167266914Y-109545542D01*
X167238342Y-109545542D01*
X167181200Y-109574114D01*
X167152628Y-109631257D01*
X167152628Y-109716971D01*
X167124057Y-109774114D01*
X167066914Y-109802685D01*
X167038342Y-109802685D01*
X166981200Y-109774114D01*
X166952628Y-109716971D01*
X166952628Y-109631257D01*
X166981200Y-109574114D01*
X165685828Y-107429314D02*
X165685828Y-107543600D01*
X165714400Y-107600742D01*
X165742971Y-107629314D01*
X165828685Y-107686457D01*
X165942971Y-107715028D01*
X166171542Y-107715028D01*
X166228685Y-107686457D01*
X166257257Y-107657885D01*
X166285828Y-107600742D01*
X166285828Y-107486457D01*
X166257257Y-107429314D01*
X166228685Y-107400742D01*
X166171542Y-107372171D01*
X166028685Y-107372171D01*
X165971542Y-107400742D01*
X165942971Y-107429314D01*
X165914400Y-107486457D01*
X165914400Y-107600742D01*
X165942971Y-107657885D01*
X165971542Y-107686457D01*
X166028685Y-107715028D01*
X166701828Y-107743600D02*
X166701828Y-107343600D01*
X167301828Y-107600742D01*
X165936628Y-104889314D02*
X166336628Y-104889314D01*
X165708057Y-105032171D02*
X166136628Y-105175028D01*
X166136628Y-104803600D01*
X166752628Y-104860742D02*
X166752628Y-105146457D01*
X167038342Y-105175028D01*
X167009771Y-105146457D01*
X166981200Y-105089314D01*
X166981200Y-104946457D01*
X167009771Y-104889314D01*
X167038342Y-104860742D01*
X167095485Y-104832171D01*
X167238342Y-104832171D01*
X167295485Y-104860742D01*
X167324057Y-104889314D01*
X167352628Y-104946457D01*
X167352628Y-105089314D01*
X167324057Y-105146457D01*
X167295485Y-105175028D01*
X166701828Y-102714400D02*
X166701828Y-102342971D01*
X166930400Y-102542971D01*
X166930400Y-102457257D01*
X166958971Y-102400114D01*
X166987542Y-102371542D01*
X167044685Y-102342971D01*
X167187542Y-102342971D01*
X167244685Y-102371542D01*
X167273257Y-102400114D01*
X167301828Y-102457257D01*
X167301828Y-102628685D01*
X167273257Y-102685828D01*
X167244685Y-102714400D01*
X165742971Y-102685828D02*
X165714400Y-102657257D01*
X165685828Y-102600114D01*
X165685828Y-102457257D01*
X165714400Y-102400114D01*
X165742971Y-102371542D01*
X165800114Y-102342971D01*
X165857257Y-102342971D01*
X165942971Y-102371542D01*
X166285828Y-102714400D01*
X166285828Y-102342971D01*
X167251028Y-100514171D02*
X167251028Y-100857028D01*
X167251028Y-100685600D02*
X166651028Y-100685600D01*
X166736742Y-100742742D01*
X166793885Y-100799885D01*
X166822457Y-100857028D01*
X166257257Y-101457028D02*
X166285828Y-101371314D01*
X166285828Y-101228457D01*
X166257257Y-101171314D01*
X166228685Y-101142742D01*
X166171542Y-101114171D01*
X166114400Y-101114171D01*
X166057257Y-101142742D01*
X166028685Y-101171314D01*
X166000114Y-101228457D01*
X165971542Y-101342742D01*
X165942971Y-101399885D01*
X165914400Y-101428457D01*
X165857257Y-101457028D01*
X165800114Y-101457028D01*
X165742971Y-101428457D01*
X165714400Y-101399885D01*
X165685828Y-101342742D01*
X165685828Y-101199885D01*
X165714400Y-101114171D01*
X166285828Y-100514171D02*
X166000114Y-100714171D01*
X166285828Y-100857028D02*
X165685828Y-100857028D01*
X165685828Y-100628457D01*
X165714400Y-100571314D01*
X165742971Y-100542742D01*
X165800114Y-100514171D01*
X165885828Y-100514171D01*
X165942971Y-100542742D01*
X165971542Y-100571314D01*
X166000114Y-100628457D01*
X166000114Y-100857028D01*
X165971542Y-100057028D02*
X166000114Y-99971314D01*
X166028685Y-99942742D01*
X166085828Y-99914171D01*
X166171542Y-99914171D01*
X166228685Y-99942742D01*
X166257257Y-99971314D01*
X166285828Y-100028457D01*
X166285828Y-100257028D01*
X165685828Y-100257028D01*
X165685828Y-100057028D01*
X165714400Y-99999885D01*
X165742971Y-99971314D01*
X165800114Y-99942742D01*
X165857257Y-99942742D01*
X165914400Y-99971314D01*
X165942971Y-99999885D01*
X165971542Y-100057028D01*
X165971542Y-100257028D01*
D12*
X163498920Y-107617800D02*
X163780080Y-107617800D01*
X163498920Y-108637800D02*
X163780080Y-108637800D01*
X169612000Y-97646800D02*
X172272000Y-97646800D01*
X169612000Y-97586800D02*
X169612000Y-97646800D01*
X172272000Y-97586800D02*
X172272000Y-97646800D01*
X169612000Y-97586800D02*
X172272000Y-97586800D01*
X169612000Y-96316800D02*
X169612000Y-94986800D01*
X169612000Y-94986800D02*
X170942000Y-94986800D01*
X169408800Y-115071200D02*
X172068800Y-115071200D01*
X169408800Y-115011200D02*
X169408800Y-115071200D01*
X172068800Y-115011200D02*
X172068800Y-115071200D01*
X169408800Y-115011200D02*
X172068800Y-115011200D01*
X169408800Y-113741200D02*
X169408800Y-112411200D01*
X169408800Y-112411200D02*
X170738800Y-112411200D01*
X156925781Y-108648500D02*
G75*
G03*
X156925781Y-108648500I-283981J0D01*
G01*
X154578800Y-108996000D02*
X155528800Y-108996000D01*
X155528800Y-108996000D02*
X155528800Y-108046000D01*
X146258800Y-108996000D02*
X145308800Y-108996000D01*
X145308800Y-108996000D02*
X145308800Y-108046000D01*
X146258800Y-98776000D02*
X145308800Y-98776000D01*
X145308800Y-98776000D02*
X145308800Y-99726000D01*
X154578800Y-98776000D02*
X155528800Y-98776000D01*
X155528800Y-98776000D02*
X155528800Y-99726000D01*
X155528800Y-108046000D02*
X156818800Y-108046000D01*
X141461258Y-99074500D02*
X140986742Y-99074500D01*
X141461258Y-98029500D02*
X140986742Y-98029500D01*
X168151500Y-98633600D02*
X169481500Y-98633600D01*
X168151500Y-99963600D02*
X168151500Y-98633600D01*
X170751500Y-98633600D02*
X173351500Y-98633600D01*
X170751500Y-101233600D02*
X170751500Y-98633600D01*
X168151500Y-101233600D02*
X170751500Y-101233600D01*
X173351500Y-98633600D02*
X173351500Y-111453600D01*
X168151500Y-101233600D02*
X168151500Y-111453600D01*
X168151500Y-111453600D02*
X173351500Y-111453600D01*
X130823580Y-102491000D02*
X130542420Y-102491000D01*
X130823580Y-101471000D02*
X130542420Y-101471000D01*
X130887080Y-107249500D02*
X130605920Y-107249500D01*
X130887080Y-108269500D02*
X130605920Y-108269500D01*
X129347500Y-110884580D02*
X129347500Y-110603420D01*
X130367500Y-110884580D02*
X130367500Y-110603420D01*
X135901820Y-109421200D02*
X136182980Y-109421200D01*
X135901820Y-110441200D02*
X136182980Y-110441200D01*
X163537020Y-101445600D02*
X163818180Y-101445600D01*
X163537020Y-102465600D02*
X163818180Y-102465600D01*
X166228300Y-97827220D02*
X166228300Y-98108380D01*
X167248300Y-97827220D02*
X167248300Y-98108380D01*
X163549720Y-100954300D02*
X163830880Y-100954300D01*
X163549720Y-99934300D02*
X163830880Y-99934300D01*
X160719380Y-97334800D02*
X160438220Y-97334800D01*
X160719380Y-96314800D02*
X160438220Y-96314800D01*
X163371920Y-113997200D02*
X163653080Y-113997200D01*
X163371920Y-112977200D02*
X163653080Y-112977200D01*
X163498920Y-106119200D02*
X163780080Y-106119200D01*
X163498920Y-107139200D02*
X163780080Y-107139200D01*
X144082080Y-110894400D02*
X143800920Y-110894400D01*
X144082080Y-111914400D02*
X143800920Y-111914400D01*
X144082080Y-110428500D02*
X143800920Y-110428500D01*
X144082080Y-109408500D02*
X143800920Y-109408500D01*
X128018000Y-99109920D02*
X128018000Y-99391080D01*
X126998000Y-99109920D02*
X126998000Y-99391080D01*
X130769000Y-94377000D02*
X134619000Y-94377000D01*
X130769000Y-96377000D02*
X134619000Y-96377000D01*
X130769000Y-94377000D02*
X130769000Y-96377000D01*
X135534500Y-108367500D02*
X137819500Y-108367500D01*
X137819500Y-108367500D02*
X137819500Y-106897500D01*
X137819500Y-106897500D02*
X135534500Y-106897500D01*
X137781400Y-102897000D02*
X135496400Y-102897000D01*
X137781400Y-104367000D02*
X137781400Y-102897000D01*
X135496400Y-104367000D02*
X137781400Y-104367000D01*
X140902458Y-103214700D02*
X140427942Y-103214700D01*
X140902458Y-102169700D02*
X140427942Y-102169700D01*
X136571758Y-105649500D02*
X136097242Y-105649500D01*
X136571758Y-106694500D02*
X136097242Y-106694500D01*
X140902458Y-106551200D02*
X140427942Y-106551200D01*
X140902458Y-107596200D02*
X140427942Y-107596200D01*
X140902458Y-106135700D02*
X140427942Y-106135700D01*
X140902458Y-105090700D02*
X140427942Y-105090700D01*
X140902458Y-103630200D02*
X140427942Y-103630200D01*
X140902458Y-104675200D02*
X140427942Y-104675200D01*
X136059142Y-102630500D02*
X136533658Y-102630500D01*
X136059142Y-101585500D02*
X136533658Y-101585500D01*
X129465500Y-100733500D02*
X131915500Y-100733500D01*
X131265500Y-97513500D02*
X129465500Y-97513500D01*
D13*
X129042500Y-105232000D02*
X129042500Y-104572000D01*
X130827500Y-105702000D02*
X130157500Y-105702000D01*
X131942500Y-104572000D02*
X131942500Y-105232000D01*
D14*
X131642500Y-102492000D02*
G75*
G03*
X131642500Y-102492000I-100000J0D01*
G01*
D12*
X131041500Y-110225000D02*
X131041500Y-112025000D01*
X134261500Y-112025000D02*
X134261500Y-109575000D01*
X163171300Y-99514300D02*
X165621300Y-99514300D01*
X164971300Y-96294300D02*
X163171300Y-96294300D01*
X165249500Y-111694800D02*
X165249500Y-109894800D01*
X162029500Y-109894800D02*
X162029500Y-112344800D01*
X164837600Y-104992400D02*
X164837600Y-103592400D01*
X162517600Y-103592400D02*
X162517600Y-105492400D01*
D15*
X127641100Y-96113600D02*
G75*
G03*
X127641100Y-96113600I-2000000J0D01*
G01*
X127641100Y-113893600D02*
G75*
G03*
X127641100Y-113893600I-2000000J0D01*
G01*
D10*
X160394714Y-108350014D02*
X160356619Y-108388109D01*
X160242333Y-108426204D01*
X160166142Y-108426204D01*
X160051857Y-108388109D01*
X159975666Y-108311919D01*
X159937571Y-108235728D01*
X159899476Y-108083347D01*
X159899476Y-107969061D01*
X159937571Y-107816680D01*
X159975666Y-107740490D01*
X160051857Y-107664300D01*
X160166142Y-107626204D01*
X160242333Y-107626204D01*
X160356619Y-107664300D01*
X160394714Y-107702395D01*
X161156619Y-108426204D02*
X160699476Y-108426204D01*
X160928047Y-108426204D02*
X160928047Y-107626204D01*
X160851857Y-107740490D01*
X160775666Y-107816680D01*
X160699476Y-107854776D01*
X161613761Y-107969061D02*
X161537571Y-107930966D01*
X161499476Y-107892871D01*
X161461380Y-107816680D01*
X161461380Y-107778585D01*
X161499476Y-107702395D01*
X161537571Y-107664300D01*
X161613761Y-107626204D01*
X161766142Y-107626204D01*
X161842333Y-107664300D01*
X161880428Y-107702395D01*
X161918523Y-107778585D01*
X161918523Y-107816680D01*
X161880428Y-107892871D01*
X161842333Y-107930966D01*
X161766142Y-107969061D01*
X161613761Y-107969061D01*
X161537571Y-108007157D01*
X161499476Y-108045252D01*
X161461380Y-108121442D01*
X161461380Y-108273823D01*
X161499476Y-108350014D01*
X161537571Y-108388109D01*
X161613761Y-108426204D01*
X161766142Y-108426204D01*
X161842333Y-108388109D01*
X161880428Y-108350014D01*
X161918523Y-108273823D01*
X161918523Y-108121442D01*
X161880428Y-108045252D01*
X161842333Y-108007157D01*
X161766142Y-107969061D01*
X172559657Y-97262800D02*
X172559657Y-96805657D01*
X172245371Y-96548514D02*
X172216800Y-96519942D01*
X172188228Y-96462800D01*
X172188228Y-96319942D01*
X172216800Y-96262800D01*
X172245371Y-96234228D01*
X172302514Y-96205657D01*
X172359657Y-96205657D01*
X172445371Y-96234228D01*
X172788228Y-96577085D01*
X172788228Y-96205657D01*
X172731085Y-95948514D02*
X172759657Y-95919942D01*
X172788228Y-95948514D01*
X172759657Y-95977085D01*
X172731085Y-95948514D01*
X172788228Y-95948514D01*
X172188228Y-95377085D02*
X172188228Y-95662800D01*
X172473942Y-95691371D01*
X172445371Y-95662800D01*
X172416800Y-95605657D01*
X172416800Y-95462800D01*
X172445371Y-95405657D01*
X172473942Y-95377085D01*
X172531085Y-95348514D01*
X172673942Y-95348514D01*
X172731085Y-95377085D01*
X172759657Y-95405657D01*
X172788228Y-95462800D01*
X172788228Y-95605657D01*
X172759657Y-95662800D01*
X172731085Y-95691371D01*
X172188228Y-95177085D02*
X172788228Y-94977085D01*
X172188228Y-94777085D01*
X172458057Y-115144400D02*
X172458057Y-114687257D01*
X172686628Y-114915828D02*
X172229485Y-114915828D01*
X172143771Y-114430114D02*
X172115200Y-114401542D01*
X172086628Y-114344400D01*
X172086628Y-114201542D01*
X172115200Y-114144400D01*
X172143771Y-114115828D01*
X172200914Y-114087257D01*
X172258057Y-114087257D01*
X172343771Y-114115828D01*
X172686628Y-114458685D01*
X172686628Y-114087257D01*
X172629485Y-113830114D02*
X172658057Y-113801542D01*
X172686628Y-113830114D01*
X172658057Y-113858685D01*
X172629485Y-113830114D01*
X172686628Y-113830114D01*
X172086628Y-113258685D02*
X172086628Y-113544400D01*
X172372342Y-113572971D01*
X172343771Y-113544400D01*
X172315200Y-113487257D01*
X172315200Y-113344400D01*
X172343771Y-113287257D01*
X172372342Y-113258685D01*
X172429485Y-113230114D01*
X172572342Y-113230114D01*
X172629485Y-113258685D01*
X172658057Y-113287257D01*
X172686628Y-113344400D01*
X172686628Y-113487257D01*
X172658057Y-113544400D01*
X172629485Y-113572971D01*
X172086628Y-113058685D02*
X172686628Y-112858685D01*
X172086628Y-112658685D01*
X155803676Y-98317104D02*
X155803676Y-98964723D01*
X155841771Y-99040914D01*
X155879866Y-99079009D01*
X155956057Y-99117104D01*
X156108438Y-99117104D01*
X156184628Y-99079009D01*
X156222723Y-99040914D01*
X156260819Y-98964723D01*
X156260819Y-98317104D01*
X156984628Y-98583771D02*
X156984628Y-99117104D01*
X156794152Y-98279009D02*
X156603676Y-98850438D01*
X157098914Y-98850438D01*
X139935119Y-100310904D02*
X139668452Y-99929952D01*
X139477976Y-100310904D02*
X139477976Y-99510904D01*
X139782738Y-99510904D01*
X139858928Y-99549000D01*
X139897023Y-99587095D01*
X139935119Y-99663285D01*
X139935119Y-99777571D01*
X139897023Y-99853761D01*
X139858928Y-99891857D01*
X139782738Y-99929952D01*
X139477976Y-99929952D01*
X140697023Y-99549000D02*
X140620833Y-99510904D01*
X140506547Y-99510904D01*
X140392261Y-99549000D01*
X140316071Y-99625190D01*
X140277976Y-99701380D01*
X140239880Y-99853761D01*
X140239880Y-99968047D01*
X140277976Y-100120428D01*
X140316071Y-100196619D01*
X140392261Y-100272809D01*
X140506547Y-100310904D01*
X140582738Y-100310904D01*
X140697023Y-100272809D01*
X140735119Y-100234714D01*
X140735119Y-99968047D01*
X140582738Y-99968047D01*
X141077976Y-100310904D02*
X141077976Y-99510904D01*
X141535119Y-100310904D01*
X141535119Y-99510904D01*
X141916071Y-100310904D02*
X141916071Y-99510904D01*
X142106547Y-99510904D01*
X142220833Y-99549000D01*
X142297023Y-99625190D01*
X142335119Y-99701380D01*
X142373214Y-99853761D01*
X142373214Y-99968047D01*
X142335119Y-100120428D01*
X142297023Y-100196619D01*
X142220833Y-100272809D01*
X142106547Y-100310904D01*
X141916071Y-100310904D01*
X143135119Y-100310904D02*
X142677976Y-100310904D01*
X142906547Y-100310904D02*
X142906547Y-99510904D01*
X142830357Y-99625190D01*
X142754166Y-99701380D01*
X142677976Y-99739476D01*
X167779733Y-111677504D02*
X167779733Y-112248933D01*
X167741638Y-112363219D01*
X167665447Y-112439409D01*
X167551161Y-112477504D01*
X167474971Y-112477504D01*
X168579733Y-112477504D02*
X168122590Y-112477504D01*
X168351161Y-112477504D02*
X168351161Y-111677504D01*
X168274971Y-111791790D01*
X168198780Y-111867980D01*
X168122590Y-111906076D01*
X128263666Y-102393714D02*
X128225571Y-102431809D01*
X128111285Y-102469904D01*
X128035095Y-102469904D01*
X127920809Y-102431809D01*
X127844619Y-102355619D01*
X127806523Y-102279428D01*
X127768428Y-102127047D01*
X127768428Y-102012761D01*
X127806523Y-101860380D01*
X127844619Y-101784190D01*
X127920809Y-101708000D01*
X128035095Y-101669904D01*
X128111285Y-101669904D01*
X128225571Y-101708000D01*
X128263666Y-101746095D01*
X129025571Y-102469904D02*
X128568428Y-102469904D01*
X128797000Y-102469904D02*
X128797000Y-101669904D01*
X128720809Y-101784190D01*
X128644619Y-101860380D01*
X128568428Y-101898476D01*
X128073166Y-108108714D02*
X128035071Y-108146809D01*
X127920785Y-108184904D01*
X127844595Y-108184904D01*
X127730309Y-108146809D01*
X127654119Y-108070619D01*
X127616023Y-107994428D01*
X127577928Y-107842047D01*
X127577928Y-107727761D01*
X127616023Y-107575380D01*
X127654119Y-107499190D01*
X127730309Y-107423000D01*
X127844595Y-107384904D01*
X127920785Y-107384904D01*
X128035071Y-107423000D01*
X128073166Y-107461095D01*
X128377928Y-107461095D02*
X128416023Y-107423000D01*
X128492214Y-107384904D01*
X128682690Y-107384904D01*
X128758880Y-107423000D01*
X128796976Y-107461095D01*
X128835071Y-107537285D01*
X128835071Y-107613476D01*
X128796976Y-107727761D01*
X128339833Y-108184904D01*
X128835071Y-108184904D01*
X127946166Y-110267714D02*
X127908071Y-110305809D01*
X127793785Y-110343904D01*
X127717595Y-110343904D01*
X127603309Y-110305809D01*
X127527119Y-110229619D01*
X127489023Y-110153428D01*
X127450928Y-110001047D01*
X127450928Y-109886761D01*
X127489023Y-109734380D01*
X127527119Y-109658190D01*
X127603309Y-109582000D01*
X127717595Y-109543904D01*
X127793785Y-109543904D01*
X127908071Y-109582000D01*
X127946166Y-109620095D01*
X128212833Y-109543904D02*
X128708071Y-109543904D01*
X128441404Y-109848666D01*
X128555690Y-109848666D01*
X128631880Y-109886761D01*
X128669976Y-109924857D01*
X128708071Y-110001047D01*
X128708071Y-110191523D01*
X128669976Y-110267714D01*
X128631880Y-110305809D01*
X128555690Y-110343904D01*
X128327119Y-110343904D01*
X128250928Y-110305809D01*
X128212833Y-110267714D01*
X135858266Y-111639314D02*
X135820171Y-111677409D01*
X135705885Y-111715504D01*
X135629695Y-111715504D01*
X135515409Y-111677409D01*
X135439219Y-111601219D01*
X135401123Y-111525028D01*
X135363028Y-111372647D01*
X135363028Y-111258361D01*
X135401123Y-111105980D01*
X135439219Y-111029790D01*
X135515409Y-110953600D01*
X135629695Y-110915504D01*
X135705885Y-110915504D01*
X135820171Y-110953600D01*
X135858266Y-110991695D01*
X136543980Y-111182171D02*
X136543980Y-111715504D01*
X136353504Y-110877409D02*
X136163028Y-111448838D01*
X136658266Y-111448838D01*
X160420114Y-102241314D02*
X160382019Y-102279409D01*
X160267733Y-102317504D01*
X160191542Y-102317504D01*
X160077257Y-102279409D01*
X160001066Y-102203219D01*
X159962971Y-102127028D01*
X159924876Y-101974647D01*
X159924876Y-101860361D01*
X159962971Y-101707980D01*
X160001066Y-101631790D01*
X160077257Y-101555600D01*
X160191542Y-101517504D01*
X160267733Y-101517504D01*
X160382019Y-101555600D01*
X160420114Y-101593695D01*
X161182019Y-102317504D02*
X160724876Y-102317504D01*
X160953447Y-102317504D02*
X160953447Y-101517504D01*
X160877257Y-101631790D01*
X160801066Y-101707980D01*
X160724876Y-101746076D01*
X161486780Y-101593695D02*
X161524876Y-101555600D01*
X161601066Y-101517504D01*
X161791542Y-101517504D01*
X161867733Y-101555600D01*
X161905828Y-101593695D01*
X161943923Y-101669885D01*
X161943923Y-101746076D01*
X161905828Y-101860361D01*
X161448685Y-102317504D01*
X161943923Y-102317504D01*
X168586114Y-97694685D02*
X168624209Y-97732780D01*
X168662304Y-97847066D01*
X168662304Y-97923257D01*
X168624209Y-98037542D01*
X168548019Y-98113733D01*
X168471828Y-98151828D01*
X168319447Y-98189923D01*
X168205161Y-98189923D01*
X168052780Y-98151828D01*
X167976590Y-98113733D01*
X167900400Y-98037542D01*
X167862304Y-97923257D01*
X167862304Y-97847066D01*
X167900400Y-97732780D01*
X167938495Y-97694685D01*
X168662304Y-96932780D02*
X168662304Y-97389923D01*
X168662304Y-97161352D02*
X167862304Y-97161352D01*
X167976590Y-97237542D01*
X168052780Y-97313733D01*
X168090876Y-97389923D01*
X167862304Y-96666114D02*
X167862304Y-96170876D01*
X168167066Y-96437542D01*
X168167066Y-96323257D01*
X168205161Y-96247066D01*
X168243257Y-96208971D01*
X168319447Y-96170876D01*
X168509923Y-96170876D01*
X168586114Y-96208971D01*
X168624209Y-96247066D01*
X168662304Y-96323257D01*
X168662304Y-96551828D01*
X168624209Y-96628019D01*
X168586114Y-96666114D01*
X160470914Y-100768114D02*
X160432819Y-100806209D01*
X160318533Y-100844304D01*
X160242342Y-100844304D01*
X160128057Y-100806209D01*
X160051866Y-100730019D01*
X160013771Y-100653828D01*
X159975676Y-100501447D01*
X159975676Y-100387161D01*
X160013771Y-100234780D01*
X160051866Y-100158590D01*
X160128057Y-100082400D01*
X160242342Y-100044304D01*
X160318533Y-100044304D01*
X160432819Y-100082400D01*
X160470914Y-100120495D01*
X161232819Y-100844304D02*
X160775676Y-100844304D01*
X161004247Y-100844304D02*
X161004247Y-100044304D01*
X160928057Y-100158590D01*
X160851866Y-100234780D01*
X160775676Y-100272876D01*
X161918533Y-100310971D02*
X161918533Y-100844304D01*
X161728057Y-100006209D02*
X161537580Y-100577638D01*
X162032819Y-100577638D01*
X157143514Y-97174014D02*
X157105419Y-97212109D01*
X156991133Y-97250204D01*
X156914942Y-97250204D01*
X156800657Y-97212109D01*
X156724466Y-97135919D01*
X156686371Y-97059728D01*
X156648276Y-96907347D01*
X156648276Y-96793061D01*
X156686371Y-96640680D01*
X156724466Y-96564490D01*
X156800657Y-96488300D01*
X156914942Y-96450204D01*
X156991133Y-96450204D01*
X157105419Y-96488300D01*
X157143514Y-96526395D01*
X157905419Y-97250204D02*
X157448276Y-97250204D01*
X157676847Y-97250204D02*
X157676847Y-96450204D01*
X157600657Y-96564490D01*
X157524466Y-96640680D01*
X157448276Y-96678776D01*
X158629228Y-96450204D02*
X158248276Y-96450204D01*
X158210180Y-96831157D01*
X158248276Y-96793061D01*
X158324466Y-96754966D01*
X158514942Y-96754966D01*
X158591133Y-96793061D01*
X158629228Y-96831157D01*
X158667323Y-96907347D01*
X158667323Y-97097823D01*
X158629228Y-97174014D01*
X158591133Y-97212109D01*
X158514942Y-97250204D01*
X158324466Y-97250204D01*
X158248276Y-97212109D01*
X158210180Y-97174014D01*
X159912114Y-113811014D02*
X159874019Y-113849109D01*
X159759733Y-113887204D01*
X159683542Y-113887204D01*
X159569257Y-113849109D01*
X159493066Y-113772919D01*
X159454971Y-113696728D01*
X159416876Y-113544347D01*
X159416876Y-113430061D01*
X159454971Y-113277680D01*
X159493066Y-113201490D01*
X159569257Y-113125300D01*
X159683542Y-113087204D01*
X159759733Y-113087204D01*
X159874019Y-113125300D01*
X159912114Y-113163395D01*
X160674019Y-113887204D02*
X160216876Y-113887204D01*
X160445447Y-113887204D02*
X160445447Y-113087204D01*
X160369257Y-113201490D01*
X160293066Y-113277680D01*
X160216876Y-113315776D01*
X161054971Y-113887204D02*
X161207352Y-113887204D01*
X161283542Y-113849109D01*
X161321638Y-113811014D01*
X161397828Y-113696728D01*
X161435923Y-113544347D01*
X161435923Y-113239585D01*
X161397828Y-113163395D01*
X161359733Y-113125300D01*
X161283542Y-113087204D01*
X161131161Y-113087204D01*
X161054971Y-113125300D01*
X161016876Y-113163395D01*
X160978780Y-113239585D01*
X160978780Y-113430061D01*
X161016876Y-113506252D01*
X161054971Y-113544347D01*
X161131161Y-113582442D01*
X161283542Y-113582442D01*
X161359733Y-113544347D01*
X161397828Y-113506252D01*
X161435923Y-113430061D01*
X160394714Y-106914914D02*
X160356619Y-106953009D01*
X160242333Y-106991104D01*
X160166142Y-106991104D01*
X160051857Y-106953009D01*
X159975666Y-106876819D01*
X159937571Y-106800628D01*
X159899476Y-106648247D01*
X159899476Y-106533961D01*
X159937571Y-106381580D01*
X159975666Y-106305390D01*
X160051857Y-106229200D01*
X160166142Y-106191104D01*
X160242333Y-106191104D01*
X160356619Y-106229200D01*
X160394714Y-106267295D01*
X160699476Y-106267295D02*
X160737571Y-106229200D01*
X160813761Y-106191104D01*
X161004238Y-106191104D01*
X161080428Y-106229200D01*
X161118523Y-106267295D01*
X161156619Y-106343485D01*
X161156619Y-106419676D01*
X161118523Y-106533961D01*
X160661380Y-106991104D01*
X161156619Y-106991104D01*
X161651857Y-106191104D02*
X161728047Y-106191104D01*
X161804238Y-106229200D01*
X161842333Y-106267295D01*
X161880428Y-106343485D01*
X161918523Y-106495866D01*
X161918523Y-106686342D01*
X161880428Y-106838723D01*
X161842333Y-106914914D01*
X161804238Y-106953009D01*
X161728047Y-106991104D01*
X161651857Y-106991104D01*
X161575666Y-106953009D01*
X161537571Y-106914914D01*
X161499476Y-106838723D01*
X161461380Y-106686342D01*
X161461380Y-106495866D01*
X161499476Y-106343485D01*
X161537571Y-106267295D01*
X161575666Y-106229200D01*
X161651857Y-106191104D01*
X141001514Y-111652014D02*
X140963419Y-111690109D01*
X140849133Y-111728204D01*
X140772942Y-111728204D01*
X140658657Y-111690109D01*
X140582466Y-111613919D01*
X140544371Y-111537728D01*
X140506276Y-111385347D01*
X140506276Y-111271061D01*
X140544371Y-111118680D01*
X140582466Y-111042490D01*
X140658657Y-110966300D01*
X140772942Y-110928204D01*
X140849133Y-110928204D01*
X140963419Y-110966300D01*
X141001514Y-111004395D01*
X141306276Y-111004395D02*
X141344371Y-110966300D01*
X141420561Y-110928204D01*
X141611038Y-110928204D01*
X141687228Y-110966300D01*
X141725323Y-111004395D01*
X141763419Y-111080585D01*
X141763419Y-111156776D01*
X141725323Y-111271061D01*
X141268180Y-111728204D01*
X141763419Y-111728204D01*
X142487228Y-110928204D02*
X142106276Y-110928204D01*
X142068180Y-111309157D01*
X142106276Y-111271061D01*
X142182466Y-111232966D01*
X142372942Y-111232966D01*
X142449133Y-111271061D01*
X142487228Y-111309157D01*
X142525323Y-111385347D01*
X142525323Y-111575823D01*
X142487228Y-111652014D01*
X142449133Y-111690109D01*
X142372942Y-111728204D01*
X142182466Y-111728204D01*
X142106276Y-111690109D01*
X142068180Y-111652014D01*
X140963714Y-110153414D02*
X140925619Y-110191509D01*
X140811333Y-110229604D01*
X140735142Y-110229604D01*
X140620857Y-110191509D01*
X140544666Y-110115319D01*
X140506571Y-110039128D01*
X140468476Y-109886747D01*
X140468476Y-109772461D01*
X140506571Y-109620080D01*
X140544666Y-109543890D01*
X140620857Y-109467700D01*
X140735142Y-109429604D01*
X140811333Y-109429604D01*
X140925619Y-109467700D01*
X140963714Y-109505795D01*
X141268476Y-109505795D02*
X141306571Y-109467700D01*
X141382761Y-109429604D01*
X141573238Y-109429604D01*
X141649428Y-109467700D01*
X141687523Y-109505795D01*
X141725619Y-109581985D01*
X141725619Y-109658176D01*
X141687523Y-109772461D01*
X141230380Y-110229604D01*
X141725619Y-110229604D01*
X142411333Y-109429604D02*
X142258952Y-109429604D01*
X142182761Y-109467700D01*
X142144666Y-109505795D01*
X142068476Y-109620080D01*
X142030380Y-109772461D01*
X142030380Y-110077223D01*
X142068476Y-110153414D01*
X142106571Y-110191509D01*
X142182761Y-110229604D01*
X142335142Y-110229604D01*
X142411333Y-110191509D01*
X142449428Y-110153414D01*
X142487523Y-110077223D01*
X142487523Y-109886747D01*
X142449428Y-109810557D01*
X142411333Y-109772461D01*
X142335142Y-109734366D01*
X142182761Y-109734366D01*
X142106571Y-109772461D01*
X142068476Y-109810557D01*
X142030380Y-109886747D01*
X126396714Y-99815595D02*
X126434809Y-99853690D01*
X126472904Y-99967976D01*
X126472904Y-100044166D01*
X126434809Y-100158452D01*
X126358619Y-100234642D01*
X126282428Y-100272738D01*
X126130047Y-100310833D01*
X126015761Y-100310833D01*
X125863380Y-100272738D01*
X125787190Y-100234642D01*
X125711000Y-100158452D01*
X125672904Y-100044166D01*
X125672904Y-99967976D01*
X125711000Y-99853690D01*
X125749095Y-99815595D01*
X125672904Y-99587023D02*
X125672904Y-99129880D01*
X126472904Y-99358452D02*
X125672904Y-99358452D01*
X126472904Y-98444166D02*
X126472904Y-98901309D01*
X126472904Y-98672738D02*
X125672904Y-98672738D01*
X125787190Y-98748928D01*
X125863380Y-98825119D01*
X125901476Y-98901309D01*
X135426523Y-95738904D02*
X135426523Y-94938904D01*
X135617000Y-94938904D01*
X135731285Y-94977000D01*
X135807476Y-95053190D01*
X135845571Y-95129380D01*
X135883666Y-95281761D01*
X135883666Y-95396047D01*
X135845571Y-95548428D01*
X135807476Y-95624619D01*
X135731285Y-95700809D01*
X135617000Y-95738904D01*
X135426523Y-95738904D01*
X136645571Y-95738904D02*
X136188428Y-95738904D01*
X136417000Y-95738904D02*
X136417000Y-94938904D01*
X136340809Y-95053190D01*
X136264619Y-95129380D01*
X136188428Y-95167476D01*
X133267523Y-108057904D02*
X133267523Y-107257904D01*
X133458000Y-107257904D01*
X133572285Y-107296000D01*
X133648476Y-107372190D01*
X133686571Y-107448380D01*
X133724666Y-107600761D01*
X133724666Y-107715047D01*
X133686571Y-107867428D01*
X133648476Y-107943619D01*
X133572285Y-108019809D01*
X133458000Y-108057904D01*
X133267523Y-108057904D01*
X134029428Y-107334095D02*
X134067523Y-107296000D01*
X134143714Y-107257904D01*
X134334190Y-107257904D01*
X134410380Y-107296000D01*
X134448476Y-107334095D01*
X134486571Y-107410285D01*
X134486571Y-107486476D01*
X134448476Y-107600761D01*
X133991333Y-108057904D01*
X134486571Y-108057904D01*
X133229423Y-103993904D02*
X133229423Y-103193904D01*
X133419900Y-103193904D01*
X133534185Y-103232000D01*
X133610376Y-103308190D01*
X133648471Y-103384380D01*
X133686566Y-103536761D01*
X133686566Y-103651047D01*
X133648471Y-103803428D01*
X133610376Y-103879619D01*
X133534185Y-103955809D01*
X133419900Y-103993904D01*
X133229423Y-103993904D01*
X133953233Y-103193904D02*
X134448471Y-103193904D01*
X134181804Y-103498666D01*
X134296090Y-103498666D01*
X134372280Y-103536761D01*
X134410376Y-103574857D01*
X134448471Y-103651047D01*
X134448471Y-103841523D01*
X134410376Y-103917714D01*
X134372280Y-103955809D01*
X134296090Y-103993904D01*
X134067519Y-103993904D01*
X133991328Y-103955809D01*
X133953233Y-103917714D01*
X140195366Y-101657104D02*
X139928700Y-101276152D01*
X139738223Y-101657104D02*
X139738223Y-100857104D01*
X140042985Y-100857104D01*
X140119176Y-100895200D01*
X140157271Y-100933295D01*
X140195366Y-101009485D01*
X140195366Y-101123771D01*
X140157271Y-101199961D01*
X140119176Y-101238057D01*
X140042985Y-101276152D01*
X139738223Y-101276152D01*
X140538223Y-101657104D02*
X140538223Y-100857104D01*
X140728700Y-100857104D01*
X140842985Y-100895200D01*
X140919176Y-100971390D01*
X140957271Y-101047580D01*
X140995366Y-101199961D01*
X140995366Y-101314247D01*
X140957271Y-101466628D01*
X140919176Y-101542819D01*
X140842985Y-101619009D01*
X140728700Y-101657104D01*
X140538223Y-101657104D01*
X141757271Y-101657104D02*
X141300128Y-101657104D01*
X141528700Y-101657104D02*
X141528700Y-100857104D01*
X141452509Y-100971390D01*
X141376319Y-101047580D01*
X141300128Y-101085676D01*
X132943666Y-106533904D02*
X132677000Y-106152952D01*
X132486523Y-106533904D02*
X132486523Y-105733904D01*
X132791285Y-105733904D01*
X132867476Y-105772000D01*
X132905571Y-105810095D01*
X132943666Y-105886285D01*
X132943666Y-106000571D01*
X132905571Y-106076761D01*
X132867476Y-106114857D01*
X132791285Y-106152952D01*
X132486523Y-106152952D01*
X133286523Y-106533904D02*
X133286523Y-105733904D01*
X133477000Y-105733904D01*
X133591285Y-105772000D01*
X133667476Y-105848190D01*
X133705571Y-105924380D01*
X133743666Y-106076761D01*
X133743666Y-106191047D01*
X133705571Y-106343428D01*
X133667476Y-106419619D01*
X133591285Y-106495809D01*
X133477000Y-106533904D01*
X133286523Y-106533904D01*
X134048428Y-105810095D02*
X134086523Y-105772000D01*
X134162714Y-105733904D01*
X134353190Y-105733904D01*
X134429380Y-105772000D01*
X134467476Y-105810095D01*
X134505571Y-105886285D01*
X134505571Y-105962476D01*
X134467476Y-106076761D01*
X134010333Y-106533904D01*
X134505571Y-106533904D01*
X140131866Y-108896104D02*
X139865200Y-108515152D01*
X139674723Y-108896104D02*
X139674723Y-108096104D01*
X139979485Y-108096104D01*
X140055676Y-108134200D01*
X140093771Y-108172295D01*
X140131866Y-108248485D01*
X140131866Y-108362771D01*
X140093771Y-108438961D01*
X140055676Y-108477057D01*
X139979485Y-108515152D01*
X139674723Y-108515152D01*
X140474723Y-108896104D02*
X140474723Y-108096104D01*
X140665200Y-108096104D01*
X140779485Y-108134200D01*
X140855676Y-108210390D01*
X140893771Y-108286580D01*
X140931866Y-108438961D01*
X140931866Y-108553247D01*
X140893771Y-108705628D01*
X140855676Y-108781819D01*
X140779485Y-108858009D01*
X140665200Y-108896104D01*
X140474723Y-108896104D01*
X141198533Y-108096104D02*
X141693771Y-108096104D01*
X141427104Y-108400866D01*
X141541390Y-108400866D01*
X141617580Y-108438961D01*
X141655676Y-108477057D01*
X141693771Y-108553247D01*
X141693771Y-108743723D01*
X141655676Y-108819914D01*
X141617580Y-108858009D01*
X141541390Y-108896104D01*
X141312819Y-108896104D01*
X141236628Y-108858009D01*
X141198533Y-108819914D01*
X143262304Y-106705333D02*
X142881352Y-106972000D01*
X143262304Y-107162476D02*
X142462304Y-107162476D01*
X142462304Y-106857714D01*
X142500400Y-106781523D01*
X142538495Y-106743428D01*
X142614685Y-106705333D01*
X142728971Y-106705333D01*
X142805161Y-106743428D01*
X142843257Y-106781523D01*
X142881352Y-106857714D01*
X142881352Y-107162476D01*
X143262304Y-106362476D02*
X142462304Y-106362476D01*
X142462304Y-106172000D01*
X142500400Y-106057714D01*
X142576590Y-105981523D01*
X142652780Y-105943428D01*
X142805161Y-105905333D01*
X142919447Y-105905333D01*
X143071828Y-105943428D01*
X143148019Y-105981523D01*
X143224209Y-106057714D01*
X143262304Y-106172000D01*
X143262304Y-106362476D01*
X142728971Y-105219619D02*
X143262304Y-105219619D01*
X142424209Y-105410095D02*
X142995638Y-105600571D01*
X142995638Y-105105333D01*
X143211504Y-104012933D02*
X142830552Y-104279600D01*
X143211504Y-104470076D02*
X142411504Y-104470076D01*
X142411504Y-104165314D01*
X142449600Y-104089123D01*
X142487695Y-104051028D01*
X142563885Y-104012933D01*
X142678171Y-104012933D01*
X142754361Y-104051028D01*
X142792457Y-104089123D01*
X142830552Y-104165314D01*
X142830552Y-104470076D01*
X143211504Y-103670076D02*
X142411504Y-103670076D01*
X142411504Y-103479600D01*
X142449600Y-103365314D01*
X142525790Y-103289123D01*
X142601980Y-103251028D01*
X142754361Y-103212933D01*
X142868647Y-103212933D01*
X143021028Y-103251028D01*
X143097219Y-103289123D01*
X143173409Y-103365314D01*
X143211504Y-103479600D01*
X143211504Y-103670076D01*
X142411504Y-102489123D02*
X142411504Y-102870076D01*
X142792457Y-102908171D01*
X142754361Y-102870076D01*
X142716266Y-102793885D01*
X142716266Y-102603409D01*
X142754361Y-102527219D01*
X142792457Y-102489123D01*
X142868647Y-102451028D01*
X143059123Y-102451028D01*
X143135314Y-102489123D01*
X143173409Y-102527219D01*
X143211504Y-102603409D01*
X143211504Y-102793885D01*
X143173409Y-102870076D01*
X143135314Y-102908171D01*
X132905566Y-102533404D02*
X132638900Y-102152452D01*
X132448423Y-102533404D02*
X132448423Y-101733404D01*
X132753185Y-101733404D01*
X132829376Y-101771500D01*
X132867471Y-101809595D01*
X132905566Y-101885785D01*
X132905566Y-102000071D01*
X132867471Y-102076261D01*
X132829376Y-102114357D01*
X132753185Y-102152452D01*
X132448423Y-102152452D01*
X133248423Y-102533404D02*
X133248423Y-101733404D01*
X133438900Y-101733404D01*
X133553185Y-101771500D01*
X133629376Y-101847690D01*
X133667471Y-101923880D01*
X133705566Y-102076261D01*
X133705566Y-102190547D01*
X133667471Y-102342928D01*
X133629376Y-102419119D01*
X133553185Y-102495309D01*
X133438900Y-102533404D01*
X133248423Y-102533404D01*
X134391280Y-101733404D02*
X134238900Y-101733404D01*
X134162709Y-101771500D01*
X134124614Y-101809595D01*
X134048423Y-101923880D01*
X134010328Y-102076261D01*
X134010328Y-102381023D01*
X134048423Y-102457214D01*
X134086519Y-102495309D01*
X134162709Y-102533404D01*
X134315090Y-102533404D01*
X134391280Y-102495309D01*
X134429376Y-102457214D01*
X134467471Y-102381023D01*
X134467471Y-102190547D01*
X134429376Y-102114357D01*
X134391280Y-102076261D01*
X134315090Y-102038166D01*
X134162709Y-102038166D01*
X134086519Y-102076261D01*
X134048423Y-102114357D01*
X134010328Y-102190547D01*
X128676476Y-96145404D02*
X128676476Y-96793023D01*
X128714571Y-96869214D01*
X128752666Y-96907309D01*
X128828857Y-96945404D01*
X128981238Y-96945404D01*
X129057428Y-96907309D01*
X129095523Y-96869214D01*
X129133619Y-96793023D01*
X129133619Y-96145404D01*
X129438380Y-96145404D02*
X129933619Y-96145404D01*
X129666952Y-96450166D01*
X129781238Y-96450166D01*
X129857428Y-96488261D01*
X129895523Y-96526357D01*
X129933619Y-96602547D01*
X129933619Y-96793023D01*
X129895523Y-96869214D01*
X129857428Y-96907309D01*
X129781238Y-96945404D01*
X129552666Y-96945404D01*
X129476476Y-96907309D01*
X129438380Y-96869214D01*
X127768404Y-104940023D02*
X128416023Y-104940023D01*
X128492214Y-104901928D01*
X128530309Y-104863833D01*
X128568404Y-104787642D01*
X128568404Y-104635261D01*
X128530309Y-104559071D01*
X128492214Y-104520976D01*
X128416023Y-104482880D01*
X127768404Y-104482880D01*
X127768404Y-103720976D02*
X127768404Y-104101928D01*
X128149357Y-104140023D01*
X128111261Y-104101928D01*
X128073166Y-104025738D01*
X128073166Y-103835261D01*
X128111261Y-103759071D01*
X128149357Y-103720976D01*
X128225547Y-103682880D01*
X128416023Y-103682880D01*
X128492214Y-103720976D01*
X128530309Y-103759071D01*
X128568404Y-103835261D01*
X128568404Y-104025738D01*
X128530309Y-104101928D01*
X128492214Y-104140023D01*
X132168976Y-113290404D02*
X132168976Y-113938023D01*
X132207071Y-114014214D01*
X132245166Y-114052309D01*
X132321357Y-114090404D01*
X132473738Y-114090404D01*
X132549928Y-114052309D01*
X132588023Y-114014214D01*
X132626119Y-113938023D01*
X132626119Y-113290404D01*
X133349928Y-113290404D02*
X133197547Y-113290404D01*
X133121357Y-113328500D01*
X133083261Y-113366595D01*
X133007071Y-113480880D01*
X132968976Y-113633261D01*
X132968976Y-113938023D01*
X133007071Y-114014214D01*
X133045166Y-114052309D01*
X133121357Y-114090404D01*
X133273738Y-114090404D01*
X133349928Y-114052309D01*
X133388023Y-114014214D01*
X133426119Y-113938023D01*
X133426119Y-113747547D01*
X133388023Y-113671357D01*
X133349928Y-113633261D01*
X133273738Y-113595166D01*
X133121357Y-113595166D01*
X133045166Y-113633261D01*
X133007071Y-113671357D01*
X132968976Y-113747547D01*
X160680476Y-98367904D02*
X160680476Y-99015523D01*
X160718571Y-99091714D01*
X160756666Y-99129809D01*
X160832857Y-99167904D01*
X160985238Y-99167904D01*
X161061428Y-99129809D01*
X161099523Y-99091714D01*
X161137619Y-99015523D01*
X161137619Y-98367904D01*
X161442380Y-98367904D02*
X161975714Y-98367904D01*
X161632857Y-99167904D01*
X160299476Y-110293204D02*
X160299476Y-110940823D01*
X160337571Y-111017014D01*
X160375666Y-111055109D01*
X160451857Y-111093204D01*
X160604238Y-111093204D01*
X160680428Y-111055109D01*
X160718523Y-111017014D01*
X160756619Y-110940823D01*
X160756619Y-110293204D01*
X161251857Y-110636061D02*
X161175666Y-110597966D01*
X161137571Y-110559871D01*
X161099476Y-110483680D01*
X161099476Y-110445585D01*
X161137571Y-110369395D01*
X161175666Y-110331300D01*
X161251857Y-110293204D01*
X161404238Y-110293204D01*
X161480428Y-110331300D01*
X161518523Y-110369395D01*
X161556619Y-110445585D01*
X161556619Y-110483680D01*
X161518523Y-110559871D01*
X161480428Y-110597966D01*
X161404238Y-110636061D01*
X161251857Y-110636061D01*
X161175666Y-110674157D01*
X161137571Y-110712252D01*
X161099476Y-110788442D01*
X161099476Y-110940823D01*
X161137571Y-111017014D01*
X161175666Y-111055109D01*
X161251857Y-111093204D01*
X161404238Y-111093204D01*
X161480428Y-111055109D01*
X161518523Y-111017014D01*
X161556619Y-110940823D01*
X161556619Y-110788442D01*
X161518523Y-110712252D01*
X161480428Y-110674157D01*
X161404238Y-110636061D01*
X159943923Y-104006704D02*
X159943923Y-104654323D01*
X159982019Y-104730514D01*
X160020114Y-104768609D01*
X160096304Y-104806704D01*
X160248685Y-104806704D01*
X160324876Y-104768609D01*
X160362971Y-104730514D01*
X160401066Y-104654323D01*
X160401066Y-104006704D01*
X161201066Y-104806704D02*
X160743923Y-104806704D01*
X160972495Y-104806704D02*
X160972495Y-104006704D01*
X160896304Y-104120990D01*
X160820114Y-104197180D01*
X160743923Y-104235276D01*
X161962971Y-104806704D02*
X161505828Y-104806704D01*
X161734400Y-104806704D02*
X161734400Y-104006704D01*
X161658209Y-104120990D01*
X161582019Y-104197180D01*
X161505828Y-104235276D01*
X127423319Y-115290704D02*
X127423319Y-115862133D01*
X127385223Y-115976419D01*
X127309033Y-116052609D01*
X127194747Y-116090704D01*
X127118557Y-116090704D01*
X127766176Y-115366895D02*
X127804271Y-115328800D01*
X127880461Y-115290704D01*
X128070938Y-115290704D01*
X128147128Y-115328800D01*
X128185223Y-115366895D01*
X128223319Y-115443085D01*
X128223319Y-115519276D01*
X128185223Y-115633561D01*
X127728080Y-116090704D01*
X128223319Y-116090704D01*
X137422547Y-93903904D02*
X137422547Y-94475333D01*
X137384452Y-94589619D01*
X137308261Y-94665809D01*
X137193976Y-94703904D01*
X137117785Y-94703904D01*
X137727309Y-93903904D02*
X138222547Y-93903904D01*
X137955880Y-94208666D01*
X138070166Y-94208666D01*
X138146357Y-94246761D01*
X138184452Y-94284857D01*
X138222547Y-94361047D01*
X138222547Y-94551523D01*
X138184452Y-94627714D01*
X138146357Y-94665809D01*
X138070166Y-94703904D01*
X137841595Y-94703904D01*
X137765404Y-94665809D01*
X137727309Y-94627714D01*
M02*
