G04 #@! TF.GenerationSoftware,KiCad,Pcbnew,(5.1.9)-1*
G04 #@! TF.CreationDate,2021-06-16T16:38:28+02:00*
G04 #@! TF.ProjectId,ADS1299Wing,41445331-3239-4395-9769-6e672e6b6963,rev?*
G04 #@! TF.SameCoordinates,Original*
G04 #@! TF.FileFunction,Paste,Top*
G04 #@! TF.FilePolarity,Positive*
%FSLAX46Y46*%
G04 Gerber Fmt 4.6, Leading zero omitted, Abs format (unit mm)*
G04 Created by KiCad (PCBNEW (5.1.9)-1) date 2021-06-16 16:38:28*
%MOMM*%
%LPD*%
G01*
G04 APERTURE LIST*
%ADD10R,0.300000X1.500000*%
%ADD11R,1.500000X0.300000*%
%ADD12R,1.100000X1.100000*%
%ADD13R,1.060000X0.650000*%
%ADD14R,0.590000X1.210000*%
%ADD15R,0.650000X1.060000*%
%ADD16R,0.400000X0.650000*%
G04 APERTURE END LIST*
G36*
G01*
X163964500Y-108377800D02*
X163964500Y-107877800D01*
G75*
G02*
X164189500Y-107652800I225000J0D01*
G01*
X164639500Y-107652800D01*
G75*
G02*
X164864500Y-107877800I0J-225000D01*
G01*
X164864500Y-108377800D01*
G75*
G02*
X164639500Y-108602800I-225000J0D01*
G01*
X164189500Y-108602800D01*
G75*
G02*
X163964500Y-108377800I0J225000D01*
G01*
G37*
G36*
G01*
X162414500Y-108377800D02*
X162414500Y-107877800D01*
G75*
G02*
X162639500Y-107652800I225000J0D01*
G01*
X163089500Y-107652800D01*
G75*
G02*
X163314500Y-107877800I0J-225000D01*
G01*
X163314500Y-108377800D01*
G75*
G02*
X163089500Y-108602800I-225000J0D01*
G01*
X162639500Y-108602800D01*
G75*
G02*
X162414500Y-108377800I0J225000D01*
G01*
G37*
D10*
X154168800Y-109536000D03*
X153668800Y-109536000D03*
X153168800Y-109536000D03*
X152668800Y-109536000D03*
X152168800Y-109536000D03*
X151668800Y-109536000D03*
X151168800Y-109536000D03*
X150668800Y-109536000D03*
X150168800Y-109536000D03*
X149668800Y-109536000D03*
X149168800Y-109536000D03*
X148668800Y-109536000D03*
X148168800Y-109536000D03*
X147668800Y-109536000D03*
X147168800Y-109536000D03*
X146668800Y-109536000D03*
D11*
X144768800Y-107636000D03*
X144768800Y-107136000D03*
X144768800Y-106636000D03*
X144768800Y-106136000D03*
X144768800Y-105636000D03*
X144768800Y-105136000D03*
X144768800Y-104636000D03*
X144768800Y-104136000D03*
X144768800Y-103636000D03*
X144768800Y-103136000D03*
X144768800Y-102636000D03*
X144768800Y-102136000D03*
X144768800Y-101636000D03*
X144768800Y-101136000D03*
X144768800Y-100636000D03*
X144768800Y-100136000D03*
D10*
X146668800Y-98236000D03*
X147168800Y-98236000D03*
X147668800Y-98236000D03*
X148168800Y-98236000D03*
X148668800Y-98236000D03*
X149168800Y-98236000D03*
X149668800Y-98236000D03*
X150168800Y-98236000D03*
X150668800Y-98236000D03*
X151168800Y-98236000D03*
X151668800Y-98236000D03*
X152168800Y-98236000D03*
X152668800Y-98236000D03*
X153168800Y-98236000D03*
X153668800Y-98236000D03*
X154168800Y-98236000D03*
D11*
X156068800Y-100136000D03*
X156068800Y-100636000D03*
X156068800Y-101136000D03*
X156068800Y-101636000D03*
X156068800Y-102136000D03*
X156068800Y-102636000D03*
X156068800Y-103136000D03*
X156068800Y-103636000D03*
X156068800Y-104136000D03*
X156068800Y-104636000D03*
X156068800Y-105136000D03*
X156068800Y-105636000D03*
X156068800Y-106136000D03*
X156068800Y-106636000D03*
X156068800Y-107136000D03*
X156068800Y-107636000D03*
G36*
G01*
X140799000Y-98277000D02*
X140799000Y-98827000D01*
G75*
G02*
X140599000Y-99027000I-200000J0D01*
G01*
X140199000Y-99027000D01*
G75*
G02*
X139999000Y-98827000I0J200000D01*
G01*
X139999000Y-98277000D01*
G75*
G02*
X140199000Y-98077000I200000J0D01*
G01*
X140599000Y-98077000D01*
G75*
G02*
X140799000Y-98277000I0J-200000D01*
G01*
G37*
G36*
G01*
X142449000Y-98277000D02*
X142449000Y-98827000D01*
G75*
G02*
X142249000Y-99027000I-200000J0D01*
G01*
X141849000Y-99027000D01*
G75*
G02*
X141649000Y-98827000I0J200000D01*
G01*
X141649000Y-98277000D01*
G75*
G02*
X141849000Y-98077000I200000J0D01*
G01*
X142249000Y-98077000D01*
G75*
G02*
X142449000Y-98277000I0J-200000D01*
G01*
G37*
G36*
G01*
X130358000Y-101731000D02*
X130358000Y-102231000D01*
G75*
G02*
X130133000Y-102456000I-225000J0D01*
G01*
X129683000Y-102456000D01*
G75*
G02*
X129458000Y-102231000I0J225000D01*
G01*
X129458000Y-101731000D01*
G75*
G02*
X129683000Y-101506000I225000J0D01*
G01*
X130133000Y-101506000D01*
G75*
G02*
X130358000Y-101731000I0J-225000D01*
G01*
G37*
G36*
G01*
X131908000Y-101731000D02*
X131908000Y-102231000D01*
G75*
G02*
X131683000Y-102456000I-225000J0D01*
G01*
X131233000Y-102456000D01*
G75*
G02*
X131008000Y-102231000I0J225000D01*
G01*
X131008000Y-101731000D01*
G75*
G02*
X131233000Y-101506000I225000J0D01*
G01*
X131683000Y-101506000D01*
G75*
G02*
X131908000Y-101731000I0J-225000D01*
G01*
G37*
G36*
G01*
X131971500Y-107509500D02*
X131971500Y-108009500D01*
G75*
G02*
X131746500Y-108234500I-225000J0D01*
G01*
X131296500Y-108234500D01*
G75*
G02*
X131071500Y-108009500I0J225000D01*
G01*
X131071500Y-107509500D01*
G75*
G02*
X131296500Y-107284500I225000J0D01*
G01*
X131746500Y-107284500D01*
G75*
G02*
X131971500Y-107509500I0J-225000D01*
G01*
G37*
G36*
G01*
X130421500Y-107509500D02*
X130421500Y-108009500D01*
G75*
G02*
X130196500Y-108234500I-225000J0D01*
G01*
X129746500Y-108234500D01*
G75*
G02*
X129521500Y-108009500I0J225000D01*
G01*
X129521500Y-107509500D01*
G75*
G02*
X129746500Y-107284500I225000J0D01*
G01*
X130196500Y-107284500D01*
G75*
G02*
X130421500Y-107509500I0J-225000D01*
G01*
G37*
G36*
G01*
X130107500Y-110419000D02*
X129607500Y-110419000D01*
G75*
G02*
X129382500Y-110194000I0J225000D01*
G01*
X129382500Y-109744000D01*
G75*
G02*
X129607500Y-109519000I225000J0D01*
G01*
X130107500Y-109519000D01*
G75*
G02*
X130332500Y-109744000I0J-225000D01*
G01*
X130332500Y-110194000D01*
G75*
G02*
X130107500Y-110419000I-225000J0D01*
G01*
G37*
G36*
G01*
X130107500Y-111969000D02*
X129607500Y-111969000D01*
G75*
G02*
X129382500Y-111744000I0J225000D01*
G01*
X129382500Y-111294000D01*
G75*
G02*
X129607500Y-111069000I225000J0D01*
G01*
X130107500Y-111069000D01*
G75*
G02*
X130332500Y-111294000I0J-225000D01*
G01*
X130332500Y-111744000D01*
G75*
G02*
X130107500Y-111969000I-225000J0D01*
G01*
G37*
G36*
G01*
X136367400Y-110181200D02*
X136367400Y-109681200D01*
G75*
G02*
X136592400Y-109456200I225000J0D01*
G01*
X137042400Y-109456200D01*
G75*
G02*
X137267400Y-109681200I0J-225000D01*
G01*
X137267400Y-110181200D01*
G75*
G02*
X137042400Y-110406200I-225000J0D01*
G01*
X136592400Y-110406200D01*
G75*
G02*
X136367400Y-110181200I0J225000D01*
G01*
G37*
G36*
G01*
X134817400Y-110181200D02*
X134817400Y-109681200D01*
G75*
G02*
X135042400Y-109456200I225000J0D01*
G01*
X135492400Y-109456200D01*
G75*
G02*
X135717400Y-109681200I0J-225000D01*
G01*
X135717400Y-110181200D01*
G75*
G02*
X135492400Y-110406200I-225000J0D01*
G01*
X135042400Y-110406200D01*
G75*
G02*
X134817400Y-110181200I0J225000D01*
G01*
G37*
G36*
G01*
X164002600Y-102205600D02*
X164002600Y-101705600D01*
G75*
G02*
X164227600Y-101480600I225000J0D01*
G01*
X164677600Y-101480600D01*
G75*
G02*
X164902600Y-101705600I0J-225000D01*
G01*
X164902600Y-102205600D01*
G75*
G02*
X164677600Y-102430600I-225000J0D01*
G01*
X164227600Y-102430600D01*
G75*
G02*
X164002600Y-102205600I0J225000D01*
G01*
G37*
G36*
G01*
X162452600Y-102205600D02*
X162452600Y-101705600D01*
G75*
G02*
X162677600Y-101480600I225000J0D01*
G01*
X163127600Y-101480600D01*
G75*
G02*
X163352600Y-101705600I0J-225000D01*
G01*
X163352600Y-102205600D01*
G75*
G02*
X163127600Y-102430600I-225000J0D01*
G01*
X162677600Y-102430600D01*
G75*
G02*
X162452600Y-102205600I0J225000D01*
G01*
G37*
G36*
G01*
X166488300Y-96742800D02*
X166988300Y-96742800D01*
G75*
G02*
X167213300Y-96967800I0J-225000D01*
G01*
X167213300Y-97417800D01*
G75*
G02*
X166988300Y-97642800I-225000J0D01*
G01*
X166488300Y-97642800D01*
G75*
G02*
X166263300Y-97417800I0J225000D01*
G01*
X166263300Y-96967800D01*
G75*
G02*
X166488300Y-96742800I225000J0D01*
G01*
G37*
G36*
G01*
X166488300Y-98292800D02*
X166988300Y-98292800D01*
G75*
G02*
X167213300Y-98517800I0J-225000D01*
G01*
X167213300Y-98967800D01*
G75*
G02*
X166988300Y-99192800I-225000J0D01*
G01*
X166488300Y-99192800D01*
G75*
G02*
X166263300Y-98967800I0J225000D01*
G01*
X166263300Y-98517800D01*
G75*
G02*
X166488300Y-98292800I225000J0D01*
G01*
G37*
G36*
G01*
X162465300Y-100694300D02*
X162465300Y-100194300D01*
G75*
G02*
X162690300Y-99969300I225000J0D01*
G01*
X163140300Y-99969300D01*
G75*
G02*
X163365300Y-100194300I0J-225000D01*
G01*
X163365300Y-100694300D01*
G75*
G02*
X163140300Y-100919300I-225000J0D01*
G01*
X162690300Y-100919300D01*
G75*
G02*
X162465300Y-100694300I0J225000D01*
G01*
G37*
G36*
G01*
X164015300Y-100694300D02*
X164015300Y-100194300D01*
G75*
G02*
X164240300Y-99969300I225000J0D01*
G01*
X164690300Y-99969300D01*
G75*
G02*
X164915300Y-100194300I0J-225000D01*
G01*
X164915300Y-100694300D01*
G75*
G02*
X164690300Y-100919300I-225000J0D01*
G01*
X164240300Y-100919300D01*
G75*
G02*
X164015300Y-100694300I0J225000D01*
G01*
G37*
G36*
G01*
X160253800Y-96574800D02*
X160253800Y-97074800D01*
G75*
G02*
X160028800Y-97299800I-225000J0D01*
G01*
X159578800Y-97299800D01*
G75*
G02*
X159353800Y-97074800I0J225000D01*
G01*
X159353800Y-96574800D01*
G75*
G02*
X159578800Y-96349800I225000J0D01*
G01*
X160028800Y-96349800D01*
G75*
G02*
X160253800Y-96574800I0J-225000D01*
G01*
G37*
G36*
G01*
X161803800Y-96574800D02*
X161803800Y-97074800D01*
G75*
G02*
X161578800Y-97299800I-225000J0D01*
G01*
X161128800Y-97299800D01*
G75*
G02*
X160903800Y-97074800I0J225000D01*
G01*
X160903800Y-96574800D01*
G75*
G02*
X161128800Y-96349800I225000J0D01*
G01*
X161578800Y-96349800D01*
G75*
G02*
X161803800Y-96574800I0J-225000D01*
G01*
G37*
G36*
G01*
X162287500Y-113737200D02*
X162287500Y-113237200D01*
G75*
G02*
X162512500Y-113012200I225000J0D01*
G01*
X162962500Y-113012200D01*
G75*
G02*
X163187500Y-113237200I0J-225000D01*
G01*
X163187500Y-113737200D01*
G75*
G02*
X162962500Y-113962200I-225000J0D01*
G01*
X162512500Y-113962200D01*
G75*
G02*
X162287500Y-113737200I0J225000D01*
G01*
G37*
G36*
G01*
X163837500Y-113737200D02*
X163837500Y-113237200D01*
G75*
G02*
X164062500Y-113012200I225000J0D01*
G01*
X164512500Y-113012200D01*
G75*
G02*
X164737500Y-113237200I0J-225000D01*
G01*
X164737500Y-113737200D01*
G75*
G02*
X164512500Y-113962200I-225000J0D01*
G01*
X164062500Y-113962200D01*
G75*
G02*
X163837500Y-113737200I0J225000D01*
G01*
G37*
G36*
G01*
X163964500Y-106879200D02*
X163964500Y-106379200D01*
G75*
G02*
X164189500Y-106154200I225000J0D01*
G01*
X164639500Y-106154200D01*
G75*
G02*
X164864500Y-106379200I0J-225000D01*
G01*
X164864500Y-106879200D01*
G75*
G02*
X164639500Y-107104200I-225000J0D01*
G01*
X164189500Y-107104200D01*
G75*
G02*
X163964500Y-106879200I0J225000D01*
G01*
G37*
G36*
G01*
X162414500Y-106879200D02*
X162414500Y-106379200D01*
G75*
G02*
X162639500Y-106154200I225000J0D01*
G01*
X163089500Y-106154200D01*
G75*
G02*
X163314500Y-106379200I0J-225000D01*
G01*
X163314500Y-106879200D01*
G75*
G02*
X163089500Y-107104200I-225000J0D01*
G01*
X162639500Y-107104200D01*
G75*
G02*
X162414500Y-106879200I0J225000D01*
G01*
G37*
G36*
G01*
X145166500Y-111154400D02*
X145166500Y-111654400D01*
G75*
G02*
X144941500Y-111879400I-225000J0D01*
G01*
X144491500Y-111879400D01*
G75*
G02*
X144266500Y-111654400I0J225000D01*
G01*
X144266500Y-111154400D01*
G75*
G02*
X144491500Y-110929400I225000J0D01*
G01*
X144941500Y-110929400D01*
G75*
G02*
X145166500Y-111154400I0J-225000D01*
G01*
G37*
G36*
G01*
X143616500Y-111154400D02*
X143616500Y-111654400D01*
G75*
G02*
X143391500Y-111879400I-225000J0D01*
G01*
X142941500Y-111879400D01*
G75*
G02*
X142716500Y-111654400I0J225000D01*
G01*
X142716500Y-111154400D01*
G75*
G02*
X142941500Y-110929400I225000J0D01*
G01*
X143391500Y-110929400D01*
G75*
G02*
X143616500Y-111154400I0J-225000D01*
G01*
G37*
G36*
G01*
X143616500Y-109668500D02*
X143616500Y-110168500D01*
G75*
G02*
X143391500Y-110393500I-225000J0D01*
G01*
X142941500Y-110393500D01*
G75*
G02*
X142716500Y-110168500I0J225000D01*
G01*
X142716500Y-109668500D01*
G75*
G02*
X142941500Y-109443500I225000J0D01*
G01*
X143391500Y-109443500D01*
G75*
G02*
X143616500Y-109668500I0J-225000D01*
G01*
G37*
G36*
G01*
X145166500Y-109668500D02*
X145166500Y-110168500D01*
G75*
G02*
X144941500Y-110393500I-225000J0D01*
G01*
X144491500Y-110393500D01*
G75*
G02*
X144266500Y-110168500I0J225000D01*
G01*
X144266500Y-109668500D01*
G75*
G02*
X144491500Y-109443500I225000J0D01*
G01*
X144941500Y-109443500D01*
G75*
G02*
X145166500Y-109668500I0J-225000D01*
G01*
G37*
G36*
G01*
X127258000Y-99575500D02*
X127758000Y-99575500D01*
G75*
G02*
X127983000Y-99800500I0J-225000D01*
G01*
X127983000Y-100250500D01*
G75*
G02*
X127758000Y-100475500I-225000J0D01*
G01*
X127258000Y-100475500D01*
G75*
G02*
X127033000Y-100250500I0J225000D01*
G01*
X127033000Y-99800500D01*
G75*
G02*
X127258000Y-99575500I225000J0D01*
G01*
G37*
G36*
G01*
X127258000Y-98025500D02*
X127758000Y-98025500D01*
G75*
G02*
X127983000Y-98250500I0J-225000D01*
G01*
X127983000Y-98700500D01*
G75*
G02*
X127758000Y-98925500I-225000J0D01*
G01*
X127258000Y-98925500D01*
G75*
G02*
X127033000Y-98700500I0J225000D01*
G01*
X127033000Y-98250500D01*
G75*
G02*
X127258000Y-98025500I225000J0D01*
G01*
G37*
D12*
X131569000Y-95377000D03*
X134369000Y-95377000D03*
G36*
G01*
X135984500Y-107376250D02*
X135984500Y-107888750D01*
G75*
G02*
X135765750Y-108107500I-218750J0D01*
G01*
X135328250Y-108107500D01*
G75*
G02*
X135109500Y-107888750I0J218750D01*
G01*
X135109500Y-107376250D01*
G75*
G02*
X135328250Y-107157500I218750J0D01*
G01*
X135765750Y-107157500D01*
G75*
G02*
X135984500Y-107376250I0J-218750D01*
G01*
G37*
G36*
G01*
X137559500Y-107376250D02*
X137559500Y-107888750D01*
G75*
G02*
X137340750Y-108107500I-218750J0D01*
G01*
X136903250Y-108107500D01*
G75*
G02*
X136684500Y-107888750I0J218750D01*
G01*
X136684500Y-107376250D01*
G75*
G02*
X136903250Y-107157500I218750J0D01*
G01*
X137340750Y-107157500D01*
G75*
G02*
X137559500Y-107376250I0J-218750D01*
G01*
G37*
G36*
G01*
X137521400Y-103375750D02*
X137521400Y-103888250D01*
G75*
G02*
X137302650Y-104107000I-218750J0D01*
G01*
X136865150Y-104107000D01*
G75*
G02*
X136646400Y-103888250I0J218750D01*
G01*
X136646400Y-103375750D01*
G75*
G02*
X136865150Y-103157000I218750J0D01*
G01*
X137302650Y-103157000D01*
G75*
G02*
X137521400Y-103375750I0J-218750D01*
G01*
G37*
G36*
G01*
X135946400Y-103375750D02*
X135946400Y-103888250D01*
G75*
G02*
X135727650Y-104107000I-218750J0D01*
G01*
X135290150Y-104107000D01*
G75*
G02*
X135071400Y-103888250I0J218750D01*
G01*
X135071400Y-103375750D01*
G75*
G02*
X135290150Y-103157000I218750J0D01*
G01*
X135727650Y-103157000D01*
G75*
G02*
X135946400Y-103375750I0J-218750D01*
G01*
G37*
G36*
G01*
X140240200Y-102417200D02*
X140240200Y-102967200D01*
G75*
G02*
X140040200Y-103167200I-200000J0D01*
G01*
X139640200Y-103167200D01*
G75*
G02*
X139440200Y-102967200I0J200000D01*
G01*
X139440200Y-102417200D01*
G75*
G02*
X139640200Y-102217200I200000J0D01*
G01*
X140040200Y-102217200D01*
G75*
G02*
X140240200Y-102417200I0J-200000D01*
G01*
G37*
G36*
G01*
X141890200Y-102417200D02*
X141890200Y-102967200D01*
G75*
G02*
X141690200Y-103167200I-200000J0D01*
G01*
X141290200Y-103167200D01*
G75*
G02*
X141090200Y-102967200I0J200000D01*
G01*
X141090200Y-102417200D01*
G75*
G02*
X141290200Y-102217200I200000J0D01*
G01*
X141690200Y-102217200D01*
G75*
G02*
X141890200Y-102417200I0J-200000D01*
G01*
G37*
G36*
G01*
X137559500Y-105897000D02*
X137559500Y-106447000D01*
G75*
G02*
X137359500Y-106647000I-200000J0D01*
G01*
X136959500Y-106647000D01*
G75*
G02*
X136759500Y-106447000I0J200000D01*
G01*
X136759500Y-105897000D01*
G75*
G02*
X136959500Y-105697000I200000J0D01*
G01*
X137359500Y-105697000D01*
G75*
G02*
X137559500Y-105897000I0J-200000D01*
G01*
G37*
G36*
G01*
X135909500Y-105897000D02*
X135909500Y-106447000D01*
G75*
G02*
X135709500Y-106647000I-200000J0D01*
G01*
X135309500Y-106647000D01*
G75*
G02*
X135109500Y-106447000I0J200000D01*
G01*
X135109500Y-105897000D01*
G75*
G02*
X135309500Y-105697000I200000J0D01*
G01*
X135709500Y-105697000D01*
G75*
G02*
X135909500Y-105897000I0J-200000D01*
G01*
G37*
G36*
G01*
X141890200Y-106798700D02*
X141890200Y-107348700D01*
G75*
G02*
X141690200Y-107548700I-200000J0D01*
G01*
X141290200Y-107548700D01*
G75*
G02*
X141090200Y-107348700I0J200000D01*
G01*
X141090200Y-106798700D01*
G75*
G02*
X141290200Y-106598700I200000J0D01*
G01*
X141690200Y-106598700D01*
G75*
G02*
X141890200Y-106798700I0J-200000D01*
G01*
G37*
G36*
G01*
X140240200Y-106798700D02*
X140240200Y-107348700D01*
G75*
G02*
X140040200Y-107548700I-200000J0D01*
G01*
X139640200Y-107548700D01*
G75*
G02*
X139440200Y-107348700I0J200000D01*
G01*
X139440200Y-106798700D01*
G75*
G02*
X139640200Y-106598700I200000J0D01*
G01*
X140040200Y-106598700D01*
G75*
G02*
X140240200Y-106798700I0J-200000D01*
G01*
G37*
G36*
G01*
X140240200Y-105338200D02*
X140240200Y-105888200D01*
G75*
G02*
X140040200Y-106088200I-200000J0D01*
G01*
X139640200Y-106088200D01*
G75*
G02*
X139440200Y-105888200I0J200000D01*
G01*
X139440200Y-105338200D01*
G75*
G02*
X139640200Y-105138200I200000J0D01*
G01*
X140040200Y-105138200D01*
G75*
G02*
X140240200Y-105338200I0J-200000D01*
G01*
G37*
G36*
G01*
X141890200Y-105338200D02*
X141890200Y-105888200D01*
G75*
G02*
X141690200Y-106088200I-200000J0D01*
G01*
X141290200Y-106088200D01*
G75*
G02*
X141090200Y-105888200I0J200000D01*
G01*
X141090200Y-105338200D01*
G75*
G02*
X141290200Y-105138200I200000J0D01*
G01*
X141690200Y-105138200D01*
G75*
G02*
X141890200Y-105338200I0J-200000D01*
G01*
G37*
G36*
G01*
X141890200Y-103877700D02*
X141890200Y-104427700D01*
G75*
G02*
X141690200Y-104627700I-200000J0D01*
G01*
X141290200Y-104627700D01*
G75*
G02*
X141090200Y-104427700I0J200000D01*
G01*
X141090200Y-103877700D01*
G75*
G02*
X141290200Y-103677700I200000J0D01*
G01*
X141690200Y-103677700D01*
G75*
G02*
X141890200Y-103877700I0J-200000D01*
G01*
G37*
G36*
G01*
X140240200Y-103877700D02*
X140240200Y-104427700D01*
G75*
G02*
X140040200Y-104627700I-200000J0D01*
G01*
X139640200Y-104627700D01*
G75*
G02*
X139440200Y-104427700I0J200000D01*
G01*
X139440200Y-103877700D01*
G75*
G02*
X139640200Y-103677700I200000J0D01*
G01*
X140040200Y-103677700D01*
G75*
G02*
X140240200Y-103877700I0J-200000D01*
G01*
G37*
G36*
G01*
X135071400Y-102383000D02*
X135071400Y-101833000D01*
G75*
G02*
X135271400Y-101633000I200000J0D01*
G01*
X135671400Y-101633000D01*
G75*
G02*
X135871400Y-101833000I0J-200000D01*
G01*
X135871400Y-102383000D01*
G75*
G02*
X135671400Y-102583000I-200000J0D01*
G01*
X135271400Y-102583000D01*
G75*
G02*
X135071400Y-102383000I0J200000D01*
G01*
G37*
G36*
G01*
X136721400Y-102383000D02*
X136721400Y-101833000D01*
G75*
G02*
X136921400Y-101633000I200000J0D01*
G01*
X137321400Y-101633000D01*
G75*
G02*
X137521400Y-101833000I0J-200000D01*
G01*
X137521400Y-102383000D01*
G75*
G02*
X137321400Y-102583000I-200000J0D01*
G01*
X136921400Y-102583000D01*
G75*
G02*
X136721400Y-102383000I0J200000D01*
G01*
G37*
D13*
X131465500Y-100073500D03*
X131465500Y-99123500D03*
X131465500Y-98173500D03*
X129265500Y-98173500D03*
X129265500Y-100073500D03*
D14*
X131442500Y-106157000D03*
X129542500Y-106157000D03*
X129542500Y-103647000D03*
X130492500Y-103647000D03*
X131442500Y-103647000D03*
D15*
X133601500Y-112225000D03*
X131701500Y-112225000D03*
X131701500Y-110025000D03*
X132651500Y-110025000D03*
X133601500Y-110025000D03*
D13*
X165171300Y-98854300D03*
X165171300Y-97904300D03*
X165171300Y-96954300D03*
X162971300Y-96954300D03*
X162971300Y-98854300D03*
D15*
X162689500Y-109694800D03*
X164589500Y-109694800D03*
X164589500Y-111894800D03*
X163639500Y-111894800D03*
X162689500Y-111894800D03*
D16*
X163027600Y-105242400D03*
X164327600Y-105242400D03*
X163677600Y-103342400D03*
X163677600Y-105242400D03*
X164327600Y-103342400D03*
X163027600Y-103342400D03*
M02*
