G04 #@! TF.GenerationSoftware,KiCad,Pcbnew,(5.1.9)-1*
G04 #@! TF.CreationDate,2021-04-27T18:11:47+02:00*
G04 #@! TF.ProjectId,ADS1299Wing,41445331-3239-4395-9769-6e672e6b6963,rev?*
G04 #@! TF.SameCoordinates,Original*
G04 #@! TF.FileFunction,Soldermask,Top*
G04 #@! TF.FilePolarity,Negative*
%FSLAX46Y46*%
G04 Gerber Fmt 4.6, Leading zero omitted, Abs format (unit mm)*
G04 Created by KiCad (PCBNEW (5.1.9)-1) date 2021-04-27 18:11:47*
%MOMM*%
%LPD*%
G01*
G04 APERTURE LIST*
%ADD10O,2.100000X2.100000*%
%ADD11C,3.301600*%
%ADD12C,1.676400*%
%ADD13C,0.100000*%
G04 APERTURE END LIST*
G36*
G01*
X163764500Y-108477800D02*
X163764500Y-107777800D01*
G75*
G02*
X164089500Y-107452800I325000J0D01*
G01*
X164739500Y-107452800D01*
G75*
G02*
X165064500Y-107777800I0J-325000D01*
G01*
X165064500Y-108477800D01*
G75*
G02*
X164739500Y-108802800I-325000J0D01*
G01*
X164089500Y-108802800D01*
G75*
G02*
X163764500Y-108477800I0J325000D01*
G01*
G37*
G36*
G01*
X162214500Y-108477800D02*
X162214500Y-107777800D01*
G75*
G02*
X162539500Y-107452800I325000J0D01*
G01*
X163189500Y-107452800D01*
G75*
G02*
X163514500Y-107777800I0J-325000D01*
G01*
X163514500Y-108477800D01*
G75*
G02*
X163189500Y-108802800I-325000J0D01*
G01*
X162539500Y-108802800D01*
G75*
G02*
X162214500Y-108477800I0J325000D01*
G01*
G37*
G36*
G01*
X169892000Y-97166800D02*
X169892000Y-95466800D01*
G75*
G02*
X170092000Y-95266800I200000J0D01*
G01*
X171792000Y-95266800D01*
G75*
G02*
X171992000Y-95466800I0J-200000D01*
G01*
X171992000Y-97166800D01*
G75*
G02*
X171792000Y-97366800I-200000J0D01*
G01*
X170092000Y-97366800D01*
G75*
G02*
X169892000Y-97166800I0J200000D01*
G01*
G37*
G36*
G01*
X169688800Y-114591200D02*
X169688800Y-112891200D01*
G75*
G02*
X169888800Y-112691200I200000J0D01*
G01*
X171588800Y-112691200D01*
G75*
G02*
X171788800Y-112891200I0J-200000D01*
G01*
X171788800Y-114591200D01*
G75*
G02*
X171588800Y-114791200I-200000J0D01*
G01*
X169888800Y-114791200D01*
G75*
G02*
X169688800Y-114591200I0J200000D01*
G01*
G37*
G36*
G01*
X154518800Y-108786000D02*
X154518800Y-110286000D01*
G75*
G02*
X154318800Y-110486000I-200000J0D01*
G01*
X154018800Y-110486000D01*
G75*
G02*
X153818800Y-110286000I0J200000D01*
G01*
X153818800Y-108786000D01*
G75*
G02*
X154018800Y-108586000I200000J0D01*
G01*
X154318800Y-108586000D01*
G75*
G02*
X154518800Y-108786000I0J-200000D01*
G01*
G37*
G36*
G01*
X154018800Y-108786000D02*
X154018800Y-110286000D01*
G75*
G02*
X153818800Y-110486000I-200000J0D01*
G01*
X153518800Y-110486000D01*
G75*
G02*
X153318800Y-110286000I0J200000D01*
G01*
X153318800Y-108786000D01*
G75*
G02*
X153518800Y-108586000I200000J0D01*
G01*
X153818800Y-108586000D01*
G75*
G02*
X154018800Y-108786000I0J-200000D01*
G01*
G37*
G36*
G01*
X153518800Y-108786000D02*
X153518800Y-110286000D01*
G75*
G02*
X153318800Y-110486000I-200000J0D01*
G01*
X153018800Y-110486000D01*
G75*
G02*
X152818800Y-110286000I0J200000D01*
G01*
X152818800Y-108786000D01*
G75*
G02*
X153018800Y-108586000I200000J0D01*
G01*
X153318800Y-108586000D01*
G75*
G02*
X153518800Y-108786000I0J-200000D01*
G01*
G37*
G36*
G01*
X153018800Y-108786000D02*
X153018800Y-110286000D01*
G75*
G02*
X152818800Y-110486000I-200000J0D01*
G01*
X152518800Y-110486000D01*
G75*
G02*
X152318800Y-110286000I0J200000D01*
G01*
X152318800Y-108786000D01*
G75*
G02*
X152518800Y-108586000I200000J0D01*
G01*
X152818800Y-108586000D01*
G75*
G02*
X153018800Y-108786000I0J-200000D01*
G01*
G37*
G36*
G01*
X152518800Y-108786000D02*
X152518800Y-110286000D01*
G75*
G02*
X152318800Y-110486000I-200000J0D01*
G01*
X152018800Y-110486000D01*
G75*
G02*
X151818800Y-110286000I0J200000D01*
G01*
X151818800Y-108786000D01*
G75*
G02*
X152018800Y-108586000I200000J0D01*
G01*
X152318800Y-108586000D01*
G75*
G02*
X152518800Y-108786000I0J-200000D01*
G01*
G37*
G36*
G01*
X152018800Y-108786000D02*
X152018800Y-110286000D01*
G75*
G02*
X151818800Y-110486000I-200000J0D01*
G01*
X151518800Y-110486000D01*
G75*
G02*
X151318800Y-110286000I0J200000D01*
G01*
X151318800Y-108786000D01*
G75*
G02*
X151518800Y-108586000I200000J0D01*
G01*
X151818800Y-108586000D01*
G75*
G02*
X152018800Y-108786000I0J-200000D01*
G01*
G37*
G36*
G01*
X151518800Y-108786000D02*
X151518800Y-110286000D01*
G75*
G02*
X151318800Y-110486000I-200000J0D01*
G01*
X151018800Y-110486000D01*
G75*
G02*
X150818800Y-110286000I0J200000D01*
G01*
X150818800Y-108786000D01*
G75*
G02*
X151018800Y-108586000I200000J0D01*
G01*
X151318800Y-108586000D01*
G75*
G02*
X151518800Y-108786000I0J-200000D01*
G01*
G37*
G36*
G01*
X151018800Y-108786000D02*
X151018800Y-110286000D01*
G75*
G02*
X150818800Y-110486000I-200000J0D01*
G01*
X150518800Y-110486000D01*
G75*
G02*
X150318800Y-110286000I0J200000D01*
G01*
X150318800Y-108786000D01*
G75*
G02*
X150518800Y-108586000I200000J0D01*
G01*
X150818800Y-108586000D01*
G75*
G02*
X151018800Y-108786000I0J-200000D01*
G01*
G37*
G36*
G01*
X150518800Y-108786000D02*
X150518800Y-110286000D01*
G75*
G02*
X150318800Y-110486000I-200000J0D01*
G01*
X150018800Y-110486000D01*
G75*
G02*
X149818800Y-110286000I0J200000D01*
G01*
X149818800Y-108786000D01*
G75*
G02*
X150018800Y-108586000I200000J0D01*
G01*
X150318800Y-108586000D01*
G75*
G02*
X150518800Y-108786000I0J-200000D01*
G01*
G37*
G36*
G01*
X150018800Y-108786000D02*
X150018800Y-110286000D01*
G75*
G02*
X149818800Y-110486000I-200000J0D01*
G01*
X149518800Y-110486000D01*
G75*
G02*
X149318800Y-110286000I0J200000D01*
G01*
X149318800Y-108786000D01*
G75*
G02*
X149518800Y-108586000I200000J0D01*
G01*
X149818800Y-108586000D01*
G75*
G02*
X150018800Y-108786000I0J-200000D01*
G01*
G37*
G36*
G01*
X149518800Y-108786000D02*
X149518800Y-110286000D01*
G75*
G02*
X149318800Y-110486000I-200000J0D01*
G01*
X149018800Y-110486000D01*
G75*
G02*
X148818800Y-110286000I0J200000D01*
G01*
X148818800Y-108786000D01*
G75*
G02*
X149018800Y-108586000I200000J0D01*
G01*
X149318800Y-108586000D01*
G75*
G02*
X149518800Y-108786000I0J-200000D01*
G01*
G37*
G36*
G01*
X149018800Y-108786000D02*
X149018800Y-110286000D01*
G75*
G02*
X148818800Y-110486000I-200000J0D01*
G01*
X148518800Y-110486000D01*
G75*
G02*
X148318800Y-110286000I0J200000D01*
G01*
X148318800Y-108786000D01*
G75*
G02*
X148518800Y-108586000I200000J0D01*
G01*
X148818800Y-108586000D01*
G75*
G02*
X149018800Y-108786000I0J-200000D01*
G01*
G37*
G36*
G01*
X148518800Y-108786000D02*
X148518800Y-110286000D01*
G75*
G02*
X148318800Y-110486000I-200000J0D01*
G01*
X148018800Y-110486000D01*
G75*
G02*
X147818800Y-110286000I0J200000D01*
G01*
X147818800Y-108786000D01*
G75*
G02*
X148018800Y-108586000I200000J0D01*
G01*
X148318800Y-108586000D01*
G75*
G02*
X148518800Y-108786000I0J-200000D01*
G01*
G37*
G36*
G01*
X148018800Y-108786000D02*
X148018800Y-110286000D01*
G75*
G02*
X147818800Y-110486000I-200000J0D01*
G01*
X147518800Y-110486000D01*
G75*
G02*
X147318800Y-110286000I0J200000D01*
G01*
X147318800Y-108786000D01*
G75*
G02*
X147518800Y-108586000I200000J0D01*
G01*
X147818800Y-108586000D01*
G75*
G02*
X148018800Y-108786000I0J-200000D01*
G01*
G37*
G36*
G01*
X147518800Y-108786000D02*
X147518800Y-110286000D01*
G75*
G02*
X147318800Y-110486000I-200000J0D01*
G01*
X147018800Y-110486000D01*
G75*
G02*
X146818800Y-110286000I0J200000D01*
G01*
X146818800Y-108786000D01*
G75*
G02*
X147018800Y-108586000I200000J0D01*
G01*
X147318800Y-108586000D01*
G75*
G02*
X147518800Y-108786000I0J-200000D01*
G01*
G37*
G36*
G01*
X147018800Y-108786000D02*
X147018800Y-110286000D01*
G75*
G02*
X146818800Y-110486000I-200000J0D01*
G01*
X146518800Y-110486000D01*
G75*
G02*
X146318800Y-110286000I0J200000D01*
G01*
X146318800Y-108786000D01*
G75*
G02*
X146518800Y-108586000I200000J0D01*
G01*
X146818800Y-108586000D01*
G75*
G02*
X147018800Y-108786000I0J-200000D01*
G01*
G37*
G36*
G01*
X145718800Y-107486000D02*
X145718800Y-107786000D01*
G75*
G02*
X145518800Y-107986000I-200000J0D01*
G01*
X144018800Y-107986000D01*
G75*
G02*
X143818800Y-107786000I0J200000D01*
G01*
X143818800Y-107486000D01*
G75*
G02*
X144018800Y-107286000I200000J0D01*
G01*
X145518800Y-107286000D01*
G75*
G02*
X145718800Y-107486000I0J-200000D01*
G01*
G37*
G36*
G01*
X145718800Y-106986000D02*
X145718800Y-107286000D01*
G75*
G02*
X145518800Y-107486000I-200000J0D01*
G01*
X144018800Y-107486000D01*
G75*
G02*
X143818800Y-107286000I0J200000D01*
G01*
X143818800Y-106986000D01*
G75*
G02*
X144018800Y-106786000I200000J0D01*
G01*
X145518800Y-106786000D01*
G75*
G02*
X145718800Y-106986000I0J-200000D01*
G01*
G37*
G36*
G01*
X145718800Y-106486000D02*
X145718800Y-106786000D01*
G75*
G02*
X145518800Y-106986000I-200000J0D01*
G01*
X144018800Y-106986000D01*
G75*
G02*
X143818800Y-106786000I0J200000D01*
G01*
X143818800Y-106486000D01*
G75*
G02*
X144018800Y-106286000I200000J0D01*
G01*
X145518800Y-106286000D01*
G75*
G02*
X145718800Y-106486000I0J-200000D01*
G01*
G37*
G36*
G01*
X145718800Y-105986000D02*
X145718800Y-106286000D01*
G75*
G02*
X145518800Y-106486000I-200000J0D01*
G01*
X144018800Y-106486000D01*
G75*
G02*
X143818800Y-106286000I0J200000D01*
G01*
X143818800Y-105986000D01*
G75*
G02*
X144018800Y-105786000I200000J0D01*
G01*
X145518800Y-105786000D01*
G75*
G02*
X145718800Y-105986000I0J-200000D01*
G01*
G37*
G36*
G01*
X145718800Y-105486000D02*
X145718800Y-105786000D01*
G75*
G02*
X145518800Y-105986000I-200000J0D01*
G01*
X144018800Y-105986000D01*
G75*
G02*
X143818800Y-105786000I0J200000D01*
G01*
X143818800Y-105486000D01*
G75*
G02*
X144018800Y-105286000I200000J0D01*
G01*
X145518800Y-105286000D01*
G75*
G02*
X145718800Y-105486000I0J-200000D01*
G01*
G37*
G36*
G01*
X145718800Y-104986000D02*
X145718800Y-105286000D01*
G75*
G02*
X145518800Y-105486000I-200000J0D01*
G01*
X144018800Y-105486000D01*
G75*
G02*
X143818800Y-105286000I0J200000D01*
G01*
X143818800Y-104986000D01*
G75*
G02*
X144018800Y-104786000I200000J0D01*
G01*
X145518800Y-104786000D01*
G75*
G02*
X145718800Y-104986000I0J-200000D01*
G01*
G37*
G36*
G01*
X145718800Y-104486000D02*
X145718800Y-104786000D01*
G75*
G02*
X145518800Y-104986000I-200000J0D01*
G01*
X144018800Y-104986000D01*
G75*
G02*
X143818800Y-104786000I0J200000D01*
G01*
X143818800Y-104486000D01*
G75*
G02*
X144018800Y-104286000I200000J0D01*
G01*
X145518800Y-104286000D01*
G75*
G02*
X145718800Y-104486000I0J-200000D01*
G01*
G37*
G36*
G01*
X145718800Y-103986000D02*
X145718800Y-104286000D01*
G75*
G02*
X145518800Y-104486000I-200000J0D01*
G01*
X144018800Y-104486000D01*
G75*
G02*
X143818800Y-104286000I0J200000D01*
G01*
X143818800Y-103986000D01*
G75*
G02*
X144018800Y-103786000I200000J0D01*
G01*
X145518800Y-103786000D01*
G75*
G02*
X145718800Y-103986000I0J-200000D01*
G01*
G37*
G36*
G01*
X145718800Y-103486000D02*
X145718800Y-103786000D01*
G75*
G02*
X145518800Y-103986000I-200000J0D01*
G01*
X144018800Y-103986000D01*
G75*
G02*
X143818800Y-103786000I0J200000D01*
G01*
X143818800Y-103486000D01*
G75*
G02*
X144018800Y-103286000I200000J0D01*
G01*
X145518800Y-103286000D01*
G75*
G02*
X145718800Y-103486000I0J-200000D01*
G01*
G37*
G36*
G01*
X145718800Y-102986000D02*
X145718800Y-103286000D01*
G75*
G02*
X145518800Y-103486000I-200000J0D01*
G01*
X144018800Y-103486000D01*
G75*
G02*
X143818800Y-103286000I0J200000D01*
G01*
X143818800Y-102986000D01*
G75*
G02*
X144018800Y-102786000I200000J0D01*
G01*
X145518800Y-102786000D01*
G75*
G02*
X145718800Y-102986000I0J-200000D01*
G01*
G37*
G36*
G01*
X145718800Y-102486000D02*
X145718800Y-102786000D01*
G75*
G02*
X145518800Y-102986000I-200000J0D01*
G01*
X144018800Y-102986000D01*
G75*
G02*
X143818800Y-102786000I0J200000D01*
G01*
X143818800Y-102486000D01*
G75*
G02*
X144018800Y-102286000I200000J0D01*
G01*
X145518800Y-102286000D01*
G75*
G02*
X145718800Y-102486000I0J-200000D01*
G01*
G37*
G36*
G01*
X145718800Y-101986000D02*
X145718800Y-102286000D01*
G75*
G02*
X145518800Y-102486000I-200000J0D01*
G01*
X144018800Y-102486000D01*
G75*
G02*
X143818800Y-102286000I0J200000D01*
G01*
X143818800Y-101986000D01*
G75*
G02*
X144018800Y-101786000I200000J0D01*
G01*
X145518800Y-101786000D01*
G75*
G02*
X145718800Y-101986000I0J-200000D01*
G01*
G37*
G36*
G01*
X145718800Y-101486000D02*
X145718800Y-101786000D01*
G75*
G02*
X145518800Y-101986000I-200000J0D01*
G01*
X144018800Y-101986000D01*
G75*
G02*
X143818800Y-101786000I0J200000D01*
G01*
X143818800Y-101486000D01*
G75*
G02*
X144018800Y-101286000I200000J0D01*
G01*
X145518800Y-101286000D01*
G75*
G02*
X145718800Y-101486000I0J-200000D01*
G01*
G37*
G36*
G01*
X145718800Y-100986000D02*
X145718800Y-101286000D01*
G75*
G02*
X145518800Y-101486000I-200000J0D01*
G01*
X144018800Y-101486000D01*
G75*
G02*
X143818800Y-101286000I0J200000D01*
G01*
X143818800Y-100986000D01*
G75*
G02*
X144018800Y-100786000I200000J0D01*
G01*
X145518800Y-100786000D01*
G75*
G02*
X145718800Y-100986000I0J-200000D01*
G01*
G37*
G36*
G01*
X145718800Y-100486000D02*
X145718800Y-100786000D01*
G75*
G02*
X145518800Y-100986000I-200000J0D01*
G01*
X144018800Y-100986000D01*
G75*
G02*
X143818800Y-100786000I0J200000D01*
G01*
X143818800Y-100486000D01*
G75*
G02*
X144018800Y-100286000I200000J0D01*
G01*
X145518800Y-100286000D01*
G75*
G02*
X145718800Y-100486000I0J-200000D01*
G01*
G37*
G36*
G01*
X145718800Y-99986000D02*
X145718800Y-100286000D01*
G75*
G02*
X145518800Y-100486000I-200000J0D01*
G01*
X144018800Y-100486000D01*
G75*
G02*
X143818800Y-100286000I0J200000D01*
G01*
X143818800Y-99986000D01*
G75*
G02*
X144018800Y-99786000I200000J0D01*
G01*
X145518800Y-99786000D01*
G75*
G02*
X145718800Y-99986000I0J-200000D01*
G01*
G37*
G36*
G01*
X147018800Y-97486000D02*
X147018800Y-98986000D01*
G75*
G02*
X146818800Y-99186000I-200000J0D01*
G01*
X146518800Y-99186000D01*
G75*
G02*
X146318800Y-98986000I0J200000D01*
G01*
X146318800Y-97486000D01*
G75*
G02*
X146518800Y-97286000I200000J0D01*
G01*
X146818800Y-97286000D01*
G75*
G02*
X147018800Y-97486000I0J-200000D01*
G01*
G37*
G36*
G01*
X147518800Y-97486000D02*
X147518800Y-98986000D01*
G75*
G02*
X147318800Y-99186000I-200000J0D01*
G01*
X147018800Y-99186000D01*
G75*
G02*
X146818800Y-98986000I0J200000D01*
G01*
X146818800Y-97486000D01*
G75*
G02*
X147018800Y-97286000I200000J0D01*
G01*
X147318800Y-97286000D01*
G75*
G02*
X147518800Y-97486000I0J-200000D01*
G01*
G37*
G36*
G01*
X148018800Y-97486000D02*
X148018800Y-98986000D01*
G75*
G02*
X147818800Y-99186000I-200000J0D01*
G01*
X147518800Y-99186000D01*
G75*
G02*
X147318800Y-98986000I0J200000D01*
G01*
X147318800Y-97486000D01*
G75*
G02*
X147518800Y-97286000I200000J0D01*
G01*
X147818800Y-97286000D01*
G75*
G02*
X148018800Y-97486000I0J-200000D01*
G01*
G37*
G36*
G01*
X148518800Y-97486000D02*
X148518800Y-98986000D01*
G75*
G02*
X148318800Y-99186000I-200000J0D01*
G01*
X148018800Y-99186000D01*
G75*
G02*
X147818800Y-98986000I0J200000D01*
G01*
X147818800Y-97486000D01*
G75*
G02*
X148018800Y-97286000I200000J0D01*
G01*
X148318800Y-97286000D01*
G75*
G02*
X148518800Y-97486000I0J-200000D01*
G01*
G37*
G36*
G01*
X149018800Y-97486000D02*
X149018800Y-98986000D01*
G75*
G02*
X148818800Y-99186000I-200000J0D01*
G01*
X148518800Y-99186000D01*
G75*
G02*
X148318800Y-98986000I0J200000D01*
G01*
X148318800Y-97486000D01*
G75*
G02*
X148518800Y-97286000I200000J0D01*
G01*
X148818800Y-97286000D01*
G75*
G02*
X149018800Y-97486000I0J-200000D01*
G01*
G37*
G36*
G01*
X149518800Y-97486000D02*
X149518800Y-98986000D01*
G75*
G02*
X149318800Y-99186000I-200000J0D01*
G01*
X149018800Y-99186000D01*
G75*
G02*
X148818800Y-98986000I0J200000D01*
G01*
X148818800Y-97486000D01*
G75*
G02*
X149018800Y-97286000I200000J0D01*
G01*
X149318800Y-97286000D01*
G75*
G02*
X149518800Y-97486000I0J-200000D01*
G01*
G37*
G36*
G01*
X150018800Y-97486000D02*
X150018800Y-98986000D01*
G75*
G02*
X149818800Y-99186000I-200000J0D01*
G01*
X149518800Y-99186000D01*
G75*
G02*
X149318800Y-98986000I0J200000D01*
G01*
X149318800Y-97486000D01*
G75*
G02*
X149518800Y-97286000I200000J0D01*
G01*
X149818800Y-97286000D01*
G75*
G02*
X150018800Y-97486000I0J-200000D01*
G01*
G37*
G36*
G01*
X150518800Y-97486000D02*
X150518800Y-98986000D01*
G75*
G02*
X150318800Y-99186000I-200000J0D01*
G01*
X150018800Y-99186000D01*
G75*
G02*
X149818800Y-98986000I0J200000D01*
G01*
X149818800Y-97486000D01*
G75*
G02*
X150018800Y-97286000I200000J0D01*
G01*
X150318800Y-97286000D01*
G75*
G02*
X150518800Y-97486000I0J-200000D01*
G01*
G37*
G36*
G01*
X151018800Y-97486000D02*
X151018800Y-98986000D01*
G75*
G02*
X150818800Y-99186000I-200000J0D01*
G01*
X150518800Y-99186000D01*
G75*
G02*
X150318800Y-98986000I0J200000D01*
G01*
X150318800Y-97486000D01*
G75*
G02*
X150518800Y-97286000I200000J0D01*
G01*
X150818800Y-97286000D01*
G75*
G02*
X151018800Y-97486000I0J-200000D01*
G01*
G37*
G36*
G01*
X151518800Y-97486000D02*
X151518800Y-98986000D01*
G75*
G02*
X151318800Y-99186000I-200000J0D01*
G01*
X151018800Y-99186000D01*
G75*
G02*
X150818800Y-98986000I0J200000D01*
G01*
X150818800Y-97486000D01*
G75*
G02*
X151018800Y-97286000I200000J0D01*
G01*
X151318800Y-97286000D01*
G75*
G02*
X151518800Y-97486000I0J-200000D01*
G01*
G37*
G36*
G01*
X152018800Y-97486000D02*
X152018800Y-98986000D01*
G75*
G02*
X151818800Y-99186000I-200000J0D01*
G01*
X151518800Y-99186000D01*
G75*
G02*
X151318800Y-98986000I0J200000D01*
G01*
X151318800Y-97486000D01*
G75*
G02*
X151518800Y-97286000I200000J0D01*
G01*
X151818800Y-97286000D01*
G75*
G02*
X152018800Y-97486000I0J-200000D01*
G01*
G37*
G36*
G01*
X152518800Y-97486000D02*
X152518800Y-98986000D01*
G75*
G02*
X152318800Y-99186000I-200000J0D01*
G01*
X152018800Y-99186000D01*
G75*
G02*
X151818800Y-98986000I0J200000D01*
G01*
X151818800Y-97486000D01*
G75*
G02*
X152018800Y-97286000I200000J0D01*
G01*
X152318800Y-97286000D01*
G75*
G02*
X152518800Y-97486000I0J-200000D01*
G01*
G37*
G36*
G01*
X153018800Y-97486000D02*
X153018800Y-98986000D01*
G75*
G02*
X152818800Y-99186000I-200000J0D01*
G01*
X152518800Y-99186000D01*
G75*
G02*
X152318800Y-98986000I0J200000D01*
G01*
X152318800Y-97486000D01*
G75*
G02*
X152518800Y-97286000I200000J0D01*
G01*
X152818800Y-97286000D01*
G75*
G02*
X153018800Y-97486000I0J-200000D01*
G01*
G37*
G36*
G01*
X153518800Y-97486000D02*
X153518800Y-98986000D01*
G75*
G02*
X153318800Y-99186000I-200000J0D01*
G01*
X153018800Y-99186000D01*
G75*
G02*
X152818800Y-98986000I0J200000D01*
G01*
X152818800Y-97486000D01*
G75*
G02*
X153018800Y-97286000I200000J0D01*
G01*
X153318800Y-97286000D01*
G75*
G02*
X153518800Y-97486000I0J-200000D01*
G01*
G37*
G36*
G01*
X154018800Y-97486000D02*
X154018800Y-98986000D01*
G75*
G02*
X153818800Y-99186000I-200000J0D01*
G01*
X153518800Y-99186000D01*
G75*
G02*
X153318800Y-98986000I0J200000D01*
G01*
X153318800Y-97486000D01*
G75*
G02*
X153518800Y-97286000I200000J0D01*
G01*
X153818800Y-97286000D01*
G75*
G02*
X154018800Y-97486000I0J-200000D01*
G01*
G37*
G36*
G01*
X154518800Y-97486000D02*
X154518800Y-98986000D01*
G75*
G02*
X154318800Y-99186000I-200000J0D01*
G01*
X154018800Y-99186000D01*
G75*
G02*
X153818800Y-98986000I0J200000D01*
G01*
X153818800Y-97486000D01*
G75*
G02*
X154018800Y-97286000I200000J0D01*
G01*
X154318800Y-97286000D01*
G75*
G02*
X154518800Y-97486000I0J-200000D01*
G01*
G37*
G36*
G01*
X157018800Y-99986000D02*
X157018800Y-100286000D01*
G75*
G02*
X156818800Y-100486000I-200000J0D01*
G01*
X155318800Y-100486000D01*
G75*
G02*
X155118800Y-100286000I0J200000D01*
G01*
X155118800Y-99986000D01*
G75*
G02*
X155318800Y-99786000I200000J0D01*
G01*
X156818800Y-99786000D01*
G75*
G02*
X157018800Y-99986000I0J-200000D01*
G01*
G37*
G36*
G01*
X157018800Y-100486000D02*
X157018800Y-100786000D01*
G75*
G02*
X156818800Y-100986000I-200000J0D01*
G01*
X155318800Y-100986000D01*
G75*
G02*
X155118800Y-100786000I0J200000D01*
G01*
X155118800Y-100486000D01*
G75*
G02*
X155318800Y-100286000I200000J0D01*
G01*
X156818800Y-100286000D01*
G75*
G02*
X157018800Y-100486000I0J-200000D01*
G01*
G37*
G36*
G01*
X157018800Y-100986000D02*
X157018800Y-101286000D01*
G75*
G02*
X156818800Y-101486000I-200000J0D01*
G01*
X155318800Y-101486000D01*
G75*
G02*
X155118800Y-101286000I0J200000D01*
G01*
X155118800Y-100986000D01*
G75*
G02*
X155318800Y-100786000I200000J0D01*
G01*
X156818800Y-100786000D01*
G75*
G02*
X157018800Y-100986000I0J-200000D01*
G01*
G37*
G36*
G01*
X157018800Y-101486000D02*
X157018800Y-101786000D01*
G75*
G02*
X156818800Y-101986000I-200000J0D01*
G01*
X155318800Y-101986000D01*
G75*
G02*
X155118800Y-101786000I0J200000D01*
G01*
X155118800Y-101486000D01*
G75*
G02*
X155318800Y-101286000I200000J0D01*
G01*
X156818800Y-101286000D01*
G75*
G02*
X157018800Y-101486000I0J-200000D01*
G01*
G37*
G36*
G01*
X157018800Y-101986000D02*
X157018800Y-102286000D01*
G75*
G02*
X156818800Y-102486000I-200000J0D01*
G01*
X155318800Y-102486000D01*
G75*
G02*
X155118800Y-102286000I0J200000D01*
G01*
X155118800Y-101986000D01*
G75*
G02*
X155318800Y-101786000I200000J0D01*
G01*
X156818800Y-101786000D01*
G75*
G02*
X157018800Y-101986000I0J-200000D01*
G01*
G37*
G36*
G01*
X157018800Y-102486000D02*
X157018800Y-102786000D01*
G75*
G02*
X156818800Y-102986000I-200000J0D01*
G01*
X155318800Y-102986000D01*
G75*
G02*
X155118800Y-102786000I0J200000D01*
G01*
X155118800Y-102486000D01*
G75*
G02*
X155318800Y-102286000I200000J0D01*
G01*
X156818800Y-102286000D01*
G75*
G02*
X157018800Y-102486000I0J-200000D01*
G01*
G37*
G36*
G01*
X157018800Y-102986000D02*
X157018800Y-103286000D01*
G75*
G02*
X156818800Y-103486000I-200000J0D01*
G01*
X155318800Y-103486000D01*
G75*
G02*
X155118800Y-103286000I0J200000D01*
G01*
X155118800Y-102986000D01*
G75*
G02*
X155318800Y-102786000I200000J0D01*
G01*
X156818800Y-102786000D01*
G75*
G02*
X157018800Y-102986000I0J-200000D01*
G01*
G37*
G36*
G01*
X157018800Y-103486000D02*
X157018800Y-103786000D01*
G75*
G02*
X156818800Y-103986000I-200000J0D01*
G01*
X155318800Y-103986000D01*
G75*
G02*
X155118800Y-103786000I0J200000D01*
G01*
X155118800Y-103486000D01*
G75*
G02*
X155318800Y-103286000I200000J0D01*
G01*
X156818800Y-103286000D01*
G75*
G02*
X157018800Y-103486000I0J-200000D01*
G01*
G37*
G36*
G01*
X157018800Y-103986000D02*
X157018800Y-104286000D01*
G75*
G02*
X156818800Y-104486000I-200000J0D01*
G01*
X155318800Y-104486000D01*
G75*
G02*
X155118800Y-104286000I0J200000D01*
G01*
X155118800Y-103986000D01*
G75*
G02*
X155318800Y-103786000I200000J0D01*
G01*
X156818800Y-103786000D01*
G75*
G02*
X157018800Y-103986000I0J-200000D01*
G01*
G37*
G36*
G01*
X157018800Y-104486000D02*
X157018800Y-104786000D01*
G75*
G02*
X156818800Y-104986000I-200000J0D01*
G01*
X155318800Y-104986000D01*
G75*
G02*
X155118800Y-104786000I0J200000D01*
G01*
X155118800Y-104486000D01*
G75*
G02*
X155318800Y-104286000I200000J0D01*
G01*
X156818800Y-104286000D01*
G75*
G02*
X157018800Y-104486000I0J-200000D01*
G01*
G37*
G36*
G01*
X157018800Y-104986000D02*
X157018800Y-105286000D01*
G75*
G02*
X156818800Y-105486000I-200000J0D01*
G01*
X155318800Y-105486000D01*
G75*
G02*
X155118800Y-105286000I0J200000D01*
G01*
X155118800Y-104986000D01*
G75*
G02*
X155318800Y-104786000I200000J0D01*
G01*
X156818800Y-104786000D01*
G75*
G02*
X157018800Y-104986000I0J-200000D01*
G01*
G37*
G36*
G01*
X157018800Y-105486000D02*
X157018800Y-105786000D01*
G75*
G02*
X156818800Y-105986000I-200000J0D01*
G01*
X155318800Y-105986000D01*
G75*
G02*
X155118800Y-105786000I0J200000D01*
G01*
X155118800Y-105486000D01*
G75*
G02*
X155318800Y-105286000I200000J0D01*
G01*
X156818800Y-105286000D01*
G75*
G02*
X157018800Y-105486000I0J-200000D01*
G01*
G37*
G36*
G01*
X157018800Y-105986000D02*
X157018800Y-106286000D01*
G75*
G02*
X156818800Y-106486000I-200000J0D01*
G01*
X155318800Y-106486000D01*
G75*
G02*
X155118800Y-106286000I0J200000D01*
G01*
X155118800Y-105986000D01*
G75*
G02*
X155318800Y-105786000I200000J0D01*
G01*
X156818800Y-105786000D01*
G75*
G02*
X157018800Y-105986000I0J-200000D01*
G01*
G37*
G36*
G01*
X157018800Y-106486000D02*
X157018800Y-106786000D01*
G75*
G02*
X156818800Y-106986000I-200000J0D01*
G01*
X155318800Y-106986000D01*
G75*
G02*
X155118800Y-106786000I0J200000D01*
G01*
X155118800Y-106486000D01*
G75*
G02*
X155318800Y-106286000I200000J0D01*
G01*
X156818800Y-106286000D01*
G75*
G02*
X157018800Y-106486000I0J-200000D01*
G01*
G37*
G36*
G01*
X157018800Y-106986000D02*
X157018800Y-107286000D01*
G75*
G02*
X156818800Y-107486000I-200000J0D01*
G01*
X155318800Y-107486000D01*
G75*
G02*
X155118800Y-107286000I0J200000D01*
G01*
X155118800Y-106986000D01*
G75*
G02*
X155318800Y-106786000I200000J0D01*
G01*
X156818800Y-106786000D01*
G75*
G02*
X157018800Y-106986000I0J-200000D01*
G01*
G37*
G36*
G01*
X157018800Y-107486000D02*
X157018800Y-107786000D01*
G75*
G02*
X156818800Y-107986000I-200000J0D01*
G01*
X155318800Y-107986000D01*
G75*
G02*
X155118800Y-107786000I0J200000D01*
G01*
X155118800Y-107486000D01*
G75*
G02*
X155318800Y-107286000I200000J0D01*
G01*
X156818800Y-107286000D01*
G75*
G02*
X157018800Y-107486000I0J-200000D01*
G01*
G37*
G36*
G01*
X140999000Y-98177000D02*
X140999000Y-98927000D01*
G75*
G02*
X140699000Y-99227000I-300000J0D01*
G01*
X140099000Y-99227000D01*
G75*
G02*
X139799000Y-98927000I0J300000D01*
G01*
X139799000Y-98177000D01*
G75*
G02*
X140099000Y-97877000I300000J0D01*
G01*
X140699000Y-97877000D01*
G75*
G02*
X140999000Y-98177000I0J-300000D01*
G01*
G37*
G36*
G01*
X142649000Y-98177000D02*
X142649000Y-98927000D01*
G75*
G02*
X142349000Y-99227000I-300000J0D01*
G01*
X141749000Y-99227000D01*
G75*
G02*
X141449000Y-98927000I0J300000D01*
G01*
X141449000Y-98177000D01*
G75*
G02*
X141749000Y-97877000I300000J0D01*
G01*
X142349000Y-97877000D01*
G75*
G02*
X142649000Y-98177000I0J-300000D01*
G01*
G37*
D10*
X172021500Y-110123600D03*
X169481500Y-110123600D03*
X172021500Y-107583600D03*
X169481500Y-107583600D03*
X172021500Y-105043600D03*
X169481500Y-105043600D03*
X172021500Y-102503600D03*
X169481500Y-102503600D03*
X172021500Y-99963600D03*
G36*
G01*
X168431500Y-100813600D02*
X168431500Y-99113600D01*
G75*
G02*
X168631500Y-98913600I200000J0D01*
G01*
X170331500Y-98913600D01*
G75*
G02*
X170531500Y-99113600I0J-200000D01*
G01*
X170531500Y-100813600D01*
G75*
G02*
X170331500Y-101013600I-200000J0D01*
G01*
X168631500Y-101013600D01*
G75*
G02*
X168431500Y-100813600I0J200000D01*
G01*
G37*
G36*
G01*
X130558000Y-101631000D02*
X130558000Y-102331000D01*
G75*
G02*
X130233000Y-102656000I-325000J0D01*
G01*
X129583000Y-102656000D01*
G75*
G02*
X129258000Y-102331000I0J325000D01*
G01*
X129258000Y-101631000D01*
G75*
G02*
X129583000Y-101306000I325000J0D01*
G01*
X130233000Y-101306000D01*
G75*
G02*
X130558000Y-101631000I0J-325000D01*
G01*
G37*
G36*
G01*
X132108000Y-101631000D02*
X132108000Y-102331000D01*
G75*
G02*
X131783000Y-102656000I-325000J0D01*
G01*
X131133000Y-102656000D01*
G75*
G02*
X130808000Y-102331000I0J325000D01*
G01*
X130808000Y-101631000D01*
G75*
G02*
X131133000Y-101306000I325000J0D01*
G01*
X131783000Y-101306000D01*
G75*
G02*
X132108000Y-101631000I0J-325000D01*
G01*
G37*
G36*
G01*
X132171500Y-107409500D02*
X132171500Y-108109500D01*
G75*
G02*
X131846500Y-108434500I-325000J0D01*
G01*
X131196500Y-108434500D01*
G75*
G02*
X130871500Y-108109500I0J325000D01*
G01*
X130871500Y-107409500D01*
G75*
G02*
X131196500Y-107084500I325000J0D01*
G01*
X131846500Y-107084500D01*
G75*
G02*
X132171500Y-107409500I0J-325000D01*
G01*
G37*
G36*
G01*
X130621500Y-107409500D02*
X130621500Y-108109500D01*
G75*
G02*
X130296500Y-108434500I-325000J0D01*
G01*
X129646500Y-108434500D01*
G75*
G02*
X129321500Y-108109500I0J325000D01*
G01*
X129321500Y-107409500D01*
G75*
G02*
X129646500Y-107084500I325000J0D01*
G01*
X130296500Y-107084500D01*
G75*
G02*
X130621500Y-107409500I0J-325000D01*
G01*
G37*
G36*
G01*
X130207500Y-110619000D02*
X129507500Y-110619000D01*
G75*
G02*
X129182500Y-110294000I0J325000D01*
G01*
X129182500Y-109644000D01*
G75*
G02*
X129507500Y-109319000I325000J0D01*
G01*
X130207500Y-109319000D01*
G75*
G02*
X130532500Y-109644000I0J-325000D01*
G01*
X130532500Y-110294000D01*
G75*
G02*
X130207500Y-110619000I-325000J0D01*
G01*
G37*
G36*
G01*
X130207500Y-112169000D02*
X129507500Y-112169000D01*
G75*
G02*
X129182500Y-111844000I0J325000D01*
G01*
X129182500Y-111194000D01*
G75*
G02*
X129507500Y-110869000I325000J0D01*
G01*
X130207500Y-110869000D01*
G75*
G02*
X130532500Y-111194000I0J-325000D01*
G01*
X130532500Y-111844000D01*
G75*
G02*
X130207500Y-112169000I-325000J0D01*
G01*
G37*
G36*
G01*
X136167400Y-110281200D02*
X136167400Y-109581200D01*
G75*
G02*
X136492400Y-109256200I325000J0D01*
G01*
X137142400Y-109256200D01*
G75*
G02*
X137467400Y-109581200I0J-325000D01*
G01*
X137467400Y-110281200D01*
G75*
G02*
X137142400Y-110606200I-325000J0D01*
G01*
X136492400Y-110606200D01*
G75*
G02*
X136167400Y-110281200I0J325000D01*
G01*
G37*
G36*
G01*
X134617400Y-110281200D02*
X134617400Y-109581200D01*
G75*
G02*
X134942400Y-109256200I325000J0D01*
G01*
X135592400Y-109256200D01*
G75*
G02*
X135917400Y-109581200I0J-325000D01*
G01*
X135917400Y-110281200D01*
G75*
G02*
X135592400Y-110606200I-325000J0D01*
G01*
X134942400Y-110606200D01*
G75*
G02*
X134617400Y-110281200I0J325000D01*
G01*
G37*
G36*
G01*
X163802600Y-102305600D02*
X163802600Y-101605600D01*
G75*
G02*
X164127600Y-101280600I325000J0D01*
G01*
X164777600Y-101280600D01*
G75*
G02*
X165102600Y-101605600I0J-325000D01*
G01*
X165102600Y-102305600D01*
G75*
G02*
X164777600Y-102630600I-325000J0D01*
G01*
X164127600Y-102630600D01*
G75*
G02*
X163802600Y-102305600I0J325000D01*
G01*
G37*
G36*
G01*
X162252600Y-102305600D02*
X162252600Y-101605600D01*
G75*
G02*
X162577600Y-101280600I325000J0D01*
G01*
X163227600Y-101280600D01*
G75*
G02*
X163552600Y-101605600I0J-325000D01*
G01*
X163552600Y-102305600D01*
G75*
G02*
X163227600Y-102630600I-325000J0D01*
G01*
X162577600Y-102630600D01*
G75*
G02*
X162252600Y-102305600I0J325000D01*
G01*
G37*
G36*
G01*
X166388300Y-96542800D02*
X167088300Y-96542800D01*
G75*
G02*
X167413300Y-96867800I0J-325000D01*
G01*
X167413300Y-97517800D01*
G75*
G02*
X167088300Y-97842800I-325000J0D01*
G01*
X166388300Y-97842800D01*
G75*
G02*
X166063300Y-97517800I0J325000D01*
G01*
X166063300Y-96867800D01*
G75*
G02*
X166388300Y-96542800I325000J0D01*
G01*
G37*
G36*
G01*
X166388300Y-98092800D02*
X167088300Y-98092800D01*
G75*
G02*
X167413300Y-98417800I0J-325000D01*
G01*
X167413300Y-99067800D01*
G75*
G02*
X167088300Y-99392800I-325000J0D01*
G01*
X166388300Y-99392800D01*
G75*
G02*
X166063300Y-99067800I0J325000D01*
G01*
X166063300Y-98417800D01*
G75*
G02*
X166388300Y-98092800I325000J0D01*
G01*
G37*
G36*
G01*
X162265300Y-100794300D02*
X162265300Y-100094300D01*
G75*
G02*
X162590300Y-99769300I325000J0D01*
G01*
X163240300Y-99769300D01*
G75*
G02*
X163565300Y-100094300I0J-325000D01*
G01*
X163565300Y-100794300D01*
G75*
G02*
X163240300Y-101119300I-325000J0D01*
G01*
X162590300Y-101119300D01*
G75*
G02*
X162265300Y-100794300I0J325000D01*
G01*
G37*
G36*
G01*
X163815300Y-100794300D02*
X163815300Y-100094300D01*
G75*
G02*
X164140300Y-99769300I325000J0D01*
G01*
X164790300Y-99769300D01*
G75*
G02*
X165115300Y-100094300I0J-325000D01*
G01*
X165115300Y-100794300D01*
G75*
G02*
X164790300Y-101119300I-325000J0D01*
G01*
X164140300Y-101119300D01*
G75*
G02*
X163815300Y-100794300I0J325000D01*
G01*
G37*
G36*
G01*
X160453800Y-96474800D02*
X160453800Y-97174800D01*
G75*
G02*
X160128800Y-97499800I-325000J0D01*
G01*
X159478800Y-97499800D01*
G75*
G02*
X159153800Y-97174800I0J325000D01*
G01*
X159153800Y-96474800D01*
G75*
G02*
X159478800Y-96149800I325000J0D01*
G01*
X160128800Y-96149800D01*
G75*
G02*
X160453800Y-96474800I0J-325000D01*
G01*
G37*
G36*
G01*
X162003800Y-96474800D02*
X162003800Y-97174800D01*
G75*
G02*
X161678800Y-97499800I-325000J0D01*
G01*
X161028800Y-97499800D01*
G75*
G02*
X160703800Y-97174800I0J325000D01*
G01*
X160703800Y-96474800D01*
G75*
G02*
X161028800Y-96149800I325000J0D01*
G01*
X161678800Y-96149800D01*
G75*
G02*
X162003800Y-96474800I0J-325000D01*
G01*
G37*
G36*
G01*
X162087500Y-113837200D02*
X162087500Y-113137200D01*
G75*
G02*
X162412500Y-112812200I325000J0D01*
G01*
X163062500Y-112812200D01*
G75*
G02*
X163387500Y-113137200I0J-325000D01*
G01*
X163387500Y-113837200D01*
G75*
G02*
X163062500Y-114162200I-325000J0D01*
G01*
X162412500Y-114162200D01*
G75*
G02*
X162087500Y-113837200I0J325000D01*
G01*
G37*
G36*
G01*
X163637500Y-113837200D02*
X163637500Y-113137200D01*
G75*
G02*
X163962500Y-112812200I325000J0D01*
G01*
X164612500Y-112812200D01*
G75*
G02*
X164937500Y-113137200I0J-325000D01*
G01*
X164937500Y-113837200D01*
G75*
G02*
X164612500Y-114162200I-325000J0D01*
G01*
X163962500Y-114162200D01*
G75*
G02*
X163637500Y-113837200I0J325000D01*
G01*
G37*
G36*
G01*
X163764500Y-106979200D02*
X163764500Y-106279200D01*
G75*
G02*
X164089500Y-105954200I325000J0D01*
G01*
X164739500Y-105954200D01*
G75*
G02*
X165064500Y-106279200I0J-325000D01*
G01*
X165064500Y-106979200D01*
G75*
G02*
X164739500Y-107304200I-325000J0D01*
G01*
X164089500Y-107304200D01*
G75*
G02*
X163764500Y-106979200I0J325000D01*
G01*
G37*
G36*
G01*
X162214500Y-106979200D02*
X162214500Y-106279200D01*
G75*
G02*
X162539500Y-105954200I325000J0D01*
G01*
X163189500Y-105954200D01*
G75*
G02*
X163514500Y-106279200I0J-325000D01*
G01*
X163514500Y-106979200D01*
G75*
G02*
X163189500Y-107304200I-325000J0D01*
G01*
X162539500Y-107304200D01*
G75*
G02*
X162214500Y-106979200I0J325000D01*
G01*
G37*
G36*
G01*
X145366500Y-111054400D02*
X145366500Y-111754400D01*
G75*
G02*
X145041500Y-112079400I-325000J0D01*
G01*
X144391500Y-112079400D01*
G75*
G02*
X144066500Y-111754400I0J325000D01*
G01*
X144066500Y-111054400D01*
G75*
G02*
X144391500Y-110729400I325000J0D01*
G01*
X145041500Y-110729400D01*
G75*
G02*
X145366500Y-111054400I0J-325000D01*
G01*
G37*
G36*
G01*
X143816500Y-111054400D02*
X143816500Y-111754400D01*
G75*
G02*
X143491500Y-112079400I-325000J0D01*
G01*
X142841500Y-112079400D01*
G75*
G02*
X142516500Y-111754400I0J325000D01*
G01*
X142516500Y-111054400D01*
G75*
G02*
X142841500Y-110729400I325000J0D01*
G01*
X143491500Y-110729400D01*
G75*
G02*
X143816500Y-111054400I0J-325000D01*
G01*
G37*
G36*
G01*
X143816500Y-109568500D02*
X143816500Y-110268500D01*
G75*
G02*
X143491500Y-110593500I-325000J0D01*
G01*
X142841500Y-110593500D01*
G75*
G02*
X142516500Y-110268500I0J325000D01*
G01*
X142516500Y-109568500D01*
G75*
G02*
X142841500Y-109243500I325000J0D01*
G01*
X143491500Y-109243500D01*
G75*
G02*
X143816500Y-109568500I0J-325000D01*
G01*
G37*
G36*
G01*
X145366500Y-109568500D02*
X145366500Y-110268500D01*
G75*
G02*
X145041500Y-110593500I-325000J0D01*
G01*
X144391500Y-110593500D01*
G75*
G02*
X144066500Y-110268500I0J325000D01*
G01*
X144066500Y-109568500D01*
G75*
G02*
X144391500Y-109243500I325000J0D01*
G01*
X145041500Y-109243500D01*
G75*
G02*
X145366500Y-109568500I0J-325000D01*
G01*
G37*
G36*
G01*
X127158000Y-99375500D02*
X127858000Y-99375500D01*
G75*
G02*
X128183000Y-99700500I0J-325000D01*
G01*
X128183000Y-100350500D01*
G75*
G02*
X127858000Y-100675500I-325000J0D01*
G01*
X127158000Y-100675500D01*
G75*
G02*
X126833000Y-100350500I0J325000D01*
G01*
X126833000Y-99700500D01*
G75*
G02*
X127158000Y-99375500I325000J0D01*
G01*
G37*
G36*
G01*
X127158000Y-97825500D02*
X127858000Y-97825500D01*
G75*
G02*
X128183000Y-98150500I0J-325000D01*
G01*
X128183000Y-98800500D01*
G75*
G02*
X127858000Y-99125500I-325000J0D01*
G01*
X127158000Y-99125500D01*
G75*
G02*
X126833000Y-98800500I0J325000D01*
G01*
X126833000Y-98150500D01*
G75*
G02*
X127158000Y-97825500I325000J0D01*
G01*
G37*
G36*
G01*
X130819000Y-95927000D02*
X130819000Y-94827000D01*
G75*
G02*
X131019000Y-94627000I200000J0D01*
G01*
X132119000Y-94627000D01*
G75*
G02*
X132319000Y-94827000I0J-200000D01*
G01*
X132319000Y-95927000D01*
G75*
G02*
X132119000Y-96127000I-200000J0D01*
G01*
X131019000Y-96127000D01*
G75*
G02*
X130819000Y-95927000I0J200000D01*
G01*
G37*
G36*
G01*
X133619000Y-95927000D02*
X133619000Y-94827000D01*
G75*
G02*
X133819000Y-94627000I200000J0D01*
G01*
X134919000Y-94627000D01*
G75*
G02*
X135119000Y-94827000I0J-200000D01*
G01*
X135119000Y-95927000D01*
G75*
G02*
X134919000Y-96127000I-200000J0D01*
G01*
X133819000Y-96127000D01*
G75*
G02*
X133619000Y-95927000I0J200000D01*
G01*
G37*
G36*
G01*
X136184500Y-107276250D02*
X136184500Y-107988750D01*
G75*
G02*
X135865750Y-108307500I-318750J0D01*
G01*
X135228250Y-108307500D01*
G75*
G02*
X134909500Y-107988750I0J318750D01*
G01*
X134909500Y-107276250D01*
G75*
G02*
X135228250Y-106957500I318750J0D01*
G01*
X135865750Y-106957500D01*
G75*
G02*
X136184500Y-107276250I0J-318750D01*
G01*
G37*
G36*
G01*
X137759500Y-107276250D02*
X137759500Y-107988750D01*
G75*
G02*
X137440750Y-108307500I-318750J0D01*
G01*
X136803250Y-108307500D01*
G75*
G02*
X136484500Y-107988750I0J318750D01*
G01*
X136484500Y-107276250D01*
G75*
G02*
X136803250Y-106957500I318750J0D01*
G01*
X137440750Y-106957500D01*
G75*
G02*
X137759500Y-107276250I0J-318750D01*
G01*
G37*
G36*
G01*
X137721400Y-103275750D02*
X137721400Y-103988250D01*
G75*
G02*
X137402650Y-104307000I-318750J0D01*
G01*
X136765150Y-104307000D01*
G75*
G02*
X136446400Y-103988250I0J318750D01*
G01*
X136446400Y-103275750D01*
G75*
G02*
X136765150Y-102957000I318750J0D01*
G01*
X137402650Y-102957000D01*
G75*
G02*
X137721400Y-103275750I0J-318750D01*
G01*
G37*
G36*
G01*
X136146400Y-103275750D02*
X136146400Y-103988250D01*
G75*
G02*
X135827650Y-104307000I-318750J0D01*
G01*
X135190150Y-104307000D01*
G75*
G02*
X134871400Y-103988250I0J318750D01*
G01*
X134871400Y-103275750D01*
G75*
G02*
X135190150Y-102957000I318750J0D01*
G01*
X135827650Y-102957000D01*
G75*
G02*
X136146400Y-103275750I0J-318750D01*
G01*
G37*
G36*
G01*
X140440200Y-102317200D02*
X140440200Y-103067200D01*
G75*
G02*
X140140200Y-103367200I-300000J0D01*
G01*
X139540200Y-103367200D01*
G75*
G02*
X139240200Y-103067200I0J300000D01*
G01*
X139240200Y-102317200D01*
G75*
G02*
X139540200Y-102017200I300000J0D01*
G01*
X140140200Y-102017200D01*
G75*
G02*
X140440200Y-102317200I0J-300000D01*
G01*
G37*
G36*
G01*
X142090200Y-102317200D02*
X142090200Y-103067200D01*
G75*
G02*
X141790200Y-103367200I-300000J0D01*
G01*
X141190200Y-103367200D01*
G75*
G02*
X140890200Y-103067200I0J300000D01*
G01*
X140890200Y-102317200D01*
G75*
G02*
X141190200Y-102017200I300000J0D01*
G01*
X141790200Y-102017200D01*
G75*
G02*
X142090200Y-102317200I0J-300000D01*
G01*
G37*
G36*
G01*
X137759500Y-105797000D02*
X137759500Y-106547000D01*
G75*
G02*
X137459500Y-106847000I-300000J0D01*
G01*
X136859500Y-106847000D01*
G75*
G02*
X136559500Y-106547000I0J300000D01*
G01*
X136559500Y-105797000D01*
G75*
G02*
X136859500Y-105497000I300000J0D01*
G01*
X137459500Y-105497000D01*
G75*
G02*
X137759500Y-105797000I0J-300000D01*
G01*
G37*
G36*
G01*
X136109500Y-105797000D02*
X136109500Y-106547000D01*
G75*
G02*
X135809500Y-106847000I-300000J0D01*
G01*
X135209500Y-106847000D01*
G75*
G02*
X134909500Y-106547000I0J300000D01*
G01*
X134909500Y-105797000D01*
G75*
G02*
X135209500Y-105497000I300000J0D01*
G01*
X135809500Y-105497000D01*
G75*
G02*
X136109500Y-105797000I0J-300000D01*
G01*
G37*
G36*
G01*
X142090200Y-106698700D02*
X142090200Y-107448700D01*
G75*
G02*
X141790200Y-107748700I-300000J0D01*
G01*
X141190200Y-107748700D01*
G75*
G02*
X140890200Y-107448700I0J300000D01*
G01*
X140890200Y-106698700D01*
G75*
G02*
X141190200Y-106398700I300000J0D01*
G01*
X141790200Y-106398700D01*
G75*
G02*
X142090200Y-106698700I0J-300000D01*
G01*
G37*
G36*
G01*
X140440200Y-106698700D02*
X140440200Y-107448700D01*
G75*
G02*
X140140200Y-107748700I-300000J0D01*
G01*
X139540200Y-107748700D01*
G75*
G02*
X139240200Y-107448700I0J300000D01*
G01*
X139240200Y-106698700D01*
G75*
G02*
X139540200Y-106398700I300000J0D01*
G01*
X140140200Y-106398700D01*
G75*
G02*
X140440200Y-106698700I0J-300000D01*
G01*
G37*
G36*
G01*
X140440200Y-105238200D02*
X140440200Y-105988200D01*
G75*
G02*
X140140200Y-106288200I-300000J0D01*
G01*
X139540200Y-106288200D01*
G75*
G02*
X139240200Y-105988200I0J300000D01*
G01*
X139240200Y-105238200D01*
G75*
G02*
X139540200Y-104938200I300000J0D01*
G01*
X140140200Y-104938200D01*
G75*
G02*
X140440200Y-105238200I0J-300000D01*
G01*
G37*
G36*
G01*
X142090200Y-105238200D02*
X142090200Y-105988200D01*
G75*
G02*
X141790200Y-106288200I-300000J0D01*
G01*
X141190200Y-106288200D01*
G75*
G02*
X140890200Y-105988200I0J300000D01*
G01*
X140890200Y-105238200D01*
G75*
G02*
X141190200Y-104938200I300000J0D01*
G01*
X141790200Y-104938200D01*
G75*
G02*
X142090200Y-105238200I0J-300000D01*
G01*
G37*
G36*
G01*
X142090200Y-103777700D02*
X142090200Y-104527700D01*
G75*
G02*
X141790200Y-104827700I-300000J0D01*
G01*
X141190200Y-104827700D01*
G75*
G02*
X140890200Y-104527700I0J300000D01*
G01*
X140890200Y-103777700D01*
G75*
G02*
X141190200Y-103477700I300000J0D01*
G01*
X141790200Y-103477700D01*
G75*
G02*
X142090200Y-103777700I0J-300000D01*
G01*
G37*
G36*
G01*
X140440200Y-103777700D02*
X140440200Y-104527700D01*
G75*
G02*
X140140200Y-104827700I-300000J0D01*
G01*
X139540200Y-104827700D01*
G75*
G02*
X139240200Y-104527700I0J300000D01*
G01*
X139240200Y-103777700D01*
G75*
G02*
X139540200Y-103477700I300000J0D01*
G01*
X140140200Y-103477700D01*
G75*
G02*
X140440200Y-103777700I0J-300000D01*
G01*
G37*
G36*
G01*
X134871400Y-102483000D02*
X134871400Y-101733000D01*
G75*
G02*
X135171400Y-101433000I300000J0D01*
G01*
X135771400Y-101433000D01*
G75*
G02*
X136071400Y-101733000I0J-300000D01*
G01*
X136071400Y-102483000D01*
G75*
G02*
X135771400Y-102783000I-300000J0D01*
G01*
X135171400Y-102783000D01*
G75*
G02*
X134871400Y-102483000I0J300000D01*
G01*
G37*
G36*
G01*
X136521400Y-102483000D02*
X136521400Y-101733000D01*
G75*
G02*
X136821400Y-101433000I300000J0D01*
G01*
X137421400Y-101433000D01*
G75*
G02*
X137721400Y-101733000I0J-300000D01*
G01*
X137721400Y-102483000D01*
G75*
G02*
X137421400Y-102783000I-300000J0D01*
G01*
X136821400Y-102783000D01*
G75*
G02*
X136521400Y-102483000I0J300000D01*
G01*
G37*
G36*
G01*
X132195500Y-99748500D02*
X132195500Y-100398500D01*
G75*
G02*
X131995500Y-100598500I-200000J0D01*
G01*
X130935500Y-100598500D01*
G75*
G02*
X130735500Y-100398500I0J200000D01*
G01*
X130735500Y-99748500D01*
G75*
G02*
X130935500Y-99548500I200000J0D01*
G01*
X131995500Y-99548500D01*
G75*
G02*
X132195500Y-99748500I0J-200000D01*
G01*
G37*
G36*
G01*
X132195500Y-98798500D02*
X132195500Y-99448500D01*
G75*
G02*
X131995500Y-99648500I-200000J0D01*
G01*
X130935500Y-99648500D01*
G75*
G02*
X130735500Y-99448500I0J200000D01*
G01*
X130735500Y-98798500D01*
G75*
G02*
X130935500Y-98598500I200000J0D01*
G01*
X131995500Y-98598500D01*
G75*
G02*
X132195500Y-98798500I0J-200000D01*
G01*
G37*
G36*
G01*
X132195500Y-97848500D02*
X132195500Y-98498500D01*
G75*
G02*
X131995500Y-98698500I-200000J0D01*
G01*
X130935500Y-98698500D01*
G75*
G02*
X130735500Y-98498500I0J200000D01*
G01*
X130735500Y-97848500D01*
G75*
G02*
X130935500Y-97648500I200000J0D01*
G01*
X131995500Y-97648500D01*
G75*
G02*
X132195500Y-97848500I0J-200000D01*
G01*
G37*
G36*
G01*
X129995500Y-97848500D02*
X129995500Y-98498500D01*
G75*
G02*
X129795500Y-98698500I-200000J0D01*
G01*
X128735500Y-98698500D01*
G75*
G02*
X128535500Y-98498500I0J200000D01*
G01*
X128535500Y-97848500D01*
G75*
G02*
X128735500Y-97648500I200000J0D01*
G01*
X129795500Y-97648500D01*
G75*
G02*
X129995500Y-97848500I0J-200000D01*
G01*
G37*
G36*
G01*
X129995500Y-99748500D02*
X129995500Y-100398500D01*
G75*
G02*
X129795500Y-100598500I-200000J0D01*
G01*
X128735500Y-100598500D01*
G75*
G02*
X128535500Y-100398500I0J200000D01*
G01*
X128535500Y-99748500D01*
G75*
G02*
X128735500Y-99548500I200000J0D01*
G01*
X129795500Y-99548500D01*
G75*
G02*
X129995500Y-99748500I0J-200000D01*
G01*
G37*
G36*
G01*
X131147500Y-105352000D02*
X131737500Y-105352000D01*
G75*
G02*
X131937500Y-105552000I0J-200000D01*
G01*
X131937500Y-106762000D01*
G75*
G02*
X131737500Y-106962000I-200000J0D01*
G01*
X131147500Y-106962000D01*
G75*
G02*
X130947500Y-106762000I0J200000D01*
G01*
X130947500Y-105552000D01*
G75*
G02*
X131147500Y-105352000I200000J0D01*
G01*
G37*
G36*
G01*
X129247500Y-105352000D02*
X129837500Y-105352000D01*
G75*
G02*
X130037500Y-105552000I0J-200000D01*
G01*
X130037500Y-106762000D01*
G75*
G02*
X129837500Y-106962000I-200000J0D01*
G01*
X129247500Y-106962000D01*
G75*
G02*
X129047500Y-106762000I0J200000D01*
G01*
X129047500Y-105552000D01*
G75*
G02*
X129247500Y-105352000I200000J0D01*
G01*
G37*
G36*
G01*
X129247500Y-102842000D02*
X129837500Y-102842000D01*
G75*
G02*
X130037500Y-103042000I0J-200000D01*
G01*
X130037500Y-104252000D01*
G75*
G02*
X129837500Y-104452000I-200000J0D01*
G01*
X129247500Y-104452000D01*
G75*
G02*
X129047500Y-104252000I0J200000D01*
G01*
X129047500Y-103042000D01*
G75*
G02*
X129247500Y-102842000I200000J0D01*
G01*
G37*
G36*
G01*
X130197500Y-102842000D02*
X130787500Y-102842000D01*
G75*
G02*
X130987500Y-103042000I0J-200000D01*
G01*
X130987500Y-104252000D01*
G75*
G02*
X130787500Y-104452000I-200000J0D01*
G01*
X130197500Y-104452000D01*
G75*
G02*
X129997500Y-104252000I0J200000D01*
G01*
X129997500Y-103042000D01*
G75*
G02*
X130197500Y-102842000I200000J0D01*
G01*
G37*
G36*
G01*
X131147500Y-102842000D02*
X131737500Y-102842000D01*
G75*
G02*
X131937500Y-103042000I0J-200000D01*
G01*
X131937500Y-104252000D01*
G75*
G02*
X131737500Y-104452000I-200000J0D01*
G01*
X131147500Y-104452000D01*
G75*
G02*
X130947500Y-104252000I0J200000D01*
G01*
X130947500Y-103042000D01*
G75*
G02*
X131147500Y-102842000I200000J0D01*
G01*
G37*
G36*
G01*
X133276500Y-111495000D02*
X133926500Y-111495000D01*
G75*
G02*
X134126500Y-111695000I0J-200000D01*
G01*
X134126500Y-112755000D01*
G75*
G02*
X133926500Y-112955000I-200000J0D01*
G01*
X133276500Y-112955000D01*
G75*
G02*
X133076500Y-112755000I0J200000D01*
G01*
X133076500Y-111695000D01*
G75*
G02*
X133276500Y-111495000I200000J0D01*
G01*
G37*
G36*
G01*
X131376500Y-111495000D02*
X132026500Y-111495000D01*
G75*
G02*
X132226500Y-111695000I0J-200000D01*
G01*
X132226500Y-112755000D01*
G75*
G02*
X132026500Y-112955000I-200000J0D01*
G01*
X131376500Y-112955000D01*
G75*
G02*
X131176500Y-112755000I0J200000D01*
G01*
X131176500Y-111695000D01*
G75*
G02*
X131376500Y-111495000I200000J0D01*
G01*
G37*
G36*
G01*
X131376500Y-109295000D02*
X132026500Y-109295000D01*
G75*
G02*
X132226500Y-109495000I0J-200000D01*
G01*
X132226500Y-110555000D01*
G75*
G02*
X132026500Y-110755000I-200000J0D01*
G01*
X131376500Y-110755000D01*
G75*
G02*
X131176500Y-110555000I0J200000D01*
G01*
X131176500Y-109495000D01*
G75*
G02*
X131376500Y-109295000I200000J0D01*
G01*
G37*
G36*
G01*
X132326500Y-109295000D02*
X132976500Y-109295000D01*
G75*
G02*
X133176500Y-109495000I0J-200000D01*
G01*
X133176500Y-110555000D01*
G75*
G02*
X132976500Y-110755000I-200000J0D01*
G01*
X132326500Y-110755000D01*
G75*
G02*
X132126500Y-110555000I0J200000D01*
G01*
X132126500Y-109495000D01*
G75*
G02*
X132326500Y-109295000I200000J0D01*
G01*
G37*
G36*
G01*
X133276500Y-109295000D02*
X133926500Y-109295000D01*
G75*
G02*
X134126500Y-109495000I0J-200000D01*
G01*
X134126500Y-110555000D01*
G75*
G02*
X133926500Y-110755000I-200000J0D01*
G01*
X133276500Y-110755000D01*
G75*
G02*
X133076500Y-110555000I0J200000D01*
G01*
X133076500Y-109495000D01*
G75*
G02*
X133276500Y-109295000I200000J0D01*
G01*
G37*
G36*
G01*
X165901300Y-98529300D02*
X165901300Y-99179300D01*
G75*
G02*
X165701300Y-99379300I-200000J0D01*
G01*
X164641300Y-99379300D01*
G75*
G02*
X164441300Y-99179300I0J200000D01*
G01*
X164441300Y-98529300D01*
G75*
G02*
X164641300Y-98329300I200000J0D01*
G01*
X165701300Y-98329300D01*
G75*
G02*
X165901300Y-98529300I0J-200000D01*
G01*
G37*
G36*
G01*
X165901300Y-97579300D02*
X165901300Y-98229300D01*
G75*
G02*
X165701300Y-98429300I-200000J0D01*
G01*
X164641300Y-98429300D01*
G75*
G02*
X164441300Y-98229300I0J200000D01*
G01*
X164441300Y-97579300D01*
G75*
G02*
X164641300Y-97379300I200000J0D01*
G01*
X165701300Y-97379300D01*
G75*
G02*
X165901300Y-97579300I0J-200000D01*
G01*
G37*
G36*
G01*
X165901300Y-96629300D02*
X165901300Y-97279300D01*
G75*
G02*
X165701300Y-97479300I-200000J0D01*
G01*
X164641300Y-97479300D01*
G75*
G02*
X164441300Y-97279300I0J200000D01*
G01*
X164441300Y-96629300D01*
G75*
G02*
X164641300Y-96429300I200000J0D01*
G01*
X165701300Y-96429300D01*
G75*
G02*
X165901300Y-96629300I0J-200000D01*
G01*
G37*
G36*
G01*
X163701300Y-96629300D02*
X163701300Y-97279300D01*
G75*
G02*
X163501300Y-97479300I-200000J0D01*
G01*
X162441300Y-97479300D01*
G75*
G02*
X162241300Y-97279300I0J200000D01*
G01*
X162241300Y-96629300D01*
G75*
G02*
X162441300Y-96429300I200000J0D01*
G01*
X163501300Y-96429300D01*
G75*
G02*
X163701300Y-96629300I0J-200000D01*
G01*
G37*
G36*
G01*
X163701300Y-98529300D02*
X163701300Y-99179300D01*
G75*
G02*
X163501300Y-99379300I-200000J0D01*
G01*
X162441300Y-99379300D01*
G75*
G02*
X162241300Y-99179300I0J200000D01*
G01*
X162241300Y-98529300D01*
G75*
G02*
X162441300Y-98329300I200000J0D01*
G01*
X163501300Y-98329300D01*
G75*
G02*
X163701300Y-98529300I0J-200000D01*
G01*
G37*
G36*
G01*
X163014500Y-110424800D02*
X162364500Y-110424800D01*
G75*
G02*
X162164500Y-110224800I0J200000D01*
G01*
X162164500Y-109164800D01*
G75*
G02*
X162364500Y-108964800I200000J0D01*
G01*
X163014500Y-108964800D01*
G75*
G02*
X163214500Y-109164800I0J-200000D01*
G01*
X163214500Y-110224800D01*
G75*
G02*
X163014500Y-110424800I-200000J0D01*
G01*
G37*
G36*
G01*
X164914500Y-110424800D02*
X164264500Y-110424800D01*
G75*
G02*
X164064500Y-110224800I0J200000D01*
G01*
X164064500Y-109164800D01*
G75*
G02*
X164264500Y-108964800I200000J0D01*
G01*
X164914500Y-108964800D01*
G75*
G02*
X165114500Y-109164800I0J-200000D01*
G01*
X165114500Y-110224800D01*
G75*
G02*
X164914500Y-110424800I-200000J0D01*
G01*
G37*
G36*
G01*
X164914500Y-112624800D02*
X164264500Y-112624800D01*
G75*
G02*
X164064500Y-112424800I0J200000D01*
G01*
X164064500Y-111364800D01*
G75*
G02*
X164264500Y-111164800I200000J0D01*
G01*
X164914500Y-111164800D01*
G75*
G02*
X165114500Y-111364800I0J-200000D01*
G01*
X165114500Y-112424800D01*
G75*
G02*
X164914500Y-112624800I-200000J0D01*
G01*
G37*
G36*
G01*
X163964500Y-112624800D02*
X163314500Y-112624800D01*
G75*
G02*
X163114500Y-112424800I0J200000D01*
G01*
X163114500Y-111364800D01*
G75*
G02*
X163314500Y-111164800I200000J0D01*
G01*
X163964500Y-111164800D01*
G75*
G02*
X164164500Y-111364800I0J-200000D01*
G01*
X164164500Y-112424800D01*
G75*
G02*
X163964500Y-112624800I-200000J0D01*
G01*
G37*
G36*
G01*
X163014500Y-112624800D02*
X162364500Y-112624800D01*
G75*
G02*
X162164500Y-112424800I0J200000D01*
G01*
X162164500Y-111364800D01*
G75*
G02*
X162364500Y-111164800I200000J0D01*
G01*
X163014500Y-111164800D01*
G75*
G02*
X163214500Y-111364800I0J-200000D01*
G01*
X163214500Y-112424800D01*
G75*
G02*
X163014500Y-112624800I-200000J0D01*
G01*
G37*
G36*
G01*
X163227600Y-105767400D02*
X162827600Y-105767400D01*
G75*
G02*
X162627600Y-105567400I0J200000D01*
G01*
X162627600Y-104917400D01*
G75*
G02*
X162827600Y-104717400I200000J0D01*
G01*
X163227600Y-104717400D01*
G75*
G02*
X163427600Y-104917400I0J-200000D01*
G01*
X163427600Y-105567400D01*
G75*
G02*
X163227600Y-105767400I-200000J0D01*
G01*
G37*
G36*
G01*
X164527600Y-105767400D02*
X164127600Y-105767400D01*
G75*
G02*
X163927600Y-105567400I0J200000D01*
G01*
X163927600Y-104917400D01*
G75*
G02*
X164127600Y-104717400I200000J0D01*
G01*
X164527600Y-104717400D01*
G75*
G02*
X164727600Y-104917400I0J-200000D01*
G01*
X164727600Y-105567400D01*
G75*
G02*
X164527600Y-105767400I-200000J0D01*
G01*
G37*
G36*
G01*
X163877600Y-103867400D02*
X163477600Y-103867400D01*
G75*
G02*
X163277600Y-103667400I0J200000D01*
G01*
X163277600Y-103017400D01*
G75*
G02*
X163477600Y-102817400I200000J0D01*
G01*
X163877600Y-102817400D01*
G75*
G02*
X164077600Y-103017400I0J-200000D01*
G01*
X164077600Y-103667400D01*
G75*
G02*
X163877600Y-103867400I-200000J0D01*
G01*
G37*
G36*
G01*
X163877600Y-105767400D02*
X163477600Y-105767400D01*
G75*
G02*
X163277600Y-105567400I0J200000D01*
G01*
X163277600Y-104917400D01*
G75*
G02*
X163477600Y-104717400I200000J0D01*
G01*
X163877600Y-104717400D01*
G75*
G02*
X164077600Y-104917400I0J-200000D01*
G01*
X164077600Y-105567400D01*
G75*
G02*
X163877600Y-105767400I-200000J0D01*
G01*
G37*
G36*
G01*
X164527600Y-103867400D02*
X164127600Y-103867400D01*
G75*
G02*
X163927600Y-103667400I0J200000D01*
G01*
X163927600Y-103017400D01*
G75*
G02*
X164127600Y-102817400I200000J0D01*
G01*
X164527600Y-102817400D01*
G75*
G02*
X164727600Y-103017400I0J-200000D01*
G01*
X164727600Y-103667400D01*
G75*
G02*
X164527600Y-103867400I-200000J0D01*
G01*
G37*
G36*
G01*
X163227600Y-103867400D02*
X162827600Y-103867400D01*
G75*
G02*
X162627600Y-103667400I0J200000D01*
G01*
X162627600Y-103017400D01*
G75*
G02*
X162827600Y-102817400I200000J0D01*
G01*
X163227600Y-102817400D01*
G75*
G02*
X163427600Y-103017400I0J-200000D01*
G01*
X163427600Y-103667400D01*
G75*
G02*
X163227600Y-103867400I-200000J0D01*
G01*
G37*
D11*
X125641100Y-96113600D03*
X125641100Y-113893600D03*
D12*
X129451100Y-115163600D03*
X131991100Y-115163600D03*
X134531100Y-115163600D03*
X137071100Y-115163600D03*
X139611100Y-115163600D03*
X142151100Y-115163600D03*
X144691100Y-115163600D03*
X147231100Y-115163600D03*
X149771100Y-115163600D03*
X152311100Y-115163600D03*
X154851100Y-115163600D03*
X157391100Y-115163600D03*
X159931100Y-115163600D03*
X162471100Y-115163600D03*
X165011100Y-115163600D03*
X167551100Y-115163600D03*
X167551100Y-94843600D03*
X165011100Y-94843600D03*
X162471100Y-94843600D03*
X159931100Y-94843600D03*
X157391100Y-94843600D03*
X154851100Y-94843600D03*
X152311100Y-94843600D03*
X149771100Y-94843600D03*
X147231100Y-94843600D03*
X144691100Y-94843600D03*
X142151100Y-94843600D03*
X139611100Y-94843600D03*
D13*
G36*
X162089490Y-113837004D02*
G01*
X162095715Y-113900209D01*
X162114096Y-113960803D01*
X162143943Y-114016644D01*
X162184111Y-114065589D01*
X162233056Y-114105757D01*
X162288897Y-114135604D01*
X162349491Y-114153985D01*
X162412594Y-114160200D01*
X162860122Y-114160200D01*
X162861854Y-114161200D01*
X162861854Y-114163200D01*
X162860318Y-114164190D01*
X162836131Y-114166572D01*
X162813056Y-114173572D01*
X162791792Y-114184937D01*
X162773155Y-114200232D01*
X162757860Y-114218869D01*
X162746495Y-114240133D01*
X162739495Y-114263208D01*
X162737132Y-114287199D01*
X162739495Y-114311190D01*
X162746495Y-114334265D01*
X162757860Y-114355529D01*
X162773155Y-114374166D01*
X162791792Y-114389461D01*
X162807819Y-114398027D01*
X162808875Y-114399726D01*
X162807932Y-114401489D01*
X162806111Y-114401639D01*
X162713835Y-114363417D01*
X162553059Y-114331436D01*
X162389141Y-114331436D01*
X162230335Y-114363025D01*
X162228441Y-114362382D01*
X162228051Y-114360420D01*
X162229002Y-114359299D01*
X162248900Y-114348664D01*
X162267537Y-114333369D01*
X162282832Y-114314732D01*
X162294197Y-114293468D01*
X162301197Y-114270393D01*
X162303560Y-114246402D01*
X162301197Y-114222411D01*
X162294197Y-114199336D01*
X162282832Y-114178072D01*
X162267537Y-114159435D01*
X162248863Y-114144110D01*
X162238504Y-114137902D01*
X162203556Y-114119223D01*
X162203230Y-114119005D01*
X162163543Y-114086434D01*
X162163266Y-114086157D01*
X162130697Y-114046471D01*
X162130479Y-114046145D01*
X162106278Y-114000867D01*
X162106128Y-114000505D01*
X162091223Y-113951372D01*
X162091147Y-113950987D01*
X162085510Y-113893755D01*
X162085500Y-113893559D01*
X162085500Y-113837200D01*
X162086500Y-113835468D01*
X162088500Y-113835468D01*
X162089490Y-113837004D01*
G37*
G36*
X164938665Y-113835574D02*
G01*
X164939500Y-113837200D01*
X164939500Y-113893559D01*
X164939490Y-113893755D01*
X164933853Y-113950987D01*
X164933777Y-113951372D01*
X164918872Y-114000505D01*
X164918722Y-114000867D01*
X164894521Y-114046145D01*
X164894303Y-114046471D01*
X164861734Y-114086157D01*
X164861457Y-114086434D01*
X164830985Y-114111442D01*
X164813871Y-114128556D01*
X164800476Y-114148604D01*
X164791250Y-114170878D01*
X164786546Y-114194528D01*
X164786546Y-114218634D01*
X164791251Y-114242284D01*
X164800477Y-114264558D01*
X164813872Y-114284605D01*
X164830919Y-114301652D01*
X164850967Y-114315047D01*
X164873241Y-114324273D01*
X164896840Y-114328967D01*
X164916592Y-114327996D01*
X164916690Y-114328046D01*
X164916690Y-114328038D01*
X164925916Y-114328038D01*
X164927648Y-114329038D01*
X164927648Y-114331038D01*
X164926306Y-114332000D01*
X164768365Y-114363417D01*
X164676089Y-114401639D01*
X164674106Y-114401378D01*
X164673341Y-114399530D01*
X164674381Y-114398027D01*
X164690408Y-114389461D01*
X164709045Y-114374166D01*
X164724340Y-114355529D01*
X164735705Y-114334265D01*
X164742705Y-114311190D01*
X164745068Y-114287199D01*
X164742705Y-114263208D01*
X164735705Y-114240133D01*
X164724340Y-114218869D01*
X164709045Y-114200232D01*
X164690408Y-114184937D01*
X164669144Y-114173572D01*
X164646069Y-114166572D01*
X164621984Y-114164200D01*
X164612500Y-114164200D01*
X164610768Y-114163200D01*
X164610768Y-114161200D01*
X164612304Y-114160210D01*
X164675509Y-114153985D01*
X164736103Y-114135604D01*
X164791944Y-114105757D01*
X164840889Y-114065589D01*
X164881057Y-114016644D01*
X164910904Y-113960803D01*
X164929285Y-113900209D01*
X164935510Y-113837004D01*
X164936675Y-113835378D01*
X164938665Y-113835574D01*
G37*
G36*
X163336950Y-112623800D02*
G01*
X163336950Y-112625800D01*
X163335414Y-112626790D01*
X163311227Y-112629172D01*
X163288152Y-112636172D01*
X163266888Y-112647537D01*
X163248251Y-112662832D01*
X163232956Y-112681469D01*
X163221591Y-112702733D01*
X163214591Y-112725808D01*
X163212228Y-112749799D01*
X163214591Y-112773790D01*
X163221591Y-112796865D01*
X163232956Y-112818129D01*
X163248251Y-112836766D01*
X163266930Y-112852095D01*
X163269833Y-112853835D01*
X163270074Y-112854004D01*
X163311457Y-112887966D01*
X163311734Y-112888243D01*
X163344303Y-112927929D01*
X163344521Y-112928255D01*
X163368722Y-112973533D01*
X163368872Y-112973895D01*
X163383777Y-113023028D01*
X163383853Y-113023413D01*
X163389490Y-113080645D01*
X163389500Y-113080841D01*
X163389500Y-113137200D01*
X163388500Y-113138932D01*
X163386500Y-113138932D01*
X163385510Y-113137396D01*
X163379285Y-113074191D01*
X163360904Y-113013597D01*
X163331057Y-112957756D01*
X163290889Y-112908811D01*
X163241944Y-112868643D01*
X163186103Y-112838796D01*
X163125509Y-112820415D01*
X163062406Y-112814200D01*
X162412594Y-112814200D01*
X162349491Y-112820415D01*
X162288897Y-112838796D01*
X162233056Y-112868643D01*
X162184111Y-112908811D01*
X162143943Y-112957756D01*
X162114096Y-113013597D01*
X162095715Y-113074191D01*
X162089490Y-113137396D01*
X162088325Y-113139022D01*
X162086335Y-113138826D01*
X162085500Y-113137200D01*
X162085500Y-113080841D01*
X162085510Y-113080645D01*
X162091147Y-113023413D01*
X162091223Y-113023028D01*
X162106128Y-112973895D01*
X162106278Y-112973533D01*
X162130479Y-112928255D01*
X162130697Y-112927929D01*
X162163266Y-112888243D01*
X162163543Y-112887966D01*
X162208305Y-112851230D01*
X162208463Y-112851113D01*
X162217802Y-112844874D01*
X162234850Y-112827828D01*
X162248246Y-112807781D01*
X162257473Y-112785508D01*
X162262179Y-112761858D01*
X162262180Y-112737752D01*
X162257476Y-112714101D01*
X162248251Y-112691827D01*
X162234857Y-112671779D01*
X162217811Y-112654731D01*
X162197764Y-112641335D01*
X162175491Y-112632108D01*
X162164110Y-112629843D01*
X162162500Y-112627881D01*
X162162500Y-112624800D01*
X162163500Y-112623068D01*
X162164500Y-112622800D01*
X163335218Y-112622800D01*
X163336950Y-112623800D01*
G37*
G36*
X164886950Y-112623800D02*
G01*
X164886950Y-112625800D01*
X164885414Y-112626790D01*
X164861227Y-112629172D01*
X164838152Y-112636172D01*
X164816888Y-112647537D01*
X164798251Y-112662832D01*
X164782956Y-112681469D01*
X164771591Y-112702733D01*
X164764591Y-112725808D01*
X164762228Y-112749799D01*
X164764591Y-112773790D01*
X164771591Y-112796865D01*
X164782956Y-112818129D01*
X164798251Y-112836766D01*
X164816930Y-112852095D01*
X164819833Y-112853835D01*
X164820074Y-112854004D01*
X164861457Y-112887966D01*
X164861734Y-112888243D01*
X164894303Y-112927929D01*
X164894521Y-112928255D01*
X164918722Y-112973533D01*
X164918872Y-112973895D01*
X164933777Y-113023028D01*
X164933853Y-113023413D01*
X164939490Y-113080645D01*
X164939500Y-113080841D01*
X164939500Y-113137200D01*
X164938500Y-113138932D01*
X164936500Y-113138932D01*
X164935510Y-113137396D01*
X164929285Y-113074191D01*
X164910904Y-113013597D01*
X164881057Y-112957756D01*
X164840889Y-112908811D01*
X164791944Y-112868643D01*
X164736103Y-112838796D01*
X164675509Y-112820415D01*
X164612406Y-112814200D01*
X163962594Y-112814200D01*
X163899491Y-112820415D01*
X163838897Y-112838796D01*
X163783056Y-112868643D01*
X163734111Y-112908811D01*
X163693943Y-112957756D01*
X163664096Y-113013597D01*
X163645715Y-113074191D01*
X163639490Y-113137396D01*
X163638325Y-113139022D01*
X163636335Y-113138826D01*
X163635500Y-113137200D01*
X163635500Y-113080841D01*
X163635510Y-113080645D01*
X163641147Y-113023413D01*
X163641223Y-113023028D01*
X163656128Y-112973895D01*
X163656278Y-112973533D01*
X163680479Y-112928255D01*
X163680697Y-112927929D01*
X163713266Y-112888243D01*
X163713543Y-112887966D01*
X163758305Y-112851230D01*
X163758463Y-112851113D01*
X163767802Y-112844874D01*
X163784850Y-112827828D01*
X163798246Y-112807781D01*
X163807473Y-112785508D01*
X163812179Y-112761858D01*
X163812180Y-112737752D01*
X163807476Y-112714101D01*
X163798251Y-112691827D01*
X163784857Y-112671779D01*
X163767811Y-112654731D01*
X163747764Y-112641335D01*
X163725491Y-112632108D01*
X163701795Y-112627393D01*
X163689684Y-112626798D01*
X163688003Y-112625714D01*
X163688101Y-112623716D01*
X163689782Y-112622800D01*
X164885218Y-112622800D01*
X164886950Y-112623800D01*
G37*
G36*
X143817665Y-110266874D02*
G01*
X143818500Y-110268500D01*
X143818500Y-110324859D01*
X143818490Y-110325055D01*
X143812853Y-110382287D01*
X143812777Y-110382672D01*
X143797872Y-110431805D01*
X143797722Y-110432167D01*
X143773521Y-110477445D01*
X143773303Y-110477771D01*
X143740734Y-110517457D01*
X143740457Y-110517734D01*
X143700769Y-110550305D01*
X143700443Y-110550523D01*
X143695940Y-110552930D01*
X143675813Y-110566378D01*
X143658766Y-110583425D01*
X143645371Y-110603473D01*
X143636145Y-110625746D01*
X143631440Y-110649397D01*
X143631440Y-110673503D01*
X143636144Y-110697153D01*
X143645371Y-110719427D01*
X143658765Y-110739474D01*
X143675812Y-110756521D01*
X143695940Y-110769970D01*
X143700443Y-110772377D01*
X143700769Y-110772595D01*
X143740457Y-110805166D01*
X143740734Y-110805443D01*
X143773303Y-110845129D01*
X143773521Y-110845455D01*
X143797722Y-110890733D01*
X143797872Y-110891095D01*
X143812777Y-110940228D01*
X143812853Y-110940613D01*
X143818490Y-110997845D01*
X143818500Y-110998041D01*
X143818500Y-111054400D01*
X143817500Y-111056132D01*
X143815500Y-111056132D01*
X143814510Y-111054596D01*
X143808285Y-110991391D01*
X143789904Y-110930797D01*
X143760057Y-110874956D01*
X143719889Y-110826011D01*
X143670944Y-110785843D01*
X143615103Y-110755996D01*
X143554509Y-110737615D01*
X143491406Y-110731400D01*
X142841594Y-110731400D01*
X142778491Y-110737615D01*
X142717897Y-110755996D01*
X142662056Y-110785843D01*
X142613111Y-110826011D01*
X142572943Y-110874956D01*
X142543096Y-110930797D01*
X142524715Y-110991391D01*
X142518490Y-111054596D01*
X142517325Y-111056222D01*
X142515335Y-111056026D01*
X142514500Y-111054400D01*
X142514500Y-110998041D01*
X142514510Y-110997845D01*
X142520147Y-110940613D01*
X142520223Y-110940228D01*
X142535128Y-110891095D01*
X142535278Y-110890733D01*
X142559479Y-110845455D01*
X142559697Y-110845129D01*
X142592266Y-110805443D01*
X142592543Y-110805166D01*
X142632231Y-110772595D01*
X142632557Y-110772377D01*
X142637060Y-110769970D01*
X142657187Y-110756522D01*
X142674234Y-110739475D01*
X142687629Y-110719427D01*
X142696855Y-110697154D01*
X142701560Y-110673503D01*
X142701560Y-110649397D01*
X142696856Y-110625747D01*
X142687629Y-110603473D01*
X142674235Y-110583426D01*
X142657188Y-110566379D01*
X142637060Y-110552930D01*
X142632557Y-110550523D01*
X142632231Y-110550305D01*
X142592543Y-110517734D01*
X142592266Y-110517457D01*
X142559697Y-110477771D01*
X142559479Y-110477445D01*
X142535278Y-110432167D01*
X142535128Y-110431805D01*
X142520223Y-110382672D01*
X142520147Y-110382287D01*
X142514510Y-110325055D01*
X142514500Y-110324859D01*
X142514500Y-110268500D01*
X142515500Y-110266768D01*
X142517500Y-110266768D01*
X142518490Y-110268304D01*
X142524715Y-110331509D01*
X142543096Y-110392103D01*
X142572943Y-110447944D01*
X142613111Y-110496889D01*
X142662056Y-110537057D01*
X142717897Y-110566904D01*
X142778491Y-110585285D01*
X142841594Y-110591500D01*
X143491406Y-110591500D01*
X143554509Y-110585285D01*
X143615103Y-110566904D01*
X143670944Y-110537057D01*
X143719889Y-110496889D01*
X143760057Y-110447944D01*
X143789904Y-110392103D01*
X143808285Y-110331509D01*
X143814510Y-110268304D01*
X143815675Y-110266678D01*
X143817665Y-110266874D01*
G37*
G36*
X145367665Y-110266874D02*
G01*
X145368500Y-110268500D01*
X145368500Y-110324859D01*
X145368490Y-110325055D01*
X145362853Y-110382287D01*
X145362777Y-110382672D01*
X145347872Y-110431805D01*
X145347722Y-110432167D01*
X145323521Y-110477445D01*
X145323303Y-110477771D01*
X145290734Y-110517457D01*
X145290457Y-110517734D01*
X145250769Y-110550305D01*
X145250443Y-110550523D01*
X145245940Y-110552930D01*
X145225813Y-110566378D01*
X145208766Y-110583425D01*
X145195371Y-110603473D01*
X145186145Y-110625746D01*
X145181440Y-110649397D01*
X145181440Y-110673503D01*
X145186144Y-110697153D01*
X145195371Y-110719427D01*
X145208765Y-110739474D01*
X145225812Y-110756521D01*
X145245940Y-110769970D01*
X145250443Y-110772377D01*
X145250769Y-110772595D01*
X145290457Y-110805166D01*
X145290734Y-110805443D01*
X145323303Y-110845129D01*
X145323521Y-110845455D01*
X145347722Y-110890733D01*
X145347872Y-110891095D01*
X145362777Y-110940228D01*
X145362853Y-110940613D01*
X145368490Y-110997845D01*
X145368500Y-110998041D01*
X145368500Y-111054400D01*
X145367500Y-111056132D01*
X145365500Y-111056132D01*
X145364510Y-111054596D01*
X145358285Y-110991391D01*
X145339904Y-110930797D01*
X145310057Y-110874956D01*
X145269889Y-110826011D01*
X145220944Y-110785843D01*
X145165103Y-110755996D01*
X145104509Y-110737615D01*
X145041406Y-110731400D01*
X144391594Y-110731400D01*
X144328491Y-110737615D01*
X144267897Y-110755996D01*
X144212056Y-110785843D01*
X144163111Y-110826011D01*
X144122943Y-110874956D01*
X144093096Y-110930797D01*
X144074715Y-110991391D01*
X144068490Y-111054596D01*
X144067325Y-111056222D01*
X144065335Y-111056026D01*
X144064500Y-111054400D01*
X144064500Y-110998041D01*
X144064510Y-110997845D01*
X144070147Y-110940613D01*
X144070223Y-110940228D01*
X144085128Y-110891095D01*
X144085278Y-110890733D01*
X144109479Y-110845455D01*
X144109697Y-110845129D01*
X144142266Y-110805443D01*
X144142543Y-110805166D01*
X144182231Y-110772595D01*
X144182557Y-110772377D01*
X144187060Y-110769970D01*
X144207187Y-110756522D01*
X144224234Y-110739475D01*
X144237629Y-110719427D01*
X144246855Y-110697154D01*
X144251560Y-110673503D01*
X144251560Y-110649397D01*
X144246856Y-110625747D01*
X144237629Y-110603473D01*
X144224235Y-110583426D01*
X144207188Y-110566379D01*
X144187060Y-110552930D01*
X144182557Y-110550523D01*
X144182231Y-110550305D01*
X144142543Y-110517734D01*
X144142266Y-110517457D01*
X144109697Y-110477771D01*
X144109479Y-110477445D01*
X144085278Y-110432167D01*
X144085128Y-110431805D01*
X144070223Y-110382672D01*
X144070147Y-110382287D01*
X144064510Y-110325055D01*
X144064500Y-110324859D01*
X144064500Y-110268500D01*
X144065500Y-110266768D01*
X144067500Y-110266768D01*
X144068490Y-110268304D01*
X144074715Y-110331509D01*
X144093096Y-110392103D01*
X144122943Y-110447944D01*
X144163111Y-110496889D01*
X144212056Y-110537057D01*
X144267897Y-110566904D01*
X144328491Y-110585285D01*
X144391594Y-110591500D01*
X145041406Y-110591500D01*
X145104509Y-110585285D01*
X145165103Y-110566904D01*
X145220944Y-110537057D01*
X145269889Y-110496889D01*
X145310057Y-110447944D01*
X145339904Y-110392103D01*
X145358285Y-110331509D01*
X145364510Y-110268304D01*
X145365675Y-110266678D01*
X145367665Y-110266874D01*
G37*
G36*
X163515665Y-108476174D02*
G01*
X163516500Y-108477800D01*
X163516500Y-108534159D01*
X163516490Y-108534355D01*
X163510853Y-108591587D01*
X163510777Y-108591972D01*
X163495872Y-108641105D01*
X163495722Y-108641467D01*
X163471521Y-108686745D01*
X163471303Y-108687071D01*
X163438734Y-108726757D01*
X163438457Y-108727034D01*
X163398771Y-108759603D01*
X163398445Y-108759821D01*
X163353164Y-108784024D01*
X163352802Y-108784174D01*
X163303886Y-108799013D01*
X163281521Y-108808277D01*
X163261474Y-108821672D01*
X163244427Y-108838719D01*
X163231032Y-108858767D01*
X163221823Y-108880998D01*
X163216500Y-108916888D01*
X163216500Y-108964800D01*
X163215500Y-108966532D01*
X163214500Y-108966800D01*
X162234066Y-108966800D01*
X162232334Y-108965800D01*
X162232334Y-108963800D01*
X162233870Y-108962810D01*
X162258057Y-108960428D01*
X162281132Y-108953428D01*
X162302396Y-108942063D01*
X162321033Y-108926768D01*
X162336328Y-108908131D01*
X162347693Y-108886867D01*
X162354693Y-108863792D01*
X162357056Y-108839801D01*
X162354693Y-108815810D01*
X162347693Y-108792735D01*
X162336351Y-108771515D01*
X162311983Y-108744629D01*
X162290543Y-108727034D01*
X162290266Y-108726757D01*
X162257697Y-108687071D01*
X162257479Y-108686745D01*
X162233278Y-108641467D01*
X162233128Y-108641105D01*
X162218223Y-108591972D01*
X162218147Y-108591587D01*
X162212510Y-108534355D01*
X162212500Y-108534159D01*
X162212500Y-108477800D01*
X162213500Y-108476068D01*
X162215500Y-108476068D01*
X162216490Y-108477604D01*
X162222715Y-108540809D01*
X162241096Y-108601403D01*
X162270943Y-108657244D01*
X162311111Y-108706189D01*
X162360056Y-108746357D01*
X162415897Y-108776204D01*
X162476491Y-108794585D01*
X162539594Y-108800800D01*
X163189406Y-108800800D01*
X163252509Y-108794585D01*
X163313103Y-108776204D01*
X163368944Y-108746357D01*
X163417889Y-108706189D01*
X163458057Y-108657244D01*
X163487904Y-108601403D01*
X163506285Y-108540809D01*
X163512510Y-108477604D01*
X163513675Y-108475978D01*
X163515665Y-108476174D01*
G37*
G36*
X165065665Y-108476174D02*
G01*
X165066500Y-108477800D01*
X165066500Y-108534159D01*
X165066490Y-108534355D01*
X165060853Y-108591587D01*
X165060777Y-108591972D01*
X165045872Y-108641105D01*
X165045722Y-108641467D01*
X165021521Y-108686745D01*
X165021303Y-108687071D01*
X164988734Y-108726757D01*
X164988457Y-108727034D01*
X164966976Y-108744663D01*
X164949862Y-108761777D01*
X164936467Y-108781825D01*
X164927241Y-108804098D01*
X164922537Y-108827749D01*
X164922537Y-108851855D01*
X164927242Y-108875505D01*
X164936468Y-108897779D01*
X164949863Y-108917826D01*
X164966910Y-108934873D01*
X164986958Y-108948268D01*
X165009188Y-108957477D01*
X165045227Y-108962822D01*
X165046794Y-108964065D01*
X165046501Y-108966043D01*
X165044934Y-108966800D01*
X164064500Y-108966800D01*
X164062768Y-108965800D01*
X164062500Y-108964800D01*
X164062500Y-108916837D01*
X164060128Y-108892752D01*
X164053128Y-108869677D01*
X164041763Y-108848413D01*
X164026468Y-108829776D01*
X164007868Y-108814512D01*
X163975067Y-108798999D01*
X163926198Y-108784174D01*
X163925836Y-108784024D01*
X163880555Y-108759821D01*
X163880229Y-108759603D01*
X163840543Y-108727034D01*
X163840266Y-108726757D01*
X163807697Y-108687071D01*
X163807479Y-108686745D01*
X163783278Y-108641467D01*
X163783128Y-108641105D01*
X163768223Y-108591972D01*
X163768147Y-108591587D01*
X163762510Y-108534355D01*
X163762500Y-108534159D01*
X163762500Y-108477800D01*
X163763500Y-108476068D01*
X163765500Y-108476068D01*
X163766490Y-108477604D01*
X163772715Y-108540809D01*
X163791096Y-108601403D01*
X163820943Y-108657244D01*
X163861111Y-108706189D01*
X163910056Y-108746357D01*
X163965897Y-108776204D01*
X164026491Y-108794585D01*
X164089594Y-108800800D01*
X164739406Y-108800800D01*
X164802509Y-108794585D01*
X164863103Y-108776204D01*
X164918944Y-108746357D01*
X164967889Y-108706189D01*
X165008057Y-108657244D01*
X165037904Y-108601403D01*
X165056285Y-108540809D01*
X165062510Y-108477604D01*
X165063675Y-108475978D01*
X165065665Y-108476174D01*
G37*
G36*
X165065665Y-106977574D02*
G01*
X165066500Y-106979200D01*
X165066500Y-107035559D01*
X165066490Y-107035755D01*
X165060853Y-107092987D01*
X165060777Y-107093372D01*
X165045872Y-107142505D01*
X165045722Y-107142867D01*
X165021521Y-107188145D01*
X165021303Y-107188471D01*
X164988734Y-107228157D01*
X164988457Y-107228434D01*
X164948770Y-107261005D01*
X164948444Y-107261223D01*
X164932061Y-107269979D01*
X164911933Y-107283427D01*
X164894886Y-107300474D01*
X164881491Y-107320521D01*
X164872264Y-107342795D01*
X164867559Y-107366445D01*
X164867559Y-107390551D01*
X164872263Y-107414201D01*
X164881489Y-107436475D01*
X164894883Y-107456523D01*
X164911930Y-107473570D01*
X164932061Y-107487021D01*
X164948444Y-107495777D01*
X164948770Y-107495995D01*
X164988457Y-107528566D01*
X164988734Y-107528843D01*
X165021303Y-107568529D01*
X165021521Y-107568855D01*
X165045722Y-107614133D01*
X165045872Y-107614495D01*
X165060777Y-107663628D01*
X165060853Y-107664013D01*
X165066490Y-107721245D01*
X165066500Y-107721441D01*
X165066500Y-107777800D01*
X165065500Y-107779532D01*
X165063500Y-107779532D01*
X165062510Y-107777996D01*
X165056285Y-107714791D01*
X165037904Y-107654197D01*
X165008057Y-107598356D01*
X164967889Y-107549411D01*
X164918944Y-107509243D01*
X164863103Y-107479396D01*
X164802509Y-107461015D01*
X164739406Y-107454800D01*
X164089594Y-107454800D01*
X164026491Y-107461015D01*
X163965897Y-107479396D01*
X163910056Y-107509243D01*
X163861111Y-107549411D01*
X163820943Y-107598356D01*
X163791096Y-107654197D01*
X163772715Y-107714791D01*
X163766490Y-107777996D01*
X163765325Y-107779622D01*
X163763335Y-107779426D01*
X163762500Y-107777800D01*
X163762500Y-107721441D01*
X163762510Y-107721245D01*
X163768147Y-107664013D01*
X163768223Y-107663628D01*
X163783128Y-107614495D01*
X163783278Y-107614133D01*
X163807479Y-107568855D01*
X163807697Y-107568529D01*
X163840266Y-107528843D01*
X163840543Y-107528566D01*
X163880230Y-107495995D01*
X163880556Y-107495777D01*
X163896939Y-107487021D01*
X163917067Y-107473573D01*
X163934114Y-107456526D01*
X163947509Y-107436479D01*
X163956736Y-107414205D01*
X163961441Y-107390555D01*
X163961441Y-107366449D01*
X163956737Y-107342799D01*
X163947511Y-107320525D01*
X163934117Y-107300477D01*
X163917070Y-107283430D01*
X163896939Y-107269979D01*
X163880556Y-107261223D01*
X163880230Y-107261005D01*
X163840543Y-107228434D01*
X163840266Y-107228157D01*
X163807697Y-107188471D01*
X163807479Y-107188145D01*
X163783278Y-107142867D01*
X163783128Y-107142505D01*
X163768223Y-107093372D01*
X163768147Y-107092987D01*
X163762510Y-107035755D01*
X163762500Y-107035559D01*
X163762500Y-106979200D01*
X163763500Y-106977468D01*
X163765500Y-106977468D01*
X163766490Y-106979004D01*
X163772715Y-107042209D01*
X163791096Y-107102803D01*
X163820943Y-107158644D01*
X163861111Y-107207589D01*
X163910056Y-107247757D01*
X163965897Y-107277604D01*
X164026491Y-107295985D01*
X164089594Y-107302200D01*
X164739406Y-107302200D01*
X164802509Y-107295985D01*
X164863103Y-107277604D01*
X164918944Y-107247757D01*
X164967889Y-107207589D01*
X165008057Y-107158644D01*
X165037904Y-107102803D01*
X165056285Y-107042209D01*
X165062510Y-106979004D01*
X165063675Y-106977378D01*
X165065665Y-106977574D01*
G37*
G36*
X163515665Y-106977574D02*
G01*
X163516500Y-106979200D01*
X163516500Y-107035559D01*
X163516490Y-107035755D01*
X163510853Y-107092987D01*
X163510777Y-107093372D01*
X163495872Y-107142505D01*
X163495722Y-107142867D01*
X163471521Y-107188145D01*
X163471303Y-107188471D01*
X163438734Y-107228157D01*
X163438457Y-107228434D01*
X163398770Y-107261005D01*
X163398444Y-107261223D01*
X163382061Y-107269979D01*
X163361933Y-107283427D01*
X163344886Y-107300474D01*
X163331491Y-107320521D01*
X163322264Y-107342795D01*
X163317559Y-107366445D01*
X163317559Y-107390551D01*
X163322263Y-107414201D01*
X163331489Y-107436475D01*
X163344883Y-107456523D01*
X163361930Y-107473570D01*
X163382061Y-107487021D01*
X163398444Y-107495777D01*
X163398770Y-107495995D01*
X163438457Y-107528566D01*
X163438734Y-107528843D01*
X163471303Y-107568529D01*
X163471521Y-107568855D01*
X163495722Y-107614133D01*
X163495872Y-107614495D01*
X163510777Y-107663628D01*
X163510853Y-107664013D01*
X163516490Y-107721245D01*
X163516500Y-107721441D01*
X163516500Y-107777800D01*
X163515500Y-107779532D01*
X163513500Y-107779532D01*
X163512510Y-107777996D01*
X163506285Y-107714791D01*
X163487904Y-107654197D01*
X163458057Y-107598356D01*
X163417889Y-107549411D01*
X163368944Y-107509243D01*
X163313103Y-107479396D01*
X163252509Y-107461015D01*
X163189406Y-107454800D01*
X162539594Y-107454800D01*
X162476491Y-107461015D01*
X162415897Y-107479396D01*
X162360056Y-107509243D01*
X162311111Y-107549411D01*
X162270943Y-107598356D01*
X162241096Y-107654197D01*
X162222715Y-107714791D01*
X162216490Y-107777996D01*
X162215325Y-107779622D01*
X162213335Y-107779426D01*
X162212500Y-107777800D01*
X162212500Y-107721441D01*
X162212510Y-107721245D01*
X162218147Y-107664013D01*
X162218223Y-107663628D01*
X162233128Y-107614495D01*
X162233278Y-107614133D01*
X162257479Y-107568855D01*
X162257697Y-107568529D01*
X162290266Y-107528843D01*
X162290543Y-107528566D01*
X162330230Y-107495995D01*
X162330556Y-107495777D01*
X162346939Y-107487021D01*
X162367067Y-107473573D01*
X162384114Y-107456526D01*
X162397509Y-107436479D01*
X162406736Y-107414205D01*
X162411441Y-107390555D01*
X162411441Y-107366449D01*
X162406737Y-107342799D01*
X162397511Y-107320525D01*
X162384117Y-107300477D01*
X162367070Y-107283430D01*
X162346939Y-107269979D01*
X162330556Y-107261223D01*
X162330230Y-107261005D01*
X162290543Y-107228434D01*
X162290266Y-107228157D01*
X162257697Y-107188471D01*
X162257479Y-107188145D01*
X162233278Y-107142867D01*
X162233128Y-107142505D01*
X162218223Y-107093372D01*
X162218147Y-107092987D01*
X162212510Y-107035755D01*
X162212500Y-107035559D01*
X162212500Y-106979200D01*
X162213500Y-106977468D01*
X162215500Y-106977468D01*
X162216490Y-106979004D01*
X162222715Y-107042209D01*
X162241096Y-107102803D01*
X162270943Y-107158644D01*
X162311111Y-107207589D01*
X162360056Y-107247757D01*
X162415897Y-107277604D01*
X162476491Y-107295985D01*
X162539594Y-107302200D01*
X163189406Y-107302200D01*
X163252509Y-107295985D01*
X163313103Y-107277604D01*
X163368944Y-107247757D01*
X163417889Y-107207589D01*
X163458057Y-107158644D01*
X163487904Y-107102803D01*
X163506285Y-107042209D01*
X163512510Y-106979004D01*
X163513675Y-106977378D01*
X163515665Y-106977574D01*
G37*
G36*
X131939232Y-106961000D02*
G01*
X131939500Y-106962000D01*
X131939500Y-106991689D01*
X131941872Y-107015774D01*
X131948872Y-107038849D01*
X131960237Y-107060113D01*
X131975532Y-107078750D01*
X131994206Y-107094075D01*
X132004565Y-107100283D01*
X132055444Y-107127477D01*
X132055770Y-107127695D01*
X132095457Y-107160266D01*
X132095734Y-107160543D01*
X132128303Y-107200229D01*
X132128521Y-107200555D01*
X132152722Y-107245833D01*
X132152872Y-107246195D01*
X132167777Y-107295328D01*
X132167853Y-107295713D01*
X132173490Y-107352945D01*
X132173500Y-107353141D01*
X132173500Y-107409500D01*
X132172500Y-107411232D01*
X132170500Y-107411232D01*
X132169510Y-107409696D01*
X132163285Y-107346491D01*
X132144904Y-107285897D01*
X132115057Y-107230056D01*
X132074889Y-107181111D01*
X132025944Y-107140943D01*
X131970103Y-107111096D01*
X131909509Y-107092715D01*
X131846406Y-107086500D01*
X131196594Y-107086500D01*
X131133491Y-107092715D01*
X131072897Y-107111096D01*
X131017056Y-107140943D01*
X130968111Y-107181111D01*
X130927943Y-107230056D01*
X130898096Y-107285897D01*
X130879715Y-107346491D01*
X130873490Y-107409696D01*
X130872325Y-107411322D01*
X130870335Y-107411126D01*
X130869500Y-107409500D01*
X130869500Y-107353141D01*
X130869510Y-107352945D01*
X130875147Y-107295713D01*
X130875223Y-107295328D01*
X130890128Y-107246195D01*
X130890278Y-107245833D01*
X130914477Y-107200558D01*
X130914695Y-107200232D01*
X130943524Y-107165105D01*
X130956972Y-107144977D01*
X130966198Y-107122704D01*
X130970903Y-107099054D01*
X130970903Y-107074947D01*
X130966199Y-107051297D01*
X130956973Y-107029023D01*
X130945837Y-107012357D01*
X130945500Y-107011246D01*
X130945500Y-106962000D01*
X130946500Y-106960268D01*
X130947500Y-106960000D01*
X131937500Y-106960000D01*
X131939232Y-106961000D01*
G37*
G36*
X130039490Y-106959305D02*
G01*
X130041872Y-106983492D01*
X130048872Y-107006567D01*
X130060237Y-107027831D01*
X130075532Y-107046468D01*
X130094169Y-107061763D01*
X130115433Y-107073128D01*
X130138508Y-107080128D01*
X130162695Y-107082510D01*
X130164321Y-107083675D01*
X130164125Y-107085665D01*
X130162499Y-107086500D01*
X129646594Y-107086500D01*
X129583491Y-107092715D01*
X129522897Y-107111096D01*
X129467056Y-107140943D01*
X129418111Y-107181111D01*
X129377943Y-107230056D01*
X129348096Y-107285897D01*
X129329715Y-107346491D01*
X129323490Y-107409696D01*
X129322325Y-107411322D01*
X129320335Y-107411126D01*
X129319500Y-107409500D01*
X129319500Y-107353141D01*
X129319510Y-107352945D01*
X129325147Y-107295713D01*
X129325223Y-107295328D01*
X129340128Y-107246195D01*
X129340278Y-107245833D01*
X129364477Y-107200558D01*
X129364695Y-107200232D01*
X129393524Y-107165105D01*
X129406972Y-107144977D01*
X129416198Y-107122704D01*
X129420903Y-107099054D01*
X129420903Y-107074947D01*
X129416199Y-107051297D01*
X129406973Y-107029023D01*
X129393578Y-107008976D01*
X129376532Y-106991928D01*
X129356484Y-106978533D01*
X129334211Y-106969307D01*
X129310515Y-106964593D01*
X129298408Y-106963998D01*
X129296727Y-106962914D01*
X129296825Y-106960916D01*
X129298506Y-106960000D01*
X130035500Y-106960000D01*
X130035500Y-106959501D01*
X130036500Y-106957769D01*
X130038500Y-106957769D01*
X130039490Y-106959305D01*
G37*
G36*
X137760665Y-106545374D02*
G01*
X137761500Y-106547000D01*
X137761500Y-106603360D01*
X137761490Y-106603556D01*
X137756334Y-106655911D01*
X137756258Y-106656296D01*
X137742777Y-106700736D01*
X137742627Y-106701098D01*
X137720734Y-106742056D01*
X137720516Y-106742382D01*
X137691057Y-106778279D01*
X137690780Y-106778556D01*
X137649894Y-106812110D01*
X137632780Y-106829224D01*
X137619385Y-106849271D01*
X137610159Y-106871545D01*
X137605454Y-106895195D01*
X137605454Y-106919301D01*
X137610158Y-106942951D01*
X137619384Y-106965225D01*
X137632779Y-106985273D01*
X137649893Y-107002387D01*
X137685287Y-107031434D01*
X137685564Y-107031711D01*
X137717358Y-107070453D01*
X137717576Y-107070779D01*
X137741198Y-107114972D01*
X137741348Y-107115334D01*
X137755897Y-107163297D01*
X137755973Y-107163682D01*
X137761490Y-107219695D01*
X137761500Y-107219891D01*
X137761500Y-107276250D01*
X137760500Y-107277982D01*
X137758500Y-107277982D01*
X137757510Y-107276446D01*
X137751405Y-107214460D01*
X137733380Y-107155039D01*
X137704110Y-107100278D01*
X137664719Y-107052281D01*
X137616722Y-107012890D01*
X137561961Y-106983620D01*
X137502540Y-106965595D01*
X137440656Y-106959500D01*
X136803344Y-106959500D01*
X136741460Y-106965595D01*
X136682039Y-106983620D01*
X136627278Y-107012890D01*
X136579281Y-107052281D01*
X136539890Y-107100278D01*
X136510620Y-107155039D01*
X136492595Y-107214460D01*
X136486490Y-107276446D01*
X136485325Y-107278072D01*
X136483335Y-107277876D01*
X136482500Y-107276250D01*
X136482500Y-107219891D01*
X136482510Y-107219695D01*
X136488027Y-107163682D01*
X136488103Y-107163297D01*
X136502652Y-107115334D01*
X136502802Y-107114972D01*
X136526424Y-107070779D01*
X136526642Y-107070453D01*
X136558435Y-107031712D01*
X136558712Y-107031435D01*
X136597451Y-106999643D01*
X136597777Y-106999425D01*
X136616765Y-106989276D01*
X136636892Y-106975827D01*
X136653939Y-106958780D01*
X136667334Y-106938733D01*
X136676560Y-106916459D01*
X136681264Y-106892809D01*
X136681264Y-106868702D01*
X136676559Y-106845052D01*
X136667333Y-106822778D01*
X136653938Y-106802731D01*
X136636823Y-106785616D01*
X136628219Y-106778555D01*
X136627942Y-106778278D01*
X136598484Y-106742382D01*
X136598266Y-106742056D01*
X136576373Y-106701098D01*
X136576223Y-106700736D01*
X136562742Y-106656296D01*
X136562666Y-106655911D01*
X136557510Y-106603556D01*
X136557500Y-106603360D01*
X136557500Y-106547000D01*
X136558500Y-106545268D01*
X136560500Y-106545268D01*
X136561490Y-106546804D01*
X136567234Y-106605132D01*
X136584193Y-106661036D01*
X136611730Y-106712555D01*
X136648789Y-106757711D01*
X136693945Y-106794770D01*
X136745464Y-106822307D01*
X136801368Y-106839266D01*
X136859594Y-106845000D01*
X137459406Y-106845000D01*
X137517632Y-106839266D01*
X137573536Y-106822307D01*
X137625055Y-106794770D01*
X137670211Y-106757711D01*
X137707270Y-106712555D01*
X137734807Y-106661036D01*
X137751766Y-106605132D01*
X137757510Y-106546804D01*
X137758675Y-106545178D01*
X137760665Y-106545374D01*
G37*
G36*
X136110665Y-106545374D02*
G01*
X136111500Y-106547000D01*
X136111500Y-106603360D01*
X136111490Y-106603556D01*
X136106334Y-106655911D01*
X136106258Y-106656296D01*
X136092777Y-106700736D01*
X136092627Y-106701098D01*
X136070734Y-106742056D01*
X136070516Y-106742382D01*
X136041058Y-106778278D01*
X136040781Y-106778555D01*
X136032177Y-106785616D01*
X136015063Y-106802730D01*
X136001668Y-106822777D01*
X135992441Y-106845050D01*
X135987736Y-106868700D01*
X135987736Y-106892807D01*
X135992440Y-106916457D01*
X136001666Y-106938731D01*
X136015060Y-106958779D01*
X136032107Y-106975826D01*
X136052235Y-106989276D01*
X136071223Y-106999425D01*
X136071549Y-106999643D01*
X136110288Y-107031435D01*
X136110565Y-107031712D01*
X136142358Y-107070453D01*
X136142576Y-107070779D01*
X136166198Y-107114972D01*
X136166348Y-107115334D01*
X136180897Y-107163297D01*
X136180973Y-107163682D01*
X136186490Y-107219695D01*
X136186500Y-107219891D01*
X136186500Y-107276250D01*
X136185500Y-107277982D01*
X136183500Y-107277982D01*
X136182510Y-107276446D01*
X136176405Y-107214460D01*
X136158380Y-107155039D01*
X136129110Y-107100278D01*
X136089719Y-107052281D01*
X136041722Y-107012890D01*
X135986961Y-106983620D01*
X135927540Y-106965595D01*
X135865656Y-106959500D01*
X135228344Y-106959500D01*
X135166460Y-106965595D01*
X135107039Y-106983620D01*
X135052278Y-107012890D01*
X135004281Y-107052281D01*
X134964890Y-107100278D01*
X134935620Y-107155039D01*
X134917595Y-107214460D01*
X134911490Y-107276446D01*
X134910325Y-107278072D01*
X134908335Y-107277876D01*
X134907500Y-107276250D01*
X134907500Y-107219891D01*
X134907510Y-107219695D01*
X134913027Y-107163682D01*
X134913103Y-107163297D01*
X134927652Y-107115334D01*
X134927802Y-107114972D01*
X134951424Y-107070779D01*
X134951642Y-107070453D01*
X134983436Y-107031711D01*
X134983713Y-107031434D01*
X135019107Y-107002387D01*
X135036221Y-106985273D01*
X135049616Y-106965226D01*
X135058842Y-106942952D01*
X135063546Y-106919301D01*
X135063546Y-106895195D01*
X135058841Y-106871545D01*
X135049615Y-106849271D01*
X135036220Y-106829224D01*
X135019106Y-106812110D01*
X134978220Y-106778556D01*
X134977943Y-106778279D01*
X134948484Y-106742382D01*
X134948266Y-106742056D01*
X134926373Y-106701098D01*
X134926223Y-106700736D01*
X134912742Y-106656296D01*
X134912666Y-106655911D01*
X134907510Y-106603556D01*
X134907500Y-106603360D01*
X134907500Y-106547000D01*
X134908500Y-106545268D01*
X134910500Y-106545268D01*
X134911490Y-106546804D01*
X134917234Y-106605132D01*
X134934193Y-106661036D01*
X134961730Y-106712555D01*
X134998789Y-106757711D01*
X135043945Y-106794770D01*
X135095464Y-106822307D01*
X135151368Y-106839266D01*
X135209594Y-106845000D01*
X135809406Y-106845000D01*
X135867632Y-106839266D01*
X135923536Y-106822307D01*
X135975055Y-106794770D01*
X136020211Y-106757711D01*
X136057270Y-106712555D01*
X136084807Y-106661036D01*
X136101766Y-106605132D01*
X136107510Y-106546804D01*
X136108675Y-106545178D01*
X136110665Y-106545374D01*
G37*
G36*
X142091365Y-105986574D02*
G01*
X142092200Y-105988200D01*
X142092200Y-106044560D01*
X142092190Y-106044756D01*
X142087034Y-106097111D01*
X142086958Y-106097496D01*
X142073477Y-106141936D01*
X142073327Y-106142298D01*
X142051434Y-106183256D01*
X142051216Y-106183582D01*
X142021756Y-106219480D01*
X142021479Y-106219757D01*
X141986686Y-106248311D01*
X141969572Y-106265425D01*
X141956177Y-106285473D01*
X141946951Y-106307746D01*
X141942246Y-106331397D01*
X141942246Y-106355503D01*
X141946950Y-106379153D01*
X141956177Y-106401427D01*
X141969571Y-106421474D01*
X141986686Y-106438589D01*
X142021479Y-106467143D01*
X142021756Y-106467420D01*
X142051216Y-106503318D01*
X142051434Y-106503644D01*
X142073327Y-106544602D01*
X142073477Y-106544964D01*
X142086958Y-106589404D01*
X142087034Y-106589789D01*
X142092190Y-106642144D01*
X142092200Y-106642340D01*
X142092200Y-106698700D01*
X142091200Y-106700432D01*
X142089200Y-106700432D01*
X142088210Y-106698896D01*
X142082466Y-106640568D01*
X142065507Y-106584664D01*
X142037970Y-106533145D01*
X142000911Y-106487989D01*
X141955755Y-106450930D01*
X141904236Y-106423393D01*
X141848332Y-106406434D01*
X141790106Y-106400700D01*
X141190294Y-106400700D01*
X141132068Y-106406434D01*
X141076164Y-106423393D01*
X141024645Y-106450930D01*
X140979489Y-106487989D01*
X140942430Y-106533145D01*
X140914893Y-106584664D01*
X140897934Y-106640568D01*
X140892190Y-106698896D01*
X140891025Y-106700522D01*
X140889035Y-106700326D01*
X140888200Y-106698700D01*
X140888200Y-106642340D01*
X140888210Y-106642144D01*
X140893366Y-106589789D01*
X140893442Y-106589404D01*
X140906923Y-106544964D01*
X140907073Y-106544602D01*
X140928966Y-106503644D01*
X140929184Y-106503318D01*
X140958644Y-106467420D01*
X140958921Y-106467143D01*
X140993714Y-106438589D01*
X141010828Y-106421475D01*
X141024223Y-106401427D01*
X141033449Y-106379154D01*
X141038154Y-106355503D01*
X141038154Y-106331397D01*
X141033450Y-106307747D01*
X141024223Y-106285473D01*
X141010829Y-106265426D01*
X140993714Y-106248311D01*
X140958921Y-106219757D01*
X140958644Y-106219480D01*
X140929184Y-106183582D01*
X140928966Y-106183256D01*
X140907073Y-106142298D01*
X140906923Y-106141936D01*
X140893442Y-106097496D01*
X140893366Y-106097111D01*
X140888210Y-106044756D01*
X140888200Y-106044560D01*
X140888200Y-105988200D01*
X140889200Y-105986468D01*
X140891200Y-105986468D01*
X140892190Y-105988004D01*
X140897934Y-106046332D01*
X140914893Y-106102236D01*
X140942430Y-106153755D01*
X140979489Y-106198911D01*
X141024645Y-106235970D01*
X141076164Y-106263507D01*
X141132068Y-106280466D01*
X141190294Y-106286200D01*
X141790106Y-106286200D01*
X141848332Y-106280466D01*
X141904236Y-106263507D01*
X141955755Y-106235970D01*
X142000911Y-106198911D01*
X142037970Y-106153755D01*
X142065507Y-106102236D01*
X142082466Y-106046332D01*
X142088210Y-105988004D01*
X142089375Y-105986378D01*
X142091365Y-105986574D01*
G37*
G36*
X140441365Y-105986574D02*
G01*
X140442200Y-105988200D01*
X140442200Y-106044560D01*
X140442190Y-106044756D01*
X140437034Y-106097111D01*
X140436958Y-106097496D01*
X140423477Y-106141936D01*
X140423327Y-106142298D01*
X140401434Y-106183256D01*
X140401216Y-106183582D01*
X140371756Y-106219480D01*
X140371479Y-106219757D01*
X140336686Y-106248311D01*
X140319572Y-106265425D01*
X140306177Y-106285473D01*
X140296951Y-106307746D01*
X140292246Y-106331397D01*
X140292246Y-106355503D01*
X140296950Y-106379153D01*
X140306177Y-106401427D01*
X140319571Y-106421474D01*
X140336686Y-106438589D01*
X140371479Y-106467143D01*
X140371756Y-106467420D01*
X140401216Y-106503318D01*
X140401434Y-106503644D01*
X140423327Y-106544602D01*
X140423477Y-106544964D01*
X140436958Y-106589404D01*
X140437034Y-106589789D01*
X140442190Y-106642144D01*
X140442200Y-106642340D01*
X140442200Y-106698700D01*
X140441200Y-106700432D01*
X140439200Y-106700432D01*
X140438210Y-106698896D01*
X140432466Y-106640568D01*
X140415507Y-106584664D01*
X140387970Y-106533145D01*
X140350911Y-106487989D01*
X140305755Y-106450930D01*
X140254236Y-106423393D01*
X140198332Y-106406434D01*
X140140106Y-106400700D01*
X139540294Y-106400700D01*
X139482068Y-106406434D01*
X139426164Y-106423393D01*
X139374645Y-106450930D01*
X139329489Y-106487989D01*
X139292430Y-106533145D01*
X139264893Y-106584664D01*
X139247934Y-106640568D01*
X139242190Y-106698896D01*
X139241025Y-106700522D01*
X139239035Y-106700326D01*
X139238200Y-106698700D01*
X139238200Y-106642340D01*
X139238210Y-106642144D01*
X139243366Y-106589789D01*
X139243442Y-106589404D01*
X139256923Y-106544964D01*
X139257073Y-106544602D01*
X139278966Y-106503644D01*
X139279184Y-106503318D01*
X139308644Y-106467420D01*
X139308921Y-106467143D01*
X139343714Y-106438589D01*
X139360828Y-106421475D01*
X139374223Y-106401427D01*
X139383449Y-106379154D01*
X139388154Y-106355503D01*
X139388154Y-106331397D01*
X139383450Y-106307747D01*
X139374223Y-106285473D01*
X139360829Y-106265426D01*
X139343714Y-106248311D01*
X139308921Y-106219757D01*
X139308644Y-106219480D01*
X139279184Y-106183582D01*
X139278966Y-106183256D01*
X139257073Y-106142298D01*
X139256923Y-106141936D01*
X139243442Y-106097496D01*
X139243366Y-106097111D01*
X139238210Y-106044756D01*
X139238200Y-106044560D01*
X139238200Y-105988200D01*
X139239200Y-105986468D01*
X139241200Y-105986468D01*
X139242190Y-105988004D01*
X139247934Y-106046332D01*
X139264893Y-106102236D01*
X139292430Y-106153755D01*
X139329489Y-106198911D01*
X139374645Y-106235970D01*
X139426164Y-106263507D01*
X139482068Y-106280466D01*
X139540294Y-106286200D01*
X140140106Y-106286200D01*
X140198332Y-106280466D01*
X140254236Y-106263507D01*
X140305755Y-106235970D01*
X140350911Y-106198911D01*
X140387970Y-106153755D01*
X140415507Y-106102236D01*
X140432466Y-106046332D01*
X140438210Y-105988004D01*
X140439375Y-105986378D01*
X140441365Y-105986574D01*
G37*
G36*
X164729332Y-105766400D02*
G01*
X164729600Y-105767400D01*
X164729600Y-105834091D01*
X164731972Y-105858176D01*
X164738972Y-105881251D01*
X164750337Y-105902515D01*
X164765632Y-105921152D01*
X164784269Y-105936447D01*
X164805533Y-105947812D01*
X164828657Y-105954826D01*
X164840591Y-105956597D01*
X164853287Y-105957847D01*
X164853672Y-105957923D01*
X164902805Y-105972828D01*
X164903167Y-105972978D01*
X164948445Y-105997179D01*
X164948771Y-105997397D01*
X164988457Y-106029966D01*
X164988734Y-106030243D01*
X165021303Y-106069929D01*
X165021521Y-106070255D01*
X165045722Y-106115533D01*
X165045872Y-106115895D01*
X165060777Y-106165028D01*
X165060853Y-106165413D01*
X165066490Y-106222645D01*
X165066500Y-106222841D01*
X165066500Y-106279200D01*
X165065500Y-106280932D01*
X165063500Y-106280932D01*
X165062510Y-106279396D01*
X165056285Y-106216191D01*
X165037904Y-106155597D01*
X165008057Y-106099756D01*
X164967889Y-106050811D01*
X164918944Y-106010643D01*
X164863103Y-105980796D01*
X164802509Y-105962415D01*
X164739406Y-105956200D01*
X164089594Y-105956200D01*
X164026491Y-105962415D01*
X163965897Y-105980796D01*
X163910056Y-106010643D01*
X163861111Y-106050811D01*
X163820943Y-106099756D01*
X163791096Y-106155597D01*
X163772715Y-106216191D01*
X163766490Y-106279396D01*
X163765325Y-106281022D01*
X163763335Y-106280826D01*
X163762500Y-106279200D01*
X163762500Y-106222841D01*
X163762510Y-106222645D01*
X163768147Y-106165413D01*
X163768223Y-106165028D01*
X163783128Y-106115895D01*
X163783278Y-106115533D01*
X163807479Y-106070255D01*
X163807697Y-106069929D01*
X163840266Y-106030243D01*
X163840543Y-106029966D01*
X163886290Y-105992422D01*
X163886448Y-105992305D01*
X163893683Y-105987471D01*
X163910730Y-105970424D01*
X163924125Y-105950377D01*
X163933351Y-105928103D01*
X163938056Y-105904453D01*
X163938056Y-105880347D01*
X163933352Y-105856697D01*
X163924126Y-105834423D01*
X163910731Y-105814375D01*
X163893684Y-105797328D01*
X163873637Y-105783933D01*
X163851363Y-105774707D01*
X163827667Y-105769993D01*
X163815561Y-105769398D01*
X163813880Y-105768314D01*
X163813978Y-105766316D01*
X163815659Y-105765400D01*
X164727600Y-105765400D01*
X164729332Y-105766400D01*
G37*
G36*
X163465073Y-105766400D02*
G01*
X163465073Y-105768400D01*
X163463537Y-105769390D01*
X163439350Y-105771772D01*
X163416275Y-105778772D01*
X163395011Y-105790137D01*
X163376374Y-105805432D01*
X163361079Y-105824069D01*
X163349714Y-105845333D01*
X163342714Y-105868408D01*
X163340351Y-105892399D01*
X163342714Y-105916390D01*
X163349714Y-105939465D01*
X163361079Y-105960729D01*
X163376374Y-105979366D01*
X163395048Y-105994691D01*
X163396504Y-105995563D01*
X163396745Y-105995733D01*
X163438457Y-106029966D01*
X163438734Y-106030243D01*
X163471303Y-106069929D01*
X163471521Y-106070255D01*
X163495722Y-106115533D01*
X163495872Y-106115895D01*
X163510777Y-106165028D01*
X163510853Y-106165413D01*
X163516490Y-106222645D01*
X163516500Y-106222841D01*
X163516500Y-106279200D01*
X163515500Y-106280932D01*
X163513500Y-106280932D01*
X163512510Y-106279396D01*
X163506285Y-106216191D01*
X163487904Y-106155597D01*
X163458057Y-106099756D01*
X163417889Y-106050811D01*
X163368944Y-106010643D01*
X163313103Y-105980796D01*
X163252509Y-105962415D01*
X163189406Y-105956200D01*
X162539594Y-105956200D01*
X162476491Y-105962415D01*
X162415897Y-105980796D01*
X162360056Y-106010643D01*
X162311111Y-106050811D01*
X162270943Y-106099756D01*
X162241096Y-106155597D01*
X162222715Y-106216191D01*
X162216490Y-106279396D01*
X162215325Y-106281022D01*
X162213335Y-106280826D01*
X162212500Y-106279200D01*
X162212500Y-106222841D01*
X162212510Y-106222645D01*
X162218147Y-106165413D01*
X162218223Y-106165028D01*
X162233128Y-106115895D01*
X162233278Y-106115533D01*
X162257479Y-106070255D01*
X162257697Y-106069929D01*
X162290266Y-106030243D01*
X162290543Y-106029966D01*
X162330229Y-105997397D01*
X162330555Y-105997179D01*
X162375833Y-105972978D01*
X162376195Y-105972828D01*
X162425328Y-105957923D01*
X162425713Y-105957847D01*
X162482945Y-105952210D01*
X162483141Y-105952200D01*
X162502507Y-105952200D01*
X162526592Y-105949828D01*
X162549667Y-105942828D01*
X162570931Y-105931463D01*
X162589568Y-105916168D01*
X162604863Y-105897531D01*
X162616228Y-105876267D01*
X162623228Y-105853192D01*
X162625600Y-105829107D01*
X162625600Y-105767400D01*
X162626600Y-105765668D01*
X162627600Y-105765400D01*
X163463341Y-105765400D01*
X163465073Y-105766400D01*
G37*
G36*
X140441365Y-104526074D02*
G01*
X140442200Y-104527700D01*
X140442200Y-104584060D01*
X140442190Y-104584256D01*
X140437034Y-104636611D01*
X140436958Y-104636996D01*
X140423477Y-104681436D01*
X140423327Y-104681798D01*
X140401434Y-104722756D01*
X140401216Y-104723082D01*
X140371756Y-104758980D01*
X140371479Y-104759257D01*
X140336686Y-104787811D01*
X140319572Y-104804925D01*
X140306177Y-104824973D01*
X140296951Y-104847246D01*
X140292246Y-104870897D01*
X140292246Y-104895003D01*
X140296950Y-104918653D01*
X140306177Y-104940927D01*
X140319571Y-104960974D01*
X140336686Y-104978089D01*
X140371479Y-105006643D01*
X140371756Y-105006920D01*
X140401216Y-105042818D01*
X140401434Y-105043144D01*
X140423327Y-105084102D01*
X140423477Y-105084464D01*
X140436958Y-105128904D01*
X140437034Y-105129289D01*
X140442190Y-105181644D01*
X140442200Y-105181840D01*
X140442200Y-105238200D01*
X140441200Y-105239932D01*
X140439200Y-105239932D01*
X140438210Y-105238396D01*
X140432466Y-105180068D01*
X140415507Y-105124164D01*
X140387970Y-105072645D01*
X140350911Y-105027489D01*
X140305755Y-104990430D01*
X140254236Y-104962893D01*
X140198332Y-104945934D01*
X140140106Y-104940200D01*
X139540294Y-104940200D01*
X139482068Y-104945934D01*
X139426164Y-104962893D01*
X139374645Y-104990430D01*
X139329489Y-105027489D01*
X139292430Y-105072645D01*
X139264893Y-105124164D01*
X139247934Y-105180068D01*
X139242190Y-105238396D01*
X139241025Y-105240022D01*
X139239035Y-105239826D01*
X139238200Y-105238200D01*
X139238200Y-105181840D01*
X139238210Y-105181644D01*
X139243366Y-105129289D01*
X139243442Y-105128904D01*
X139256923Y-105084464D01*
X139257073Y-105084102D01*
X139278966Y-105043144D01*
X139279184Y-105042818D01*
X139308644Y-105006920D01*
X139308921Y-105006643D01*
X139343714Y-104978089D01*
X139360828Y-104960975D01*
X139374223Y-104940927D01*
X139383449Y-104918654D01*
X139388154Y-104895003D01*
X139388154Y-104870897D01*
X139383450Y-104847247D01*
X139374223Y-104824973D01*
X139360829Y-104804926D01*
X139343714Y-104787811D01*
X139308921Y-104759257D01*
X139308644Y-104758980D01*
X139279184Y-104723082D01*
X139278966Y-104722756D01*
X139257073Y-104681798D01*
X139256923Y-104681436D01*
X139243442Y-104636996D01*
X139243366Y-104636611D01*
X139238210Y-104584256D01*
X139238200Y-104584060D01*
X139238200Y-104527700D01*
X139239200Y-104525968D01*
X139241200Y-104525968D01*
X139242190Y-104527504D01*
X139247934Y-104585832D01*
X139264893Y-104641736D01*
X139292430Y-104693255D01*
X139329489Y-104738411D01*
X139374645Y-104775470D01*
X139426164Y-104803007D01*
X139482068Y-104819966D01*
X139540294Y-104825700D01*
X140140106Y-104825700D01*
X140198332Y-104819966D01*
X140254236Y-104803007D01*
X140305755Y-104775470D01*
X140350911Y-104738411D01*
X140387970Y-104693255D01*
X140415507Y-104641736D01*
X140432466Y-104585832D01*
X140438210Y-104527504D01*
X140439375Y-104525878D01*
X140441365Y-104526074D01*
G37*
G36*
X142091365Y-104526074D02*
G01*
X142092200Y-104527700D01*
X142092200Y-104584060D01*
X142092190Y-104584256D01*
X142087034Y-104636611D01*
X142086958Y-104636996D01*
X142073477Y-104681436D01*
X142073327Y-104681798D01*
X142051434Y-104722756D01*
X142051216Y-104723082D01*
X142021756Y-104758980D01*
X142021479Y-104759257D01*
X141986686Y-104787811D01*
X141969572Y-104804925D01*
X141956177Y-104824973D01*
X141946951Y-104847246D01*
X141942246Y-104870897D01*
X141942246Y-104895003D01*
X141946950Y-104918653D01*
X141956177Y-104940927D01*
X141969571Y-104960974D01*
X141986686Y-104978089D01*
X142021479Y-105006643D01*
X142021756Y-105006920D01*
X142051216Y-105042818D01*
X142051434Y-105043144D01*
X142073327Y-105084102D01*
X142073477Y-105084464D01*
X142086958Y-105128904D01*
X142087034Y-105129289D01*
X142092190Y-105181644D01*
X142092200Y-105181840D01*
X142092200Y-105238200D01*
X142091200Y-105239932D01*
X142089200Y-105239932D01*
X142088210Y-105238396D01*
X142082466Y-105180068D01*
X142065507Y-105124164D01*
X142037970Y-105072645D01*
X142000911Y-105027489D01*
X141955755Y-104990430D01*
X141904236Y-104962893D01*
X141848332Y-104945934D01*
X141790106Y-104940200D01*
X141190294Y-104940200D01*
X141132068Y-104945934D01*
X141076164Y-104962893D01*
X141024645Y-104990430D01*
X140979489Y-105027489D01*
X140942430Y-105072645D01*
X140914893Y-105124164D01*
X140897934Y-105180068D01*
X140892190Y-105238396D01*
X140891025Y-105240022D01*
X140889035Y-105239826D01*
X140888200Y-105238200D01*
X140888200Y-105181840D01*
X140888210Y-105181644D01*
X140893366Y-105129289D01*
X140893442Y-105128904D01*
X140906923Y-105084464D01*
X140907073Y-105084102D01*
X140928966Y-105043144D01*
X140929184Y-105042818D01*
X140958644Y-105006920D01*
X140958921Y-105006643D01*
X140993714Y-104978089D01*
X141010828Y-104960975D01*
X141024223Y-104940927D01*
X141033449Y-104918654D01*
X141038154Y-104895003D01*
X141038154Y-104870897D01*
X141033450Y-104847247D01*
X141024223Y-104824973D01*
X141010829Y-104804926D01*
X140993714Y-104787811D01*
X140958921Y-104759257D01*
X140958644Y-104758980D01*
X140929184Y-104723082D01*
X140928966Y-104722756D01*
X140907073Y-104681798D01*
X140906923Y-104681436D01*
X140893442Y-104636996D01*
X140893366Y-104636611D01*
X140888210Y-104584256D01*
X140888200Y-104584060D01*
X140888200Y-104527700D01*
X140889200Y-104525968D01*
X140891200Y-104525968D01*
X140892190Y-104527504D01*
X140897934Y-104585832D01*
X140914893Y-104641736D01*
X140942430Y-104693255D01*
X140979489Y-104738411D01*
X141024645Y-104775470D01*
X141076164Y-104803007D01*
X141132068Y-104819966D01*
X141190294Y-104825700D01*
X141790106Y-104825700D01*
X141848332Y-104819966D01*
X141904236Y-104803007D01*
X141955755Y-104775470D01*
X142000911Y-104738411D01*
X142037970Y-104693255D01*
X142065507Y-104641736D01*
X142082466Y-104585832D01*
X142088210Y-104527504D01*
X142089375Y-104525878D01*
X142091365Y-104526074D01*
G37*
G36*
X142091365Y-103065574D02*
G01*
X142092200Y-103067200D01*
X142092200Y-103123560D01*
X142092190Y-103123756D01*
X142087034Y-103176111D01*
X142086958Y-103176496D01*
X142073477Y-103220936D01*
X142073327Y-103221298D01*
X142051434Y-103262256D01*
X142051216Y-103262582D01*
X142021756Y-103298480D01*
X142021479Y-103298757D01*
X141986686Y-103327311D01*
X141969572Y-103344425D01*
X141956177Y-103364473D01*
X141946951Y-103386746D01*
X141942246Y-103410397D01*
X141942246Y-103434503D01*
X141946950Y-103458153D01*
X141956177Y-103480427D01*
X141969571Y-103500474D01*
X141986686Y-103517589D01*
X142021479Y-103546143D01*
X142021756Y-103546420D01*
X142051216Y-103582318D01*
X142051434Y-103582644D01*
X142073327Y-103623602D01*
X142073477Y-103623964D01*
X142086958Y-103668404D01*
X142087034Y-103668789D01*
X142092190Y-103721144D01*
X142092200Y-103721340D01*
X142092200Y-103777700D01*
X142091200Y-103779432D01*
X142089200Y-103779432D01*
X142088210Y-103777896D01*
X142082466Y-103719568D01*
X142065507Y-103663664D01*
X142037970Y-103612145D01*
X142000911Y-103566989D01*
X141955755Y-103529930D01*
X141904236Y-103502393D01*
X141848332Y-103485434D01*
X141790106Y-103479700D01*
X141190294Y-103479700D01*
X141132068Y-103485434D01*
X141076164Y-103502393D01*
X141024645Y-103529930D01*
X140979489Y-103566989D01*
X140942430Y-103612145D01*
X140914893Y-103663664D01*
X140897934Y-103719568D01*
X140892190Y-103777896D01*
X140891025Y-103779522D01*
X140889035Y-103779326D01*
X140888200Y-103777700D01*
X140888200Y-103721340D01*
X140888210Y-103721144D01*
X140893366Y-103668789D01*
X140893442Y-103668404D01*
X140906923Y-103623964D01*
X140907073Y-103623602D01*
X140928966Y-103582644D01*
X140929184Y-103582318D01*
X140958644Y-103546420D01*
X140958921Y-103546143D01*
X140993714Y-103517589D01*
X141010828Y-103500475D01*
X141024223Y-103480427D01*
X141033449Y-103458154D01*
X141038154Y-103434503D01*
X141038154Y-103410397D01*
X141033450Y-103386747D01*
X141024223Y-103364473D01*
X141010829Y-103344426D01*
X140993714Y-103327311D01*
X140958921Y-103298757D01*
X140958644Y-103298480D01*
X140929184Y-103262582D01*
X140928966Y-103262256D01*
X140907073Y-103221298D01*
X140906923Y-103220936D01*
X140893442Y-103176496D01*
X140893366Y-103176111D01*
X140888210Y-103123756D01*
X140888200Y-103123560D01*
X140888200Y-103067200D01*
X140889200Y-103065468D01*
X140891200Y-103065468D01*
X140892190Y-103067004D01*
X140897934Y-103125332D01*
X140914893Y-103181236D01*
X140942430Y-103232755D01*
X140979489Y-103277911D01*
X141024645Y-103314970D01*
X141076164Y-103342507D01*
X141132068Y-103359466D01*
X141190294Y-103365200D01*
X141790106Y-103365200D01*
X141848332Y-103359466D01*
X141904236Y-103342507D01*
X141955755Y-103314970D01*
X142000911Y-103277911D01*
X142037970Y-103232755D01*
X142065507Y-103181236D01*
X142082466Y-103125332D01*
X142088210Y-103067004D01*
X142089375Y-103065378D01*
X142091365Y-103065574D01*
G37*
G36*
X140441365Y-103065574D02*
G01*
X140442200Y-103067200D01*
X140442200Y-103123560D01*
X140442190Y-103123756D01*
X140437034Y-103176111D01*
X140436958Y-103176496D01*
X140423477Y-103220936D01*
X140423327Y-103221298D01*
X140401434Y-103262256D01*
X140401216Y-103262582D01*
X140371756Y-103298480D01*
X140371479Y-103298757D01*
X140336686Y-103327311D01*
X140319572Y-103344425D01*
X140306177Y-103364473D01*
X140296951Y-103386746D01*
X140292246Y-103410397D01*
X140292246Y-103434503D01*
X140296950Y-103458153D01*
X140306177Y-103480427D01*
X140319571Y-103500474D01*
X140336686Y-103517589D01*
X140371479Y-103546143D01*
X140371756Y-103546420D01*
X140401216Y-103582318D01*
X140401434Y-103582644D01*
X140423327Y-103623602D01*
X140423477Y-103623964D01*
X140436958Y-103668404D01*
X140437034Y-103668789D01*
X140442190Y-103721144D01*
X140442200Y-103721340D01*
X140442200Y-103777700D01*
X140441200Y-103779432D01*
X140439200Y-103779432D01*
X140438210Y-103777896D01*
X140432466Y-103719568D01*
X140415507Y-103663664D01*
X140387970Y-103612145D01*
X140350911Y-103566989D01*
X140305755Y-103529930D01*
X140254236Y-103502393D01*
X140198332Y-103485434D01*
X140140106Y-103479700D01*
X139540294Y-103479700D01*
X139482068Y-103485434D01*
X139426164Y-103502393D01*
X139374645Y-103529930D01*
X139329489Y-103566989D01*
X139292430Y-103612145D01*
X139264893Y-103663664D01*
X139247934Y-103719568D01*
X139242190Y-103777896D01*
X139241025Y-103779522D01*
X139239035Y-103779326D01*
X139238200Y-103777700D01*
X139238200Y-103721340D01*
X139238210Y-103721144D01*
X139243366Y-103668789D01*
X139243442Y-103668404D01*
X139256923Y-103623964D01*
X139257073Y-103623602D01*
X139278966Y-103582644D01*
X139279184Y-103582318D01*
X139308644Y-103546420D01*
X139308921Y-103546143D01*
X139343714Y-103517589D01*
X139360828Y-103500475D01*
X139374223Y-103480427D01*
X139383449Y-103458154D01*
X139388154Y-103434503D01*
X139388154Y-103410397D01*
X139383450Y-103386747D01*
X139374223Y-103364473D01*
X139360829Y-103344426D01*
X139343714Y-103327311D01*
X139308921Y-103298757D01*
X139308644Y-103298480D01*
X139279184Y-103262582D01*
X139278966Y-103262256D01*
X139257073Y-103221298D01*
X139256923Y-103220936D01*
X139243442Y-103176496D01*
X139243366Y-103176111D01*
X139238210Y-103123756D01*
X139238200Y-103123560D01*
X139238200Y-103067200D01*
X139239200Y-103065468D01*
X139241200Y-103065468D01*
X139242190Y-103067004D01*
X139247934Y-103125332D01*
X139264893Y-103181236D01*
X139292430Y-103232755D01*
X139329489Y-103277911D01*
X139374645Y-103314970D01*
X139426164Y-103342507D01*
X139482068Y-103359466D01*
X139540294Y-103365200D01*
X140140106Y-103365200D01*
X140198332Y-103359466D01*
X140254236Y-103342507D01*
X140305755Y-103314970D01*
X140350911Y-103277911D01*
X140387970Y-103232755D01*
X140415507Y-103181236D01*
X140432466Y-103125332D01*
X140438210Y-103067004D01*
X140439375Y-103065378D01*
X140441365Y-103065574D01*
G37*
G36*
X137722565Y-102481374D02*
G01*
X137723400Y-102483000D01*
X137723400Y-102539360D01*
X137723390Y-102539556D01*
X137718234Y-102591911D01*
X137718158Y-102592296D01*
X137704677Y-102636736D01*
X137704527Y-102637098D01*
X137682634Y-102678056D01*
X137682416Y-102678382D01*
X137652957Y-102714280D01*
X137652680Y-102714557D01*
X137616784Y-102744015D01*
X137616458Y-102744233D01*
X137577070Y-102765286D01*
X137556943Y-102778735D01*
X137539896Y-102795782D01*
X137526501Y-102815829D01*
X137517275Y-102838103D01*
X137512570Y-102861753D01*
X137512570Y-102885859D01*
X137517274Y-102909510D01*
X137526500Y-102931784D01*
X137539895Y-102951831D01*
X137556942Y-102968878D01*
X137577070Y-102982328D01*
X137608125Y-102998927D01*
X137608451Y-102999145D01*
X137647188Y-103030935D01*
X137647465Y-103031212D01*
X137679258Y-103069953D01*
X137679476Y-103070279D01*
X137703098Y-103114472D01*
X137703248Y-103114834D01*
X137717797Y-103162797D01*
X137717873Y-103163182D01*
X137723390Y-103219195D01*
X137723400Y-103219391D01*
X137723400Y-103275750D01*
X137722400Y-103277482D01*
X137720400Y-103277482D01*
X137719410Y-103275946D01*
X137713305Y-103213960D01*
X137695280Y-103154539D01*
X137666010Y-103099778D01*
X137626619Y-103051781D01*
X137578622Y-103012390D01*
X137523861Y-102983120D01*
X137464440Y-102965095D01*
X137402556Y-102959000D01*
X136765244Y-102959000D01*
X136703360Y-102965095D01*
X136643939Y-102983120D01*
X136589178Y-103012390D01*
X136541181Y-103051781D01*
X136501790Y-103099778D01*
X136472520Y-103154539D01*
X136454495Y-103213960D01*
X136448390Y-103275946D01*
X136447225Y-103277572D01*
X136445235Y-103277376D01*
X136444400Y-103275750D01*
X136444400Y-103219391D01*
X136444410Y-103219195D01*
X136449927Y-103163182D01*
X136450003Y-103162797D01*
X136464552Y-103114834D01*
X136464702Y-103114472D01*
X136488324Y-103070279D01*
X136488542Y-103069953D01*
X136520335Y-103031212D01*
X136520612Y-103030935D01*
X136559353Y-102999142D01*
X136559679Y-102998924D01*
X136603874Y-102975301D01*
X136604237Y-102975151D01*
X136609687Y-102973498D01*
X136632055Y-102964233D01*
X136652103Y-102950839D01*
X136669150Y-102933793D01*
X136682545Y-102913745D01*
X136691772Y-102891472D01*
X136696477Y-102867822D01*
X136696477Y-102843716D01*
X136691773Y-102820065D01*
X136682547Y-102797791D01*
X136669153Y-102777743D01*
X136652107Y-102760696D01*
X136631977Y-102747246D01*
X136626346Y-102744236D01*
X136626020Y-102744018D01*
X136590120Y-102714557D01*
X136589843Y-102714280D01*
X136560384Y-102678382D01*
X136560166Y-102678056D01*
X136538273Y-102637098D01*
X136538123Y-102636736D01*
X136524642Y-102592296D01*
X136524566Y-102591911D01*
X136519410Y-102539556D01*
X136519400Y-102539360D01*
X136519400Y-102483000D01*
X136520400Y-102481268D01*
X136522400Y-102481268D01*
X136523390Y-102482804D01*
X136529134Y-102541132D01*
X136546093Y-102597036D01*
X136573630Y-102648555D01*
X136610689Y-102693711D01*
X136655845Y-102730770D01*
X136707364Y-102758307D01*
X136763268Y-102775266D01*
X136821494Y-102781000D01*
X137421306Y-102781000D01*
X137479532Y-102775266D01*
X137535436Y-102758307D01*
X137586955Y-102730770D01*
X137632111Y-102693711D01*
X137669170Y-102648555D01*
X137696707Y-102597036D01*
X137713666Y-102541132D01*
X137719410Y-102482804D01*
X137720575Y-102481178D01*
X137722565Y-102481374D01*
G37*
G36*
X136072565Y-102481374D02*
G01*
X136073400Y-102483000D01*
X136073400Y-102539360D01*
X136073390Y-102539556D01*
X136068234Y-102591911D01*
X136068158Y-102592296D01*
X136054677Y-102636736D01*
X136054527Y-102637098D01*
X136032634Y-102678056D01*
X136032416Y-102678382D01*
X136002957Y-102714280D01*
X136002680Y-102714557D01*
X135966780Y-102744018D01*
X135966454Y-102744236D01*
X135960823Y-102747246D01*
X135940695Y-102760695D01*
X135923648Y-102777742D01*
X135910254Y-102797789D01*
X135901027Y-102820063D01*
X135896323Y-102843713D01*
X135896323Y-102867819D01*
X135901027Y-102891469D01*
X135910254Y-102913743D01*
X135923649Y-102933791D01*
X135940696Y-102950838D01*
X135960743Y-102964232D01*
X135983113Y-102973498D01*
X135988563Y-102975151D01*
X135988926Y-102975301D01*
X136033121Y-102998924D01*
X136033447Y-102999142D01*
X136072188Y-103030935D01*
X136072465Y-103031212D01*
X136104258Y-103069953D01*
X136104476Y-103070279D01*
X136128098Y-103114472D01*
X136128248Y-103114834D01*
X136142797Y-103162797D01*
X136142873Y-103163182D01*
X136148390Y-103219195D01*
X136148400Y-103219391D01*
X136148400Y-103275750D01*
X136147400Y-103277482D01*
X136145400Y-103277482D01*
X136144410Y-103275946D01*
X136138305Y-103213960D01*
X136120280Y-103154539D01*
X136091010Y-103099778D01*
X136051619Y-103051781D01*
X136003622Y-103012390D01*
X135948861Y-102983120D01*
X135889440Y-102965095D01*
X135827556Y-102959000D01*
X135190244Y-102959000D01*
X135128360Y-102965095D01*
X135068939Y-102983120D01*
X135014178Y-103012390D01*
X134966181Y-103051781D01*
X134926790Y-103099778D01*
X134897520Y-103154539D01*
X134879495Y-103213960D01*
X134873390Y-103275946D01*
X134872225Y-103277572D01*
X134870235Y-103277376D01*
X134869400Y-103275750D01*
X134869400Y-103219391D01*
X134869410Y-103219195D01*
X134874927Y-103163182D01*
X134875003Y-103162797D01*
X134889552Y-103114834D01*
X134889702Y-103114472D01*
X134913324Y-103070279D01*
X134913542Y-103069953D01*
X134945335Y-103031212D01*
X134945612Y-103030935D01*
X134984349Y-102999145D01*
X134984675Y-102998927D01*
X135015730Y-102982328D01*
X135035857Y-102968879D01*
X135052904Y-102951832D01*
X135066299Y-102931785D01*
X135075525Y-102909511D01*
X135080230Y-102885861D01*
X135080230Y-102861755D01*
X135075526Y-102838104D01*
X135066300Y-102815830D01*
X135052905Y-102795783D01*
X135035858Y-102778736D01*
X135015730Y-102765286D01*
X134976342Y-102744233D01*
X134976016Y-102744015D01*
X134940120Y-102714557D01*
X134939843Y-102714280D01*
X134910384Y-102678382D01*
X134910166Y-102678056D01*
X134888273Y-102637098D01*
X134888123Y-102636736D01*
X134874642Y-102592296D01*
X134874566Y-102591911D01*
X134869410Y-102539556D01*
X134869400Y-102539360D01*
X134869400Y-102483000D01*
X134870400Y-102481268D01*
X134872400Y-102481268D01*
X134873390Y-102482804D01*
X134879134Y-102541132D01*
X134896093Y-102597036D01*
X134923630Y-102648555D01*
X134960689Y-102693711D01*
X135005845Y-102730770D01*
X135057364Y-102758307D01*
X135113268Y-102775266D01*
X135171494Y-102781000D01*
X135771306Y-102781000D01*
X135829532Y-102775266D01*
X135885436Y-102758307D01*
X135936955Y-102730770D01*
X135982111Y-102693711D01*
X136019170Y-102648555D01*
X136046707Y-102597036D01*
X136063666Y-102541132D01*
X136069410Y-102482804D01*
X136070575Y-102481178D01*
X136072565Y-102481374D01*
G37*
G36*
X130559165Y-102329374D02*
G01*
X130560000Y-102331000D01*
X130560000Y-102387359D01*
X130559990Y-102387555D01*
X130554353Y-102444787D01*
X130554277Y-102445172D01*
X130539372Y-102494305D01*
X130539222Y-102494667D01*
X130515021Y-102539945D01*
X130514803Y-102540271D01*
X130482234Y-102579957D01*
X130481957Y-102580234D01*
X130434891Y-102618861D01*
X130434733Y-102618978D01*
X130430310Y-102621933D01*
X130413263Y-102638980D01*
X130399869Y-102659028D01*
X130390644Y-102681302D01*
X130385940Y-102704953D01*
X130385941Y-102729059D01*
X130390647Y-102752709D01*
X130399874Y-102774982D01*
X130413270Y-102795029D01*
X130430317Y-102812076D01*
X130450365Y-102825470D01*
X130472596Y-102834678D01*
X130508631Y-102840022D01*
X130510198Y-102841265D01*
X130509905Y-102843243D01*
X130508338Y-102844000D01*
X129307662Y-102844000D01*
X129305930Y-102843000D01*
X129305930Y-102841000D01*
X129307466Y-102840010D01*
X129331653Y-102837628D01*
X129354728Y-102830628D01*
X129375992Y-102819263D01*
X129394629Y-102803968D01*
X129409924Y-102785331D01*
X129421289Y-102764067D01*
X129428289Y-102740992D01*
X129430652Y-102717001D01*
X129428289Y-102693010D01*
X129421289Y-102669935D01*
X129409924Y-102648671D01*
X129394659Y-102630070D01*
X129382820Y-102621290D01*
X129382129Y-102619698D01*
X129334043Y-102580234D01*
X129333766Y-102579957D01*
X129301197Y-102540271D01*
X129300979Y-102539945D01*
X129276778Y-102494667D01*
X129276628Y-102494305D01*
X129261723Y-102445172D01*
X129261647Y-102444787D01*
X129256010Y-102387555D01*
X129256000Y-102387359D01*
X129256000Y-102331000D01*
X129257000Y-102329268D01*
X129259000Y-102329268D01*
X129259990Y-102330804D01*
X129266215Y-102394009D01*
X129284596Y-102454603D01*
X129314443Y-102510444D01*
X129354611Y-102559389D01*
X129403556Y-102599557D01*
X129459397Y-102629404D01*
X129519991Y-102647785D01*
X129583094Y-102654000D01*
X130232906Y-102654000D01*
X130296009Y-102647785D01*
X130356603Y-102629404D01*
X130412444Y-102599557D01*
X130461389Y-102559389D01*
X130501557Y-102510444D01*
X130531404Y-102454603D01*
X130549785Y-102394009D01*
X130556010Y-102330804D01*
X130557175Y-102329178D01*
X130559165Y-102329374D01*
G37*
G36*
X132109165Y-102329374D02*
G01*
X132110000Y-102331000D01*
X132110000Y-102387359D01*
X132109990Y-102387555D01*
X132104353Y-102444787D01*
X132104277Y-102445172D01*
X132089372Y-102494305D01*
X132089222Y-102494667D01*
X132065021Y-102539945D01*
X132064803Y-102540271D01*
X132032234Y-102579957D01*
X132031957Y-102580234D01*
X131984891Y-102618861D01*
X131984733Y-102618978D01*
X131980310Y-102621933D01*
X131963263Y-102638980D01*
X131949869Y-102659028D01*
X131940644Y-102681302D01*
X131935940Y-102704953D01*
X131935941Y-102729059D01*
X131939462Y-102746755D01*
X131939500Y-102747145D01*
X131939500Y-102842000D01*
X131938500Y-102843732D01*
X131937500Y-102844000D01*
X130857662Y-102844000D01*
X130855930Y-102843000D01*
X130855930Y-102841000D01*
X130857466Y-102840010D01*
X130881653Y-102837628D01*
X130904728Y-102830628D01*
X130925992Y-102819263D01*
X130944629Y-102803968D01*
X130959924Y-102785331D01*
X130971289Y-102764067D01*
X130978289Y-102740992D01*
X130980652Y-102717001D01*
X130978289Y-102693010D01*
X130971289Y-102669935D01*
X130959924Y-102648671D01*
X130944659Y-102630070D01*
X130932820Y-102621290D01*
X130932129Y-102619698D01*
X130884043Y-102580234D01*
X130883766Y-102579957D01*
X130851197Y-102540271D01*
X130850979Y-102539945D01*
X130826778Y-102494667D01*
X130826628Y-102494305D01*
X130811723Y-102445172D01*
X130811647Y-102444787D01*
X130806010Y-102387555D01*
X130806000Y-102387359D01*
X130806000Y-102331000D01*
X130807000Y-102329268D01*
X130809000Y-102329268D01*
X130809990Y-102330804D01*
X130816215Y-102394009D01*
X130834596Y-102454603D01*
X130864443Y-102510444D01*
X130904611Y-102559389D01*
X130953556Y-102599557D01*
X131009397Y-102629404D01*
X131069991Y-102647785D01*
X131133094Y-102654000D01*
X131782906Y-102654000D01*
X131846009Y-102647785D01*
X131906603Y-102629404D01*
X131962444Y-102599557D01*
X132011389Y-102559389D01*
X132051557Y-102510444D01*
X132081404Y-102454603D01*
X132099785Y-102394009D01*
X132106010Y-102330804D01*
X132107175Y-102329178D01*
X132109165Y-102329374D01*
G37*
G36*
X163553765Y-102303974D02*
G01*
X163554600Y-102305600D01*
X163554600Y-102361959D01*
X163554590Y-102362155D01*
X163548953Y-102419387D01*
X163548877Y-102419772D01*
X163533972Y-102468905D01*
X163533822Y-102469267D01*
X163509621Y-102514545D01*
X163509403Y-102514871D01*
X163476834Y-102554557D01*
X163476557Y-102554834D01*
X163430810Y-102592378D01*
X163430652Y-102592495D01*
X163423417Y-102597329D01*
X163406370Y-102614376D01*
X163392975Y-102634423D01*
X163383749Y-102656697D01*
X163379044Y-102680347D01*
X163379044Y-102704453D01*
X163383748Y-102728103D01*
X163392974Y-102750377D01*
X163406369Y-102770425D01*
X163423416Y-102787472D01*
X163443463Y-102800867D01*
X163465737Y-102810093D01*
X163489433Y-102814807D01*
X163501539Y-102815402D01*
X163503220Y-102816486D01*
X163503122Y-102818484D01*
X163501441Y-102819400D01*
X162627600Y-102819400D01*
X162625868Y-102818400D01*
X162625600Y-102817400D01*
X162625600Y-102754462D01*
X162623228Y-102730377D01*
X162616228Y-102707302D01*
X162604863Y-102686038D01*
X162589568Y-102667401D01*
X162570931Y-102652106D01*
X162549710Y-102640764D01*
X162514509Y-102631946D01*
X162463813Y-102626953D01*
X162463428Y-102626877D01*
X162414295Y-102611972D01*
X162413933Y-102611822D01*
X162368655Y-102587621D01*
X162368329Y-102587403D01*
X162328643Y-102554834D01*
X162328366Y-102554557D01*
X162295797Y-102514871D01*
X162295579Y-102514545D01*
X162271378Y-102469267D01*
X162271228Y-102468905D01*
X162256323Y-102419772D01*
X162256247Y-102419387D01*
X162250610Y-102362155D01*
X162250600Y-102361959D01*
X162250600Y-102305600D01*
X162251600Y-102303868D01*
X162253600Y-102303868D01*
X162254590Y-102305404D01*
X162260815Y-102368609D01*
X162279196Y-102429203D01*
X162309043Y-102485044D01*
X162349211Y-102533989D01*
X162398156Y-102574157D01*
X162453997Y-102604004D01*
X162514591Y-102622385D01*
X162577694Y-102628600D01*
X163227506Y-102628600D01*
X163290609Y-102622385D01*
X163351203Y-102604004D01*
X163407044Y-102574157D01*
X163455989Y-102533989D01*
X163496157Y-102485044D01*
X163526004Y-102429203D01*
X163544385Y-102368609D01*
X163550610Y-102305404D01*
X163551775Y-102303778D01*
X163553765Y-102303974D01*
G37*
G36*
X165103765Y-102303974D02*
G01*
X165104600Y-102305600D01*
X165104600Y-102361959D01*
X165104590Y-102362155D01*
X165098953Y-102419387D01*
X165098877Y-102419772D01*
X165083972Y-102468905D01*
X165083822Y-102469267D01*
X165059621Y-102514545D01*
X165059403Y-102514871D01*
X165026834Y-102554557D01*
X165026557Y-102554834D01*
X164986871Y-102587403D01*
X164986545Y-102587621D01*
X164941267Y-102611822D01*
X164940905Y-102611972D01*
X164891772Y-102626877D01*
X164891387Y-102626953D01*
X164840647Y-102631951D01*
X164816895Y-102636676D01*
X164794621Y-102645902D01*
X164774574Y-102659297D01*
X164757527Y-102676344D01*
X164744132Y-102696392D01*
X164734923Y-102718622D01*
X164729600Y-102754513D01*
X164729600Y-102817400D01*
X164728600Y-102819132D01*
X164727600Y-102819400D01*
X163853759Y-102819400D01*
X163852027Y-102818400D01*
X163852027Y-102816400D01*
X163853563Y-102815410D01*
X163877750Y-102813028D01*
X163900825Y-102806028D01*
X163922089Y-102794663D01*
X163940726Y-102779368D01*
X163956021Y-102760731D01*
X163967386Y-102739467D01*
X163974386Y-102716392D01*
X163976749Y-102692401D01*
X163974386Y-102668410D01*
X163967386Y-102645335D01*
X163956021Y-102624071D01*
X163940726Y-102605434D01*
X163922052Y-102590109D01*
X163920596Y-102589237D01*
X163920355Y-102589067D01*
X163878643Y-102554834D01*
X163878366Y-102554557D01*
X163845797Y-102514871D01*
X163845579Y-102514545D01*
X163821378Y-102469267D01*
X163821228Y-102468905D01*
X163806323Y-102419772D01*
X163806247Y-102419387D01*
X163800610Y-102362155D01*
X163800600Y-102361959D01*
X163800600Y-102305600D01*
X163801600Y-102303868D01*
X163803600Y-102303868D01*
X163804590Y-102305404D01*
X163810815Y-102368609D01*
X163829196Y-102429203D01*
X163859043Y-102485044D01*
X163899211Y-102533989D01*
X163948156Y-102574157D01*
X164003997Y-102604004D01*
X164064591Y-102622385D01*
X164127694Y-102628600D01*
X164777506Y-102628600D01*
X164840609Y-102622385D01*
X164901203Y-102604004D01*
X164957044Y-102574157D01*
X165005989Y-102533989D01*
X165046157Y-102485044D01*
X165076004Y-102429203D01*
X165094385Y-102368609D01*
X165100610Y-102305404D01*
X165101775Y-102303778D01*
X165103765Y-102303974D01*
G37*
G36*
X165116465Y-100792674D02*
G01*
X165117300Y-100794300D01*
X165117300Y-100850659D01*
X165117290Y-100850855D01*
X165111653Y-100908087D01*
X165111577Y-100908472D01*
X165096672Y-100957605D01*
X165096522Y-100957967D01*
X165072321Y-101003245D01*
X165072103Y-101003571D01*
X165039534Y-101043257D01*
X165039257Y-101043534D01*
X164999571Y-101076103D01*
X164999245Y-101076321D01*
X164964630Y-101094823D01*
X164944503Y-101108271D01*
X164927455Y-101125318D01*
X164914060Y-101145366D01*
X164904834Y-101167639D01*
X164900129Y-101191289D01*
X164900129Y-101215396D01*
X164904833Y-101239046D01*
X164914059Y-101261320D01*
X164927453Y-101281367D01*
X164944500Y-101298415D01*
X164964630Y-101311865D01*
X164986545Y-101323579D01*
X164986871Y-101323797D01*
X165026557Y-101356366D01*
X165026834Y-101356643D01*
X165059403Y-101396329D01*
X165059621Y-101396655D01*
X165083822Y-101441933D01*
X165083972Y-101442295D01*
X165098877Y-101491428D01*
X165098953Y-101491813D01*
X165104590Y-101549045D01*
X165104600Y-101549241D01*
X165104600Y-101605600D01*
X165103600Y-101607332D01*
X165101600Y-101607332D01*
X165100610Y-101605796D01*
X165094385Y-101542591D01*
X165076004Y-101481997D01*
X165046157Y-101426156D01*
X165005989Y-101377211D01*
X164957044Y-101337043D01*
X164901203Y-101307196D01*
X164840609Y-101288815D01*
X164777506Y-101282600D01*
X164127694Y-101282600D01*
X164064591Y-101288815D01*
X164003997Y-101307196D01*
X163948156Y-101337043D01*
X163899211Y-101377211D01*
X163859043Y-101426156D01*
X163829196Y-101481997D01*
X163810815Y-101542591D01*
X163804590Y-101605796D01*
X163803425Y-101607422D01*
X163801435Y-101607226D01*
X163800600Y-101605600D01*
X163800600Y-101549241D01*
X163800610Y-101549045D01*
X163806247Y-101491813D01*
X163806323Y-101491428D01*
X163821228Y-101442295D01*
X163821378Y-101441933D01*
X163845579Y-101396655D01*
X163845797Y-101396329D01*
X163878366Y-101356643D01*
X163878643Y-101356366D01*
X163918329Y-101323797D01*
X163918655Y-101323579D01*
X163953270Y-101305077D01*
X163973397Y-101291629D01*
X163990445Y-101274582D01*
X164003840Y-101254534D01*
X164013066Y-101232261D01*
X164017771Y-101208611D01*
X164017771Y-101184504D01*
X164013067Y-101160854D01*
X164003841Y-101138580D01*
X163990447Y-101118533D01*
X163973400Y-101101485D01*
X163953270Y-101088035D01*
X163931355Y-101076321D01*
X163931029Y-101076103D01*
X163891343Y-101043534D01*
X163891066Y-101043257D01*
X163858497Y-101003571D01*
X163858279Y-101003245D01*
X163834078Y-100957967D01*
X163833928Y-100957605D01*
X163819023Y-100908472D01*
X163818947Y-100908087D01*
X163813310Y-100850855D01*
X163813300Y-100850659D01*
X163813300Y-100794300D01*
X163814300Y-100792568D01*
X163816300Y-100792568D01*
X163817290Y-100794104D01*
X163823515Y-100857309D01*
X163841896Y-100917903D01*
X163871743Y-100973744D01*
X163911911Y-101022689D01*
X163960856Y-101062857D01*
X164016697Y-101092704D01*
X164077291Y-101111085D01*
X164140394Y-101117300D01*
X164790206Y-101117300D01*
X164853309Y-101111085D01*
X164913903Y-101092704D01*
X164969744Y-101062857D01*
X165018689Y-101022689D01*
X165058857Y-100973744D01*
X165088704Y-100917903D01*
X165107085Y-100857309D01*
X165113310Y-100794104D01*
X165114475Y-100792478D01*
X165116465Y-100792674D01*
G37*
G36*
X163566465Y-100792674D02*
G01*
X163567300Y-100794300D01*
X163567300Y-100850659D01*
X163567290Y-100850855D01*
X163561653Y-100908087D01*
X163561577Y-100908472D01*
X163546672Y-100957605D01*
X163546522Y-100957967D01*
X163522321Y-101003245D01*
X163522103Y-101003571D01*
X163489534Y-101043257D01*
X163489257Y-101043534D01*
X163449571Y-101076103D01*
X163449245Y-101076321D01*
X163414630Y-101094823D01*
X163394503Y-101108271D01*
X163377455Y-101125318D01*
X163364060Y-101145366D01*
X163354834Y-101167639D01*
X163350129Y-101191289D01*
X163350129Y-101215396D01*
X163354833Y-101239046D01*
X163364059Y-101261320D01*
X163377453Y-101281367D01*
X163394500Y-101298415D01*
X163414630Y-101311865D01*
X163436545Y-101323579D01*
X163436871Y-101323797D01*
X163476557Y-101356366D01*
X163476834Y-101356643D01*
X163509403Y-101396329D01*
X163509621Y-101396655D01*
X163533822Y-101441933D01*
X163533972Y-101442295D01*
X163548877Y-101491428D01*
X163548953Y-101491813D01*
X163554590Y-101549045D01*
X163554600Y-101549241D01*
X163554600Y-101605600D01*
X163553600Y-101607332D01*
X163551600Y-101607332D01*
X163550610Y-101605796D01*
X163544385Y-101542591D01*
X163526004Y-101481997D01*
X163496157Y-101426156D01*
X163455989Y-101377211D01*
X163407044Y-101337043D01*
X163351203Y-101307196D01*
X163290609Y-101288815D01*
X163227506Y-101282600D01*
X162577694Y-101282600D01*
X162514591Y-101288815D01*
X162453997Y-101307196D01*
X162398156Y-101337043D01*
X162349211Y-101377211D01*
X162309043Y-101426156D01*
X162279196Y-101481997D01*
X162260815Y-101542591D01*
X162254590Y-101605796D01*
X162253425Y-101607422D01*
X162251435Y-101607226D01*
X162250600Y-101605600D01*
X162250600Y-101549241D01*
X162250610Y-101549045D01*
X162256247Y-101491813D01*
X162256323Y-101491428D01*
X162271228Y-101442295D01*
X162271378Y-101441933D01*
X162295579Y-101396655D01*
X162295797Y-101396329D01*
X162328366Y-101356643D01*
X162328643Y-101356366D01*
X162368329Y-101323797D01*
X162368655Y-101323579D01*
X162403270Y-101305077D01*
X162423397Y-101291629D01*
X162440445Y-101274582D01*
X162453840Y-101254534D01*
X162463066Y-101232261D01*
X162467771Y-101208611D01*
X162467771Y-101184504D01*
X162463067Y-101160854D01*
X162453841Y-101138580D01*
X162440447Y-101118533D01*
X162423400Y-101101485D01*
X162403270Y-101088035D01*
X162381355Y-101076321D01*
X162381029Y-101076103D01*
X162341343Y-101043534D01*
X162341066Y-101043257D01*
X162308497Y-101003571D01*
X162308279Y-101003245D01*
X162284078Y-100957967D01*
X162283928Y-100957605D01*
X162269023Y-100908472D01*
X162268947Y-100908087D01*
X162263310Y-100850855D01*
X162263300Y-100850659D01*
X162263300Y-100794300D01*
X162264300Y-100792568D01*
X162266300Y-100792568D01*
X162267290Y-100794104D01*
X162273515Y-100857309D01*
X162291896Y-100917903D01*
X162321743Y-100973744D01*
X162361911Y-101022689D01*
X162410856Y-101062857D01*
X162466697Y-101092704D01*
X162527291Y-101111085D01*
X162590394Y-101117300D01*
X163240206Y-101117300D01*
X163303309Y-101111085D01*
X163363903Y-101092704D01*
X163419744Y-101062857D01*
X163468689Y-101022689D01*
X163508857Y-100973744D01*
X163538704Y-100917903D01*
X163557085Y-100857309D01*
X163563310Y-100794104D01*
X163564475Y-100792478D01*
X163566465Y-100792674D01*
G37*
G36*
X166390032Y-98091800D02*
G01*
X166390032Y-98093800D01*
X166388496Y-98094790D01*
X166325291Y-98101015D01*
X166264697Y-98119396D01*
X166208856Y-98149243D01*
X166159911Y-98189411D01*
X166119743Y-98238356D01*
X166089896Y-98294197D01*
X166071515Y-98354791D01*
X166065300Y-98417894D01*
X166065300Y-99067706D01*
X166071515Y-99130809D01*
X166089896Y-99191403D01*
X166119743Y-99247244D01*
X166159911Y-99296189D01*
X166208856Y-99336357D01*
X166264697Y-99366204D01*
X166325291Y-99384585D01*
X166388496Y-99390810D01*
X166390122Y-99391975D01*
X166389926Y-99393965D01*
X166388300Y-99394800D01*
X166331941Y-99394800D01*
X166331745Y-99394790D01*
X166274513Y-99389153D01*
X166274128Y-99389077D01*
X166224995Y-99374172D01*
X166224633Y-99374022D01*
X166179355Y-99349821D01*
X166179029Y-99349603D01*
X166139343Y-99317034D01*
X166139066Y-99316757D01*
X166121437Y-99295276D01*
X166104323Y-99278162D01*
X166084275Y-99264767D01*
X166062002Y-99255541D01*
X166038351Y-99250837D01*
X166014245Y-99250837D01*
X165990595Y-99255542D01*
X165968321Y-99264768D01*
X165948274Y-99278163D01*
X165931227Y-99295210D01*
X165917832Y-99315258D01*
X165908623Y-99337488D01*
X165903278Y-99373527D01*
X165902035Y-99375094D01*
X165900057Y-99374801D01*
X165899300Y-99373234D01*
X165899300Y-98112366D01*
X165900300Y-98110634D01*
X165902300Y-98110634D01*
X165903290Y-98112170D01*
X165905672Y-98136357D01*
X165912672Y-98159432D01*
X165924037Y-98180696D01*
X165939332Y-98199333D01*
X165957969Y-98214628D01*
X165979233Y-98225993D01*
X166002308Y-98232993D01*
X166026299Y-98235356D01*
X166050290Y-98232993D01*
X166073365Y-98225993D01*
X166094585Y-98214651D01*
X166121471Y-98190283D01*
X166139066Y-98168843D01*
X166139343Y-98168566D01*
X166179029Y-98135997D01*
X166179355Y-98135779D01*
X166224633Y-98111578D01*
X166224995Y-98111428D01*
X166274128Y-98096523D01*
X166274513Y-98096447D01*
X166331745Y-98090810D01*
X166331941Y-98090800D01*
X166388300Y-98090800D01*
X166390032Y-98091800D01*
G37*
G36*
X166390032Y-96541800D02*
G01*
X166390032Y-96543800D01*
X166388496Y-96544790D01*
X166325291Y-96551015D01*
X166264697Y-96569396D01*
X166208856Y-96599243D01*
X166159911Y-96639411D01*
X166119743Y-96688356D01*
X166089896Y-96744197D01*
X166071515Y-96804791D01*
X166065300Y-96867894D01*
X166065300Y-97517706D01*
X166071515Y-97580809D01*
X166089896Y-97641403D01*
X166119743Y-97697244D01*
X166159911Y-97746189D01*
X166208856Y-97786357D01*
X166264697Y-97816204D01*
X166325291Y-97834585D01*
X166388496Y-97840810D01*
X166390122Y-97841975D01*
X166389926Y-97843965D01*
X166388300Y-97844800D01*
X166331941Y-97844800D01*
X166331745Y-97844790D01*
X166274513Y-97839153D01*
X166274128Y-97839077D01*
X166224995Y-97824172D01*
X166224633Y-97824022D01*
X166179355Y-97799821D01*
X166179029Y-97799603D01*
X166139343Y-97767034D01*
X166139066Y-97766757D01*
X166121437Y-97745276D01*
X166104323Y-97728162D01*
X166084275Y-97714767D01*
X166062002Y-97705541D01*
X166038351Y-97700837D01*
X166014245Y-97700837D01*
X165990595Y-97705542D01*
X165968321Y-97714768D01*
X165948274Y-97728163D01*
X165931227Y-97745210D01*
X165917832Y-97765258D01*
X165908623Y-97787488D01*
X165903278Y-97823527D01*
X165902035Y-97825094D01*
X165900057Y-97824801D01*
X165899300Y-97823234D01*
X165899300Y-96562366D01*
X165900300Y-96560634D01*
X165902300Y-96560634D01*
X165903290Y-96562170D01*
X165905672Y-96586357D01*
X165912672Y-96609432D01*
X165924037Y-96630696D01*
X165939332Y-96649333D01*
X165957969Y-96664628D01*
X165979233Y-96675993D01*
X166002308Y-96682993D01*
X166026299Y-96685356D01*
X166050290Y-96682993D01*
X166073365Y-96675993D01*
X166094585Y-96664651D01*
X166121471Y-96640283D01*
X166139066Y-96618843D01*
X166139343Y-96618566D01*
X166179029Y-96585997D01*
X166179355Y-96585779D01*
X166224633Y-96561578D01*
X166224995Y-96561428D01*
X166274128Y-96546523D01*
X166274513Y-96546447D01*
X166331745Y-96540810D01*
X166331941Y-96540800D01*
X166388300Y-96540800D01*
X166390032Y-96541800D01*
G37*
G36*
X161735355Y-96147810D02*
G01*
X161792587Y-96153447D01*
X161792972Y-96153523D01*
X161842105Y-96168428D01*
X161842467Y-96168578D01*
X161887745Y-96192779D01*
X161888071Y-96192997D01*
X161927757Y-96225566D01*
X161928034Y-96225843D01*
X161960603Y-96265529D01*
X161960821Y-96265855D01*
X161985022Y-96311133D01*
X161985172Y-96311495D01*
X161998570Y-96355661D01*
X162007835Y-96378026D01*
X162021230Y-96398074D01*
X162038277Y-96415121D01*
X162058324Y-96428515D01*
X162080598Y-96437742D01*
X162104248Y-96442446D01*
X162128354Y-96442446D01*
X162152004Y-96437742D01*
X162174278Y-96428515D01*
X162175593Y-96427637D01*
X162176704Y-96427300D01*
X162241300Y-96427300D01*
X162243032Y-96428300D01*
X162243300Y-96429300D01*
X162243300Y-97329551D01*
X162242300Y-97331283D01*
X162240300Y-97331283D01*
X162239310Y-97329747D01*
X162236928Y-97305560D01*
X162229928Y-97282485D01*
X162218563Y-97261221D01*
X162203268Y-97242584D01*
X162184631Y-97227289D01*
X162163367Y-97215924D01*
X162140292Y-97208924D01*
X162116301Y-97206561D01*
X162092310Y-97208924D01*
X162069235Y-97215924D01*
X162047971Y-97227289D01*
X162029334Y-97242584D01*
X162014070Y-97261184D01*
X161998556Y-97293986D01*
X161985172Y-97338105D01*
X161985022Y-97338467D01*
X161960821Y-97383745D01*
X161960603Y-97384071D01*
X161928034Y-97423757D01*
X161927757Y-97424034D01*
X161888071Y-97456603D01*
X161887745Y-97456821D01*
X161842467Y-97481022D01*
X161842105Y-97481172D01*
X161792972Y-97496077D01*
X161792587Y-97496153D01*
X161735355Y-97501790D01*
X161735159Y-97501800D01*
X161678800Y-97501800D01*
X161677068Y-97500800D01*
X161677068Y-97498800D01*
X161678604Y-97497810D01*
X161741809Y-97491585D01*
X161802403Y-97473204D01*
X161858244Y-97443357D01*
X161907189Y-97403189D01*
X161947357Y-97354244D01*
X161977204Y-97298403D01*
X161995585Y-97237809D01*
X162001800Y-97174706D01*
X162001800Y-96474894D01*
X161995585Y-96411791D01*
X161977204Y-96351197D01*
X161947357Y-96295356D01*
X161907189Y-96246411D01*
X161858244Y-96206243D01*
X161802403Y-96176396D01*
X161741809Y-96158015D01*
X161678604Y-96151790D01*
X161676978Y-96150625D01*
X161677174Y-96148635D01*
X161678800Y-96147800D01*
X161735159Y-96147800D01*
X161735355Y-96147810D01*
G37*
M02*
