G04 #@! TF.GenerationSoftware,KiCad,Pcbnew,(5.1.9)-1*
G04 #@! TF.CreationDate,2021-04-27T18:11:47+02:00*
G04 #@! TF.ProjectId,ADS1299Wing,41445331-3239-4395-9769-6e672e6b6963,rev?*
G04 #@! TF.SameCoordinates,Original*
G04 #@! TF.FileFunction,Copper,L3,Inr*
G04 #@! TF.FilePolarity,Positive*
%FSLAX46Y46*%
G04 Gerber Fmt 4.6, Leading zero omitted, Abs format (unit mm)*
G04 Created by KiCad (PCBNEW (5.1.9)-1) date 2021-04-27 18:11:47*
%MOMM*%
%LPD*%
G01*
G04 APERTURE LIST*
G04 #@! TA.AperFunction,ComponentPad*
%ADD10R,1.700000X1.700000*%
G04 #@! TD*
G04 #@! TA.AperFunction,ComponentPad*
%ADD11O,1.700000X1.700000*%
G04 #@! TD*
G04 #@! TA.AperFunction,ComponentPad*
%ADD12C,3.200000*%
G04 #@! TD*
G04 #@! TA.AperFunction,ComponentPad*
%ADD13C,1.574800*%
G04 #@! TD*
G04 #@! TA.AperFunction,ViaPad*
%ADD14C,0.600000*%
G04 #@! TD*
G04 #@! TA.AperFunction,Conductor*
%ADD15C,0.254000*%
G04 #@! TD*
G04 #@! TA.AperFunction,Conductor*
%ADD16C,0.100000*%
G04 #@! TD*
G04 APERTURE END LIST*
D10*
X170942000Y-96316800D03*
X170738800Y-113741200D03*
D11*
X172021500Y-110123600D03*
X169481500Y-110123600D03*
X172021500Y-107583600D03*
X169481500Y-107583600D03*
X172021500Y-105043600D03*
X169481500Y-105043600D03*
X172021500Y-102503600D03*
X169481500Y-102503600D03*
X172021500Y-99963600D03*
D10*
X169481500Y-99963600D03*
D12*
X125641100Y-96113600D03*
X125641100Y-113893600D03*
D13*
X129451100Y-115163600D03*
X131991100Y-115163600D03*
X134531100Y-115163600D03*
X137071100Y-115163600D03*
X139611100Y-115163600D03*
X142151100Y-115163600D03*
X144691100Y-115163600D03*
X147231100Y-115163600D03*
X149771100Y-115163600D03*
X152311100Y-115163600D03*
X154851100Y-115163600D03*
X157391100Y-115163600D03*
X159931100Y-115163600D03*
X162471100Y-115163600D03*
X165011100Y-115163600D03*
X167551100Y-115163600D03*
X167551100Y-94843600D03*
X165011100Y-94843600D03*
X162471100Y-94843600D03*
X159931100Y-94843600D03*
X157391100Y-94843600D03*
X154851100Y-94843600D03*
X152311100Y-94843600D03*
X149771100Y-94843600D03*
X147231100Y-94843600D03*
X144691100Y-94843600D03*
X142151100Y-94843600D03*
X139611100Y-94843600D03*
D14*
X161290000Y-111963200D03*
X160274000Y-111912400D03*
X143154400Y-97790000D03*
X144272000Y-97840800D03*
X143662400Y-97129600D03*
X144932400Y-97129600D03*
X166319200Y-109372400D03*
X166217600Y-104038400D03*
X167741600Y-98704400D03*
X167487600Y-102108000D03*
X167487600Y-104089200D03*
X167487600Y-106883200D03*
X167487600Y-109423200D03*
X165760400Y-113741200D03*
X166674800Y-113741200D03*
X167487600Y-113741200D03*
X167487600Y-112776000D03*
X157276800Y-97586800D03*
X155905200Y-97586800D03*
X159156400Y-97586800D03*
X156565600Y-96977200D03*
X158648400Y-96926400D03*
X157327600Y-111201200D03*
X156362400Y-111201200D03*
X153060400Y-111201200D03*
X153873200Y-111201200D03*
X154686000Y-111201200D03*
X164287200Y-113436400D03*
X166725600Y-98704400D03*
X152298400Y-111201200D03*
X155448000Y-111201200D03*
X158242000Y-97586800D03*
X151333200Y-104038400D03*
X151384000Y-105562400D03*
X149860000Y-105613200D03*
X149860000Y-103987600D03*
X148386800Y-103987600D03*
X148336000Y-105664000D03*
X158242000Y-111201200D03*
X167487600Y-110845600D03*
X167538400Y-100279200D03*
X167640000Y-105410000D03*
X146100800Y-100838000D03*
X143357600Y-100634800D03*
X143510000Y-102666800D03*
X145897600Y-103124000D03*
X138785600Y-106984800D03*
X138785600Y-106172000D03*
X147719401Y-110896400D03*
X131724400Y-112217200D03*
X129946400Y-107746800D03*
X130505200Y-104698800D03*
X137160000Y-102108000D03*
X142969800Y-103632000D03*
X136804400Y-109931200D03*
X142541516Y-113040180D03*
X140157200Y-99974400D03*
X139801600Y-104140000D03*
X145084800Y-108458000D03*
X139903200Y-111607600D03*
X146558000Y-111150400D03*
X131465500Y-98173500D03*
X127508000Y-98475500D03*
X128143000Y-107823000D03*
X126855000Y-107424000D03*
X140399000Y-98552152D03*
X139065000Y-99060000D03*
X146659600Y-105105200D03*
X142966200Y-107137200D03*
X132651500Y-108775500D03*
X148031200Y-112014000D03*
X161188400Y-113284000D03*
X137725801Y-111244999D03*
X132588000Y-105664000D03*
X153212800Y-108102400D03*
X149849595Y-97066433D03*
X148196934Y-97033598D03*
X149566400Y-108153200D03*
X133604000Y-109982000D03*
X166166800Y-96164400D03*
X167081200Y-96164400D03*
X134112000Y-108839000D03*
X163017200Y-104140000D03*
X149148800Y-101092000D03*
X149148800Y-100228400D03*
X150215600Y-100228400D03*
X150266400Y-101092000D03*
X150876000Y-99822000D03*
X150146802Y-110998000D03*
X162966400Y-99517200D03*
X163677600Y-104038400D03*
X145796000Y-98145600D03*
X154076400Y-97033598D03*
X151425174Y-97043392D03*
X152603200Y-106934000D03*
X153168800Y-99713600D03*
X148742400Y-108204000D03*
X161798000Y-109880400D03*
X154482800Y-99669600D03*
X160350200Y-100203000D03*
X160324800Y-101092000D03*
X160350200Y-101981000D03*
X160426400Y-102870000D03*
X160375600Y-105410000D03*
X160350200Y-106299000D03*
X160375600Y-107188000D03*
X160350200Y-108077000D03*
X157264100Y-109715300D03*
X140589000Y-97282000D03*
X146151600Y-103886000D03*
X137287000Y-98044000D03*
X156210000Y-94107000D03*
X138049000Y-96753400D03*
D15*
X169457000Y-96031050D02*
X169615750Y-96189800D01*
X170815000Y-96189800D01*
X170815000Y-96169800D01*
X171069000Y-96169800D01*
X171069000Y-96189800D01*
X172268250Y-96189800D01*
X172427000Y-96031050D01*
X172427103Y-96012162D01*
X172540958Y-96117259D01*
X172492642Y-98291491D01*
X172058022Y-98686600D01*
X171895726Y-98686600D01*
X171662188Y-98733053D01*
X170542535Y-98742231D01*
X170495696Y-98717195D01*
X170415207Y-98692778D01*
X170331500Y-98684534D01*
X168631500Y-98684534D01*
X168547793Y-98692778D01*
X168468600Y-98716802D01*
X168468600Y-98632797D01*
X168440662Y-98492342D01*
X168385859Y-98360036D01*
X168306298Y-98240964D01*
X168205036Y-98139702D01*
X168085964Y-98060141D01*
X167953658Y-98005338D01*
X167813203Y-97977400D01*
X167669997Y-97977400D01*
X167529542Y-98005338D01*
X167397236Y-98060141D01*
X167278164Y-98139702D01*
X167233600Y-98184266D01*
X167189036Y-98139702D01*
X167069964Y-98060141D01*
X166937658Y-98005338D01*
X166797203Y-97977400D01*
X166653997Y-97977400D01*
X166513542Y-98005338D01*
X166381236Y-98060141D01*
X166262164Y-98139702D01*
X166160902Y-98240964D01*
X166081341Y-98360036D01*
X166026538Y-98492342D01*
X165998600Y-98632797D01*
X165998600Y-98776003D01*
X165999290Y-98779470D01*
X165860959Y-98780604D01*
X165836203Y-98783248D01*
X165812439Y-98790670D01*
X165790579Y-98802585D01*
X165776433Y-98813753D01*
X164049233Y-100388553D01*
X164032569Y-100407049D01*
X164019833Y-100428441D01*
X164011515Y-100451907D01*
X164007800Y-100482400D01*
X164007800Y-104101548D01*
X163863632Y-104317800D01*
X152196800Y-104317800D01*
X152172024Y-104320240D01*
X152148199Y-104327467D01*
X152126243Y-104339203D01*
X152106997Y-104354997D01*
X152087898Y-104379459D01*
X151754294Y-104935466D01*
X151728364Y-104918141D01*
X151596058Y-104863338D01*
X151455603Y-104835400D01*
X151312397Y-104835400D01*
X151171942Y-104863338D01*
X151039636Y-104918141D01*
X150920564Y-104997702D01*
X150819302Y-105098964D01*
X150739741Y-105218036D01*
X150684938Y-105350342D01*
X150657000Y-105490797D01*
X150657000Y-105634003D01*
X150684938Y-105774458D01*
X150739741Y-105906764D01*
X150819302Y-106025836D01*
X150920564Y-106127098D01*
X151039636Y-106206659D01*
X151171942Y-106261462D01*
X151312397Y-106289400D01*
X151455603Y-106289400D01*
X151596058Y-106261462D01*
X151612600Y-106254610D01*
X151612600Y-110957125D01*
X151599338Y-110989142D01*
X151571400Y-111129597D01*
X151571400Y-111221930D01*
X151238825Y-111480600D01*
X149658606Y-111480600D01*
X149529800Y-111351794D01*
X149529800Y-108880200D01*
X149638003Y-108880200D01*
X149778458Y-108852262D01*
X149910764Y-108797459D01*
X150029836Y-108717898D01*
X150131098Y-108616636D01*
X150210659Y-108497564D01*
X150265462Y-108365258D01*
X150293400Y-108224803D01*
X150293400Y-108081597D01*
X150265462Y-107941142D01*
X150210659Y-107808836D01*
X150131098Y-107689764D01*
X150029836Y-107588502D01*
X149910764Y-107508941D01*
X149778458Y-107454138D01*
X149638003Y-107426200D01*
X149494797Y-107426200D01*
X149354342Y-107454138D01*
X149222036Y-107508941D01*
X149116386Y-107579534D01*
X149086764Y-107559741D01*
X148954458Y-107504938D01*
X148818600Y-107477914D01*
X148818600Y-106209534D01*
X148900698Y-106127436D01*
X148980259Y-106008364D01*
X149035062Y-105876058D01*
X149063000Y-105735603D01*
X149063000Y-105592397D01*
X149052896Y-105541597D01*
X149133000Y-105541597D01*
X149133000Y-105684803D01*
X149160938Y-105825258D01*
X149215741Y-105957564D01*
X149295302Y-106076636D01*
X149396564Y-106177898D01*
X149515636Y-106257459D01*
X149647942Y-106312262D01*
X149788397Y-106340200D01*
X149931603Y-106340200D01*
X150072058Y-106312262D01*
X150204364Y-106257459D01*
X150323436Y-106177898D01*
X150424698Y-106076636D01*
X150504259Y-105957564D01*
X150559062Y-105825258D01*
X150587000Y-105684803D01*
X150587000Y-105541597D01*
X150559062Y-105401142D01*
X150504259Y-105268836D01*
X150424698Y-105149764D01*
X150323436Y-105048502D01*
X150204364Y-104968941D01*
X150072058Y-104914138D01*
X149931603Y-104886200D01*
X149788397Y-104886200D01*
X149647942Y-104914138D01*
X149515636Y-104968941D01*
X149396564Y-105048502D01*
X149295302Y-105149764D01*
X149215741Y-105268836D01*
X149160938Y-105401142D01*
X149133000Y-105541597D01*
X149052896Y-105541597D01*
X149035062Y-105451942D01*
X148980259Y-105319636D01*
X148900698Y-105200564D01*
X148825923Y-105125789D01*
X148830041Y-104565792D01*
X148850236Y-104552298D01*
X148951498Y-104451036D01*
X149031059Y-104331964D01*
X149085862Y-104199658D01*
X149113800Y-104059203D01*
X149113800Y-103915997D01*
X149133000Y-103915997D01*
X149133000Y-104059203D01*
X149160938Y-104199658D01*
X149215741Y-104331964D01*
X149295302Y-104451036D01*
X149396564Y-104552298D01*
X149515636Y-104631859D01*
X149647942Y-104686662D01*
X149788397Y-104714600D01*
X149931603Y-104714600D01*
X150072058Y-104686662D01*
X150204364Y-104631859D01*
X150323436Y-104552298D01*
X150424698Y-104451036D01*
X150504259Y-104331964D01*
X150559062Y-104199658D01*
X150587000Y-104059203D01*
X150587000Y-103966797D01*
X150606200Y-103966797D01*
X150606200Y-104110003D01*
X150634138Y-104250458D01*
X150688941Y-104382764D01*
X150768502Y-104501836D01*
X150869764Y-104603098D01*
X150988836Y-104682659D01*
X151121142Y-104737462D01*
X151261597Y-104765400D01*
X151404803Y-104765400D01*
X151545258Y-104737462D01*
X151677564Y-104682659D01*
X151796636Y-104603098D01*
X151897898Y-104501836D01*
X151977459Y-104382764D01*
X152032262Y-104250458D01*
X152060200Y-104110003D01*
X152060200Y-103966797D01*
X152032262Y-103826342D01*
X151977459Y-103694036D01*
X151897898Y-103574964D01*
X151796636Y-103473702D01*
X151677564Y-103394141D01*
X151545258Y-103339338D01*
X151404803Y-103311400D01*
X151261597Y-103311400D01*
X151121142Y-103339338D01*
X150988836Y-103394141D01*
X150869764Y-103473702D01*
X150768502Y-103574964D01*
X150688941Y-103694036D01*
X150634138Y-103826342D01*
X150606200Y-103966797D01*
X150587000Y-103966797D01*
X150587000Y-103915997D01*
X150559062Y-103775542D01*
X150504259Y-103643236D01*
X150424698Y-103524164D01*
X150323436Y-103422902D01*
X150204364Y-103343341D01*
X150072058Y-103288538D01*
X149931603Y-103260600D01*
X149788397Y-103260600D01*
X149647942Y-103288538D01*
X149515636Y-103343341D01*
X149396564Y-103422902D01*
X149295302Y-103524164D01*
X149215741Y-103643236D01*
X149160938Y-103775542D01*
X149133000Y-103915997D01*
X149113800Y-103915997D01*
X149085862Y-103775542D01*
X149031059Y-103643236D01*
X148951498Y-103524164D01*
X148850236Y-103422902D01*
X148838502Y-103415062D01*
X148856109Y-101020397D01*
X159597800Y-101020397D01*
X159597800Y-101163603D01*
X159625738Y-101304058D01*
X159680541Y-101436364D01*
X159760102Y-101555436D01*
X159760159Y-101555493D01*
X159705941Y-101636636D01*
X159651138Y-101768942D01*
X159623200Y-101909397D01*
X159623200Y-102052603D01*
X159651138Y-102193058D01*
X159705941Y-102325364D01*
X159785502Y-102444436D01*
X159816011Y-102474945D01*
X159782141Y-102525636D01*
X159727338Y-102657942D01*
X159699400Y-102798397D01*
X159699400Y-102941603D01*
X159727338Y-103082058D01*
X159782141Y-103214364D01*
X159861702Y-103333436D01*
X159962964Y-103434698D01*
X160082036Y-103514259D01*
X160214342Y-103569062D01*
X160354797Y-103597000D01*
X160498003Y-103597000D01*
X160638458Y-103569062D01*
X160770764Y-103514259D01*
X160889836Y-103434698D01*
X160991098Y-103333436D01*
X161070659Y-103214364D01*
X161125462Y-103082058D01*
X161153400Y-102941603D01*
X161153400Y-102798397D01*
X161125462Y-102657942D01*
X161070659Y-102525636D01*
X160991098Y-102406564D01*
X160960589Y-102376055D01*
X160994459Y-102325364D01*
X161049262Y-102193058D01*
X161077200Y-102052603D01*
X161077200Y-101909397D01*
X161049262Y-101768942D01*
X160994459Y-101636636D01*
X160914898Y-101517564D01*
X160914841Y-101517507D01*
X160969059Y-101436364D01*
X161023862Y-101304058D01*
X161051800Y-101163603D01*
X161051800Y-101020397D01*
X161023862Y-100879942D01*
X160969059Y-100747636D01*
X160914841Y-100666493D01*
X160914898Y-100666436D01*
X160994459Y-100547364D01*
X161049262Y-100415058D01*
X161077200Y-100274603D01*
X161077200Y-100131397D01*
X161049262Y-99990942D01*
X160994459Y-99858636D01*
X160914898Y-99739564D01*
X160813636Y-99638302D01*
X160694564Y-99558741D01*
X160562258Y-99503938D01*
X160421803Y-99476000D01*
X160278597Y-99476000D01*
X160138142Y-99503938D01*
X160005836Y-99558741D01*
X159886764Y-99638302D01*
X159785502Y-99739564D01*
X159705941Y-99858636D01*
X159651138Y-99990942D01*
X159623200Y-100131397D01*
X159623200Y-100274603D01*
X159651138Y-100415058D01*
X159705941Y-100547364D01*
X159760159Y-100628507D01*
X159760102Y-100628564D01*
X159680541Y-100747636D01*
X159625738Y-100879942D01*
X159597800Y-101020397D01*
X148856109Y-101020397D01*
X148866245Y-99641997D01*
X152441800Y-99641997D01*
X152441800Y-99785203D01*
X152469738Y-99925658D01*
X152524541Y-100057964D01*
X152604102Y-100177036D01*
X152705364Y-100278298D01*
X152824436Y-100357859D01*
X152956742Y-100412662D01*
X153097197Y-100440600D01*
X153240403Y-100440600D01*
X153380858Y-100412662D01*
X153513164Y-100357859D01*
X153632236Y-100278298D01*
X153733498Y-100177036D01*
X153813059Y-100057964D01*
X153834913Y-100005205D01*
X153838541Y-100013964D01*
X153918102Y-100133036D01*
X154019364Y-100234298D01*
X154138436Y-100313859D01*
X154270742Y-100368662D01*
X154411197Y-100396600D01*
X154554403Y-100396600D01*
X154694858Y-100368662D01*
X154827164Y-100313859D01*
X154946236Y-100234298D01*
X155047498Y-100133036D01*
X155127059Y-100013964D01*
X155181862Y-99881658D01*
X155209800Y-99741203D01*
X155209800Y-99597997D01*
X155181862Y-99457542D01*
X155127059Y-99325236D01*
X155047498Y-99206164D01*
X154946236Y-99104902D01*
X154827164Y-99025341D01*
X154694858Y-98970538D01*
X154554403Y-98942600D01*
X154411197Y-98942600D01*
X154270742Y-98970538D01*
X154138436Y-99025341D01*
X154019364Y-99104902D01*
X153918102Y-99206164D01*
X153838541Y-99325236D01*
X153816687Y-99377995D01*
X153813059Y-99369236D01*
X153733498Y-99250164D01*
X153632236Y-99148902D01*
X153513164Y-99069341D01*
X153380858Y-99014538D01*
X153240403Y-98986600D01*
X153097197Y-98986600D01*
X152956742Y-99014538D01*
X152824436Y-99069341D01*
X152705364Y-99148902D01*
X152604102Y-99250164D01*
X152524541Y-99369236D01*
X152469738Y-99501542D01*
X152441800Y-99641997D01*
X148866245Y-99641997D01*
X148869397Y-99213334D01*
X148867139Y-99188540D01*
X148860087Y-99164663D01*
X148848513Y-99142621D01*
X148832860Y-99123260D01*
X148813732Y-99107325D01*
X148791862Y-99095428D01*
X148768092Y-99088026D01*
X148742400Y-99085400D01*
X145749273Y-99085400D01*
X145008600Y-98298435D01*
X145008600Y-97855686D01*
X145144458Y-97828662D01*
X145276764Y-97773859D01*
X145395836Y-97694298D01*
X145497098Y-97593036D01*
X145576659Y-97473964D01*
X145631462Y-97341658D01*
X145659400Y-97201203D01*
X145659400Y-97057997D01*
X145640305Y-96961995D01*
X147469934Y-96961995D01*
X147469934Y-97105201D01*
X147497872Y-97245656D01*
X147552675Y-97377962D01*
X147632236Y-97497034D01*
X147733498Y-97598296D01*
X147852570Y-97677857D01*
X147984876Y-97732660D01*
X148125331Y-97760598D01*
X148268537Y-97760598D01*
X148408992Y-97732660D01*
X148541298Y-97677857D01*
X148660370Y-97598296D01*
X148761632Y-97497034D01*
X148841193Y-97377962D01*
X148895996Y-97245656D01*
X148923934Y-97105201D01*
X148923934Y-96994830D01*
X149122595Y-96994830D01*
X149122595Y-97138036D01*
X149150533Y-97278491D01*
X149205336Y-97410797D01*
X149284897Y-97529869D01*
X149386159Y-97631131D01*
X149505231Y-97710692D01*
X149637537Y-97765495D01*
X149777992Y-97793433D01*
X149921198Y-97793433D01*
X150061653Y-97765495D01*
X150193959Y-97710692D01*
X150313031Y-97631131D01*
X150414293Y-97529869D01*
X150493854Y-97410797D01*
X150548657Y-97278491D01*
X150576595Y-97138036D01*
X150576595Y-96994830D01*
X150572012Y-96971789D01*
X150698174Y-96971789D01*
X150698174Y-97114995D01*
X150726112Y-97255450D01*
X150780915Y-97387756D01*
X150860476Y-97506828D01*
X150961738Y-97608090D01*
X151080810Y-97687651D01*
X151213116Y-97742454D01*
X151353571Y-97770392D01*
X151496777Y-97770392D01*
X151637232Y-97742454D01*
X151769538Y-97687651D01*
X151888610Y-97608090D01*
X151981503Y-97515197D01*
X155178200Y-97515197D01*
X155178200Y-97658403D01*
X155206138Y-97798858D01*
X155260941Y-97931164D01*
X155340502Y-98050236D01*
X155441764Y-98151498D01*
X155560836Y-98231059D01*
X155693142Y-98285862D01*
X155833597Y-98313800D01*
X155976803Y-98313800D01*
X156117258Y-98285862D01*
X156249564Y-98231059D01*
X156368636Y-98151498D01*
X156469898Y-98050236D01*
X156549459Y-97931164D01*
X156591000Y-97830875D01*
X156632541Y-97931164D01*
X156712102Y-98050236D01*
X156813364Y-98151498D01*
X156932436Y-98231059D01*
X157064742Y-98285862D01*
X157205197Y-98313800D01*
X157348403Y-98313800D01*
X157488858Y-98285862D01*
X157621164Y-98231059D01*
X157740236Y-98151498D01*
X157759400Y-98132334D01*
X157778564Y-98151498D01*
X157897636Y-98231059D01*
X158029942Y-98285862D01*
X158170397Y-98313800D01*
X158313603Y-98313800D01*
X158454058Y-98285862D01*
X158586364Y-98231059D01*
X158699200Y-98155665D01*
X158812036Y-98231059D01*
X158944342Y-98285862D01*
X159084797Y-98313800D01*
X159228003Y-98313800D01*
X159368458Y-98285862D01*
X159500764Y-98231059D01*
X159619836Y-98151498D01*
X159721098Y-98050236D01*
X159800659Y-97931164D01*
X159855462Y-97798858D01*
X159883400Y-97658403D01*
X159883400Y-97515197D01*
X159855462Y-97374742D01*
X159800659Y-97242436D01*
X159750121Y-97166800D01*
X169453928Y-97166800D01*
X169466188Y-97291282D01*
X169502498Y-97410980D01*
X169561463Y-97521294D01*
X169640815Y-97617985D01*
X169737506Y-97697337D01*
X169847820Y-97756302D01*
X169967518Y-97792612D01*
X170092000Y-97804872D01*
X170656250Y-97801800D01*
X170815000Y-97643050D01*
X170815000Y-96443800D01*
X171069000Y-96443800D01*
X171069000Y-97643050D01*
X171227750Y-97801800D01*
X171792000Y-97804872D01*
X171916482Y-97792612D01*
X172036180Y-97756302D01*
X172146494Y-97697337D01*
X172243185Y-97617985D01*
X172322537Y-97521294D01*
X172381502Y-97410980D01*
X172417812Y-97291282D01*
X172430072Y-97166800D01*
X172427000Y-96602550D01*
X172268250Y-96443800D01*
X171069000Y-96443800D01*
X170815000Y-96443800D01*
X169615750Y-96443800D01*
X169457000Y-96602550D01*
X169453928Y-97166800D01*
X159750121Y-97166800D01*
X159721098Y-97123364D01*
X159619836Y-97022102D01*
X159500764Y-96942541D01*
X159375400Y-96890613D01*
X159375400Y-96854797D01*
X159347462Y-96714342D01*
X159292659Y-96582036D01*
X159213098Y-96462964D01*
X159111836Y-96361702D01*
X158992764Y-96282141D01*
X158860458Y-96227338D01*
X158720003Y-96199400D01*
X158576797Y-96199400D01*
X158436342Y-96227338D01*
X158304036Y-96282141D01*
X158184964Y-96361702D01*
X158083702Y-96462964D01*
X158004141Y-96582036D01*
X157949338Y-96714342D01*
X157921400Y-96854797D01*
X157921400Y-96932698D01*
X157897636Y-96942541D01*
X157778564Y-97022102D01*
X157759400Y-97041266D01*
X157740236Y-97022102D01*
X157621164Y-96942541D01*
X157488858Y-96887738D01*
X157348403Y-96859800D01*
X157283490Y-96859800D01*
X157264662Y-96765142D01*
X157209859Y-96632836D01*
X157130298Y-96513764D01*
X157029036Y-96412502D01*
X156909964Y-96332941D01*
X156777658Y-96278138D01*
X156637203Y-96250200D01*
X156493997Y-96250200D01*
X156353542Y-96278138D01*
X156221236Y-96332941D01*
X156102164Y-96412502D01*
X156000902Y-96513764D01*
X155921341Y-96632836D01*
X155866538Y-96765142D01*
X155847710Y-96859800D01*
X155833597Y-96859800D01*
X155693142Y-96887738D01*
X155560836Y-96942541D01*
X155441764Y-97022102D01*
X155340502Y-97123364D01*
X155260941Y-97242436D01*
X155206138Y-97374742D01*
X155178200Y-97515197D01*
X151981503Y-97515197D01*
X151989872Y-97506828D01*
X152069433Y-97387756D01*
X152124236Y-97255450D01*
X152152174Y-97114995D01*
X152152174Y-96971789D01*
X152124236Y-96831334D01*
X152069433Y-96699028D01*
X151989872Y-96579956D01*
X151888610Y-96478694D01*
X151769538Y-96399133D01*
X151637232Y-96344330D01*
X151496777Y-96316392D01*
X151353571Y-96316392D01*
X151213116Y-96344330D01*
X151080810Y-96399133D01*
X150961738Y-96478694D01*
X150860476Y-96579956D01*
X150780915Y-96699028D01*
X150726112Y-96831334D01*
X150698174Y-96971789D01*
X150572012Y-96971789D01*
X150548657Y-96854375D01*
X150493854Y-96722069D01*
X150414293Y-96602997D01*
X150313031Y-96501735D01*
X150193959Y-96422174D01*
X150061653Y-96367371D01*
X149921198Y-96339433D01*
X149777992Y-96339433D01*
X149637537Y-96367371D01*
X149505231Y-96422174D01*
X149386159Y-96501735D01*
X149284897Y-96602997D01*
X149205336Y-96722069D01*
X149150533Y-96854375D01*
X149122595Y-96994830D01*
X148923934Y-96994830D01*
X148923934Y-96961995D01*
X148895996Y-96821540D01*
X148841193Y-96689234D01*
X148761632Y-96570162D01*
X148660370Y-96468900D01*
X148541298Y-96389339D01*
X148408992Y-96334536D01*
X148268537Y-96306598D01*
X148125331Y-96306598D01*
X147984876Y-96334536D01*
X147852570Y-96389339D01*
X147733498Y-96468900D01*
X147632236Y-96570162D01*
X147552675Y-96689234D01*
X147497872Y-96821540D01*
X147469934Y-96961995D01*
X145640305Y-96961995D01*
X145631462Y-96917542D01*
X145576659Y-96785236D01*
X145497098Y-96666164D01*
X145395836Y-96564902D01*
X145276764Y-96485341D01*
X145144458Y-96430538D01*
X145008600Y-96403514D01*
X145008600Y-96029168D01*
X145031115Y-96014158D01*
X145045327Y-96011331D01*
X145105033Y-95986600D01*
X146817167Y-95986600D01*
X146876873Y-96011331D01*
X147111492Y-96058000D01*
X147350708Y-96058000D01*
X147585327Y-96011331D01*
X147645033Y-95986600D01*
X149357167Y-95986600D01*
X149416873Y-96011331D01*
X149651492Y-96058000D01*
X149890708Y-96058000D01*
X150125327Y-96011331D01*
X150185033Y-95986600D01*
X151897167Y-95986600D01*
X151956873Y-96011331D01*
X152191492Y-96058000D01*
X152430708Y-96058000D01*
X152665327Y-96011331D01*
X152725033Y-95986600D01*
X154437167Y-95986600D01*
X154496873Y-96011331D01*
X154731492Y-96058000D01*
X154970708Y-96058000D01*
X155205327Y-96011331D01*
X155265033Y-95986600D01*
X156977167Y-95986600D01*
X157036873Y-96011331D01*
X157271492Y-96058000D01*
X157510708Y-96058000D01*
X157745327Y-96011331D01*
X157805033Y-95986600D01*
X159517167Y-95986600D01*
X159576873Y-96011331D01*
X159811492Y-96058000D01*
X160050708Y-96058000D01*
X160285327Y-96011331D01*
X160345033Y-95986600D01*
X162057167Y-95986600D01*
X162116873Y-96011331D01*
X162351492Y-96058000D01*
X162590708Y-96058000D01*
X162825327Y-96011331D01*
X162885033Y-95986600D01*
X164597167Y-95986600D01*
X164656873Y-96011331D01*
X164891492Y-96058000D01*
X165130708Y-96058000D01*
X165365327Y-96011331D01*
X165425033Y-95986600D01*
X165460923Y-95986600D01*
X165439800Y-96092797D01*
X165439800Y-96236003D01*
X165467738Y-96376458D01*
X165522541Y-96508764D01*
X165602102Y-96627836D01*
X165703364Y-96729098D01*
X165822436Y-96808659D01*
X165954742Y-96863462D01*
X166095197Y-96891400D01*
X166238403Y-96891400D01*
X166378858Y-96863462D01*
X166511164Y-96808659D01*
X166624000Y-96733265D01*
X166736836Y-96808659D01*
X166869142Y-96863462D01*
X167009597Y-96891400D01*
X167152803Y-96891400D01*
X167293258Y-96863462D01*
X167425564Y-96808659D01*
X167544636Y-96729098D01*
X167645898Y-96627836D01*
X167725459Y-96508764D01*
X167780262Y-96376458D01*
X167808200Y-96236003D01*
X167808200Y-96092797D01*
X167796309Y-96033016D01*
X167905327Y-96011331D01*
X167965033Y-95986600D01*
X168910000Y-95986600D01*
X168934776Y-95984160D01*
X168958601Y-95976933D01*
X168976560Y-95967761D01*
X169455052Y-95673304D01*
X169457000Y-96031050D01*
G04 #@! TA.AperFunction,Conductor*
D16*
G36*
X169457000Y-96031050D02*
G01*
X169615750Y-96189800D01*
X170815000Y-96189800D01*
X170815000Y-96169800D01*
X171069000Y-96169800D01*
X171069000Y-96189800D01*
X172268250Y-96189800D01*
X172427000Y-96031050D01*
X172427103Y-96012162D01*
X172540958Y-96117259D01*
X172492642Y-98291491D01*
X172058022Y-98686600D01*
X171895726Y-98686600D01*
X171662188Y-98733053D01*
X170542535Y-98742231D01*
X170495696Y-98717195D01*
X170415207Y-98692778D01*
X170331500Y-98684534D01*
X168631500Y-98684534D01*
X168547793Y-98692778D01*
X168468600Y-98716802D01*
X168468600Y-98632797D01*
X168440662Y-98492342D01*
X168385859Y-98360036D01*
X168306298Y-98240964D01*
X168205036Y-98139702D01*
X168085964Y-98060141D01*
X167953658Y-98005338D01*
X167813203Y-97977400D01*
X167669997Y-97977400D01*
X167529542Y-98005338D01*
X167397236Y-98060141D01*
X167278164Y-98139702D01*
X167233600Y-98184266D01*
X167189036Y-98139702D01*
X167069964Y-98060141D01*
X166937658Y-98005338D01*
X166797203Y-97977400D01*
X166653997Y-97977400D01*
X166513542Y-98005338D01*
X166381236Y-98060141D01*
X166262164Y-98139702D01*
X166160902Y-98240964D01*
X166081341Y-98360036D01*
X166026538Y-98492342D01*
X165998600Y-98632797D01*
X165998600Y-98776003D01*
X165999290Y-98779470D01*
X165860959Y-98780604D01*
X165836203Y-98783248D01*
X165812439Y-98790670D01*
X165790579Y-98802585D01*
X165776433Y-98813753D01*
X164049233Y-100388553D01*
X164032569Y-100407049D01*
X164019833Y-100428441D01*
X164011515Y-100451907D01*
X164007800Y-100482400D01*
X164007800Y-104101548D01*
X163863632Y-104317800D01*
X152196800Y-104317800D01*
X152172024Y-104320240D01*
X152148199Y-104327467D01*
X152126243Y-104339203D01*
X152106997Y-104354997D01*
X152087898Y-104379459D01*
X151754294Y-104935466D01*
X151728364Y-104918141D01*
X151596058Y-104863338D01*
X151455603Y-104835400D01*
X151312397Y-104835400D01*
X151171942Y-104863338D01*
X151039636Y-104918141D01*
X150920564Y-104997702D01*
X150819302Y-105098964D01*
X150739741Y-105218036D01*
X150684938Y-105350342D01*
X150657000Y-105490797D01*
X150657000Y-105634003D01*
X150684938Y-105774458D01*
X150739741Y-105906764D01*
X150819302Y-106025836D01*
X150920564Y-106127098D01*
X151039636Y-106206659D01*
X151171942Y-106261462D01*
X151312397Y-106289400D01*
X151455603Y-106289400D01*
X151596058Y-106261462D01*
X151612600Y-106254610D01*
X151612600Y-110957125D01*
X151599338Y-110989142D01*
X151571400Y-111129597D01*
X151571400Y-111221930D01*
X151238825Y-111480600D01*
X149658606Y-111480600D01*
X149529800Y-111351794D01*
X149529800Y-108880200D01*
X149638003Y-108880200D01*
X149778458Y-108852262D01*
X149910764Y-108797459D01*
X150029836Y-108717898D01*
X150131098Y-108616636D01*
X150210659Y-108497564D01*
X150265462Y-108365258D01*
X150293400Y-108224803D01*
X150293400Y-108081597D01*
X150265462Y-107941142D01*
X150210659Y-107808836D01*
X150131098Y-107689764D01*
X150029836Y-107588502D01*
X149910764Y-107508941D01*
X149778458Y-107454138D01*
X149638003Y-107426200D01*
X149494797Y-107426200D01*
X149354342Y-107454138D01*
X149222036Y-107508941D01*
X149116386Y-107579534D01*
X149086764Y-107559741D01*
X148954458Y-107504938D01*
X148818600Y-107477914D01*
X148818600Y-106209534D01*
X148900698Y-106127436D01*
X148980259Y-106008364D01*
X149035062Y-105876058D01*
X149063000Y-105735603D01*
X149063000Y-105592397D01*
X149052896Y-105541597D01*
X149133000Y-105541597D01*
X149133000Y-105684803D01*
X149160938Y-105825258D01*
X149215741Y-105957564D01*
X149295302Y-106076636D01*
X149396564Y-106177898D01*
X149515636Y-106257459D01*
X149647942Y-106312262D01*
X149788397Y-106340200D01*
X149931603Y-106340200D01*
X150072058Y-106312262D01*
X150204364Y-106257459D01*
X150323436Y-106177898D01*
X150424698Y-106076636D01*
X150504259Y-105957564D01*
X150559062Y-105825258D01*
X150587000Y-105684803D01*
X150587000Y-105541597D01*
X150559062Y-105401142D01*
X150504259Y-105268836D01*
X150424698Y-105149764D01*
X150323436Y-105048502D01*
X150204364Y-104968941D01*
X150072058Y-104914138D01*
X149931603Y-104886200D01*
X149788397Y-104886200D01*
X149647942Y-104914138D01*
X149515636Y-104968941D01*
X149396564Y-105048502D01*
X149295302Y-105149764D01*
X149215741Y-105268836D01*
X149160938Y-105401142D01*
X149133000Y-105541597D01*
X149052896Y-105541597D01*
X149035062Y-105451942D01*
X148980259Y-105319636D01*
X148900698Y-105200564D01*
X148825923Y-105125789D01*
X148830041Y-104565792D01*
X148850236Y-104552298D01*
X148951498Y-104451036D01*
X149031059Y-104331964D01*
X149085862Y-104199658D01*
X149113800Y-104059203D01*
X149113800Y-103915997D01*
X149133000Y-103915997D01*
X149133000Y-104059203D01*
X149160938Y-104199658D01*
X149215741Y-104331964D01*
X149295302Y-104451036D01*
X149396564Y-104552298D01*
X149515636Y-104631859D01*
X149647942Y-104686662D01*
X149788397Y-104714600D01*
X149931603Y-104714600D01*
X150072058Y-104686662D01*
X150204364Y-104631859D01*
X150323436Y-104552298D01*
X150424698Y-104451036D01*
X150504259Y-104331964D01*
X150559062Y-104199658D01*
X150587000Y-104059203D01*
X150587000Y-103966797D01*
X150606200Y-103966797D01*
X150606200Y-104110003D01*
X150634138Y-104250458D01*
X150688941Y-104382764D01*
X150768502Y-104501836D01*
X150869764Y-104603098D01*
X150988836Y-104682659D01*
X151121142Y-104737462D01*
X151261597Y-104765400D01*
X151404803Y-104765400D01*
X151545258Y-104737462D01*
X151677564Y-104682659D01*
X151796636Y-104603098D01*
X151897898Y-104501836D01*
X151977459Y-104382764D01*
X152032262Y-104250458D01*
X152060200Y-104110003D01*
X152060200Y-103966797D01*
X152032262Y-103826342D01*
X151977459Y-103694036D01*
X151897898Y-103574964D01*
X151796636Y-103473702D01*
X151677564Y-103394141D01*
X151545258Y-103339338D01*
X151404803Y-103311400D01*
X151261597Y-103311400D01*
X151121142Y-103339338D01*
X150988836Y-103394141D01*
X150869764Y-103473702D01*
X150768502Y-103574964D01*
X150688941Y-103694036D01*
X150634138Y-103826342D01*
X150606200Y-103966797D01*
X150587000Y-103966797D01*
X150587000Y-103915997D01*
X150559062Y-103775542D01*
X150504259Y-103643236D01*
X150424698Y-103524164D01*
X150323436Y-103422902D01*
X150204364Y-103343341D01*
X150072058Y-103288538D01*
X149931603Y-103260600D01*
X149788397Y-103260600D01*
X149647942Y-103288538D01*
X149515636Y-103343341D01*
X149396564Y-103422902D01*
X149295302Y-103524164D01*
X149215741Y-103643236D01*
X149160938Y-103775542D01*
X149133000Y-103915997D01*
X149113800Y-103915997D01*
X149085862Y-103775542D01*
X149031059Y-103643236D01*
X148951498Y-103524164D01*
X148850236Y-103422902D01*
X148838502Y-103415062D01*
X148856109Y-101020397D01*
X159597800Y-101020397D01*
X159597800Y-101163603D01*
X159625738Y-101304058D01*
X159680541Y-101436364D01*
X159760102Y-101555436D01*
X159760159Y-101555493D01*
X159705941Y-101636636D01*
X159651138Y-101768942D01*
X159623200Y-101909397D01*
X159623200Y-102052603D01*
X159651138Y-102193058D01*
X159705941Y-102325364D01*
X159785502Y-102444436D01*
X159816011Y-102474945D01*
X159782141Y-102525636D01*
X159727338Y-102657942D01*
X159699400Y-102798397D01*
X159699400Y-102941603D01*
X159727338Y-103082058D01*
X159782141Y-103214364D01*
X159861702Y-103333436D01*
X159962964Y-103434698D01*
X160082036Y-103514259D01*
X160214342Y-103569062D01*
X160354797Y-103597000D01*
X160498003Y-103597000D01*
X160638458Y-103569062D01*
X160770764Y-103514259D01*
X160889836Y-103434698D01*
X160991098Y-103333436D01*
X161070659Y-103214364D01*
X161125462Y-103082058D01*
X161153400Y-102941603D01*
X161153400Y-102798397D01*
X161125462Y-102657942D01*
X161070659Y-102525636D01*
X160991098Y-102406564D01*
X160960589Y-102376055D01*
X160994459Y-102325364D01*
X161049262Y-102193058D01*
X161077200Y-102052603D01*
X161077200Y-101909397D01*
X161049262Y-101768942D01*
X160994459Y-101636636D01*
X160914898Y-101517564D01*
X160914841Y-101517507D01*
X160969059Y-101436364D01*
X161023862Y-101304058D01*
X161051800Y-101163603D01*
X161051800Y-101020397D01*
X161023862Y-100879942D01*
X160969059Y-100747636D01*
X160914841Y-100666493D01*
X160914898Y-100666436D01*
X160994459Y-100547364D01*
X161049262Y-100415058D01*
X161077200Y-100274603D01*
X161077200Y-100131397D01*
X161049262Y-99990942D01*
X160994459Y-99858636D01*
X160914898Y-99739564D01*
X160813636Y-99638302D01*
X160694564Y-99558741D01*
X160562258Y-99503938D01*
X160421803Y-99476000D01*
X160278597Y-99476000D01*
X160138142Y-99503938D01*
X160005836Y-99558741D01*
X159886764Y-99638302D01*
X159785502Y-99739564D01*
X159705941Y-99858636D01*
X159651138Y-99990942D01*
X159623200Y-100131397D01*
X159623200Y-100274603D01*
X159651138Y-100415058D01*
X159705941Y-100547364D01*
X159760159Y-100628507D01*
X159760102Y-100628564D01*
X159680541Y-100747636D01*
X159625738Y-100879942D01*
X159597800Y-101020397D01*
X148856109Y-101020397D01*
X148866245Y-99641997D01*
X152441800Y-99641997D01*
X152441800Y-99785203D01*
X152469738Y-99925658D01*
X152524541Y-100057964D01*
X152604102Y-100177036D01*
X152705364Y-100278298D01*
X152824436Y-100357859D01*
X152956742Y-100412662D01*
X153097197Y-100440600D01*
X153240403Y-100440600D01*
X153380858Y-100412662D01*
X153513164Y-100357859D01*
X153632236Y-100278298D01*
X153733498Y-100177036D01*
X153813059Y-100057964D01*
X153834913Y-100005205D01*
X153838541Y-100013964D01*
X153918102Y-100133036D01*
X154019364Y-100234298D01*
X154138436Y-100313859D01*
X154270742Y-100368662D01*
X154411197Y-100396600D01*
X154554403Y-100396600D01*
X154694858Y-100368662D01*
X154827164Y-100313859D01*
X154946236Y-100234298D01*
X155047498Y-100133036D01*
X155127059Y-100013964D01*
X155181862Y-99881658D01*
X155209800Y-99741203D01*
X155209800Y-99597997D01*
X155181862Y-99457542D01*
X155127059Y-99325236D01*
X155047498Y-99206164D01*
X154946236Y-99104902D01*
X154827164Y-99025341D01*
X154694858Y-98970538D01*
X154554403Y-98942600D01*
X154411197Y-98942600D01*
X154270742Y-98970538D01*
X154138436Y-99025341D01*
X154019364Y-99104902D01*
X153918102Y-99206164D01*
X153838541Y-99325236D01*
X153816687Y-99377995D01*
X153813059Y-99369236D01*
X153733498Y-99250164D01*
X153632236Y-99148902D01*
X153513164Y-99069341D01*
X153380858Y-99014538D01*
X153240403Y-98986600D01*
X153097197Y-98986600D01*
X152956742Y-99014538D01*
X152824436Y-99069341D01*
X152705364Y-99148902D01*
X152604102Y-99250164D01*
X152524541Y-99369236D01*
X152469738Y-99501542D01*
X152441800Y-99641997D01*
X148866245Y-99641997D01*
X148869397Y-99213334D01*
X148867139Y-99188540D01*
X148860087Y-99164663D01*
X148848513Y-99142621D01*
X148832860Y-99123260D01*
X148813732Y-99107325D01*
X148791862Y-99095428D01*
X148768092Y-99088026D01*
X148742400Y-99085400D01*
X145749273Y-99085400D01*
X145008600Y-98298435D01*
X145008600Y-97855686D01*
X145144458Y-97828662D01*
X145276764Y-97773859D01*
X145395836Y-97694298D01*
X145497098Y-97593036D01*
X145576659Y-97473964D01*
X145631462Y-97341658D01*
X145659400Y-97201203D01*
X145659400Y-97057997D01*
X145640305Y-96961995D01*
X147469934Y-96961995D01*
X147469934Y-97105201D01*
X147497872Y-97245656D01*
X147552675Y-97377962D01*
X147632236Y-97497034D01*
X147733498Y-97598296D01*
X147852570Y-97677857D01*
X147984876Y-97732660D01*
X148125331Y-97760598D01*
X148268537Y-97760598D01*
X148408992Y-97732660D01*
X148541298Y-97677857D01*
X148660370Y-97598296D01*
X148761632Y-97497034D01*
X148841193Y-97377962D01*
X148895996Y-97245656D01*
X148923934Y-97105201D01*
X148923934Y-96994830D01*
X149122595Y-96994830D01*
X149122595Y-97138036D01*
X149150533Y-97278491D01*
X149205336Y-97410797D01*
X149284897Y-97529869D01*
X149386159Y-97631131D01*
X149505231Y-97710692D01*
X149637537Y-97765495D01*
X149777992Y-97793433D01*
X149921198Y-97793433D01*
X150061653Y-97765495D01*
X150193959Y-97710692D01*
X150313031Y-97631131D01*
X150414293Y-97529869D01*
X150493854Y-97410797D01*
X150548657Y-97278491D01*
X150576595Y-97138036D01*
X150576595Y-96994830D01*
X150572012Y-96971789D01*
X150698174Y-96971789D01*
X150698174Y-97114995D01*
X150726112Y-97255450D01*
X150780915Y-97387756D01*
X150860476Y-97506828D01*
X150961738Y-97608090D01*
X151080810Y-97687651D01*
X151213116Y-97742454D01*
X151353571Y-97770392D01*
X151496777Y-97770392D01*
X151637232Y-97742454D01*
X151769538Y-97687651D01*
X151888610Y-97608090D01*
X151981503Y-97515197D01*
X155178200Y-97515197D01*
X155178200Y-97658403D01*
X155206138Y-97798858D01*
X155260941Y-97931164D01*
X155340502Y-98050236D01*
X155441764Y-98151498D01*
X155560836Y-98231059D01*
X155693142Y-98285862D01*
X155833597Y-98313800D01*
X155976803Y-98313800D01*
X156117258Y-98285862D01*
X156249564Y-98231059D01*
X156368636Y-98151498D01*
X156469898Y-98050236D01*
X156549459Y-97931164D01*
X156591000Y-97830875D01*
X156632541Y-97931164D01*
X156712102Y-98050236D01*
X156813364Y-98151498D01*
X156932436Y-98231059D01*
X157064742Y-98285862D01*
X157205197Y-98313800D01*
X157348403Y-98313800D01*
X157488858Y-98285862D01*
X157621164Y-98231059D01*
X157740236Y-98151498D01*
X157759400Y-98132334D01*
X157778564Y-98151498D01*
X157897636Y-98231059D01*
X158029942Y-98285862D01*
X158170397Y-98313800D01*
X158313603Y-98313800D01*
X158454058Y-98285862D01*
X158586364Y-98231059D01*
X158699200Y-98155665D01*
X158812036Y-98231059D01*
X158944342Y-98285862D01*
X159084797Y-98313800D01*
X159228003Y-98313800D01*
X159368458Y-98285862D01*
X159500764Y-98231059D01*
X159619836Y-98151498D01*
X159721098Y-98050236D01*
X159800659Y-97931164D01*
X159855462Y-97798858D01*
X159883400Y-97658403D01*
X159883400Y-97515197D01*
X159855462Y-97374742D01*
X159800659Y-97242436D01*
X159750121Y-97166800D01*
X169453928Y-97166800D01*
X169466188Y-97291282D01*
X169502498Y-97410980D01*
X169561463Y-97521294D01*
X169640815Y-97617985D01*
X169737506Y-97697337D01*
X169847820Y-97756302D01*
X169967518Y-97792612D01*
X170092000Y-97804872D01*
X170656250Y-97801800D01*
X170815000Y-97643050D01*
X170815000Y-96443800D01*
X171069000Y-96443800D01*
X171069000Y-97643050D01*
X171227750Y-97801800D01*
X171792000Y-97804872D01*
X171916482Y-97792612D01*
X172036180Y-97756302D01*
X172146494Y-97697337D01*
X172243185Y-97617985D01*
X172322537Y-97521294D01*
X172381502Y-97410980D01*
X172417812Y-97291282D01*
X172430072Y-97166800D01*
X172427000Y-96602550D01*
X172268250Y-96443800D01*
X171069000Y-96443800D01*
X170815000Y-96443800D01*
X169615750Y-96443800D01*
X169457000Y-96602550D01*
X169453928Y-97166800D01*
X159750121Y-97166800D01*
X159721098Y-97123364D01*
X159619836Y-97022102D01*
X159500764Y-96942541D01*
X159375400Y-96890613D01*
X159375400Y-96854797D01*
X159347462Y-96714342D01*
X159292659Y-96582036D01*
X159213098Y-96462964D01*
X159111836Y-96361702D01*
X158992764Y-96282141D01*
X158860458Y-96227338D01*
X158720003Y-96199400D01*
X158576797Y-96199400D01*
X158436342Y-96227338D01*
X158304036Y-96282141D01*
X158184964Y-96361702D01*
X158083702Y-96462964D01*
X158004141Y-96582036D01*
X157949338Y-96714342D01*
X157921400Y-96854797D01*
X157921400Y-96932698D01*
X157897636Y-96942541D01*
X157778564Y-97022102D01*
X157759400Y-97041266D01*
X157740236Y-97022102D01*
X157621164Y-96942541D01*
X157488858Y-96887738D01*
X157348403Y-96859800D01*
X157283490Y-96859800D01*
X157264662Y-96765142D01*
X157209859Y-96632836D01*
X157130298Y-96513764D01*
X157029036Y-96412502D01*
X156909964Y-96332941D01*
X156777658Y-96278138D01*
X156637203Y-96250200D01*
X156493997Y-96250200D01*
X156353542Y-96278138D01*
X156221236Y-96332941D01*
X156102164Y-96412502D01*
X156000902Y-96513764D01*
X155921341Y-96632836D01*
X155866538Y-96765142D01*
X155847710Y-96859800D01*
X155833597Y-96859800D01*
X155693142Y-96887738D01*
X155560836Y-96942541D01*
X155441764Y-97022102D01*
X155340502Y-97123364D01*
X155260941Y-97242436D01*
X155206138Y-97374742D01*
X155178200Y-97515197D01*
X151981503Y-97515197D01*
X151989872Y-97506828D01*
X152069433Y-97387756D01*
X152124236Y-97255450D01*
X152152174Y-97114995D01*
X152152174Y-96971789D01*
X152124236Y-96831334D01*
X152069433Y-96699028D01*
X151989872Y-96579956D01*
X151888610Y-96478694D01*
X151769538Y-96399133D01*
X151637232Y-96344330D01*
X151496777Y-96316392D01*
X151353571Y-96316392D01*
X151213116Y-96344330D01*
X151080810Y-96399133D01*
X150961738Y-96478694D01*
X150860476Y-96579956D01*
X150780915Y-96699028D01*
X150726112Y-96831334D01*
X150698174Y-96971789D01*
X150572012Y-96971789D01*
X150548657Y-96854375D01*
X150493854Y-96722069D01*
X150414293Y-96602997D01*
X150313031Y-96501735D01*
X150193959Y-96422174D01*
X150061653Y-96367371D01*
X149921198Y-96339433D01*
X149777992Y-96339433D01*
X149637537Y-96367371D01*
X149505231Y-96422174D01*
X149386159Y-96501735D01*
X149284897Y-96602997D01*
X149205336Y-96722069D01*
X149150533Y-96854375D01*
X149122595Y-96994830D01*
X148923934Y-96994830D01*
X148923934Y-96961995D01*
X148895996Y-96821540D01*
X148841193Y-96689234D01*
X148761632Y-96570162D01*
X148660370Y-96468900D01*
X148541298Y-96389339D01*
X148408992Y-96334536D01*
X148268537Y-96306598D01*
X148125331Y-96306598D01*
X147984876Y-96334536D01*
X147852570Y-96389339D01*
X147733498Y-96468900D01*
X147632236Y-96570162D01*
X147552675Y-96689234D01*
X147497872Y-96821540D01*
X147469934Y-96961995D01*
X145640305Y-96961995D01*
X145631462Y-96917542D01*
X145576659Y-96785236D01*
X145497098Y-96666164D01*
X145395836Y-96564902D01*
X145276764Y-96485341D01*
X145144458Y-96430538D01*
X145008600Y-96403514D01*
X145008600Y-96029168D01*
X145031115Y-96014158D01*
X145045327Y-96011331D01*
X145105033Y-95986600D01*
X146817167Y-95986600D01*
X146876873Y-96011331D01*
X147111492Y-96058000D01*
X147350708Y-96058000D01*
X147585327Y-96011331D01*
X147645033Y-95986600D01*
X149357167Y-95986600D01*
X149416873Y-96011331D01*
X149651492Y-96058000D01*
X149890708Y-96058000D01*
X150125327Y-96011331D01*
X150185033Y-95986600D01*
X151897167Y-95986600D01*
X151956873Y-96011331D01*
X152191492Y-96058000D01*
X152430708Y-96058000D01*
X152665327Y-96011331D01*
X152725033Y-95986600D01*
X154437167Y-95986600D01*
X154496873Y-96011331D01*
X154731492Y-96058000D01*
X154970708Y-96058000D01*
X155205327Y-96011331D01*
X155265033Y-95986600D01*
X156977167Y-95986600D01*
X157036873Y-96011331D01*
X157271492Y-96058000D01*
X157510708Y-96058000D01*
X157745327Y-96011331D01*
X157805033Y-95986600D01*
X159517167Y-95986600D01*
X159576873Y-96011331D01*
X159811492Y-96058000D01*
X160050708Y-96058000D01*
X160285327Y-96011331D01*
X160345033Y-95986600D01*
X162057167Y-95986600D01*
X162116873Y-96011331D01*
X162351492Y-96058000D01*
X162590708Y-96058000D01*
X162825327Y-96011331D01*
X162885033Y-95986600D01*
X164597167Y-95986600D01*
X164656873Y-96011331D01*
X164891492Y-96058000D01*
X165130708Y-96058000D01*
X165365327Y-96011331D01*
X165425033Y-95986600D01*
X165460923Y-95986600D01*
X165439800Y-96092797D01*
X165439800Y-96236003D01*
X165467738Y-96376458D01*
X165522541Y-96508764D01*
X165602102Y-96627836D01*
X165703364Y-96729098D01*
X165822436Y-96808659D01*
X165954742Y-96863462D01*
X166095197Y-96891400D01*
X166238403Y-96891400D01*
X166378858Y-96863462D01*
X166511164Y-96808659D01*
X166624000Y-96733265D01*
X166736836Y-96808659D01*
X166869142Y-96863462D01*
X167009597Y-96891400D01*
X167152803Y-96891400D01*
X167293258Y-96863462D01*
X167425564Y-96808659D01*
X167544636Y-96729098D01*
X167645898Y-96627836D01*
X167725459Y-96508764D01*
X167780262Y-96376458D01*
X167808200Y-96236003D01*
X167808200Y-96092797D01*
X167796309Y-96033016D01*
X167905327Y-96011331D01*
X167965033Y-95986600D01*
X168910000Y-95986600D01*
X168934776Y-95984160D01*
X168958601Y-95976933D01*
X168976560Y-95967761D01*
X169455052Y-95673304D01*
X169457000Y-96031050D01*
G37*
G04 #@! TD.AperFunction*
D15*
X140487400Y-102160606D02*
X140487400Y-103895925D01*
X140445859Y-103795636D01*
X140366298Y-103676564D01*
X140265036Y-103575302D01*
X140145964Y-103495741D01*
X140013658Y-103440938D01*
X139873203Y-103413000D01*
X139729997Y-103413000D01*
X139589542Y-103440938D01*
X139457236Y-103495741D01*
X139338164Y-103575302D01*
X139236902Y-103676564D01*
X139157341Y-103795636D01*
X139102538Y-103927942D01*
X139074600Y-104068397D01*
X139074600Y-104211603D01*
X139102538Y-104352058D01*
X139157341Y-104484364D01*
X139236902Y-104603436D01*
X139338164Y-104704698D01*
X139457236Y-104784259D01*
X139589542Y-104839062D01*
X139729997Y-104867000D01*
X139873203Y-104867000D01*
X140013658Y-104839062D01*
X140145964Y-104784259D01*
X140265036Y-104704698D01*
X140366298Y-104603436D01*
X140445859Y-104484364D01*
X140487400Y-104384075D01*
X140487400Y-106832400D01*
X140489840Y-106857176D01*
X140497067Y-106881001D01*
X140508803Y-106902957D01*
X140517974Y-106915051D01*
X140822774Y-107270651D01*
X140840752Y-107287874D01*
X140861743Y-107301260D01*
X140884943Y-107310293D01*
X140919200Y-107315000D01*
X142260324Y-107315000D01*
X142267138Y-107349258D01*
X142321941Y-107481564D01*
X142401502Y-107600636D01*
X142502764Y-107701898D01*
X142621836Y-107781459D01*
X142754142Y-107836262D01*
X142894597Y-107864200D01*
X143037803Y-107864200D01*
X143178258Y-107836262D01*
X143310564Y-107781459D01*
X143429636Y-107701898D01*
X143530898Y-107600636D01*
X143610459Y-107481564D01*
X143665262Y-107349258D01*
X143672076Y-107315000D01*
X146109267Y-107315000D01*
X146227800Y-107403900D01*
X146227800Y-110500274D01*
X146213636Y-110506141D01*
X146094564Y-110585702D01*
X145993302Y-110686964D01*
X145913741Y-110806036D01*
X145858938Y-110938342D01*
X145831000Y-111078797D01*
X145831000Y-111222003D01*
X145858938Y-111362458D01*
X145913741Y-111494764D01*
X145993302Y-111613836D01*
X146094564Y-111715098D01*
X146213636Y-111794659D01*
X146345942Y-111849462D01*
X146486397Y-111877400D01*
X146629603Y-111877400D01*
X146770058Y-111849462D01*
X146902364Y-111794659D01*
X147021436Y-111715098D01*
X147122698Y-111613836D01*
X147143836Y-111582200D01*
X147475326Y-111582200D01*
X147507343Y-111595462D01*
X147647798Y-111623400D01*
X147791004Y-111623400D01*
X147931459Y-111595462D01*
X147963476Y-111582200D01*
X147997473Y-111582200D01*
X148259800Y-111732101D01*
X148259800Y-112367794D01*
X148080194Y-112547400D01*
X144781806Y-112547400D01*
X144107803Y-111873397D01*
X144088557Y-111857603D01*
X144066601Y-111845867D01*
X144042776Y-111838640D01*
X144018000Y-111836200D01*
X142138400Y-111836200D01*
X142135640Y-111836230D01*
X140581402Y-111870018D01*
X140602262Y-111819658D01*
X140630200Y-111679203D01*
X140630200Y-111535997D01*
X140602262Y-111395542D01*
X140547459Y-111263236D01*
X140467898Y-111144164D01*
X140366636Y-111042902D01*
X140247564Y-110963341D01*
X140115258Y-110908538D01*
X139974803Y-110880600D01*
X139831597Y-110880600D01*
X139691142Y-110908538D01*
X139558836Y-110963341D01*
X139439764Y-111042902D01*
X139338502Y-111144164D01*
X139258941Y-111263236D01*
X139204138Y-111395542D01*
X139176200Y-111535997D01*
X139176200Y-111679203D01*
X139204138Y-111819658D01*
X139232032Y-111887000D01*
X132845674Y-111887000D01*
X130965491Y-109910397D01*
X132877000Y-109910397D01*
X132877000Y-110053603D01*
X132904938Y-110194058D01*
X132959741Y-110326364D01*
X133039302Y-110445436D01*
X133140564Y-110546698D01*
X133259636Y-110626259D01*
X133391942Y-110681062D01*
X133532397Y-110709000D01*
X133675603Y-110709000D01*
X133816058Y-110681062D01*
X133948364Y-110626259D01*
X134067436Y-110546698D01*
X134168698Y-110445436D01*
X134248259Y-110326364D01*
X134303062Y-110194058D01*
X134331000Y-110053603D01*
X134331000Y-109910397D01*
X134320896Y-109859597D01*
X136077400Y-109859597D01*
X136077400Y-110002803D01*
X136105338Y-110143258D01*
X136160141Y-110275564D01*
X136239702Y-110394636D01*
X136340964Y-110495898D01*
X136460036Y-110575459D01*
X136592342Y-110630262D01*
X136732797Y-110658200D01*
X136876003Y-110658200D01*
X137016458Y-110630262D01*
X137148764Y-110575459D01*
X137267836Y-110495898D01*
X137369098Y-110394636D01*
X137448659Y-110275564D01*
X137503462Y-110143258D01*
X137531400Y-110002803D01*
X137531400Y-109859597D01*
X137503462Y-109719142D01*
X137448659Y-109586836D01*
X137369098Y-109467764D01*
X137267836Y-109366502D01*
X137148764Y-109286941D01*
X137016458Y-109232138D01*
X136876003Y-109204200D01*
X136732797Y-109204200D01*
X136592342Y-109232138D01*
X136460036Y-109286941D01*
X136340964Y-109366502D01*
X136239702Y-109467764D01*
X136160141Y-109586836D01*
X136105338Y-109719142D01*
X136077400Y-109859597D01*
X134320896Y-109859597D01*
X134303062Y-109769942D01*
X134248259Y-109637636D01*
X134198424Y-109563052D01*
X134324058Y-109538062D01*
X134456364Y-109483259D01*
X134575436Y-109403698D01*
X134676698Y-109302436D01*
X134756259Y-109183364D01*
X134811062Y-109051058D01*
X134839000Y-108910603D01*
X134839000Y-108767397D01*
X134811062Y-108626942D01*
X134756259Y-108494636D01*
X134683937Y-108386397D01*
X144357800Y-108386397D01*
X144357800Y-108529603D01*
X144385738Y-108670058D01*
X144440541Y-108802364D01*
X144520102Y-108921436D01*
X144621364Y-109022698D01*
X144740436Y-109102259D01*
X144872742Y-109157062D01*
X145013197Y-109185000D01*
X145156403Y-109185000D01*
X145296858Y-109157062D01*
X145429164Y-109102259D01*
X145548236Y-109022698D01*
X145649498Y-108921436D01*
X145729059Y-108802364D01*
X145783862Y-108670058D01*
X145811800Y-108529603D01*
X145811800Y-108386397D01*
X145783862Y-108245942D01*
X145729059Y-108113636D01*
X145649498Y-107994564D01*
X145548236Y-107893302D01*
X145429164Y-107813741D01*
X145296858Y-107758938D01*
X145156403Y-107731000D01*
X145013197Y-107731000D01*
X144872742Y-107758938D01*
X144740436Y-107813741D01*
X144621364Y-107893302D01*
X144520102Y-107994564D01*
X144440541Y-108113636D01*
X144385738Y-108245942D01*
X144357800Y-108386397D01*
X134683937Y-108386397D01*
X134676698Y-108375564D01*
X134575436Y-108274302D01*
X134456364Y-108194741D01*
X134324058Y-108139938D01*
X134183603Y-108112000D01*
X134040397Y-108112000D01*
X133899942Y-108139938D01*
X133767636Y-108194741D01*
X133648564Y-108274302D01*
X133547302Y-108375564D01*
X133467741Y-108494636D01*
X133412938Y-108626942D01*
X133385000Y-108767397D01*
X133385000Y-108910603D01*
X133412938Y-109051058D01*
X133467741Y-109183364D01*
X133517576Y-109257948D01*
X133391942Y-109282938D01*
X133259636Y-109337741D01*
X133140564Y-109417302D01*
X133039302Y-109518564D01*
X132959741Y-109637636D01*
X132904938Y-109769942D01*
X132877000Y-109910397D01*
X130965491Y-109910397D01*
X130937000Y-109880445D01*
X130937000Y-106100397D01*
X138058600Y-106100397D01*
X138058600Y-106243603D01*
X138086538Y-106384058D01*
X138141341Y-106516364D01*
X138182792Y-106578400D01*
X138141341Y-106640436D01*
X138086538Y-106772742D01*
X138058600Y-106913197D01*
X138058600Y-107056403D01*
X138086538Y-107196858D01*
X138141341Y-107329164D01*
X138220902Y-107448236D01*
X138322164Y-107549498D01*
X138441236Y-107629059D01*
X138573542Y-107683862D01*
X138713997Y-107711800D01*
X138857203Y-107711800D01*
X138997658Y-107683862D01*
X139129964Y-107629059D01*
X139249036Y-107549498D01*
X139350298Y-107448236D01*
X139429859Y-107329164D01*
X139484662Y-107196858D01*
X139512600Y-107056403D01*
X139512600Y-106913197D01*
X139484662Y-106772742D01*
X139429859Y-106640436D01*
X139388408Y-106578400D01*
X139429859Y-106516364D01*
X139484662Y-106384058D01*
X139512600Y-106243603D01*
X139512600Y-106100397D01*
X139484662Y-105959942D01*
X139429859Y-105827636D01*
X139350298Y-105708564D01*
X139249036Y-105607302D01*
X139129964Y-105527741D01*
X138997658Y-105472938D01*
X138857203Y-105445000D01*
X138713997Y-105445000D01*
X138573542Y-105472938D01*
X138441236Y-105527741D01*
X138322164Y-105607302D01*
X138220902Y-105708564D01*
X138141341Y-105827636D01*
X138086538Y-105959942D01*
X138058600Y-106100397D01*
X130937000Y-106100397D01*
X130937000Y-105284636D01*
X130968636Y-105263498D01*
X131069898Y-105162236D01*
X131149459Y-105043164D01*
X131204262Y-104910858D01*
X131232200Y-104770403D01*
X131232200Y-104761006D01*
X131255403Y-104737803D01*
X131271197Y-104718557D01*
X131282933Y-104696601D01*
X131290160Y-104672776D01*
X131292600Y-104648000D01*
X131292600Y-103136700D01*
X131411133Y-103047800D01*
X137820400Y-103047800D01*
X137845176Y-103045360D01*
X137869001Y-103038133D01*
X137890957Y-103026397D01*
X137910203Y-103010603D01*
X138164203Y-102756603D01*
X138179997Y-102737357D01*
X138191733Y-102715401D01*
X138198960Y-102691576D01*
X138201400Y-102666800D01*
X138201400Y-102092378D01*
X138298707Y-101930200D01*
X140256994Y-101930200D01*
X140487400Y-102160606D01*
G04 #@! TA.AperFunction,Conductor*
D16*
G36*
X140487400Y-102160606D02*
G01*
X140487400Y-103895925D01*
X140445859Y-103795636D01*
X140366298Y-103676564D01*
X140265036Y-103575302D01*
X140145964Y-103495741D01*
X140013658Y-103440938D01*
X139873203Y-103413000D01*
X139729997Y-103413000D01*
X139589542Y-103440938D01*
X139457236Y-103495741D01*
X139338164Y-103575302D01*
X139236902Y-103676564D01*
X139157341Y-103795636D01*
X139102538Y-103927942D01*
X139074600Y-104068397D01*
X139074600Y-104211603D01*
X139102538Y-104352058D01*
X139157341Y-104484364D01*
X139236902Y-104603436D01*
X139338164Y-104704698D01*
X139457236Y-104784259D01*
X139589542Y-104839062D01*
X139729997Y-104867000D01*
X139873203Y-104867000D01*
X140013658Y-104839062D01*
X140145964Y-104784259D01*
X140265036Y-104704698D01*
X140366298Y-104603436D01*
X140445859Y-104484364D01*
X140487400Y-104384075D01*
X140487400Y-106832400D01*
X140489840Y-106857176D01*
X140497067Y-106881001D01*
X140508803Y-106902957D01*
X140517974Y-106915051D01*
X140822774Y-107270651D01*
X140840752Y-107287874D01*
X140861743Y-107301260D01*
X140884943Y-107310293D01*
X140919200Y-107315000D01*
X142260324Y-107315000D01*
X142267138Y-107349258D01*
X142321941Y-107481564D01*
X142401502Y-107600636D01*
X142502764Y-107701898D01*
X142621836Y-107781459D01*
X142754142Y-107836262D01*
X142894597Y-107864200D01*
X143037803Y-107864200D01*
X143178258Y-107836262D01*
X143310564Y-107781459D01*
X143429636Y-107701898D01*
X143530898Y-107600636D01*
X143610459Y-107481564D01*
X143665262Y-107349258D01*
X143672076Y-107315000D01*
X146109267Y-107315000D01*
X146227800Y-107403900D01*
X146227800Y-110500274D01*
X146213636Y-110506141D01*
X146094564Y-110585702D01*
X145993302Y-110686964D01*
X145913741Y-110806036D01*
X145858938Y-110938342D01*
X145831000Y-111078797D01*
X145831000Y-111222003D01*
X145858938Y-111362458D01*
X145913741Y-111494764D01*
X145993302Y-111613836D01*
X146094564Y-111715098D01*
X146213636Y-111794659D01*
X146345942Y-111849462D01*
X146486397Y-111877400D01*
X146629603Y-111877400D01*
X146770058Y-111849462D01*
X146902364Y-111794659D01*
X147021436Y-111715098D01*
X147122698Y-111613836D01*
X147143836Y-111582200D01*
X147475326Y-111582200D01*
X147507343Y-111595462D01*
X147647798Y-111623400D01*
X147791004Y-111623400D01*
X147931459Y-111595462D01*
X147963476Y-111582200D01*
X147997473Y-111582200D01*
X148259800Y-111732101D01*
X148259800Y-112367794D01*
X148080194Y-112547400D01*
X144781806Y-112547400D01*
X144107803Y-111873397D01*
X144088557Y-111857603D01*
X144066601Y-111845867D01*
X144042776Y-111838640D01*
X144018000Y-111836200D01*
X142138400Y-111836200D01*
X142135640Y-111836230D01*
X140581402Y-111870018D01*
X140602262Y-111819658D01*
X140630200Y-111679203D01*
X140630200Y-111535997D01*
X140602262Y-111395542D01*
X140547459Y-111263236D01*
X140467898Y-111144164D01*
X140366636Y-111042902D01*
X140247564Y-110963341D01*
X140115258Y-110908538D01*
X139974803Y-110880600D01*
X139831597Y-110880600D01*
X139691142Y-110908538D01*
X139558836Y-110963341D01*
X139439764Y-111042902D01*
X139338502Y-111144164D01*
X139258941Y-111263236D01*
X139204138Y-111395542D01*
X139176200Y-111535997D01*
X139176200Y-111679203D01*
X139204138Y-111819658D01*
X139232032Y-111887000D01*
X132845674Y-111887000D01*
X130965491Y-109910397D01*
X132877000Y-109910397D01*
X132877000Y-110053603D01*
X132904938Y-110194058D01*
X132959741Y-110326364D01*
X133039302Y-110445436D01*
X133140564Y-110546698D01*
X133259636Y-110626259D01*
X133391942Y-110681062D01*
X133532397Y-110709000D01*
X133675603Y-110709000D01*
X133816058Y-110681062D01*
X133948364Y-110626259D01*
X134067436Y-110546698D01*
X134168698Y-110445436D01*
X134248259Y-110326364D01*
X134303062Y-110194058D01*
X134331000Y-110053603D01*
X134331000Y-109910397D01*
X134320896Y-109859597D01*
X136077400Y-109859597D01*
X136077400Y-110002803D01*
X136105338Y-110143258D01*
X136160141Y-110275564D01*
X136239702Y-110394636D01*
X136340964Y-110495898D01*
X136460036Y-110575459D01*
X136592342Y-110630262D01*
X136732797Y-110658200D01*
X136876003Y-110658200D01*
X137016458Y-110630262D01*
X137148764Y-110575459D01*
X137267836Y-110495898D01*
X137369098Y-110394636D01*
X137448659Y-110275564D01*
X137503462Y-110143258D01*
X137531400Y-110002803D01*
X137531400Y-109859597D01*
X137503462Y-109719142D01*
X137448659Y-109586836D01*
X137369098Y-109467764D01*
X137267836Y-109366502D01*
X137148764Y-109286941D01*
X137016458Y-109232138D01*
X136876003Y-109204200D01*
X136732797Y-109204200D01*
X136592342Y-109232138D01*
X136460036Y-109286941D01*
X136340964Y-109366502D01*
X136239702Y-109467764D01*
X136160141Y-109586836D01*
X136105338Y-109719142D01*
X136077400Y-109859597D01*
X134320896Y-109859597D01*
X134303062Y-109769942D01*
X134248259Y-109637636D01*
X134198424Y-109563052D01*
X134324058Y-109538062D01*
X134456364Y-109483259D01*
X134575436Y-109403698D01*
X134676698Y-109302436D01*
X134756259Y-109183364D01*
X134811062Y-109051058D01*
X134839000Y-108910603D01*
X134839000Y-108767397D01*
X134811062Y-108626942D01*
X134756259Y-108494636D01*
X134683937Y-108386397D01*
X144357800Y-108386397D01*
X144357800Y-108529603D01*
X144385738Y-108670058D01*
X144440541Y-108802364D01*
X144520102Y-108921436D01*
X144621364Y-109022698D01*
X144740436Y-109102259D01*
X144872742Y-109157062D01*
X145013197Y-109185000D01*
X145156403Y-109185000D01*
X145296858Y-109157062D01*
X145429164Y-109102259D01*
X145548236Y-109022698D01*
X145649498Y-108921436D01*
X145729059Y-108802364D01*
X145783862Y-108670058D01*
X145811800Y-108529603D01*
X145811800Y-108386397D01*
X145783862Y-108245942D01*
X145729059Y-108113636D01*
X145649498Y-107994564D01*
X145548236Y-107893302D01*
X145429164Y-107813741D01*
X145296858Y-107758938D01*
X145156403Y-107731000D01*
X145013197Y-107731000D01*
X144872742Y-107758938D01*
X144740436Y-107813741D01*
X144621364Y-107893302D01*
X144520102Y-107994564D01*
X144440541Y-108113636D01*
X144385738Y-108245942D01*
X144357800Y-108386397D01*
X134683937Y-108386397D01*
X134676698Y-108375564D01*
X134575436Y-108274302D01*
X134456364Y-108194741D01*
X134324058Y-108139938D01*
X134183603Y-108112000D01*
X134040397Y-108112000D01*
X133899942Y-108139938D01*
X133767636Y-108194741D01*
X133648564Y-108274302D01*
X133547302Y-108375564D01*
X133467741Y-108494636D01*
X133412938Y-108626942D01*
X133385000Y-108767397D01*
X133385000Y-108910603D01*
X133412938Y-109051058D01*
X133467741Y-109183364D01*
X133517576Y-109257948D01*
X133391942Y-109282938D01*
X133259636Y-109337741D01*
X133140564Y-109417302D01*
X133039302Y-109518564D01*
X132959741Y-109637636D01*
X132904938Y-109769942D01*
X132877000Y-109910397D01*
X130965491Y-109910397D01*
X130937000Y-109880445D01*
X130937000Y-106100397D01*
X138058600Y-106100397D01*
X138058600Y-106243603D01*
X138086538Y-106384058D01*
X138141341Y-106516364D01*
X138182792Y-106578400D01*
X138141341Y-106640436D01*
X138086538Y-106772742D01*
X138058600Y-106913197D01*
X138058600Y-107056403D01*
X138086538Y-107196858D01*
X138141341Y-107329164D01*
X138220902Y-107448236D01*
X138322164Y-107549498D01*
X138441236Y-107629059D01*
X138573542Y-107683862D01*
X138713997Y-107711800D01*
X138857203Y-107711800D01*
X138997658Y-107683862D01*
X139129964Y-107629059D01*
X139249036Y-107549498D01*
X139350298Y-107448236D01*
X139429859Y-107329164D01*
X139484662Y-107196858D01*
X139512600Y-107056403D01*
X139512600Y-106913197D01*
X139484662Y-106772742D01*
X139429859Y-106640436D01*
X139388408Y-106578400D01*
X139429859Y-106516364D01*
X139484662Y-106384058D01*
X139512600Y-106243603D01*
X139512600Y-106100397D01*
X139484662Y-105959942D01*
X139429859Y-105827636D01*
X139350298Y-105708564D01*
X139249036Y-105607302D01*
X139129964Y-105527741D01*
X138997658Y-105472938D01*
X138857203Y-105445000D01*
X138713997Y-105445000D01*
X138573542Y-105472938D01*
X138441236Y-105527741D01*
X138322164Y-105607302D01*
X138220902Y-105708564D01*
X138141341Y-105827636D01*
X138086538Y-105959942D01*
X138058600Y-106100397D01*
X130937000Y-106100397D01*
X130937000Y-105284636D01*
X130968636Y-105263498D01*
X131069898Y-105162236D01*
X131149459Y-105043164D01*
X131204262Y-104910858D01*
X131232200Y-104770403D01*
X131232200Y-104761006D01*
X131255403Y-104737803D01*
X131271197Y-104718557D01*
X131282933Y-104696601D01*
X131290160Y-104672776D01*
X131292600Y-104648000D01*
X131292600Y-103136700D01*
X131411133Y-103047800D01*
X137820400Y-103047800D01*
X137845176Y-103045360D01*
X137869001Y-103038133D01*
X137890957Y-103026397D01*
X137910203Y-103010603D01*
X138164203Y-102756603D01*
X138179997Y-102737357D01*
X138191733Y-102715401D01*
X138198960Y-102691576D01*
X138201400Y-102666800D01*
X138201400Y-102092378D01*
X138298707Y-101930200D01*
X140256994Y-101930200D01*
X140487400Y-102160606D01*
G37*
G04 #@! TD.AperFunction*
D15*
X138667814Y-94069465D02*
X138534913Y-94268366D01*
X138443369Y-94489373D01*
X138396700Y-94723992D01*
X138396700Y-94963208D01*
X138443369Y-95197827D01*
X138534913Y-95418834D01*
X138667814Y-95617735D01*
X138836965Y-95786886D01*
X139035866Y-95919787D01*
X139256873Y-96011331D01*
X139491492Y-96058000D01*
X139730708Y-96058000D01*
X139965327Y-96011331D01*
X140186334Y-95919787D01*
X140385235Y-95786886D01*
X140538200Y-95633921D01*
X140538200Y-96555000D01*
X140517397Y-96555000D01*
X140376942Y-96582938D01*
X140244636Y-96637741D01*
X140125564Y-96717302D01*
X140024302Y-96818564D01*
X139944741Y-96937636D01*
X139889938Y-97069942D01*
X139862000Y-97210397D01*
X139862000Y-97353603D01*
X139889938Y-97494058D01*
X139944741Y-97626364D01*
X140024302Y-97745436D01*
X140125564Y-97846698D01*
X140244636Y-97926259D01*
X140376942Y-97981062D01*
X140517397Y-98009000D01*
X140538200Y-98009000D01*
X140538200Y-100076000D01*
X140540640Y-100100776D01*
X140547867Y-100124601D01*
X140559603Y-100146557D01*
X140575397Y-100165803D01*
X140592370Y-100180042D01*
X142624370Y-101602442D01*
X142646067Y-101614652D01*
X142669729Y-101622393D01*
X142697200Y-101625400D01*
X146109267Y-101625400D01*
X146227800Y-101714300D01*
X146227800Y-102473874D01*
X146109658Y-102424938D01*
X145969203Y-102397000D01*
X145825997Y-102397000D01*
X145685542Y-102424938D01*
X145553236Y-102479741D01*
X145434164Y-102559302D01*
X145332902Y-102660564D01*
X145253341Y-102779636D01*
X145198538Y-102911942D01*
X145170600Y-103052397D01*
X145170600Y-103195603D01*
X145198538Y-103336058D01*
X145253341Y-103468364D01*
X145332902Y-103587436D01*
X145434164Y-103688698D01*
X145447792Y-103697804D01*
X145424600Y-103814397D01*
X145424600Y-103957603D01*
X145452538Y-104098058D01*
X145507341Y-104230364D01*
X145586902Y-104349436D01*
X145688164Y-104450698D01*
X145807236Y-104530259D01*
X145939542Y-104585062D01*
X146079997Y-104613000D01*
X146123666Y-104613000D01*
X146094902Y-104641764D01*
X146015341Y-104760836D01*
X145960538Y-104893142D01*
X145932600Y-105033597D01*
X145932600Y-105176803D01*
X145960538Y-105317258D01*
X146015341Y-105449564D01*
X146094902Y-105568636D01*
X146196164Y-105669898D01*
X146227800Y-105691036D01*
X146227800Y-106768505D01*
X146151600Y-106761000D01*
X143589187Y-106761000D01*
X143530898Y-106673764D01*
X143429636Y-106572502D01*
X143310564Y-106492941D01*
X143178258Y-106438138D01*
X143037803Y-106410200D01*
X142894597Y-106410200D01*
X142754142Y-106438138D01*
X142621836Y-106492941D01*
X142502764Y-106572502D01*
X142401502Y-106673764D01*
X142343213Y-106761000D01*
X141115593Y-106761000D01*
X141041400Y-106674442D01*
X141041400Y-102595197D01*
X142783000Y-102595197D01*
X142783000Y-102738403D01*
X142810938Y-102878858D01*
X142865741Y-103011164D01*
X142945302Y-103130236D01*
X143046564Y-103231498D01*
X143165636Y-103311059D01*
X143297942Y-103365862D01*
X143438397Y-103393800D01*
X143581603Y-103393800D01*
X143722058Y-103365862D01*
X143854364Y-103311059D01*
X143973436Y-103231498D01*
X144074698Y-103130236D01*
X144154259Y-103011164D01*
X144209062Y-102878858D01*
X144237000Y-102738403D01*
X144237000Y-102595197D01*
X144209062Y-102454742D01*
X144154259Y-102322436D01*
X144074698Y-102203364D01*
X143973436Y-102102102D01*
X143854364Y-102022541D01*
X143722058Y-101967738D01*
X143581603Y-101939800D01*
X143438397Y-101939800D01*
X143297942Y-101967738D01*
X143165636Y-102022541D01*
X143046564Y-102102102D01*
X142945302Y-102203364D01*
X142865741Y-102322436D01*
X142810938Y-102454742D01*
X142783000Y-102595197D01*
X141041400Y-102595197D01*
X141041400Y-102108000D01*
X141033195Y-102024696D01*
X141008897Y-101944594D01*
X140969438Y-101870772D01*
X140916335Y-101806065D01*
X140611535Y-101501265D01*
X140546828Y-101448162D01*
X140473006Y-101408703D01*
X140392904Y-101384405D01*
X140309600Y-101376200D01*
X138226800Y-101376200D01*
X138123237Y-101388949D01*
X138044411Y-101417113D01*
X137972594Y-101460114D01*
X137910545Y-101516299D01*
X137860651Y-101583510D01*
X137708251Y-101837510D01*
X137679903Y-101893794D01*
X137655605Y-101973896D01*
X137647400Y-102057200D01*
X137647400Y-102489930D01*
X137643530Y-102493800D01*
X131368800Y-102493800D01*
X131262827Y-102507159D01*
X131184166Y-102535782D01*
X131112600Y-102579200D01*
X130909400Y-102731600D01*
X130863665Y-102771265D01*
X130810562Y-102835972D01*
X130771103Y-102909794D01*
X130746805Y-102989896D01*
X130738600Y-103073200D01*
X130738600Y-104471130D01*
X130508065Y-104701665D01*
X130454962Y-104766372D01*
X130415503Y-104840194D01*
X130391205Y-104920296D01*
X130383000Y-105003600D01*
X130383000Y-109931200D01*
X130389254Y-110004011D01*
X130411543Y-110084695D01*
X130449145Y-110159481D01*
X130500614Y-110225494D01*
X132481814Y-112308294D01*
X132553972Y-112369038D01*
X132627794Y-112408497D01*
X132707896Y-112432795D01*
X132791200Y-112441000D01*
X139801600Y-112441000D01*
X139810880Y-112440899D01*
X142143034Y-112390200D01*
X143841130Y-112390200D01*
X144427265Y-112976335D01*
X144491972Y-113029438D01*
X144565794Y-113068897D01*
X144645896Y-113093195D01*
X144729200Y-113101400D01*
X147701000Y-113101400D01*
X147701000Y-114020600D01*
X147645033Y-114020600D01*
X147585327Y-113995869D01*
X147350708Y-113949200D01*
X147111492Y-113949200D01*
X146876873Y-113995869D01*
X146812495Y-114022535D01*
X145121675Y-114027494D01*
X145045327Y-113995869D01*
X144810708Y-113949200D01*
X144571492Y-113949200D01*
X144336873Y-113995869D01*
X144254384Y-114030037D01*
X142599532Y-114034890D01*
X142505327Y-113995869D01*
X142270708Y-113949200D01*
X142031492Y-113949200D01*
X141796873Y-113995869D01*
X141696273Y-114037539D01*
X140077388Y-114042286D01*
X139965327Y-113995869D01*
X139730708Y-113949200D01*
X139491492Y-113949200D01*
X139256873Y-113995869D01*
X139138162Y-114045040D01*
X138810628Y-114046001D01*
X138785858Y-114048513D01*
X138762055Y-114055810D01*
X138740133Y-114067611D01*
X138720934Y-114083461D01*
X138705197Y-114102753D01*
X138693525Y-114124743D01*
X138686368Y-114148589D01*
X138684031Y-114170178D01*
X138679416Y-114377863D01*
X138667814Y-114389465D01*
X138534913Y-114588366D01*
X138449685Y-114794124D01*
X138362779Y-114551708D01*
X138297488Y-114429557D01*
X138054805Y-114359500D01*
X137250705Y-115163600D01*
X137264848Y-115177743D01*
X137085243Y-115357348D01*
X137071100Y-115343205D01*
X137056958Y-115357348D01*
X136877353Y-115177743D01*
X136891495Y-115163600D01*
X136087395Y-114359500D01*
X135844712Y-114429557D01*
X135725072Y-114682918D01*
X135695493Y-114801314D01*
X135607287Y-114588366D01*
X135553115Y-114507292D01*
X135559770Y-114201160D01*
X135558142Y-114179895D01*
X136267000Y-114179895D01*
X137071100Y-114983995D01*
X137875200Y-114179895D01*
X137805143Y-113937212D01*
X137551782Y-113817572D01*
X137279949Y-113749659D01*
X137000090Y-113736083D01*
X136722960Y-113777366D01*
X136459208Y-113871921D01*
X136337057Y-113937212D01*
X136267000Y-114179895D01*
X135558142Y-114179895D01*
X135557869Y-114176337D01*
X135551161Y-114152361D01*
X135539905Y-114130154D01*
X135524533Y-114110570D01*
X135505636Y-114094362D01*
X135483939Y-114082151D01*
X135460278Y-114074408D01*
X135432800Y-114071400D01*
X135067675Y-114071400D01*
X134885327Y-113995869D01*
X134650708Y-113949200D01*
X134411492Y-113949200D01*
X134176873Y-113995869D01*
X133994525Y-114071400D01*
X132527675Y-114071400D01*
X132345327Y-113995869D01*
X132110708Y-113949200D01*
X131871492Y-113949200D01*
X131636873Y-113995869D01*
X131454525Y-114071400D01*
X129987675Y-114071400D01*
X129805327Y-113995869D01*
X129570708Y-113949200D01*
X129331492Y-113949200D01*
X129096873Y-113995869D01*
X128914525Y-114071400D01*
X128422400Y-114071400D01*
X128397624Y-114073840D01*
X128373799Y-114081067D01*
X128351843Y-114092803D01*
X128332597Y-114108597D01*
X128316803Y-114127843D01*
X128305067Y-114149799D01*
X128297840Y-114173624D01*
X128295400Y-114198400D01*
X128295400Y-114780328D01*
X128283369Y-114809373D01*
X128236700Y-115043992D01*
X128236700Y-115283208D01*
X128283369Y-115517827D01*
X128295400Y-115546872D01*
X128295400Y-115981600D01*
X125663209Y-115981600D01*
X125235957Y-115939707D01*
X124846255Y-115822050D01*
X124486821Y-115630936D01*
X124171350Y-115373645D01*
X123911867Y-115059984D01*
X123718249Y-114701895D01*
X123597870Y-114313014D01*
X123553100Y-113887053D01*
X123553100Y-113693958D01*
X123614100Y-113693958D01*
X123614100Y-114093242D01*
X123691996Y-114484854D01*
X123844796Y-114853745D01*
X124066626Y-115185737D01*
X124348963Y-115468074D01*
X124680955Y-115689904D01*
X125049846Y-115842704D01*
X125441458Y-115920600D01*
X125840742Y-115920600D01*
X126232354Y-115842704D01*
X126601245Y-115689904D01*
X126933237Y-115468074D01*
X127215574Y-115185737D01*
X127437404Y-114853745D01*
X127590204Y-114484854D01*
X127668100Y-114093242D01*
X127668100Y-113693958D01*
X127590204Y-113302346D01*
X127437404Y-112933455D01*
X127215574Y-112601463D01*
X126933237Y-112319126D01*
X126601245Y-112097296D01*
X126232354Y-111944496D01*
X125840742Y-111866600D01*
X125441458Y-111866600D01*
X125049846Y-111944496D01*
X124680955Y-112097296D01*
X124348963Y-112319126D01*
X124066626Y-112601463D01*
X123844796Y-112933455D01*
X123691996Y-113302346D01*
X123614100Y-113693958D01*
X123553100Y-113693958D01*
X123553100Y-107730824D01*
X123913010Y-107370915D01*
X123930259Y-107356759D01*
X123986743Y-107287933D01*
X124028714Y-107209410D01*
X124054560Y-107124207D01*
X124061100Y-107057805D01*
X124061100Y-107057804D01*
X124063287Y-107035601D01*
X124061100Y-107013398D01*
X124061100Y-102993802D01*
X124063287Y-102971599D01*
X124061100Y-102949395D01*
X124054560Y-102882993D01*
X124028714Y-102797790D01*
X123986743Y-102719267D01*
X123930259Y-102650441D01*
X123913011Y-102636286D01*
X123553100Y-102276376D01*
X123553100Y-96135709D01*
X123574842Y-95913958D01*
X123614100Y-95913958D01*
X123614100Y-96313242D01*
X123691996Y-96704854D01*
X123844796Y-97073745D01*
X124066626Y-97405737D01*
X124348963Y-97688074D01*
X124680955Y-97909904D01*
X125049846Y-98062704D01*
X125441458Y-98140600D01*
X125840742Y-98140600D01*
X126232354Y-98062704D01*
X126450373Y-97972397D01*
X136560000Y-97972397D01*
X136560000Y-98115603D01*
X136587938Y-98256058D01*
X136642741Y-98388364D01*
X136722302Y-98507436D01*
X136823564Y-98608698D01*
X136942636Y-98688259D01*
X137074942Y-98743062D01*
X137215397Y-98771000D01*
X137358603Y-98771000D01*
X137499058Y-98743062D01*
X137631364Y-98688259D01*
X137750436Y-98608698D01*
X137851698Y-98507436D01*
X137931259Y-98388364D01*
X137986062Y-98256058D01*
X138014000Y-98115603D01*
X138014000Y-97972397D01*
X137986062Y-97831942D01*
X137931259Y-97699636D01*
X137851698Y-97580564D01*
X137750436Y-97479302D01*
X137631364Y-97399741D01*
X137499058Y-97344938D01*
X137358603Y-97317000D01*
X137215397Y-97317000D01*
X137074942Y-97344938D01*
X136942636Y-97399741D01*
X136823564Y-97479302D01*
X136722302Y-97580564D01*
X136642741Y-97699636D01*
X136587938Y-97831942D01*
X136560000Y-97972397D01*
X126450373Y-97972397D01*
X126601245Y-97909904D01*
X126933237Y-97688074D01*
X127215574Y-97405737D01*
X127437404Y-97073745D01*
X127590204Y-96704854D01*
X127594790Y-96681797D01*
X137322000Y-96681797D01*
X137322000Y-96825003D01*
X137349938Y-96965458D01*
X137404741Y-97097764D01*
X137484302Y-97216836D01*
X137585564Y-97318098D01*
X137704636Y-97397659D01*
X137836942Y-97452462D01*
X137977397Y-97480400D01*
X138120603Y-97480400D01*
X138261058Y-97452462D01*
X138393364Y-97397659D01*
X138512436Y-97318098D01*
X138613698Y-97216836D01*
X138693259Y-97097764D01*
X138748062Y-96965458D01*
X138776000Y-96825003D01*
X138776000Y-96681797D01*
X138748062Y-96541342D01*
X138693259Y-96409036D01*
X138613698Y-96289964D01*
X138512436Y-96188702D01*
X138393364Y-96109141D01*
X138261058Y-96054338D01*
X138120603Y-96026400D01*
X137977397Y-96026400D01*
X137836942Y-96054338D01*
X137704636Y-96109141D01*
X137585564Y-96188702D01*
X137484302Y-96289964D01*
X137404741Y-96409036D01*
X137349938Y-96541342D01*
X137322000Y-96681797D01*
X127594790Y-96681797D01*
X127668100Y-96313242D01*
X127668100Y-95913958D01*
X127590204Y-95522346D01*
X127437404Y-95153455D01*
X127215574Y-94821463D01*
X126933237Y-94539126D01*
X126601245Y-94317296D01*
X126232354Y-94164496D01*
X125840742Y-94086600D01*
X125441458Y-94086600D01*
X125049846Y-94164496D01*
X124680955Y-94317296D01*
X124348963Y-94539126D01*
X124066626Y-94821463D01*
X123844796Y-95153455D01*
X123691996Y-95522346D01*
X123614100Y-95913958D01*
X123574842Y-95913958D01*
X123594992Y-95708457D01*
X123712653Y-95318747D01*
X123903765Y-94959318D01*
X124161055Y-94643850D01*
X124474716Y-94384367D01*
X124832805Y-94190749D01*
X125221687Y-94070370D01*
X125647647Y-94025600D01*
X138711679Y-94025600D01*
X138667814Y-94069465D01*
G04 #@! TA.AperFunction,Conductor*
D16*
G36*
X138667814Y-94069465D02*
G01*
X138534913Y-94268366D01*
X138443369Y-94489373D01*
X138396700Y-94723992D01*
X138396700Y-94963208D01*
X138443369Y-95197827D01*
X138534913Y-95418834D01*
X138667814Y-95617735D01*
X138836965Y-95786886D01*
X139035866Y-95919787D01*
X139256873Y-96011331D01*
X139491492Y-96058000D01*
X139730708Y-96058000D01*
X139965327Y-96011331D01*
X140186334Y-95919787D01*
X140385235Y-95786886D01*
X140538200Y-95633921D01*
X140538200Y-96555000D01*
X140517397Y-96555000D01*
X140376942Y-96582938D01*
X140244636Y-96637741D01*
X140125564Y-96717302D01*
X140024302Y-96818564D01*
X139944741Y-96937636D01*
X139889938Y-97069942D01*
X139862000Y-97210397D01*
X139862000Y-97353603D01*
X139889938Y-97494058D01*
X139944741Y-97626364D01*
X140024302Y-97745436D01*
X140125564Y-97846698D01*
X140244636Y-97926259D01*
X140376942Y-97981062D01*
X140517397Y-98009000D01*
X140538200Y-98009000D01*
X140538200Y-100076000D01*
X140540640Y-100100776D01*
X140547867Y-100124601D01*
X140559603Y-100146557D01*
X140575397Y-100165803D01*
X140592370Y-100180042D01*
X142624370Y-101602442D01*
X142646067Y-101614652D01*
X142669729Y-101622393D01*
X142697200Y-101625400D01*
X146109267Y-101625400D01*
X146227800Y-101714300D01*
X146227800Y-102473874D01*
X146109658Y-102424938D01*
X145969203Y-102397000D01*
X145825997Y-102397000D01*
X145685542Y-102424938D01*
X145553236Y-102479741D01*
X145434164Y-102559302D01*
X145332902Y-102660564D01*
X145253341Y-102779636D01*
X145198538Y-102911942D01*
X145170600Y-103052397D01*
X145170600Y-103195603D01*
X145198538Y-103336058D01*
X145253341Y-103468364D01*
X145332902Y-103587436D01*
X145434164Y-103688698D01*
X145447792Y-103697804D01*
X145424600Y-103814397D01*
X145424600Y-103957603D01*
X145452538Y-104098058D01*
X145507341Y-104230364D01*
X145586902Y-104349436D01*
X145688164Y-104450698D01*
X145807236Y-104530259D01*
X145939542Y-104585062D01*
X146079997Y-104613000D01*
X146123666Y-104613000D01*
X146094902Y-104641764D01*
X146015341Y-104760836D01*
X145960538Y-104893142D01*
X145932600Y-105033597D01*
X145932600Y-105176803D01*
X145960538Y-105317258D01*
X146015341Y-105449564D01*
X146094902Y-105568636D01*
X146196164Y-105669898D01*
X146227800Y-105691036D01*
X146227800Y-106768505D01*
X146151600Y-106761000D01*
X143589187Y-106761000D01*
X143530898Y-106673764D01*
X143429636Y-106572502D01*
X143310564Y-106492941D01*
X143178258Y-106438138D01*
X143037803Y-106410200D01*
X142894597Y-106410200D01*
X142754142Y-106438138D01*
X142621836Y-106492941D01*
X142502764Y-106572502D01*
X142401502Y-106673764D01*
X142343213Y-106761000D01*
X141115593Y-106761000D01*
X141041400Y-106674442D01*
X141041400Y-102595197D01*
X142783000Y-102595197D01*
X142783000Y-102738403D01*
X142810938Y-102878858D01*
X142865741Y-103011164D01*
X142945302Y-103130236D01*
X143046564Y-103231498D01*
X143165636Y-103311059D01*
X143297942Y-103365862D01*
X143438397Y-103393800D01*
X143581603Y-103393800D01*
X143722058Y-103365862D01*
X143854364Y-103311059D01*
X143973436Y-103231498D01*
X144074698Y-103130236D01*
X144154259Y-103011164D01*
X144209062Y-102878858D01*
X144237000Y-102738403D01*
X144237000Y-102595197D01*
X144209062Y-102454742D01*
X144154259Y-102322436D01*
X144074698Y-102203364D01*
X143973436Y-102102102D01*
X143854364Y-102022541D01*
X143722058Y-101967738D01*
X143581603Y-101939800D01*
X143438397Y-101939800D01*
X143297942Y-101967738D01*
X143165636Y-102022541D01*
X143046564Y-102102102D01*
X142945302Y-102203364D01*
X142865741Y-102322436D01*
X142810938Y-102454742D01*
X142783000Y-102595197D01*
X141041400Y-102595197D01*
X141041400Y-102108000D01*
X141033195Y-102024696D01*
X141008897Y-101944594D01*
X140969438Y-101870772D01*
X140916335Y-101806065D01*
X140611535Y-101501265D01*
X140546828Y-101448162D01*
X140473006Y-101408703D01*
X140392904Y-101384405D01*
X140309600Y-101376200D01*
X138226800Y-101376200D01*
X138123237Y-101388949D01*
X138044411Y-101417113D01*
X137972594Y-101460114D01*
X137910545Y-101516299D01*
X137860651Y-101583510D01*
X137708251Y-101837510D01*
X137679903Y-101893794D01*
X137655605Y-101973896D01*
X137647400Y-102057200D01*
X137647400Y-102489930D01*
X137643530Y-102493800D01*
X131368800Y-102493800D01*
X131262827Y-102507159D01*
X131184166Y-102535782D01*
X131112600Y-102579200D01*
X130909400Y-102731600D01*
X130863665Y-102771265D01*
X130810562Y-102835972D01*
X130771103Y-102909794D01*
X130746805Y-102989896D01*
X130738600Y-103073200D01*
X130738600Y-104471130D01*
X130508065Y-104701665D01*
X130454962Y-104766372D01*
X130415503Y-104840194D01*
X130391205Y-104920296D01*
X130383000Y-105003600D01*
X130383000Y-109931200D01*
X130389254Y-110004011D01*
X130411543Y-110084695D01*
X130449145Y-110159481D01*
X130500614Y-110225494D01*
X132481814Y-112308294D01*
X132553972Y-112369038D01*
X132627794Y-112408497D01*
X132707896Y-112432795D01*
X132791200Y-112441000D01*
X139801600Y-112441000D01*
X139810880Y-112440899D01*
X142143034Y-112390200D01*
X143841130Y-112390200D01*
X144427265Y-112976335D01*
X144491972Y-113029438D01*
X144565794Y-113068897D01*
X144645896Y-113093195D01*
X144729200Y-113101400D01*
X147701000Y-113101400D01*
X147701000Y-114020600D01*
X147645033Y-114020600D01*
X147585327Y-113995869D01*
X147350708Y-113949200D01*
X147111492Y-113949200D01*
X146876873Y-113995869D01*
X146812495Y-114022535D01*
X145121675Y-114027494D01*
X145045327Y-113995869D01*
X144810708Y-113949200D01*
X144571492Y-113949200D01*
X144336873Y-113995869D01*
X144254384Y-114030037D01*
X142599532Y-114034890D01*
X142505327Y-113995869D01*
X142270708Y-113949200D01*
X142031492Y-113949200D01*
X141796873Y-113995869D01*
X141696273Y-114037539D01*
X140077388Y-114042286D01*
X139965327Y-113995869D01*
X139730708Y-113949200D01*
X139491492Y-113949200D01*
X139256873Y-113995869D01*
X139138162Y-114045040D01*
X138810628Y-114046001D01*
X138785858Y-114048513D01*
X138762055Y-114055810D01*
X138740133Y-114067611D01*
X138720934Y-114083461D01*
X138705197Y-114102753D01*
X138693525Y-114124743D01*
X138686368Y-114148589D01*
X138684031Y-114170178D01*
X138679416Y-114377863D01*
X138667814Y-114389465D01*
X138534913Y-114588366D01*
X138449685Y-114794124D01*
X138362779Y-114551708D01*
X138297488Y-114429557D01*
X138054805Y-114359500D01*
X137250705Y-115163600D01*
X137264848Y-115177743D01*
X137085243Y-115357348D01*
X137071100Y-115343205D01*
X137056958Y-115357348D01*
X136877353Y-115177743D01*
X136891495Y-115163600D01*
X136087395Y-114359500D01*
X135844712Y-114429557D01*
X135725072Y-114682918D01*
X135695493Y-114801314D01*
X135607287Y-114588366D01*
X135553115Y-114507292D01*
X135559770Y-114201160D01*
X135558142Y-114179895D01*
X136267000Y-114179895D01*
X137071100Y-114983995D01*
X137875200Y-114179895D01*
X137805143Y-113937212D01*
X137551782Y-113817572D01*
X137279949Y-113749659D01*
X137000090Y-113736083D01*
X136722960Y-113777366D01*
X136459208Y-113871921D01*
X136337057Y-113937212D01*
X136267000Y-114179895D01*
X135558142Y-114179895D01*
X135557869Y-114176337D01*
X135551161Y-114152361D01*
X135539905Y-114130154D01*
X135524533Y-114110570D01*
X135505636Y-114094362D01*
X135483939Y-114082151D01*
X135460278Y-114074408D01*
X135432800Y-114071400D01*
X135067675Y-114071400D01*
X134885327Y-113995869D01*
X134650708Y-113949200D01*
X134411492Y-113949200D01*
X134176873Y-113995869D01*
X133994525Y-114071400D01*
X132527675Y-114071400D01*
X132345327Y-113995869D01*
X132110708Y-113949200D01*
X131871492Y-113949200D01*
X131636873Y-113995869D01*
X131454525Y-114071400D01*
X129987675Y-114071400D01*
X129805327Y-113995869D01*
X129570708Y-113949200D01*
X129331492Y-113949200D01*
X129096873Y-113995869D01*
X128914525Y-114071400D01*
X128422400Y-114071400D01*
X128397624Y-114073840D01*
X128373799Y-114081067D01*
X128351843Y-114092803D01*
X128332597Y-114108597D01*
X128316803Y-114127843D01*
X128305067Y-114149799D01*
X128297840Y-114173624D01*
X128295400Y-114198400D01*
X128295400Y-114780328D01*
X128283369Y-114809373D01*
X128236700Y-115043992D01*
X128236700Y-115283208D01*
X128283369Y-115517827D01*
X128295400Y-115546872D01*
X128295400Y-115981600D01*
X125663209Y-115981600D01*
X125235957Y-115939707D01*
X124846255Y-115822050D01*
X124486821Y-115630936D01*
X124171350Y-115373645D01*
X123911867Y-115059984D01*
X123718249Y-114701895D01*
X123597870Y-114313014D01*
X123553100Y-113887053D01*
X123553100Y-113693958D01*
X123614100Y-113693958D01*
X123614100Y-114093242D01*
X123691996Y-114484854D01*
X123844796Y-114853745D01*
X124066626Y-115185737D01*
X124348963Y-115468074D01*
X124680955Y-115689904D01*
X125049846Y-115842704D01*
X125441458Y-115920600D01*
X125840742Y-115920600D01*
X126232354Y-115842704D01*
X126601245Y-115689904D01*
X126933237Y-115468074D01*
X127215574Y-115185737D01*
X127437404Y-114853745D01*
X127590204Y-114484854D01*
X127668100Y-114093242D01*
X127668100Y-113693958D01*
X127590204Y-113302346D01*
X127437404Y-112933455D01*
X127215574Y-112601463D01*
X126933237Y-112319126D01*
X126601245Y-112097296D01*
X126232354Y-111944496D01*
X125840742Y-111866600D01*
X125441458Y-111866600D01*
X125049846Y-111944496D01*
X124680955Y-112097296D01*
X124348963Y-112319126D01*
X124066626Y-112601463D01*
X123844796Y-112933455D01*
X123691996Y-113302346D01*
X123614100Y-113693958D01*
X123553100Y-113693958D01*
X123553100Y-107730824D01*
X123913010Y-107370915D01*
X123930259Y-107356759D01*
X123986743Y-107287933D01*
X124028714Y-107209410D01*
X124054560Y-107124207D01*
X124061100Y-107057805D01*
X124061100Y-107057804D01*
X124063287Y-107035601D01*
X124061100Y-107013398D01*
X124061100Y-102993802D01*
X124063287Y-102971599D01*
X124061100Y-102949395D01*
X124054560Y-102882993D01*
X124028714Y-102797790D01*
X123986743Y-102719267D01*
X123930259Y-102650441D01*
X123913011Y-102636286D01*
X123553100Y-102276376D01*
X123553100Y-96135709D01*
X123574842Y-95913958D01*
X123614100Y-95913958D01*
X123614100Y-96313242D01*
X123691996Y-96704854D01*
X123844796Y-97073745D01*
X124066626Y-97405737D01*
X124348963Y-97688074D01*
X124680955Y-97909904D01*
X125049846Y-98062704D01*
X125441458Y-98140600D01*
X125840742Y-98140600D01*
X126232354Y-98062704D01*
X126450373Y-97972397D01*
X136560000Y-97972397D01*
X136560000Y-98115603D01*
X136587938Y-98256058D01*
X136642741Y-98388364D01*
X136722302Y-98507436D01*
X136823564Y-98608698D01*
X136942636Y-98688259D01*
X137074942Y-98743062D01*
X137215397Y-98771000D01*
X137358603Y-98771000D01*
X137499058Y-98743062D01*
X137631364Y-98688259D01*
X137750436Y-98608698D01*
X137851698Y-98507436D01*
X137931259Y-98388364D01*
X137986062Y-98256058D01*
X138014000Y-98115603D01*
X138014000Y-97972397D01*
X137986062Y-97831942D01*
X137931259Y-97699636D01*
X137851698Y-97580564D01*
X137750436Y-97479302D01*
X137631364Y-97399741D01*
X137499058Y-97344938D01*
X137358603Y-97317000D01*
X137215397Y-97317000D01*
X137074942Y-97344938D01*
X136942636Y-97399741D01*
X136823564Y-97479302D01*
X136722302Y-97580564D01*
X136642741Y-97699636D01*
X136587938Y-97831942D01*
X136560000Y-97972397D01*
X126450373Y-97972397D01*
X126601245Y-97909904D01*
X126933237Y-97688074D01*
X127215574Y-97405737D01*
X127437404Y-97073745D01*
X127590204Y-96704854D01*
X127594790Y-96681797D01*
X137322000Y-96681797D01*
X137322000Y-96825003D01*
X137349938Y-96965458D01*
X137404741Y-97097764D01*
X137484302Y-97216836D01*
X137585564Y-97318098D01*
X137704636Y-97397659D01*
X137836942Y-97452462D01*
X137977397Y-97480400D01*
X138120603Y-97480400D01*
X138261058Y-97452462D01*
X138393364Y-97397659D01*
X138512436Y-97318098D01*
X138613698Y-97216836D01*
X138693259Y-97097764D01*
X138748062Y-96965458D01*
X138776000Y-96825003D01*
X138776000Y-96681797D01*
X138748062Y-96541342D01*
X138693259Y-96409036D01*
X138613698Y-96289964D01*
X138512436Y-96188702D01*
X138393364Y-96109141D01*
X138261058Y-96054338D01*
X138120603Y-96026400D01*
X137977397Y-96026400D01*
X137836942Y-96054338D01*
X137704636Y-96109141D01*
X137585564Y-96188702D01*
X137484302Y-96289964D01*
X137404741Y-96409036D01*
X137349938Y-96541342D01*
X137322000Y-96681797D01*
X127594790Y-96681797D01*
X127668100Y-96313242D01*
X127668100Y-95913958D01*
X127590204Y-95522346D01*
X127437404Y-95153455D01*
X127215574Y-94821463D01*
X126933237Y-94539126D01*
X126601245Y-94317296D01*
X126232354Y-94164496D01*
X125840742Y-94086600D01*
X125441458Y-94086600D01*
X125049846Y-94164496D01*
X124680955Y-94317296D01*
X124348963Y-94539126D01*
X124066626Y-94821463D01*
X123844796Y-95153455D01*
X123691996Y-95522346D01*
X123614100Y-95913958D01*
X123574842Y-95913958D01*
X123594992Y-95708457D01*
X123712653Y-95318747D01*
X123903765Y-94959318D01*
X124161055Y-94643850D01*
X124474716Y-94384367D01*
X124832805Y-94190749D01*
X125221687Y-94070370D01*
X125647647Y-94025600D01*
X138711679Y-94025600D01*
X138667814Y-94069465D01*
G37*
G04 #@! TD.AperFunction*
D15*
X147701000Y-108967806D02*
X147701000Y-111028200D01*
X146781800Y-111028200D01*
X146781800Y-108839000D01*
X147572194Y-108839000D01*
X147701000Y-108967806D01*
G04 #@! TA.AperFunction,Conductor*
D16*
G36*
X147701000Y-108967806D02*
G01*
X147701000Y-111028200D01*
X146781800Y-111028200D01*
X146781800Y-108839000D01*
X147572194Y-108839000D01*
X147701000Y-108967806D01*
G37*
G04 #@! TD.AperFunction*
D15*
X173449101Y-96120157D02*
X173449100Y-113871491D01*
X173444815Y-113915194D01*
X172017866Y-113904217D01*
X172017866Y-112891200D01*
X172009622Y-112807493D01*
X171985205Y-112727004D01*
X171945555Y-112652824D01*
X171892195Y-112587805D01*
X171827176Y-112534445D01*
X171752996Y-112494795D01*
X171672507Y-112470378D01*
X171588800Y-112462134D01*
X169888800Y-112462134D01*
X169805093Y-112470378D01*
X169724604Y-112494795D01*
X169650424Y-112534445D01*
X169585405Y-112587805D01*
X169532045Y-112652824D01*
X169492395Y-112727004D01*
X169467978Y-112807493D01*
X169459734Y-112891200D01*
X169459734Y-113884539D01*
X161675871Y-113824663D01*
X161753098Y-113747436D01*
X161832659Y-113628364D01*
X161887462Y-113496058D01*
X161915400Y-113355603D01*
X161915400Y-113212397D01*
X161887462Y-113071942D01*
X161832659Y-112939636D01*
X161753098Y-112820564D01*
X161651836Y-112719302D01*
X161532764Y-112639741D01*
X161400458Y-112584938D01*
X161260003Y-112557000D01*
X161116797Y-112557000D01*
X160976342Y-112584938D01*
X160844036Y-112639741D01*
X160724964Y-112719302D01*
X160623702Y-112820564D01*
X160544141Y-112939636D01*
X160489338Y-113071942D01*
X160461400Y-113212397D01*
X160461400Y-113355603D01*
X160489338Y-113496058D01*
X160516415Y-113561429D01*
X159130166Y-112227294D01*
X159110622Y-112211871D01*
X159088445Y-112200558D01*
X159064486Y-112193789D01*
X159042831Y-112191802D01*
X150216331Y-112141002D01*
X150215600Y-112141000D01*
X149428200Y-112141000D01*
X149428200Y-111994403D01*
X149442594Y-112002097D01*
X149522696Y-112026395D01*
X149606000Y-112034600D01*
X151282400Y-112034600D01*
X151395613Y-112019318D01*
X151473760Y-111989320D01*
X151544553Y-111944653D01*
X152001753Y-111589053D01*
X152041535Y-111553935D01*
X152094638Y-111489228D01*
X152134097Y-111415406D01*
X152158395Y-111335304D01*
X152166600Y-111252000D01*
X152166600Y-109643697D01*
X156537100Y-109643697D01*
X156537100Y-109786903D01*
X156565038Y-109927358D01*
X156619841Y-110059664D01*
X156699402Y-110178736D01*
X156800664Y-110279998D01*
X156919736Y-110359559D01*
X157052042Y-110414362D01*
X157192497Y-110442300D01*
X157335703Y-110442300D01*
X157476158Y-110414362D01*
X157608464Y-110359559D01*
X157727536Y-110279998D01*
X157828798Y-110178736D01*
X157908359Y-110059664D01*
X157963162Y-109927358D01*
X157986745Y-109808797D01*
X161071000Y-109808797D01*
X161071000Y-109952003D01*
X161098938Y-110092458D01*
X161153741Y-110224764D01*
X161233302Y-110343836D01*
X161334564Y-110445098D01*
X161453636Y-110524659D01*
X161585942Y-110579462D01*
X161726397Y-110607400D01*
X161869603Y-110607400D01*
X162010058Y-110579462D01*
X162142364Y-110524659D01*
X162261436Y-110445098D01*
X162362698Y-110343836D01*
X162442259Y-110224764D01*
X162497062Y-110092458D01*
X162525000Y-109952003D01*
X162525000Y-109808797D01*
X162497062Y-109668342D01*
X162442259Y-109536036D01*
X162362698Y-109416964D01*
X162261436Y-109315702D01*
X162142364Y-109236141D01*
X162010058Y-109181338D01*
X161869603Y-109153400D01*
X161726397Y-109153400D01*
X161585942Y-109181338D01*
X161453636Y-109236141D01*
X161334564Y-109315702D01*
X161233302Y-109416964D01*
X161153741Y-109536036D01*
X161098938Y-109668342D01*
X161071000Y-109808797D01*
X157986745Y-109808797D01*
X157991100Y-109786903D01*
X157991100Y-109643697D01*
X157963162Y-109503242D01*
X157908359Y-109370936D01*
X157828798Y-109251864D01*
X157727536Y-109150602D01*
X157608464Y-109071041D01*
X157476158Y-109016238D01*
X157335703Y-108988300D01*
X157192497Y-108988300D01*
X157052042Y-109016238D01*
X156919736Y-109071041D01*
X156800664Y-109150602D01*
X156699402Y-109251864D01*
X156619841Y-109370936D01*
X156565038Y-109503242D01*
X156537100Y-109643697D01*
X152166600Y-109643697D01*
X152166600Y-107516629D01*
X152258836Y-107578259D01*
X152391142Y-107633062D01*
X152531597Y-107661000D01*
X152633378Y-107661000D01*
X152568541Y-107758036D01*
X152513738Y-107890342D01*
X152485800Y-108030797D01*
X152485800Y-108174003D01*
X152513738Y-108314458D01*
X152568541Y-108446764D01*
X152648102Y-108565836D01*
X152749364Y-108667098D01*
X152868436Y-108746659D01*
X153000742Y-108801462D01*
X153141197Y-108829400D01*
X153284403Y-108829400D01*
X153424858Y-108801462D01*
X153557164Y-108746659D01*
X153676236Y-108667098D01*
X153777498Y-108565836D01*
X153857059Y-108446764D01*
X153911862Y-108314458D01*
X153939800Y-108174003D01*
X153939800Y-108030797D01*
X153911862Y-107890342D01*
X153857059Y-107758036D01*
X153777498Y-107638964D01*
X153676236Y-107537702D01*
X153557164Y-107458141D01*
X153424858Y-107403338D01*
X153284403Y-107375400D01*
X153182622Y-107375400D01*
X153247459Y-107278364D01*
X153302262Y-107146058D01*
X153330200Y-107005603D01*
X153330200Y-106862397D01*
X153302262Y-106721942D01*
X153247459Y-106589636D01*
X153167898Y-106470564D01*
X153066636Y-106369302D01*
X152947564Y-106289741D01*
X152815258Y-106234938D01*
X152674803Y-106207000D01*
X152531597Y-106207000D01*
X152391142Y-106234938D01*
X152258836Y-106289741D01*
X152166600Y-106351371D01*
X152166600Y-105325072D01*
X152438563Y-104871800D01*
X159885666Y-104871800D01*
X159810902Y-104946564D01*
X159731341Y-105065636D01*
X159676538Y-105197942D01*
X159648600Y-105338397D01*
X159648600Y-105481603D01*
X159676538Y-105622058D01*
X159731341Y-105754364D01*
X159785559Y-105835507D01*
X159785502Y-105835564D01*
X159705941Y-105954636D01*
X159651138Y-106086942D01*
X159623200Y-106227397D01*
X159623200Y-106370603D01*
X159651138Y-106511058D01*
X159705941Y-106643364D01*
X159785502Y-106762436D01*
X159785559Y-106762493D01*
X159731341Y-106843636D01*
X159676538Y-106975942D01*
X159648600Y-107116397D01*
X159648600Y-107259603D01*
X159676538Y-107400058D01*
X159731341Y-107532364D01*
X159785559Y-107613507D01*
X159785502Y-107613564D01*
X159705941Y-107732636D01*
X159651138Y-107864942D01*
X159623200Y-108005397D01*
X159623200Y-108148603D01*
X159651138Y-108289058D01*
X159705941Y-108421364D01*
X159785502Y-108540436D01*
X159886764Y-108641698D01*
X160005836Y-108721259D01*
X160138142Y-108776062D01*
X160278597Y-108804000D01*
X160421803Y-108804000D01*
X160562258Y-108776062D01*
X160694564Y-108721259D01*
X160813636Y-108641698D01*
X160914898Y-108540436D01*
X160994459Y-108421364D01*
X161049262Y-108289058D01*
X161077200Y-108148603D01*
X161077200Y-108005397D01*
X161049262Y-107864942D01*
X160994459Y-107732636D01*
X160940241Y-107651493D01*
X160940298Y-107651436D01*
X161019859Y-107532364D01*
X161074662Y-107400058D01*
X161102600Y-107259603D01*
X161102600Y-107116397D01*
X161074662Y-106975942D01*
X161019859Y-106843636D01*
X160940298Y-106724564D01*
X160940241Y-106724507D01*
X160994459Y-106643364D01*
X161049262Y-106511058D01*
X161077200Y-106370603D01*
X161077200Y-106227397D01*
X161049262Y-106086942D01*
X160994459Y-105954636D01*
X160940241Y-105873493D01*
X160940298Y-105873436D01*
X161019859Y-105754364D01*
X161074662Y-105622058D01*
X161102600Y-105481603D01*
X161102600Y-105338397D01*
X161074662Y-105197942D01*
X161019859Y-105065636D01*
X160940298Y-104946564D01*
X160865534Y-104871800D01*
X163931600Y-104871800D01*
X164015342Y-104863508D01*
X164095418Y-104839125D01*
X164169200Y-104799589D01*
X164233850Y-104746419D01*
X164286885Y-104681657D01*
X164490085Y-104376857D01*
X164529297Y-104303406D01*
X164553595Y-104223304D01*
X164561800Y-104140000D01*
X164561800Y-100670919D01*
X166028925Y-99333246D01*
X168202434Y-99315431D01*
X168202434Y-100813600D01*
X168210678Y-100897307D01*
X168235095Y-100977796D01*
X168274745Y-101051976D01*
X168328105Y-101116995D01*
X168393124Y-101170355D01*
X168467304Y-101210005D01*
X168547793Y-101234422D01*
X168631500Y-101242666D01*
X169274956Y-101242666D01*
X169109013Y-101275674D01*
X168876614Y-101371937D01*
X168667460Y-101511689D01*
X168489589Y-101689560D01*
X168349837Y-101898714D01*
X168253574Y-102131113D01*
X168204500Y-102377826D01*
X168204500Y-102629374D01*
X168253574Y-102876087D01*
X168349837Y-103108486D01*
X168489589Y-103317640D01*
X168667460Y-103495511D01*
X168876614Y-103635263D01*
X169109013Y-103731526D01*
X169320534Y-103773600D01*
X169109013Y-103815674D01*
X168876614Y-103911937D01*
X168667460Y-104051689D01*
X168489589Y-104229560D01*
X168349837Y-104438714D01*
X168253574Y-104671113D01*
X168204500Y-104917826D01*
X168204500Y-105169374D01*
X168253574Y-105416087D01*
X168349837Y-105648486D01*
X168489589Y-105857640D01*
X168667460Y-106035511D01*
X168876614Y-106175263D01*
X169109013Y-106271526D01*
X169320534Y-106313600D01*
X169109013Y-106355674D01*
X168876614Y-106451937D01*
X168667460Y-106591689D01*
X168489589Y-106769560D01*
X168349837Y-106978714D01*
X168253574Y-107211113D01*
X168204500Y-107457826D01*
X168204500Y-107709374D01*
X168253574Y-107956087D01*
X168349837Y-108188486D01*
X168489589Y-108397640D01*
X168667460Y-108575511D01*
X168876614Y-108715263D01*
X169109013Y-108811526D01*
X169320534Y-108853600D01*
X169109013Y-108895674D01*
X168876614Y-108991937D01*
X168667460Y-109131689D01*
X168489589Y-109309560D01*
X168349837Y-109518714D01*
X168253574Y-109751113D01*
X168204500Y-109997826D01*
X168204500Y-110249374D01*
X168253574Y-110496087D01*
X168349837Y-110728486D01*
X168489589Y-110937640D01*
X168667460Y-111115511D01*
X168876614Y-111255263D01*
X169109013Y-111351526D01*
X169355726Y-111400600D01*
X169607274Y-111400600D01*
X169853987Y-111351526D01*
X170086386Y-111255263D01*
X170295540Y-111115511D01*
X170473411Y-110937640D01*
X170613163Y-110728486D01*
X170709426Y-110496087D01*
X170751500Y-110284566D01*
X170793574Y-110496087D01*
X170889837Y-110728486D01*
X171029589Y-110937640D01*
X171207460Y-111115511D01*
X171416614Y-111255263D01*
X171649013Y-111351526D01*
X171895726Y-111400600D01*
X172147274Y-111400600D01*
X172393987Y-111351526D01*
X172626386Y-111255263D01*
X172835540Y-111115511D01*
X173013411Y-110937640D01*
X173153163Y-110728486D01*
X173249426Y-110496087D01*
X173298500Y-110249374D01*
X173298500Y-109997826D01*
X173249426Y-109751113D01*
X173153163Y-109518714D01*
X173013411Y-109309560D01*
X172835540Y-109131689D01*
X172626386Y-108991937D01*
X172393987Y-108895674D01*
X172182466Y-108853600D01*
X172393987Y-108811526D01*
X172626386Y-108715263D01*
X172835540Y-108575511D01*
X173013411Y-108397640D01*
X173153163Y-108188486D01*
X173249426Y-107956087D01*
X173298500Y-107709374D01*
X173298500Y-107457826D01*
X173249426Y-107211113D01*
X173153163Y-106978714D01*
X173013411Y-106769560D01*
X172835540Y-106591689D01*
X172626386Y-106451937D01*
X172393987Y-106355674D01*
X172182466Y-106313600D01*
X172393987Y-106271526D01*
X172626386Y-106175263D01*
X172835540Y-106035511D01*
X173013411Y-105857640D01*
X173153163Y-105648486D01*
X173249426Y-105416087D01*
X173298500Y-105169374D01*
X173298500Y-104917826D01*
X173249426Y-104671113D01*
X173153163Y-104438714D01*
X173013411Y-104229560D01*
X172835540Y-104051689D01*
X172626386Y-103911937D01*
X172393987Y-103815674D01*
X172182466Y-103773600D01*
X172393987Y-103731526D01*
X172626386Y-103635263D01*
X172835540Y-103495511D01*
X173013411Y-103317640D01*
X173153163Y-103108486D01*
X173249426Y-102876087D01*
X173298500Y-102629374D01*
X173298500Y-102377826D01*
X173249426Y-102131113D01*
X173153163Y-101898714D01*
X173013411Y-101689560D01*
X172835540Y-101511689D01*
X172626386Y-101371937D01*
X172393987Y-101275674D01*
X172182466Y-101233600D01*
X172393987Y-101191526D01*
X172626386Y-101095263D01*
X172835540Y-100955511D01*
X173013411Y-100777640D01*
X173153163Y-100568486D01*
X173249426Y-100336087D01*
X173298500Y-100089374D01*
X173298500Y-99837826D01*
X173249426Y-99591113D01*
X173153163Y-99358714D01*
X173013411Y-99149560D01*
X172835540Y-98971689D01*
X172681339Y-98868656D01*
X172905631Y-98664754D01*
X172968079Y-98593858D01*
X173009169Y-98520930D01*
X173035241Y-98441387D01*
X173045295Y-98358287D01*
X173096095Y-96072287D01*
X173086886Y-95986600D01*
X173435064Y-95986600D01*
X173449101Y-96120157D01*
G04 #@! TA.AperFunction,Conductor*
D16*
G36*
X173449101Y-96120157D02*
G01*
X173449100Y-113871491D01*
X173444815Y-113915194D01*
X172017866Y-113904217D01*
X172017866Y-112891200D01*
X172009622Y-112807493D01*
X171985205Y-112727004D01*
X171945555Y-112652824D01*
X171892195Y-112587805D01*
X171827176Y-112534445D01*
X171752996Y-112494795D01*
X171672507Y-112470378D01*
X171588800Y-112462134D01*
X169888800Y-112462134D01*
X169805093Y-112470378D01*
X169724604Y-112494795D01*
X169650424Y-112534445D01*
X169585405Y-112587805D01*
X169532045Y-112652824D01*
X169492395Y-112727004D01*
X169467978Y-112807493D01*
X169459734Y-112891200D01*
X169459734Y-113884539D01*
X161675871Y-113824663D01*
X161753098Y-113747436D01*
X161832659Y-113628364D01*
X161887462Y-113496058D01*
X161915400Y-113355603D01*
X161915400Y-113212397D01*
X161887462Y-113071942D01*
X161832659Y-112939636D01*
X161753098Y-112820564D01*
X161651836Y-112719302D01*
X161532764Y-112639741D01*
X161400458Y-112584938D01*
X161260003Y-112557000D01*
X161116797Y-112557000D01*
X160976342Y-112584938D01*
X160844036Y-112639741D01*
X160724964Y-112719302D01*
X160623702Y-112820564D01*
X160544141Y-112939636D01*
X160489338Y-113071942D01*
X160461400Y-113212397D01*
X160461400Y-113355603D01*
X160489338Y-113496058D01*
X160516415Y-113561429D01*
X159130166Y-112227294D01*
X159110622Y-112211871D01*
X159088445Y-112200558D01*
X159064486Y-112193789D01*
X159042831Y-112191802D01*
X150216331Y-112141002D01*
X150215600Y-112141000D01*
X149428200Y-112141000D01*
X149428200Y-111994403D01*
X149442594Y-112002097D01*
X149522696Y-112026395D01*
X149606000Y-112034600D01*
X151282400Y-112034600D01*
X151395613Y-112019318D01*
X151473760Y-111989320D01*
X151544553Y-111944653D01*
X152001753Y-111589053D01*
X152041535Y-111553935D01*
X152094638Y-111489228D01*
X152134097Y-111415406D01*
X152158395Y-111335304D01*
X152166600Y-111252000D01*
X152166600Y-109643697D01*
X156537100Y-109643697D01*
X156537100Y-109786903D01*
X156565038Y-109927358D01*
X156619841Y-110059664D01*
X156699402Y-110178736D01*
X156800664Y-110279998D01*
X156919736Y-110359559D01*
X157052042Y-110414362D01*
X157192497Y-110442300D01*
X157335703Y-110442300D01*
X157476158Y-110414362D01*
X157608464Y-110359559D01*
X157727536Y-110279998D01*
X157828798Y-110178736D01*
X157908359Y-110059664D01*
X157963162Y-109927358D01*
X157986745Y-109808797D01*
X161071000Y-109808797D01*
X161071000Y-109952003D01*
X161098938Y-110092458D01*
X161153741Y-110224764D01*
X161233302Y-110343836D01*
X161334564Y-110445098D01*
X161453636Y-110524659D01*
X161585942Y-110579462D01*
X161726397Y-110607400D01*
X161869603Y-110607400D01*
X162010058Y-110579462D01*
X162142364Y-110524659D01*
X162261436Y-110445098D01*
X162362698Y-110343836D01*
X162442259Y-110224764D01*
X162497062Y-110092458D01*
X162525000Y-109952003D01*
X162525000Y-109808797D01*
X162497062Y-109668342D01*
X162442259Y-109536036D01*
X162362698Y-109416964D01*
X162261436Y-109315702D01*
X162142364Y-109236141D01*
X162010058Y-109181338D01*
X161869603Y-109153400D01*
X161726397Y-109153400D01*
X161585942Y-109181338D01*
X161453636Y-109236141D01*
X161334564Y-109315702D01*
X161233302Y-109416964D01*
X161153741Y-109536036D01*
X161098938Y-109668342D01*
X161071000Y-109808797D01*
X157986745Y-109808797D01*
X157991100Y-109786903D01*
X157991100Y-109643697D01*
X157963162Y-109503242D01*
X157908359Y-109370936D01*
X157828798Y-109251864D01*
X157727536Y-109150602D01*
X157608464Y-109071041D01*
X157476158Y-109016238D01*
X157335703Y-108988300D01*
X157192497Y-108988300D01*
X157052042Y-109016238D01*
X156919736Y-109071041D01*
X156800664Y-109150602D01*
X156699402Y-109251864D01*
X156619841Y-109370936D01*
X156565038Y-109503242D01*
X156537100Y-109643697D01*
X152166600Y-109643697D01*
X152166600Y-107516629D01*
X152258836Y-107578259D01*
X152391142Y-107633062D01*
X152531597Y-107661000D01*
X152633378Y-107661000D01*
X152568541Y-107758036D01*
X152513738Y-107890342D01*
X152485800Y-108030797D01*
X152485800Y-108174003D01*
X152513738Y-108314458D01*
X152568541Y-108446764D01*
X152648102Y-108565836D01*
X152749364Y-108667098D01*
X152868436Y-108746659D01*
X153000742Y-108801462D01*
X153141197Y-108829400D01*
X153284403Y-108829400D01*
X153424858Y-108801462D01*
X153557164Y-108746659D01*
X153676236Y-108667098D01*
X153777498Y-108565836D01*
X153857059Y-108446764D01*
X153911862Y-108314458D01*
X153939800Y-108174003D01*
X153939800Y-108030797D01*
X153911862Y-107890342D01*
X153857059Y-107758036D01*
X153777498Y-107638964D01*
X153676236Y-107537702D01*
X153557164Y-107458141D01*
X153424858Y-107403338D01*
X153284403Y-107375400D01*
X153182622Y-107375400D01*
X153247459Y-107278364D01*
X153302262Y-107146058D01*
X153330200Y-107005603D01*
X153330200Y-106862397D01*
X153302262Y-106721942D01*
X153247459Y-106589636D01*
X153167898Y-106470564D01*
X153066636Y-106369302D01*
X152947564Y-106289741D01*
X152815258Y-106234938D01*
X152674803Y-106207000D01*
X152531597Y-106207000D01*
X152391142Y-106234938D01*
X152258836Y-106289741D01*
X152166600Y-106351371D01*
X152166600Y-105325072D01*
X152438563Y-104871800D01*
X159885666Y-104871800D01*
X159810902Y-104946564D01*
X159731341Y-105065636D01*
X159676538Y-105197942D01*
X159648600Y-105338397D01*
X159648600Y-105481603D01*
X159676538Y-105622058D01*
X159731341Y-105754364D01*
X159785559Y-105835507D01*
X159785502Y-105835564D01*
X159705941Y-105954636D01*
X159651138Y-106086942D01*
X159623200Y-106227397D01*
X159623200Y-106370603D01*
X159651138Y-106511058D01*
X159705941Y-106643364D01*
X159785502Y-106762436D01*
X159785559Y-106762493D01*
X159731341Y-106843636D01*
X159676538Y-106975942D01*
X159648600Y-107116397D01*
X159648600Y-107259603D01*
X159676538Y-107400058D01*
X159731341Y-107532364D01*
X159785559Y-107613507D01*
X159785502Y-107613564D01*
X159705941Y-107732636D01*
X159651138Y-107864942D01*
X159623200Y-108005397D01*
X159623200Y-108148603D01*
X159651138Y-108289058D01*
X159705941Y-108421364D01*
X159785502Y-108540436D01*
X159886764Y-108641698D01*
X160005836Y-108721259D01*
X160138142Y-108776062D01*
X160278597Y-108804000D01*
X160421803Y-108804000D01*
X160562258Y-108776062D01*
X160694564Y-108721259D01*
X160813636Y-108641698D01*
X160914898Y-108540436D01*
X160994459Y-108421364D01*
X161049262Y-108289058D01*
X161077200Y-108148603D01*
X161077200Y-108005397D01*
X161049262Y-107864942D01*
X160994459Y-107732636D01*
X160940241Y-107651493D01*
X160940298Y-107651436D01*
X161019859Y-107532364D01*
X161074662Y-107400058D01*
X161102600Y-107259603D01*
X161102600Y-107116397D01*
X161074662Y-106975942D01*
X161019859Y-106843636D01*
X160940298Y-106724564D01*
X160940241Y-106724507D01*
X160994459Y-106643364D01*
X161049262Y-106511058D01*
X161077200Y-106370603D01*
X161077200Y-106227397D01*
X161049262Y-106086942D01*
X160994459Y-105954636D01*
X160940241Y-105873493D01*
X160940298Y-105873436D01*
X161019859Y-105754364D01*
X161074662Y-105622058D01*
X161102600Y-105481603D01*
X161102600Y-105338397D01*
X161074662Y-105197942D01*
X161019859Y-105065636D01*
X160940298Y-104946564D01*
X160865534Y-104871800D01*
X163931600Y-104871800D01*
X164015342Y-104863508D01*
X164095418Y-104839125D01*
X164169200Y-104799589D01*
X164233850Y-104746419D01*
X164286885Y-104681657D01*
X164490085Y-104376857D01*
X164529297Y-104303406D01*
X164553595Y-104223304D01*
X164561800Y-104140000D01*
X164561800Y-100670919D01*
X166028925Y-99333246D01*
X168202434Y-99315431D01*
X168202434Y-100813600D01*
X168210678Y-100897307D01*
X168235095Y-100977796D01*
X168274745Y-101051976D01*
X168328105Y-101116995D01*
X168393124Y-101170355D01*
X168467304Y-101210005D01*
X168547793Y-101234422D01*
X168631500Y-101242666D01*
X169274956Y-101242666D01*
X169109013Y-101275674D01*
X168876614Y-101371937D01*
X168667460Y-101511689D01*
X168489589Y-101689560D01*
X168349837Y-101898714D01*
X168253574Y-102131113D01*
X168204500Y-102377826D01*
X168204500Y-102629374D01*
X168253574Y-102876087D01*
X168349837Y-103108486D01*
X168489589Y-103317640D01*
X168667460Y-103495511D01*
X168876614Y-103635263D01*
X169109013Y-103731526D01*
X169320534Y-103773600D01*
X169109013Y-103815674D01*
X168876614Y-103911937D01*
X168667460Y-104051689D01*
X168489589Y-104229560D01*
X168349837Y-104438714D01*
X168253574Y-104671113D01*
X168204500Y-104917826D01*
X168204500Y-105169374D01*
X168253574Y-105416087D01*
X168349837Y-105648486D01*
X168489589Y-105857640D01*
X168667460Y-106035511D01*
X168876614Y-106175263D01*
X169109013Y-106271526D01*
X169320534Y-106313600D01*
X169109013Y-106355674D01*
X168876614Y-106451937D01*
X168667460Y-106591689D01*
X168489589Y-106769560D01*
X168349837Y-106978714D01*
X168253574Y-107211113D01*
X168204500Y-107457826D01*
X168204500Y-107709374D01*
X168253574Y-107956087D01*
X168349837Y-108188486D01*
X168489589Y-108397640D01*
X168667460Y-108575511D01*
X168876614Y-108715263D01*
X169109013Y-108811526D01*
X169320534Y-108853600D01*
X169109013Y-108895674D01*
X168876614Y-108991937D01*
X168667460Y-109131689D01*
X168489589Y-109309560D01*
X168349837Y-109518714D01*
X168253574Y-109751113D01*
X168204500Y-109997826D01*
X168204500Y-110249374D01*
X168253574Y-110496087D01*
X168349837Y-110728486D01*
X168489589Y-110937640D01*
X168667460Y-111115511D01*
X168876614Y-111255263D01*
X169109013Y-111351526D01*
X169355726Y-111400600D01*
X169607274Y-111400600D01*
X169853987Y-111351526D01*
X170086386Y-111255263D01*
X170295540Y-111115511D01*
X170473411Y-110937640D01*
X170613163Y-110728486D01*
X170709426Y-110496087D01*
X170751500Y-110284566D01*
X170793574Y-110496087D01*
X170889837Y-110728486D01*
X171029589Y-110937640D01*
X171207460Y-111115511D01*
X171416614Y-111255263D01*
X171649013Y-111351526D01*
X171895726Y-111400600D01*
X172147274Y-111400600D01*
X172393987Y-111351526D01*
X172626386Y-111255263D01*
X172835540Y-111115511D01*
X173013411Y-110937640D01*
X173153163Y-110728486D01*
X173249426Y-110496087D01*
X173298500Y-110249374D01*
X173298500Y-109997826D01*
X173249426Y-109751113D01*
X173153163Y-109518714D01*
X173013411Y-109309560D01*
X172835540Y-109131689D01*
X172626386Y-108991937D01*
X172393987Y-108895674D01*
X172182466Y-108853600D01*
X172393987Y-108811526D01*
X172626386Y-108715263D01*
X172835540Y-108575511D01*
X173013411Y-108397640D01*
X173153163Y-108188486D01*
X173249426Y-107956087D01*
X173298500Y-107709374D01*
X173298500Y-107457826D01*
X173249426Y-107211113D01*
X173153163Y-106978714D01*
X173013411Y-106769560D01*
X172835540Y-106591689D01*
X172626386Y-106451937D01*
X172393987Y-106355674D01*
X172182466Y-106313600D01*
X172393987Y-106271526D01*
X172626386Y-106175263D01*
X172835540Y-106035511D01*
X173013411Y-105857640D01*
X173153163Y-105648486D01*
X173249426Y-105416087D01*
X173298500Y-105169374D01*
X173298500Y-104917826D01*
X173249426Y-104671113D01*
X173153163Y-104438714D01*
X173013411Y-104229560D01*
X172835540Y-104051689D01*
X172626386Y-103911937D01*
X172393987Y-103815674D01*
X172182466Y-103773600D01*
X172393987Y-103731526D01*
X172626386Y-103635263D01*
X172835540Y-103495511D01*
X173013411Y-103317640D01*
X173153163Y-103108486D01*
X173249426Y-102876087D01*
X173298500Y-102629374D01*
X173298500Y-102377826D01*
X173249426Y-102131113D01*
X173153163Y-101898714D01*
X173013411Y-101689560D01*
X172835540Y-101511689D01*
X172626386Y-101371937D01*
X172393987Y-101275674D01*
X172182466Y-101233600D01*
X172393987Y-101191526D01*
X172626386Y-101095263D01*
X172835540Y-100955511D01*
X173013411Y-100777640D01*
X173153163Y-100568486D01*
X173249426Y-100336087D01*
X173298500Y-100089374D01*
X173298500Y-99837826D01*
X173249426Y-99591113D01*
X173153163Y-99358714D01*
X173013411Y-99149560D01*
X172835540Y-98971689D01*
X172681339Y-98868656D01*
X172905631Y-98664754D01*
X172968079Y-98593858D01*
X173009169Y-98520930D01*
X173035241Y-98441387D01*
X173045295Y-98358287D01*
X173096095Y-96072287D01*
X173086886Y-95986600D01*
X173435064Y-95986600D01*
X173449101Y-96120157D01*
G37*
G04 #@! TD.AperFunction*
D15*
X148264612Y-106118060D02*
X148264600Y-106121200D01*
X148264600Y-107653666D01*
X148203931Y-107714335D01*
X147904200Y-107524505D01*
X147904200Y-101473000D01*
X147901760Y-101448224D01*
X147894533Y-101424399D01*
X147882797Y-101402443D01*
X147864061Y-101380349D01*
X147457661Y-100999349D01*
X147455759Y-100997602D01*
X145946646Y-99639400D01*
X148312249Y-99639400D01*
X148264612Y-106118060D01*
G04 #@! TA.AperFunction,Conductor*
D16*
G36*
X148264612Y-106118060D02*
G01*
X148264600Y-106121200D01*
X148264600Y-107653666D01*
X148203931Y-107714335D01*
X147904200Y-107524505D01*
X147904200Y-101473000D01*
X147901760Y-101448224D01*
X147894533Y-101424399D01*
X147882797Y-101402443D01*
X147864061Y-101380349D01*
X147457661Y-100999349D01*
X147455759Y-100997602D01*
X145946646Y-99639400D01*
X148312249Y-99639400D01*
X148264612Y-106118060D01*
G37*
G04 #@! TD.AperFunction*
D15*
X144336873Y-96011331D02*
X144454600Y-96034749D01*
X144454600Y-98348800D01*
X144460474Y-98419380D01*
X144482335Y-98500182D01*
X144519540Y-98575166D01*
X144570659Y-98641451D01*
X145383459Y-99505051D01*
X145457172Y-99567438D01*
X145489363Y-99584645D01*
X143802711Y-99543507D01*
X141724036Y-98207216D01*
X141605000Y-98008822D01*
X141605000Y-97080606D01*
X141632206Y-97053400D01*
X143306800Y-97053400D01*
X143331576Y-97050960D01*
X143355401Y-97043733D01*
X143377357Y-97031997D01*
X143400772Y-97011829D01*
X143908772Y-96453029D01*
X143923633Y-96433055D01*
X143934312Y-96410565D01*
X143941170Y-96380237D01*
X143980534Y-95986600D01*
X144277167Y-95986600D01*
X144336873Y-96011331D01*
G04 #@! TA.AperFunction,Conductor*
D16*
G36*
X144336873Y-96011331D02*
G01*
X144454600Y-96034749D01*
X144454600Y-98348800D01*
X144460474Y-98419380D01*
X144482335Y-98500182D01*
X144519540Y-98575166D01*
X144570659Y-98641451D01*
X145383459Y-99505051D01*
X145457172Y-99567438D01*
X145489363Y-99584645D01*
X143802711Y-99543507D01*
X141724036Y-98207216D01*
X141605000Y-98008822D01*
X141605000Y-97080606D01*
X141632206Y-97053400D01*
X143306800Y-97053400D01*
X143331576Y-97050960D01*
X143355401Y-97043733D01*
X143377357Y-97031997D01*
X143400772Y-97011829D01*
X143908772Y-96453029D01*
X143923633Y-96433055D01*
X143934312Y-96410565D01*
X143941170Y-96380237D01*
X143980534Y-95986600D01*
X144277167Y-95986600D01*
X144336873Y-96011331D01*
G37*
G04 #@! TD.AperFunction*
M02*
