M48
; DRILL file {KiCad (5.1.9)-1} date 04/27/21 18:12:34
; FORMAT={-:-/ absolute / inch / decimal}
; #@! TF.CreationDate,2021-04-27T18:12:34+02:00
; #@! TF.GenerationSoftware,Kicad,Pcbnew,(5.1.9)-1
; #@! TF.FileFunction,Plated,1,4,PTH
FMAT,2
INCH
T1C0.0118
T2C0.0354
T3C0.0394
T4C0.0984
%
G90
G05
T1
X4.9943Y-4.2293
X5.02Y-3.877
X5.045Y-4.245
X5.116Y-4.242
X5.138Y-4.122
X5.1758Y-3.8651
X5.186Y-4.418
X5.22Y-4.16
X5.2225Y-4.2825
X5.26Y-4.33
X5.28Y-4.285
X5.386Y-4.328
X5.4Y-4.02
X5.405Y-3.86
X5.4223Y-4.3797
X5.435Y-3.8092
X5.464Y-4.18
X5.464Y-4.212
X5.475Y-3.9
X5.504Y-4.1
X5.508Y-4.394
X5.518Y-3.936
X5.5275Y-3.88
X5.535Y-3.83
X5.6119Y-4.4504
X5.6286Y-4.218
X5.6287Y-4.08
X5.636Y-3.85
X5.644Y-3.962
X5.65Y-4.042
X5.656Y-3.824
X5.68Y-3.852
X5.706Y-3.824
X5.712Y-4.27
X5.74Y-3.864
X5.744Y-4.06
X5.752Y-3.97
X5.754Y-4.09
X5.77Y-4.376
X5.774Y-4.138
X5.8157Y-4.366
X5.828Y-4.41
X5.8345Y-3.8202
X5.84Y-4.16
X5.842Y-4.094
X5.856Y-4.26
X5.872Y-3.946
X5.872Y-3.98
X5.8884Y-4.258
X5.8996Y-3.8215
X5.9Y-4.094
X5.9Y-4.158
X5.9113Y-4.37
X5.914Y-3.946
X5.916Y-3.98
X5.94Y-3.93
X5.958Y-4.096
X5.96Y-4.156
X5.9616Y-3.8206
X5.996Y-4.378
X6.008Y-4.21
X6.026Y-4.378
X6.0303Y-3.9257
X6.032Y-4.256
X6.058Y-4.378
X6.066Y-3.8202
X6.082Y-3.924
X6.09Y-4.378
X6.12Y-4.378
X6.138Y-3.842
X6.15Y-3.705
X6.156Y-4.378
X6.164Y-3.818
X6.1915Y-4.3195
X6.192Y-3.842
X6.194Y-4.378
X6.23Y-3.842
X6.23Y-4.378
X6.246Y-3.816
X6.266Y-3.842
X6.31Y-4.406
X6.312Y-3.98
X6.313Y-3.945
X6.313Y-4.015
X6.313Y-4.185
X6.313Y-4.255
X6.314Y-4.15
X6.314Y-4.22
X6.316Y-4.05
X6.346Y-4.46
X6.35Y-4.408
X6.37Y-4.326
X6.416Y-3.918
X6.418Y-4.1
X6.444Y-4.096
X6.468Y-4.466
X6.526Y-4.478
X6.542Y-3.786
X6.544Y-4.096
X6.548Y-4.306
X6.562Y-4.478
X6.564Y-3.886
X6.578Y-3.786
X6.594Y-4.02
X6.594Y-4.098
X6.594Y-4.208
X6.594Y-4.308
X6.594Y-4.364
X6.594Y-4.44
X6.594Y-4.478
X6.596Y-3.948
X6.6Y-4.15
X6.604Y-3.886
T2
X5.0965Y-4.534
X5.1965Y-4.534
X5.2965Y-4.534
X5.3965Y-4.534
X5.4965Y-3.734
X5.4965Y-4.534
X5.5965Y-3.734
X5.5965Y-4.534
X5.6965Y-3.734
X5.6965Y-4.534
X5.7965Y-3.734
X5.7965Y-4.534
X5.8965Y-3.734
X5.8965Y-4.534
X5.9965Y-3.734
X5.9965Y-4.534
X6.0965Y-3.734
X6.0965Y-4.534
X6.1965Y-3.734
X6.1965Y-4.534
X6.2965Y-3.734
X6.2965Y-4.534
X6.3965Y-3.734
X6.3965Y-4.534
X6.4965Y-3.734
X6.4965Y-4.534
X6.5965Y-3.734
X6.5965Y-4.534
T3
X6.6725Y-3.9356
X6.6725Y-4.0356
X6.6725Y-4.1356
X6.6725Y-4.2356
X6.6725Y-4.3356
X6.722Y-4.478
X6.73Y-3.792
X6.7725Y-3.9356
X6.7725Y-4.0356
X6.7725Y-4.1356
X6.7725Y-4.2356
X6.7725Y-4.3356
T4
X4.9465Y-3.784
X4.9465Y-4.484
T0
M30
